<?xml version="1.0" encoding="UTF-8"?>
<svg width="114px" height="167px" viewBox="0 0 114 167" version="1.1" xmlns="http://www.w3.org/2000/svg" xmlns:xlink="http://www.w3.org/1999/xlink">
    <!-- Generator: Sketch 44.1 (41455) - http://www.bohemiancoding.com/sketch -->
    <title>Animal_Success/Ape NoFlag</title>
    <desc>Created with Sketch.</desc>
    <defs>
        <path d="M1.5506,4.2931 C3.6036,10.5971 2.8456,30.4361 1.1346,34.1321 C-1.4664,39.7501 4.5226,43.6311 11.6046,40.3971 C18.5206,37.2391 18.9376,23.0921 12.4626,10.7131 C4.5836,-4.3529 0.5716,1.2831 1.5506,4.2931" id="path-1"></path>
        <path d="M7.0174,0.569 C14.2044,1.44 30.2204,-0.499 36.8954,1.643 C38.7714,2.245 41.1244,3.356 41.1204,4.483 C41.1144,5.77 40.0204,4.95 39.4304,6.544 C39.1344,7.344 40.2724,7.837 40.2194,8.622 C40.1184,10.106 38.6054,10.332 38.3444,11.642 C38.2564,12.078 38.8714,13.633 38.1454,13.864 C36.9614,14.239 33.3684,14.359 31.3324,14.206 C27.1294,13.89 3.0964,8.583 1.0754,4.908 C-0.9476,1.234 4.7824,0.298 7.0174,0.569" id="path-3"></path>
        <path d="M4.994,24.7501 C-2.73,40.6421 -4.992,65.2791 26.876,62.3651 C52.427,60.0281 50.077,47.7601 50.116,35.9981 C50.174,18.3311 44.42,3.1191 26.965,0.3951 C8.159,-2.5409 9.965,14.5211 4.994,24.7501" id="path-5"></path>
        <path d="M43.618,0.2628 C59.798,-0.5872 89.386,5.8408 90.765,32.1038 C92.145,58.3678 64.348,75.8088 47.634,76.6868 C30.918,77.5648 2.282,63.7748 0.978,38.9648 C-0.325,14.1548 27.951,1.0858 43.618,0.2628" id="path-7"></path>
        <path d="M16.2758621,13.1156716 C24.971254,13.1156716 36.1384698,6.87490495 32.5922477,2.38398619 C29.0460256,-2.10693258 24.971254,4.55597015 16.2758621,4.55597015 C7.58047026,4.55597015 4.4137931,-2.48507463 1.10344828,2.38398619 C-2.20689655,7.253047 7.58047026,13.1156716 16.2758621,13.1156716 Z" id="path-9"></path>
        <path d="M22.7166,3.6393 C26.1326,0.1843 8.4506,-2.9767 1.5446,12.6553 C-2.5694,21.9653 7.7866,32.4623 9.0336,33.4673 C10.6806,34.7933 18.5496,29.0453 16.3596,25.9933 C14.1686,22.9403 8.3726,15.0873 12.2806,11.0403 C16.1886,6.9943 20.5106,5.8703 22.7166,3.6393" id="path-11"></path>
    </defs>
    <g id="Symbols" stroke="none" stroke-width="1" fill="none" fill-rule="evenodd">
        <g id="Animal_Success/Ape-NoFlag">
            <ellipse id="Shadow" fill-opacity="0.25" fill="#000000" cx="49.6542969" cy="155.326172" rx="32.0371094" ry="11.3261719"></ellipse>
            <g id="Ape-">
                <g id="Tail" transform="translate(24.583081, 116.583081) rotate(293.000000) translate(-24.583081, -116.583081) translate(9.583081, 101.583081)" fill-rule="nonzero">
                    <path d="M26.4386364,12.0622727 C24.8363636,12.0622727 23.5431818,13.3577273 23.5431818,14.9577273 C23.5431818,19.8509091 19.5613636,23.8327273 14.6681818,23.8327273 C9.775,23.8327273 5.79545455,19.8509091 5.79545455,14.9577273 C5.79545455,11.6486364 7.62045455,8.76227273 10.3136364,7.23272727 C7.92045455,5.46227273 8.31818182,2.64863636 8.56363636,1.63954545 C3.51818182,3.96 0,9.05090909 0,14.9577273 C0,23.0463636 6.57954545,29.6281818 14.6681818,29.6281818 C22.7545455,29.6281818 29.3363636,23.0463636 29.3363636,14.9577273 C29.3363636,13.3577273 28.0386364,12.0622727 26.4386364,12.0622727" id="Fill-190" fill="#3C3C3B"></path>
                    <path d="M10.3136364,7.23363636 C11.6022727,6.50409091 13.0840909,6.08590909 14.6681818,6.08590909 C16.2681818,6.08590909 17.5659091,4.78818182 17.5659091,3.18818182 C17.5659091,1.58818182 16.2681818,0.288181818 14.6681818,0.288181818 C12.4886364,0.288181818 10.425,0.781363636 8.56363636,1.63818182 C8.31818182,2.64954545 7.92045455,5.46318182 10.3136364,7.23363636" id="Fill-191" fill="#F4C798"></path>
                </g>
                <path d="M67.0145,114.2516 C60.2675,121.3986 32.5505,124.1536 23.5525,110.2516 C14.7445,96.6416 29.6485,73.1066 31.8095,72.5346 C33.9715,71.9616 57.5015,70.8136 63.1805,75.6116 C68.8605,80.4096 71.9675,109.0036 67.0145,114.2516" id="Backpack" fill="#A1AEB4"></path>
                <path d="M47.0789,119.006 C44.9719,125.292 45.5539,145.137 47.2309,148.848 C49.7819,154.489 43.7599,158.317 36.7059,155.02 C29.8179,151.8 29.5259,137.651 36.1109,125.329 C44.1239,110.334 48.0859,116.006 47.0789,119.006" id="R-leg" fill="#9DDBF9"></path>
                <g id="L-Leg" transform="translate(56.000000, 115.000000)">
                    <mask id="mask-2" fill="white">
                        <use xlink:href="#path-1"></use>
                    </mask>
                    <use id="Mask" fill="#9DDBF9" xlink:href="#path-1"></use>
                    <path d="M-18.131,12.1881 C-18.713,4.2091 -1.5,0.7791 0.348,-6.7199 C2.197,-14.2189 19.528,-12.3589 18.611,-1.8159 C17.693,8.7281 20.807,28.9551 0.783,26.8431 C-19.24,24.7311 -17.864,15.8511 -18.131,12.1881" id="Fill-21" fill="#3D9CD6" mask="url(#mask-2)"></path>
                </g>
                <g id="L-arm" transform="translate(72.000000, 87.000000)">
                    <mask id="mask-4" fill="white">
                        <use xlink:href="#path-3"></use>
                    </mask>
                    <use id="Mask" fill="#9DDBF9" xlink:href="#path-3"></use>
                    <path d="M29.7078,-13.5087 C35.2048,-7.6957 24.0398,5.8463 27.3508,12.8243 C30.6608,19.8023 16.0598,29.3223 10.1028,20.5743 C4.1458,11.8273 -11.0592,-1.8727 5.7878,-12.8997 C22.6348,-23.9267 27.1858,-16.1767 29.7078,-13.5087" id="Fill-26" fill="#3D9CD6" mask="url(#mask-4)"></path>
                </g>
                <g id="Body" transform="translate(28.000000, 69.000000)">
                    <mask id="mask-6" fill="white">
                        <use xlink:href="#path-5"></use>
                    </mask>
                    <use id="Mask" fill="#FFFFFF" xlink:href="#path-5"></use>
                    <path d="M36.5418,4.7955 C34.4278,15.9175 32.4088,19.6915 33.7518,30.8415 C35.1098,42.1205 36.3408,52.3645 32.1078,58.8625 C27.8758,65.3605 23.0778,66.1985 25.3048,67.9005 C38.1238,77.7005 47.6718,67.9835 52.4268,60.0275 C57.1808,52.0725 50.1268,35.8065 54.5128,20.9145 C58.8988,6.0225 54.5948,-3.8825 48.5558,-1.7795 C42.5178,0.3245 40.8508,-5.1375 38.1888,-3.0435" id="Fill-31" fill="#E4E4E4" mask="url(#mask-6)"></path>
                </g>
                <g id="Lapel" transform="translate(42.000000, 73.000000)">
                    <path d="M0.8455,5.1696 C0.3555,13.0656 0.7825,18.0416 2.5645,20.9106 C3.8085,22.9136 25.0965,24.1236 27.9605,23.4186 C30.8255,22.7126 29.8405,15.3026 29.6155,10.7206 C29.3895,6.1386 9.1825,-1.6494 4.6325,0.8926 C0.0835,3.4346 0.9385,3.6766 0.8455,5.1696" id="Fill-34" fill="#DFEBEF"></path>
                    <path d="M3.4451,6.5773 C2.5941,12.2353 3.7521,17.8873 4.8721,19.6503 C5.9231,21.3043 23.5871,22.3193 25.9661,21.7333 C28.3441,21.1473 27.5271,14.9933 27.3401,11.1873 C27.1521,7.3823 10.3691,0.9143 6.5911,3.0253 C2.8121,5.1363 3.6301,5.3483 3.4451,6.5773" id="Fill-36" fill="#B8C5CC"></path>
                    <path d="M11.1219,16.9181 C11.0119,18.5941 9.6519,19.8691 8.0859,19.7651 C6.5189,19.6611 5.3409,18.2181 5.4509,16.5421 C5.5619,14.8661 6.9219,13.5911 8.4879,13.6951 C10.0539,13.7991 11.2329,15.2421 11.1219,16.9181" id="Fill-38" fill="#F79799"></path>
                    <path d="M11.1219,16.9181 C11.0119,18.5941 9.6519,19.8691 8.0859,19.7651 C6.5189,19.6611 5.3409,18.2181 5.4509,16.5421 C5.5619,14.8661 6.9219,13.5911 8.4879,13.6951 C10.0539,13.7991 11.2329,15.2421 11.1219,16.9181 Z" id="Stroke-40" stroke="#F15B5C" stroke-width="0.25"></path>
                    <path d="M25.3944,19.1442 C25.3534,19.7652 24.8494,20.2382 24.2684,20.1992 C23.6884,20.1612 23.2504,19.6262 23.2914,19.0042 C23.3324,18.3832 23.8374,17.9112 24.4174,17.9492 C24.9984,17.9882 25.4354,18.5222 25.3944,19.1442" id="Fill-42" fill="#F79799"></path>
                    <path d="M25.3944,19.1442 C25.3534,19.7652 24.8494,20.2382 24.2684,20.1992 C23.6884,20.1612 23.2504,19.6262 23.2914,19.0042 C23.3324,18.3832 23.8374,17.9112 24.4174,17.9492 C24.9984,17.9882 25.4354,18.5222 25.3944,19.1442 Z" id="Stroke-44" stroke="#F15B5C" stroke-width="0.25"></path>
                    <path d="M22.078,19.2433 C22.037,19.8643 21.533,20.3373 20.952,20.2983 C20.372,20.2603 19.934,19.7253 19.975,19.1043 C20.017,18.4823 20.521,18.0103 21.101,18.0483 C21.682,18.0873 22.119,18.6213 22.078,19.2433" id="Fill-46" fill="#F79799"></path>
                    <path d="M22.078,19.2433 C22.037,19.8643 21.533,20.3373 20.952,20.2983 C20.372,20.2603 19.934,19.7253 19.975,19.1043 C20.017,18.4823 20.521,18.0103 21.101,18.0483 C21.682,18.0873 22.119,18.6213 22.078,19.2433 Z" id="Stroke-48" stroke="#F15B5C" stroke-width="0.25"></path>
                </g>
                <path d="M47.7986,0.1157 C27.6236,1.1757 -0.1124,14.9017 1.0336,36.7377 C2.4636,63.9377 11.7446,86.2697 55.2376,83.9847 C98.7306,81.6997 100.2516,48.8897 99.2236,29.3137 C98.1956,9.7367 74.0386,-1.2633 47.7986,0.1157" id="Helmet" fill="#F3FAFD"></path>
                <g id="Head" transform="translate(5.000000, 4.000000)">
                    <mask id="mask-8" fill="white">
                        <use xlink:href="#path-7"></use>
                    </mask>
                    <use id="Mask" fill="#C7E6F8" xlink:href="#path-7"></use>
                    <path d="M75.1942,58.5695 C75.4592,66.5375 71.2362,70.6985 58.5222,81.7415 C45.8092,92.7845 18.9652,87.4615 23.1812,81.0365 C27.3982,74.6115 30.3982,64.2565 43.1642,60.4815 C55.9292,56.7045 75.0712,54.8585 75.1942,58.5695" id="Fill-56" fill="#3C3C3B" mask="url(#mask-8)"></path>
                    <g id="Group-3" mask="url(#mask-8)">
                        <g transform="translate(45.724461, 42.008155) rotate(-8.000000) translate(-45.724461, -42.008155) translate(-0.775539, 4.508155)">
                            <g id="Ear-R" stroke-width="1" fill="none" fill-rule="evenodd" transform="translate(0.178101, 7.453040)">
                                <path d="M23.7449529,11.9148033 C23.7449529,18.4688738 18.4383699,23.7829172 11.8904075,23.7829172 C5.3399373,23.7829172 0.0333542319,18.4688738 0.0333542319,11.9148033 C0.0333542319,5.3607327 5.3399373,0.0466892809 11.8904075,0.0466892809 C18.4383699,0.0466892809 23.7449529,5.3607327 23.7449529,11.9148033" id="Fill-198" fill="#3C3C3B" fill-rule="nonzero"></path>
                                <path d="M19.6147962,11.9148033 C19.6147962,16.1846133 16.156489,19.6486567 11.8881505,19.6486567 C7.62231975,19.6486567 4.16150471,16.1846133 4.16150471,11.9148033 C4.16150471,7.64248303 7.62231975,4.1809498 11.8881505,4.1809498 C16.156489,4.1809498 19.6147962,7.64248303 19.6147962,11.9148033" id="Fill-199" fill="#D76C79" fill-rule="nonzero"></path>
                            </g>
                            <g id="Ear-L" stroke-width="1" fill="none" fill-rule="evenodd" transform="translate(68.301155, 9.186021)">
                                <path d="M23.9586207,11.9148033 C23.9586207,18.4688738 18.6470219,23.7829172 12.1015674,23.7829172 C5.55109718,23.7829172 0.244514106,18.4688738 0.244514106,11.9148033 C0.244514106,5.3607327 5.55109718,0.0466892809 12.1015674,0.0466892809 C18.6470219,0.0466892809 23.9586207,5.3607327 23.9586207,11.9148033" id="Fill-200" fill="#3C3C3B" fill-rule="nonzero"></path>
                                <path d="M19.8267084,11.9148033 C19.8267084,16.1846133 16.3658934,19.6486567 12.1000627,19.6486567 C7.83423198,19.6486567 4.37341693,16.1846133 4.37341693,11.9148033 C4.37341693,7.64248303 7.83423198,4.1809498 12.1000627,4.1809498 C16.3658934,4.1809498 19.8267084,7.64248303 19.8267084,11.9148033" id="Fill-201" fill="#D76C79" fill-rule="nonzero"></path>
                            </g>
                            <path d="M46.3171253,0.972857639 C25.9660281,0.972857639 9.46696856,17.4873081 9.46696856,37.8598997 C9.46696856,58.227471 25.9660281,74.7444316 46.3171253,74.7444316 C66.6707303,74.7444316 83.1697899,58.227471 83.1697899,37.8598997 C83.1697899,17.4873081 66.6707303,0.972857639 46.3171253,0.972857639" id="Head" fill="#3C3C3B" fill-rule="nonzero"></path>
                            <g id="Face" stroke-width="1" fill="none" fill-rule="evenodd" transform="translate(17.677929, 15.721358)">
                                <path d="M54.4240753,14.4829647 C54.4240753,6.91227273 48.289906,0.774891452 40.7287774,0.774891452 C34.3388088,0.774891452 28.9895925,5.1601696 27.4723511,11.0841859 C25.9601254,5.1601696 20.6084012,0.774891452 14.2209405,0.774891452 C6.65479624,0.774891452 0.523134796,6.91227273 0.523134796,14.4829647 C0.523134796,22.0561669 6.65479624,28.1935482 14.2209405,28.1935482 L14.2209405,35.2672253 C14.2209405,42.8379172 20.350094,48.9752985 27.9162382,48.9752985 C35.4798746,48.9752985 41.611536,42.8379172 41.611536,35.2672253 L41.611536,28.148365 C48.7613793,27.6915129 54.4240753,21.7574559 54.4240753,14.4829647" id="Shape" fill="#F4C798" fill-rule="nonzero"></path>
                                <g id="Nose" transform="translate(20.965517, 25.402985)" fill-rule="nonzero" fill="#401612">
                                    <path d="M4.96125391,2.5686635 C4.96125391,3.66812076 4.07097178,4.5567232 2.97504702,4.5567232 C1.87410658,4.5567232 0.988840126,3.66812076 0.988840126,2.5686635 C0.988840126,1.46669607 1.87410658,0.578093623 2.97504702,0.578093623 C4.07097178,0.578093623 4.96125391,1.46669607 4.96125391,2.5686635" id="Fill-204"></path>
                                    <path d="M12.0288402,2.5686635 C12.0288402,3.66812076 11.1410658,4.5567232 10.0401254,4.5567232 C8.94420063,4.5567232 8.0539185,3.66812076 8.0539185,2.5686635 C8.0539185,1.46669607 8.94420063,0.578093623 10.0401254,0.578093623 C11.1410658,0.578093623 12.0288402,1.46669607 12.0288402,2.5686635" id="Fill-205"></path>
                                </g>
                                <g id="Eye-R" transform="translate(5.517241, 5.522388)" fill-rule="nonzero">
                                    <path d="M14.2708463,7.32067843 C14.2708463,11.0081275 11.2840126,13.9977477 7.6,13.9977477 C3.91347962,13.9977477 0.926645768,11.0081275 0.926645768,7.32067843 C0.926645768,3.6332293 3.91347962,0.643609227 7.6,0.643609227 C11.2840126,0.643609227 14.2708463,3.6332293 14.2708463,7.32067843" id="Fill-207" fill="#FFFFFF"></path>
                                    <path d="M11.9183861,7.15654177 C11.9183861,9.3429054 10.1478533,11.1150899 7.96352725,11.1150899 C5.78170906,11.1150899 4.01117615,9.3429054 4.01117615,7.15654177 C4.01117615,4.97017813 5.78170906,3.20050378 7.96352725,3.20050378 C10.1478533,3.20050378 11.9183861,4.97017813 11.9183861,7.15654177" id="Fill-208" fill="#1D1C1A"></path>
                                    <path d="M10.3276652,5.67277651 C10.3276652,6.13464896 9.95399746,6.50866524 9.49255546,6.50866524 C9.03362129,6.50866524 8.65995358,6.13464896 8.65995358,5.67277651 C8.65995358,5.21090405 9.03362129,4.83688777 9.49255546,4.83688777 C9.95399746,4.83688777 10.3276652,5.21090405 10.3276652,5.67277651" id="Fill-209" fill="#FFFFFF"></path>
                                </g>
                                <g id="Eye-L" transform="translate(34.206897, 5.522388)" fill-rule="nonzero">
                                    <path d="M13.9829468,6.93913161 C13.9829468,10.6265807 10.9961128,13.6162008 7.31210031,13.6162008 C3.62557994,13.6162008 0.638746081,10.6265807 0.638746081,6.93913161 C0.638746081,3.2516825 3.62557994,0.262062415 7.31210031,0.262062415 C10.9961128,0.262062415 13.9829468,3.2516825 13.9829468,6.93913161" id="Fill-210" fill="#FFFFFF"></path>
                                    <path d="M11.6304865,6.77499495 C11.6304865,8.9613586 9.85995358,10.7335431 7.67813539,10.7335431 C5.49380938,10.7335431 3.72327647,8.9613586 3.72327647,6.77499495 C3.72327647,4.58863132 5.49380938,2.81895696 7.67813539,2.81895696 C9.85995358,2.81895696 11.6304865,4.58863132 11.6304865,6.77499495" id="Fill-211" fill="#1D1C1A"></path>
                                    <path d="M10.0397655,5.29097867 C10.0397655,5.75285113 9.66609777,6.12686741 9.20465578,6.12686741 C8.7457216,6.12686741 8.37205389,5.75285113 8.37205389,5.29097867 C8.37205389,4.82910622 8.7457216,4.45508994 9.20465578,4.45508994 C9.66609777,4.45508994 10.0397655,4.82910622 10.0397655,5.29097867" id="Fill-212" fill="#FFFFFF"></path>
                                </g>
                            </g>
                            <g id="Mouth" stroke-width="1" fill="none" fill-rule="evenodd" transform="translate(28.500000, 47.844665)">
                                <path d="M16.8478479,18.7761194 C25.5432398,18.7761194 32.5922477,13.2964447 32.5922477,4.59294141 C32.5922477,-4.11056183 25.5432398,2.22907841 16.8478479,2.22907841 C8.15245613,2.22907841 1.10344828,-4.11056183 1.10344828,4.59294141 C1.10344828,13.2964447 8.15245613,18.7761194 16.8478479,18.7761194 Z" id="path-1" stroke="#F4C798" stroke-width="6"></path>
                                <g id="Oval-14" transform="translate(0.000000, 2.208955)">
                                    <mask id="mask-10" fill="white">
                                        <use xlink:href="#path-9"></use>
                                    </mask>
                                    <use id="Mask" fill="#000000" xlink:href="#path-9"></use>
                                    <path d="M16.4624348,6.88450598 C23.807615,7.06693383 30.0172081,2.73811979 30.8132396,0.610087903 C31.6092712,-1.51794399 29.4758674,0.769406028 29.4758674,0.544880423 C29.4758674,-1.59007107 23.8718712,-1.04225352 16.8635682,-1.04225352 C9.85526518,-1.04225352 3.57572421,-2.02623979 3.57572421,0.108711704 C3.57572421,2.2436632 7.39017897,6.65918378 16.4624348,6.88450598 Z" fill="#FFFFFF" fill-rule="nonzero" mask="url(#mask-10)"></path>
                                </g>
                            </g>
                        </g>
                    </g>
                </g>
                <g id="R-arm" transform="translate(16.000000, 85.000000)">
                    <mask id="mask-12" fill="white">
                        <use xlink:href="#path-11"></use>
                    </mask>
                    <use id="Mask" fill="#9DDBF9" xlink:href="#path-11"></use>
                    <polygon id="Fill-122" fill="#FAF077" mask="url(#mask-12)" points="13.5282 -0.1341 16.7522 3.8399 12.6552 5.7279 9.2612 1.3449"></polygon>
                </g>
            </g>
        </g>
    </g>
</svg>