<?xml version="1.0" encoding="UTF-8"?>
<svg width="418px" height="397px" viewBox="0 0 418 397" version="1.1" xmlns="http://www.w3.org/2000/svg" xmlns:xlink="http://www.w3.org/1999/xlink">
    <!-- Generator: Sketch 45.2 (43514) - http://www.bohemiancoding.com/sketch -->
    <title>Ape</title>
    <desc>Created with Sketch.</desc>
    <defs>
        <path d="M3.1614,81.7738 C-3.5886,70.1918 -0.4616,23.0948 59.0824,4.5578 C118.6264,-13.9802 148.3834,32.5128 151.3894,71.9498 C154.3944,111.3858 85.9084,58.2078 53.0964,78.6688 C26.6824,95.1388 13.2824,99.1398 3.1614,81.7738" id="path-1"></path>
        <path d="M0.8148,59.8207 C5.3278,111.1827 47.8518,179.3577 108.3658,159.3297 C182.4458,134.8107 234.3348,88.9667 199.7978,46.5507 C165.2608,4.1347 117.2268,36.3167 77.7908,9.8207 C38.3528,-16.6743 -2.8952,17.5907 0.8148,59.8207" id="path-3"></path>
        <path d="M82.532098,0.4964 C113.147196,-1.10915556 169.132333,11.0326222 171.741618,60.6405111 C174.352794,110.250289 121.75651,143.1944 90.131,144.852844 C58.5017059,146.511289 4.31790196,120.463511 1.85052941,73.6001778 C-0.61495098,26.7368444 52.8876765,2.05095556 82.532098,0.4964" id="path-5"></path>
        <path d="M27.4988171,22.1311042 C43.4864779,21.9136077 59.9744148,4.89255295 53.6918396,1.30928381 C47.4092644,-2.27398533 41.5479735,6.7107003 25.094928,6.7107003 C8.64188273,6.7107003 4.81900767,-1.77257633 0.836086209,3.41854889 C-3.14683525,8.60967411 11.5111562,22.3486007 27.4988171,22.1311042 Z" id="path-7"></path>
    </defs>
    <g id="Symbols" stroke="none" stroke-width="1" fill="none" fill-rule="evenodd">
        <g id="Ape">
            <g>
                <path d="M241.7327,84.8388 C244.3497,55.9938 302.1837,72.1568 287.5227,107.2138 C269.7177,149.7848 215.7777,181.7208 184.8147,184.9708 C159.5697,187.6208 236.9727,137.2898 241.7327,84.8388" id="Arm-L" fill="#65C6FD"></path>
                <g id="Leg-L" transform="translate(263.000000, 150.000000)">
                    <g id="Fill-163" transform="translate(0.000000, 3.000000)">
                        <mask id="mask-2" fill="white">
                            <use xlink:href="#path-1"></use>
                        </mask>
                        <use id="Mask" fill="#99DCFF" xlink:href="#path-1"></use>
                        <path d="M15.5218,11.6889 C39.0718,22.4399 76.3488,50.9199 66.3908,87.7699 C56.4328,124.6199 24.3858,136.9189 0.4868,116.2749 C-23.4132,95.6289 -39.3072,25.7809 -15.2722,16.5549 C8.7628,7.3299 15.5218,11.6889 15.5218,11.6889" fill="#65C6FD" mask="url(#mask-2)"></path>
                    </g>
                    <path d="M154.3011,66.059 C155.2871,37.252 138.8861,-0.868 122.0741,0.583 C86.8651,3.621 89.7231,41.88 118.3411,75.59 C146.9591,109.3 153.9841,75.354 154.3011,66.059" id="Fill-166" fill="#99DCFF"></path>
                </g>
                <path d="M202.611969,268.670377 C237.661083,272.675954 132.758585,326.632228 96.4861134,281.1376 C60.2136418,235.642972 60.6079963,224.551305 62.6262335,216.783753 C64.6444706,209.016201 73.5170041,163.737364 98.5268334,154.432852 C123.533152,145.129086 176.964855,265.741201 202.611969,268.670377 Z" id="Backpack" fill="#CFDEE6"></path>
                <g id="Body" transform="translate(95.000000, 152.000000)">
                    <mask id="mask-4" fill="white">
                        <use xlink:href="#path-3"></use>
                    </mask>
                    <use id="Mask" fill="#FFFFFF" xlink:href="#path-3"></use>
                    <path d="M128.8528,-2.9351 C65.2918,20.5649 51.5588,22.6329 63.9028,31.6079 C76.2468,40.5829 94.3258,47.4369 116.3928,48.8059 C138.4598,50.1739 160.0908,56.4669 174.4358,108.8289 C188.7798,161.1889 199.1288,172.9069 222.8138,146.0989 C246.4978,119.2919 274.1038,48.1619 231.7728,18.4329 C189.4428,-11.2951 140.3228,-7.1751 128.8528,-2.9351" id="Fill-171" fill="#F6F6F6" mask="url(#mask-4)"></path>
                </g>
                <g id="Panel" transform="translate(114.000000, 158.000000)">
                    <path d="M109.8528,26.3803 C108.8668,32.7143 98.4078,41.6793 75.0688,55.4433 C51.3378,69.4393 30.7178,72.4433 29.6608,69.1313 C27.2948,61.7263 22.0918,45.4343 3.5588,33.4003 C-15.0342,21.3273 65.8548,-5.9317 86.5588,1.9943 C95.8558,5.5533 110.3878,22.9453 109.8528,26.3803" id="Fill-174" fill="#DFEAEF"></path>
                    <path d="M100.7816,23.1752 C96.7936,33.2462 85.2786,40.3952 71.0886,47.9852 C50.3486,59.0752 33.2286,62.4952 32.3256,59.6682 C30.3066,53.3472 25.8646,39.4402 10.0446,29.1672 C-5.8264,18.8612 63.2226,-4.4078 80.8966,2.3582 C88.8336,5.3962 101.8736,20.4152 100.7816,23.1752" id="Fill-176" fill="#B8C5CC"></path>
                    <path d="M80.8285,31.0883 C80.7735,33.1363 79.0705,34.7513 77.0225,34.6973 C74.9755,34.6443 73.3595,32.9403 73.4135,30.8933 C73.4685,28.8453 75.1715,27.2293 77.2195,27.2833 C79.2665,27.3373 80.8825,29.0413 80.8285,31.0883" id="Fill-178" fill="#F75E00"></path>
                    <path d="M80.846,30.4145 C80.791,32.4625 79.088,34.0775 77.04,34.0235 C74.993,33.9695 73.377,32.2665 73.432,30.2185 C73.486,28.1715 75.189,26.5555 77.237,26.6095 C79.284,26.6635 80.9,28.3665 80.846,30.4145" id="Fill-180" fill="#F69799"></path>
                    <path d="M91.4408,23.2748 C91.3868,25.3228 89.6828,26.9378 87.6358,26.8838 C85.5878,26.8298 83.9728,25.1268 84.0268,23.0788 C84.0808,21.0318 85.7848,19.4158 87.8318,19.4698 C89.8788,19.5238 91.4958,21.2278 91.4408,23.2748" id="Fill-182" fill="#F75E00"></path>
                    <path d="M91.4583,22.601 C91.4043,24.648 89.7013,26.264 87.6533,26.21 C85.6063,26.156 83.9903,24.453 84.0443,22.405 C84.0993,20.358 85.8023,18.742 87.8503,18.795 C89.8963,18.85 91.5133,20.553 91.4583,22.601" id="Fill-184" fill="#F69799"></path>
                    <g id="Big-Button" transform="translate(41.000000, 36.000000)">
                        <path d="M13.2318,7.9242 C13.1388,11.4342 10.2178,14.2032 6.7088,14.1112 C3.1988,14.0192 0.4288,11.0982 0.5218,7.5882 C0.6148,4.0782 3.5348,1.3082 7.0448,1.4012 C10.5538,1.4932 13.3248,4.4142 13.2318,7.9242" id="Fill-186" fill="#F75E00"></path>
                        <path d="M13.2621,6.769 C13.1691,10.279 10.2491,13.048 6.7401,12.956 C3.2301,12.863 0.4591,9.943 0.5521,6.433 C0.6451,2.923 3.5651,0.153 7.0751,0.246 C10.5851,0.338 13.3551,3.259 13.2621,6.769" id="Fill-188" fill="#F69799"></path>
                    </g>
                </g>
                <path d="M122.4398,205.5248 C102.0418,199.1928 30.3248,219.5418 16.0968,276.7588 C1.8688,333.9768 64.8198,326.7368 76.0158,305.5698 C86.5648,285.6268 69.4988,268.7898 77.8908,245.0998 C84.1328,227.4828 143.6328,212.1028 122.4398,205.5248" id="Arm-R" fill="#99DCFF"></path>
                <g id="Leg-R" transform="translate(139.000000, 221.000000)">
                    <path d="M63.8285,4.2787 C53.4065,-3.2523 16.1775,17.1417 6.4665,35.9747 C1.6535,45.3067 -3.8335,64.2137 6.5055,74.5797 C15.5775,83.6747 33.3865,84.8667 44.4315,67.6817 C56.6955,48.5997 74.2265,11.7927 63.8285,4.2787" id="Fill-192" fill="#65C6FD"></path>
                    <path d="M116.2894,113.1088 C111.6334,103.0158 105.1884,97.0538 97.7914,94.6188 C78.5054,52.4258 94.7564,30.9298 79.4264,10.2878 C69.2614,-3.4012 39.2524,-3.5512 26.3514,20.1818 C8.6844,52.6788 10.0904,153.5338 31.1334,172.7108 C37.4724,178.4858 56.8924,174.3708 74.1934,163.5688 C103.1254,145.5078 122.9504,127.5478 116.2894,113.1088" id="Fill-194" fill="#99DCFF"></path>
                </g>
                <g id="Animal/Head/ApeSearch" transform="translate(122.577494, 117.121256) rotate(-24.000000) translate(-122.577494, -117.121256) translate(26.244160, 32.121256)">
                    <path d="M103.101641,4.89528971 C152.548742,10.0761684 194.43884,37.7362245 190.565266,74.5634932 C186.691988,111.388896 174.137738,172.150896 92.1789975,163.562239 C10.2202576,154.973581 -0.514404359,110.567835 4.86428449,59.4000563 C9.18599374,18.323454 65.083606,0.911404511 103.101641,4.89528971 Z" id="Helmet" fill="#FFFFFF"></path>
                    <g id="Head" stroke-width="1" transform="translate(95.604491, 84.767090) rotate(9.000000) translate(-95.604491, -84.767090) translate(9.511354, 12.044868)">
                        <mask id="mask-6" fill="white">
                            <use xlink:href="#path-5"></use>
                        </mask>
                        <use id="Mask" fill="#C7E7F8" xlink:href="#path-5"></use>
                        <g mask="url(#mask-6)">
                            <g transform="translate(87.362166, 77.728988) rotate(-9.000000) translate(-87.362166, -77.728988) translate(-4.407442, 6.895655)">
                                <g id="Ear-R" stroke-width="1" fill="none" fill-rule="evenodd" transform="translate(1.843361, 13.350900)">
                                    <path d="M44.9291757,22.5057395 C44.9291757,34.8856506 34.8882881,44.9232881 22.4985162,44.9232881 C10.103999,44.9232881 0.0631114389,34.8856506 0.0631114389,22.5057395 C0.0631114389,10.1258284 10.103999,0.0881908639 22.4985162,0.0881908639 C34.8882881,0.0881908639 44.9291757,10.1258284 44.9291757,22.5057395" id="Fill-198" fill="#3C3C3B" fill-rule="nonzero"></path>
                                    <path d="M37.1142713,22.5057395 C37.1142713,30.5709363 30.5706116,37.1141294 22.4942456,37.1141294 C14.4226246,37.1141294 7.87421969,30.5709363 7.87421969,22.5057395 C7.87421969,14.4358013 14.4226246,7.89734963 22.4942456,7.89734963 C30.5706116,7.89734963 37.1142713,14.4358013 37.1142713,22.5057395" id="Fill-199" fill="#D76C79" fill-rule="nonzero"></path>
                                </g>
                                <g id="Ear-L" stroke-width="1" fill="none" fill-rule="evenodd" transform="translate(137.882528, 9.163179)">
                                    <path d="M45.3334686,22.5057395 C45.3334686,34.8856506 35.2830905,44.9232881 22.8980639,44.9232881 C10.5035466,44.9232881 0.462659045,34.8856506 0.462659045,22.5057395 C0.462659045,10.1258284 10.5035466,0.0881908639 22.8980639,0.0881908639 C35.2830905,0.0881908639 45.3334686,10.1258284 45.3334686,22.5057395" id="Fill-200" fill="#3C3C3B" fill-rule="nonzero"></path>
                                    <path d="M37.5152424,22.5057395 C37.5152424,30.5709363 30.9668375,37.1141294 22.8952166,37.1141294 C14.8235958,37.1141294 8.27519085,30.5709363 8.27519085,22.5057395 C8.27519085,14.4358013 14.8235958,7.89734963 22.8952166,7.89734963 C30.9668375,7.89734963 37.5152424,14.4358013 37.5152424,22.5057395" id="Fill-201" fill="#D76C79" fill-rule="nonzero"></path>
                                </g>
                                <path d="M93.315737,1.83761999 C54.8082688,1.83761999 23.5894601,33.0315819 23.5894601,71.5131439 C23.5894601,109.985223 54.8082688,141.183926 93.315737,141.183926 C131.827951,141.183926 163.046759,109.985223 163.046759,71.5131439 C163.046759,33.0315819 131.827951,1.83761999 93.315737,1.83761999" id="Head" fill="#3C3C3B" fill-rule="nonzero"></path>
                                <g id="Face" stroke-width="1" fill="none" fill-rule="evenodd" transform="translate(39.125885, 29.695899)">
                                    <path d="M102.978887,27.356711 C102.978887,13.0565151 91.372077,1.46368385 77.0652356,1.46368385 C64.9744128,1.46368385 54.8528564,9.74698703 51.9819977,20.9367955 C49.1206293,9.74698703 38.9943278,1.46368385 26.9082501,1.46368385 C12.5919184,1.46368385 0.989853095,13.0565151 0.989853095,27.356711 C0.989853095,41.6616485 12.5919184,53.2544799 26.9082501,53.2544799 L26.9082501,66.61587 C26.9082501,80.9160658 38.50557,92.5088972 52.8219018,92.5088972 C67.1334883,92.5088972 78.7355534,80.9160658 78.7355534,66.61587 L78.7355534,53.1691338 C92.2641785,52.3061911 102.978887,41.0974167 102.978887,27.356711" id="Shape" fill="#F4C798" fill-rule="nonzero"></path>
                                    <g id="Nose" transform="translate(39.670047, 47.983416)" fill-rule="nonzero" fill="#401612">
                                        <path d="M9.38747064,4.85191995 C9.38747064,6.92867254 7.7029172,8.60714383 5.62925563,8.60714383 C3.54610363,8.60714383 1.87104063,6.92867254 1.87104063,4.85191995 C1.87104063,2.77042591 3.54610363,1.09195462 5.62925563,1.09195462 C7.7029172,1.09195462 9.38747064,2.77042591 9.38747064,4.85191995" id="Fill-204"></path>
                                        <path d="M22.7604525,4.85191995 C22.7604525,6.92867254 21.0806442,8.60714383 18.9974922,8.60714383 C16.9238306,8.60714383 15.2392772,6.92867254 15.2392772,4.85191995 C15.2392772,2.77042591 16.9238306,1.09195462 18.9974922,1.09195462 C21.0806442,1.09195462 22.7604525,2.77042591 22.7604525,4.85191995" id="Fill-205"></path>
                                    </g>
                                    <g id="Eye-R" transform="translate(10.439486, 10.431177)" fill-rule="nonzero">
                                        <path d="M27.0026798,13.8279481 C27.0026798,20.7931298 21.3511218,26.44019 14.3803922,26.44019 C7.40491733,26.44019 1.75335915,20.7931298 1.75335915,13.8279481 C1.75335915,6.86276646 7.40491733,1.21570632 14.3803922,1.21570632 C21.3511218,1.21570632 27.0026798,6.86276646 27.0026798,13.8279481" id="Fill-207" fill="#FFFFFF"></path>
                                        <g id="Group" transform="translate(9.460784, 9.444444)">
                                            <path d="M14.9828287,7.85124556 C14.9828287,11.9810435 11.6327027,15.3285032 7.49961528,15.3285032 C3.37127303,15.3285032 0.0211470335,11.9810435 0.0211470335,7.85124556 C0.0211470335,3.72144757 3.37127303,0.378729361 7.49961528,0.378729361 C11.6327027,0.378729361 14.9828287,3.72144757 14.9828287,7.85124556" id="Fill-208" fill="#1D1C1A"></path>
                                            <path d="M11.9729351,5.04857784 C11.9729351,5.9210036 11.2658972,6.62747879 10.3927765,6.62747879 C9.52440108,6.62747879 8.81736314,5.9210036 8.81736314,5.04857784 C8.81736314,4.17615209 9.52440108,3.4696769 10.3927765,3.4696769 C11.2658972,3.4696769 11.9729351,4.17615209 11.9729351,5.04857784" id="Fill-209" fill="#FFFFFF"></path>
                                        </g>
                                    </g>
                                    <g id="Eye-L" transform="translate(64.724814, 10.431177)" fill-rule="nonzero">
                                        <path d="M26.4579287,13.1072486 C26.4579287,20.0724303 20.8063704,25.7194904 13.8356408,25.7194904 C6.86016596,25.7194904 1.20860778,20.0724303 1.20860778,13.1072486 C1.20860778,6.14206694 6.86016596,0.495006784 13.8356408,0.495006784 C20.8063704,0.495006784 26.4579287,6.14206694 26.4579287,13.1072486" id="Fill-210" fill="#FFFFFF"></path>
                                        <g id="Group-2" transform="translate(7.568627, 7.555556)">
                                            <path d="M16.3302342,9.01943491 C16.3302342,13.1492329 12.9801082,16.4966926 8.85176599,16.4966926 C4.71867853,16.4966926 1.36855253,13.1492329 1.36855253,9.01943491 C1.36855253,4.88963694 4.71867853,1.54691871 8.85176599,1.54691871 C12.9801082,1.54691871 16.3302342,4.88963694 16.3302342,9.01943491" id="Fill-211" fill="#1D1C1A"></path>
                                            <path d="M13.3203406,6.21629305 C13.3203406,7.08871881 12.6133027,7.795194 11.740182,7.795194 C10.8718066,7.795194 10.1647686,7.08871881 10.1647686,6.21629305 C10.1647686,5.3438673 10.8718066,4.63739211 11.740182,4.63739211 C12.6133027,4.63739211 13.3203406,5.3438673 13.3203406,6.21629305" id="Fill-212" fill="#FFFFFF"></path>
                                        </g>
                                    </g>
                                </g>
                                <g id="Mouth" stroke-width="1" fill="none" fill-rule="evenodd" transform="translate(55.818627, 82.817700)">
                                    <path d="M35.6630848,48.6882255 C15.5866264,48.6882255 0.195740365,35.4341279 0.195740365,16.2311116 C0.195740365,8.32922131 3.10559977,3.21228181 9.38043512,2.09371428 C12.9467497,1.4579743 13.4393733,1.55891806 23.5424622,4.17574962 C28.6575136,5.50061454 32.0989866,6.09937033 35.6630848,6.09937033 C39.2271831,6.09937033 42.6686561,5.50061454 47.7837076,4.17574962 C57.8867965,1.55891805 58.3794201,1.4579743 61.9457347,2.09371428 C68.2205701,3.21228181 71.1304295,8.3292213 71.1304295,16.2311116 C71.1304295,35.4341279 55.7395434,48.6882255 35.6630848,48.6882255 Z" id="path-1" fill="#F4C798" fill-rule="nonzero"></path>
                                    <g id="Oval-14" transform="translate(9.460784, 11.728027)">
                                        <mask id="mask-8" fill="white">
                                            <use xlink:href="#path-7"></use>
                                        </mask>
                                        <use id="Mask" fill="#000000" xlink:href="#path-7"></use>
                                        <path d="M25.4730384,13.0040669 C39.3712714,13.3486528 53.0129525,5.17200406 54.5191691,1.15238826 C56.0253857,-2.86722753 39.4928544,-1.9687011 26.2320457,-1.9687011 C12.9712371,-1.9687011 -0.802796349,-3.82734183 -0.802796349,0.20534433 C-0.802796349,4.23803049 8.30690726,12.5784583 25.4730384,13.0040669 Z" fill="#FFFFFF" fill-rule="nonzero" mask="url(#mask-8)"></path>
                                    </g>
                                </g>
                            </g>
                        </g>
                    </g>
                </g>
            </g>
        </g>
    </g>
</svg>