<?xml version="1.0" encoding="UTF-8"?>
<svg width="150px" height="285px" viewBox="0 0 150 285" version="1.1" xmlns="http://www.w3.org/2000/svg" xmlns:xlink="http://www.w3.org/1999/xlink">
    <!-- Generator: Sketch 45.2 (43514) - http://www.bohemiancoding.com/sketch -->
    <title>Animal/Zearned/Ape</title>
    <desc>Created with Sketch.</desc>
    <defs>
        <radialGradient cx="50.8963466%" cy="50%" fx="50.8963466%" fy="50%" r="50%" id="radialGradient-1">
            <stop stop-color="#000000" offset="0%"></stop>
            <stop stop-color="#000000" stop-opacity="0" offset="100%"></stop>
        </radialGradient>
        <path d="M70.0992,0.0152 C108.7592,0.0152 140.0992,31.3552 140.0992,70.0152 C140.0992,108.6752 108.7592,140.0152 70.0992,140.0152 C31.4392,140.0152 0.0992,108.6752 0.0992,70.0152 C0.0992,31.3552 31.4392,0.0152 70.0992,0.0152" id="path-2"></path>
        <path d="M43.618,0.2628 C59.798,-0.5872 89.386,5.8408 90.765,32.1038 C92.145,58.3678 64.348,75.8088 47.634,76.6868 C30.918,77.5648 2.282,63.7748 0.978,38.9648 C-0.325,14.1548 27.951,1.0858 43.618,0.2628" id="path-4"></path>
        <path d="M14.5330536,11.7164669 C22.9824909,11.6013217 31.6963229,2.59017509 28.3759981,0.693150251 C25.0556734,-1.20387459 21.9579963,3.55272369 13.2626044,3.55272369 C4.56721263,3.55272369 2.54683307,-0.938422761 0.441869396,1.80982 C-1.66309428,4.55806276 6.08361622,11.8316121 14.5330536,11.7164669 Z" id="path-6"></path>
    </defs>
    <g id="Symbols" stroke="none" stroke-width="1" fill="none" fill-rule="evenodd">
        <g id="Animal/Zearned/Ape">
            <path d="M65,138 C65,130.024845 35,124 25.1595393,155.713964 C23.9941947,159.469652 37.4395355,164.279388 40.2593577,159.097432 C54.9606387,132.077368 65,145.975155 65,138 Z" id="Leg-R" fill="#65C6FD"></path>
            <g id="Planets/Earth1" transform="translate(0.000000, 135.000000)">
                <circle id="Moon-Shadow" fill="url(#radialGradient-1)" cx="75" cy="75" r="75"></circle>
                <g id="Planet-2" transform="translate(5.000000, 5.000000)">
                    <mask id="mask-3" fill="white">
                        <use xlink:href="#path-2"></use>
                    </mask>
                    <use id="Mask" fill="#1CC7E6" xlink:href="#path-2"></use>
                    <path d="M36.5,126.5 C33.7911152,123.700819 31.5995448,117.885639 19.2359813,112.096549 C2.74073544,104.372848 -17.2945149,98.2674395 -16.9967195,104.699479 C-16.4457195,116.576479 -8.38771945,156.134479 14.9092805,166.157479 C38.2052805,176.181479 79.4262805,173.699479 86.7922805,176.706479 C99.3342805,181.825479 131.637281,167.615479 129.307281,160.657479 C123.095281,142.102479 51.5,142 36.5,126.5 Z" id="Fill-3" fill="#FAD232" mask="url(#mask-3)"></path>
                    <path d="M-33.3997107,78.2181227 C-65.9697107,74.6671227 54.2722893,115.561123 51.6002893,121.718123 C48.9282893,127.875123 95.0273494,138.448058 117.100289,141.718123 C130.600289,143.718123 143.635324,122.679165 169.100289,119.718123 C190.600289,117.218123 167.100289,129.718123 169.100289,124.718123 C171.03731,119.875572 59.6002893,141.718123 62.6002893,119.718123 C65.6002893,97.7181227 -32.3740882,78.3299115 -33.3997107,78.2181227 Z" id="Fill-6" fill="#FAD232" mask="url(#mask-3)"></path>
                    <path d="M140.8243,71.1671 C140.8243,110.3921 109.0253,142.1911 69.7983,142.1911 C45.8283,142.1911 24.6313,130.3161 11.7693,112.1291 C16.5143,112.4781 21.7313,114.1981 27.6693,115.9171 C42.7163,120.2791 62.3913,124.6391 90.7783,106.6631 C138.6513,76.3391 117.2253,49.4251 137.0863,48.3691 C139.5113,55.5251 140.8243,63.1921 140.8243,71.1671" id="Fill-9" fill-opacity="0.25" fill="#136FCB" mask="url(#mask-3)"></path>
                    <path d="M91,-20.5 C22,-41 11.5,19 14,24.5 C16.5,30 100.227975,-4.80245244 91,12.5 C87,20 116.5,25 145,19 C164,15 146,1.83333333 91,-20.5 Z" id="Fill-12" fill="#FAD232" mask="url(#mask-3)"></path>
                    <ellipse id="Shadow" fill-opacity="0.25" fill="#000000" mask="url(#mask-3)" cx="71.7297387" cy="12.419064" rx="38.1527912" ry="12.2645297"></ellipse>
                </g>
            </g>
            <g id="Ape" transform="translate(40.000000, 93.000000)">
                <path d="M58.3166452,6.61868938 C60.4697912,5.17573261 67.0308315,-0.0983462547 70.0409255,0.678551526 C80.0492573,3.26171099 86.085866,36.014572 74.4180313,49.1376789 C69.6365692,54.5164388 58.6235044,54.3337601 56.1778671,53.1966363 C44.8456276,47.9266625 41.5728046,17.8441952 58.3166452,6.61868938" id="Backpack" fill="#CFDEE6"></path>
                <path d="M32.5236388,7.01965895 C28.8249075,6.36694166 22.8621914,9.47145393 20.6433631,16.8678903 C16.891265,29.3731736 8.55885668,31.5406876 12.045147,32.1872472 C27.2085086,35.0013208 38.3796213,8.05312799 32.5236388,7.01965895" id="Arm-R" fill="#65C6FD"></path>
                <path d="M30.647795,4.20589324 C23.2226227,31.9525358 16.8134726,25.620357 11.4983423,41.5667741 C6.80924594,55.6361158 21.8155859,77.9896304 53.7833389,60.1692169 C66.6036917,53.0221678 71.2743149,-2.7995285 55.346371,1.39181963 C48.9597991,3.07287454 31.6689486,0.389139143 30.647795,4.20589324" id="Body" fill="#FFFFFF"></path>
                <path d="M64.1004798,7.64497443 C89.815078,30.9662759 86.207686,58.1156205 85.3599746,61.4192321 C83.6193951,68.2091339 73.7588484,68.285079 71.9166667,65.1713302 C66.4619617,55.9552905 76.5544489,44.579947 62.8494383,19.0562379 C61.1714623,13.5379032 61.5193729,6.22664849 64.1004798,7.64497443" id="Arm-L" fill="#99DCFF"></path>
                <path d="M18.9519427,30.0472376 C17.9954451,26.8277814 13.6788902,26.8472808 10.1546273,26.9037265 C6.45179085,26.963251 1.39631071,27.2937148 0.66046433,31.9766535 C-0.0589614887,36.5631214 3.80397543,40.7247072 7.60944039,41.4708165 C13.7907552,42.6818328 20.4236355,35.0011155 18.9519427,30.0472376" id="Hand-R" fill="#99DCFF"></path>
                <g id="Panel" transform="translate(30.000000, 0.000000)">
                    <path d="M5.6814153,0.657307426 C12.4918429,1.18687051 25.3891671,-0.741519094 30.3512553,3.953735 C32.6224241,6.10277589 30.2445216,16.3707578 27.5741279,17.980999 C23.8425555,20.2306159 -0.820100482,17.2954406 0.319075921,14.4043956 C3.15675408,7.20500603 1.01079204,0.294002519 5.6814153,0.657307426" id="Fill-16" fill="#DFEAEF"></path>
                    <path d="M6.63369304,1.43357729 C12.65696,1.90258955 24.0620657,0.808569692 28.4494343,4.96091899 C30.4578741,6.8615989 28.3550161,15.3284505 25.9935342,16.7529342 C22.6940278,18.7418746 0.884444203,16.147426 1.89225612,13.5899237 C4.40049678,7.22387752 2.50392201,1.11235007 6.63369304,1.43357729" id="Fill-18" fill="#B8C5CC"></path>
                    <g id="Group" transform="translate(5.000000, 8.000000)">
                        <path d="M5.54947149,3.39655942 C5.44479041,4.96882811 4.17014439,6.16445019 2.70153048,6.06695312 C1.23291658,5.96945604 0.126581297,4.61578606 0.230236087,3.04454365 C0.334917162,1.47227496 1.60956319,0.276652877 3.07817709,0.374149956 C4.54781728,0.470620751 5.65415256,1.82429073 5.54947149,3.39655942" id="Fill-20" fill="#F69799"></path>
                        <path d="M5.54947149,3.39655942 C5.44479041,4.96882811 4.17014439,6.16445019 2.70153048,6.06695312 C1.23291658,5.96945604 0.126581297,4.61578606 0.230236087,3.04454365 C0.334917162,1.47227496 1.60956319,0.276652877 3.07817709,0.374149956 C4.54781728,0.470620751 5.65415256,1.82429073 5.54947149,3.39655942 Z" id="Stroke-22" stroke="#F15B5C" stroke-width="0.228"></path>
                        <path d="M18.9355126,5.48422847 C18.8965138,6.06715837 18.4244227,6.51051351 17.8794653,6.47459354 C17.3355342,6.43764727 16.9250202,5.93682017 16.964019,5.35389026 C17.0019916,4.77096036 17.475109,4.32760522 18.0200664,4.36352519 C18.5639974,4.39944517 18.9745115,4.90129856 18.9355126,5.48422847" id="Fill-24" fill="#F69799"></path>
                        <path d="M18.9355126,5.48422847 C18.8965138,6.06715837 18.4244227,6.51051351 17.8794653,6.47459354 C17.3355342,6.43764727 16.9250202,5.93682017 16.964019,5.35389026 C17.0019916,4.77096036 17.475109,4.32760522 18.0200664,4.36352519 C18.5639974,4.39944517 18.9745115,4.90129856 18.9355126,5.48422847 Z" id="Stroke-26" stroke="#F15B5C" stroke-width="0.228"></path>
                        <path d="M15.8250479,5.57731252 C15.7860491,6.16024243 15.3139579,6.60359757 14.7690006,6.56767759 C14.2250695,6.53073133 13.8145555,6.02990423 13.8535543,5.44697432 C13.8915269,4.86404441 14.3646443,4.42068927 14.9096016,4.45660925 C15.4535327,4.49252922 15.8640467,4.99438261 15.8250479,5.57731252" id="Fill-28" fill="#F69799"></path>
                        <path d="M15.8250479,5.57731252 C15.7860491,6.16024243 15.3139579,6.60359757 14.7690006,6.56767759 C14.2250695,6.53073133 13.8145555,6.02990423 13.8535543,5.44697432 C13.8915269,4.86404441 14.3646443,4.42068927 14.9096016,4.45660925 C15.4535327,4.49252922 15.8640467,4.99438261 15.8250479,5.57731252 Z" id="Stroke-30" stroke="#F15B5C" stroke-width="0.228"></path>
                    </g>
                </g>
                <path d="M12,75 C10,85 30,85.8846365 30,79 C30,52 45,57 45,53 C45,44.7383642 18.9182746,40.4086268 12,75 Z" id="Leg-L" fill="#99DCFF"></path>
            </g>
            <g id="Animal/Head/Ape" transform="translate(37.833984, 13.248047)">
                <path d="M54.48895,2.59162396 C80.6216152,5.3344421 102.760423,19.9780012 100.713249,39.4747905 C98.6662319,58.9705921 92.0313431,91.1387097 48.7163614,86.5917734 C5.40137964,82.0448371 -0.271861371,58.5359128 2.57076175,31.4470886 C4.85477389,9.70065211 34.3965172,0.482508271 54.48895,2.59162396 Z" id="Helmet" fill="#FFFFFF"></path>
                <g id="Head" stroke-width="1" transform="translate(50.526726, 44.876695) rotate(9.000000) translate(-50.526726, -44.876695) translate(5.026726, 6.376695)">
                    <mask id="mask-5" fill="white">
                        <use xlink:href="#path-4"></use>
                    </mask>
                    <use id="Mask" fill="#C7E7F8" xlink:href="#path-4"></use>
                    <g mask="url(#mask-5)">
                        <g transform="translate(46.170678, 41.150641) rotate(-9.000000) translate(-46.170678, -41.150641) translate(-2.329322, 3.650641)">
                            <g id="Ear-R" stroke-width="1" fill="none" fill-rule="evenodd" transform="translate(0.974212, 7.068124)">
                                <path d="M23.7449529,11.9148033 C23.7449529,18.4688738 18.4383699,23.7829172 11.8904075,23.7829172 C5.3399373,23.7829172 0.0333542319,18.4688738 0.0333542319,11.9148033 C0.0333542319,5.3607327 5.3399373,0.0466892809 11.8904075,0.0466892809 C18.4383699,0.0466892809 23.7449529,5.3607327 23.7449529,11.9148033" id="Fill-198" fill="#3C3C3B" fill-rule="nonzero"></path>
                                <path d="M19.6147962,11.9148033 C19.6147962,16.1846133 16.156489,19.6486567 11.8881505,19.6486567 C7.62231975,19.6486567 4.16150471,16.1846133 4.16150471,11.9148033 C4.16150471,7.64248303 7.62231975,4.1809498 11.8881505,4.1809498 C16.156489,4.1809498 19.6147962,7.64248303 19.6147962,11.9148033" id="Fill-199" fill="#D76C79" fill-rule="nonzero"></path>
                            </g>
                            <g id="Ear-L" stroke-width="1" fill="none" fill-rule="evenodd" transform="translate(72.870559, 4.851095)">
                                <path d="M23.9586207,11.9148033 C23.9586207,18.4688738 18.6470219,23.7829172 12.1015674,23.7829172 C5.55109718,23.7829172 0.244514106,18.4688738 0.244514106,11.9148033 C0.244514106,5.3607327 5.55109718,0.0466892809 12.1015674,0.0466892809 C18.6470219,0.0466892809 23.9586207,5.3607327 23.9586207,11.9148033" id="Fill-200" fill="#3C3C3B" fill-rule="nonzero"></path>
                                <path d="M19.8267084,11.9148033 C19.8267084,16.1846133 16.3658934,19.6486567 12.1000627,19.6486567 C7.83423198,19.6486567 4.37341693,16.1846133 4.37341693,11.9148033 C4.37341693,7.64248303 7.83423198,4.1809498 12.1000627,4.1809498 C16.3658934,4.1809498 19.8267084,7.64248303 19.8267084,11.9148033" id="Fill-201" fill="#D76C79" fill-rule="nonzero"></path>
                            </g>
                            <path d="M49.3171253,0.972857639 C28.9660281,0.972857639 12.4669686,17.4873081 12.4669686,37.8598997 C12.4669686,58.227471 28.9660281,74.7444316 49.3171253,74.7444316 C69.6707303,74.7444316 86.1697899,58.227471 86.1697899,37.8598997 C86.1697899,17.4873081 69.6707303,0.972857639 49.3171253,0.972857639" id="Head" fill="#3C3C3B" fill-rule="nonzero"></path>
                            <g id="Face" stroke-width="1" fill="none" fill-rule="evenodd" transform="translate(20.677929, 15.721358)">
                                <path d="M54.4240753,14.4829647 C54.4240753,6.91227273 48.289906,0.774891452 40.7287774,0.774891452 C34.3388088,0.774891452 28.9895925,5.1601696 27.4723511,11.0841859 C25.9601254,5.1601696 20.6084012,0.774891452 14.2209405,0.774891452 C6.65479624,0.774891452 0.523134796,6.91227273 0.523134796,14.4829647 C0.523134796,22.0561669 6.65479624,28.1935482 14.2209405,28.1935482 L14.2209405,35.2672253 C14.2209405,42.8379172 20.350094,48.9752985 27.9162382,48.9752985 C35.4798746,48.9752985 41.611536,42.8379172 41.611536,35.2672253 L41.611536,28.148365 C48.7613793,27.6915129 54.4240753,21.7574559 54.4240753,14.4829647" id="Shape" fill="#F4C798" fill-rule="nonzero"></path>
                                <g id="Nose" transform="translate(20.965517, 25.402985)" fill-rule="nonzero" fill="#401612">
                                    <path d="M4.96125391,2.5686635 C4.96125391,3.66812076 4.07097178,4.5567232 2.97504702,4.5567232 C1.87410658,4.5567232 0.988840126,3.66812076 0.988840126,2.5686635 C0.988840126,1.46669607 1.87410658,0.578093623 2.97504702,0.578093623 C4.07097178,0.578093623 4.96125391,1.46669607 4.96125391,2.5686635" id="Fill-204"></path>
                                    <path d="M12.0288402,2.5686635 C12.0288402,3.66812076 11.1410658,4.5567232 10.0401254,4.5567232 C8.94420063,4.5567232 8.0539185,3.66812076 8.0539185,2.5686635 C8.0539185,1.46669607 8.94420063,0.578093623 10.0401254,0.578093623 C11.1410658,0.578093623 12.0288402,1.46669607 12.0288402,2.5686635" id="Fill-205"></path>
                                </g>
                                <g id="Eye-R" transform="translate(5.517241, 5.522388)" fill-rule="nonzero">
                                    <path d="M14.2708463,7.32067843 C14.2708463,11.0081275 11.2840126,13.9977477 7.6,13.9977477 C3.91347962,13.9977477 0.926645768,11.0081275 0.926645768,7.32067843 C0.926645768,3.6332293 3.91347962,0.643609227 7.6,0.643609227 C11.2840126,0.643609227 14.2708463,3.6332293 14.2708463,7.32067843" id="Fill-207" fill="#FFFFFF"></path>
                                    <path d="M11.9183861,7.15654177 C11.9183861,9.3429054 10.1478533,11.1150899 7.96352725,11.1150899 C5.78170906,11.1150899 4.01117615,9.3429054 4.01117615,7.15654177 C4.01117615,4.97017813 5.78170906,3.20050378 7.96352725,3.20050378 C10.1478533,3.20050378 11.9183861,4.97017813 11.9183861,7.15654177" id="Fill-208" fill="#1D1C1A"></path>
                                    <path d="M10.3276652,5.67277651 C10.3276652,6.13464896 9.95399746,6.50866524 9.49255546,6.50866524 C9.03362129,6.50866524 8.65995358,6.13464896 8.65995358,5.67277651 C8.65995358,5.21090405 9.03362129,4.83688777 9.49255546,4.83688777 C9.95399746,4.83688777 10.3276652,5.21090405 10.3276652,5.67277651" id="Fill-209" fill="#FFFFFF"></path>
                                </g>
                                <g id="Eye-L" transform="translate(34.206897, 5.522388)" fill-rule="nonzero">
                                    <path d="M13.9829468,6.93913161 C13.9829468,10.6265807 10.9961128,13.6162008 7.31210031,13.6162008 C3.62557994,13.6162008 0.638746081,10.6265807 0.638746081,6.93913161 C0.638746081,3.2516825 3.62557994,0.262062415 7.31210031,0.262062415 C10.9961128,0.262062415 13.9829468,3.2516825 13.9829468,6.93913161" id="Fill-210" fill="#FFFFFF"></path>
                                    <path d="M11.6304865,6.77499495 C11.6304865,8.9613586 9.85995358,10.7335431 7.67813539,10.7335431 C5.49380938,10.7335431 3.72327647,8.9613586 3.72327647,6.77499495 C3.72327647,4.58863132 5.49380938,2.81895696 7.67813539,2.81895696 C9.85995358,2.81895696 11.6304865,4.58863132 11.6304865,6.77499495" id="Fill-211" fill="#1D1C1A"></path>
                                    <path d="M10.0397655,5.29097867 C10.0397655,5.75285113 9.66609777,6.12686741 9.20465578,6.12686741 C8.7457216,6.12686741 8.37205389,5.75285113 8.37205389,5.29097867 C8.37205389,4.82910622 8.7457216,4.45508994 9.20465578,4.45508994 C9.66609777,4.45508994 10.0397655,4.82910622 10.0397655,5.29097867" id="Fill-212" fill="#FFFFFF"></path>
                                </g>
                            </g>
                            <g id="Mouth" stroke-width="1" fill="none" fill-rule="evenodd" transform="translate(32.500000, 47.844665)">
                                <path d="M15.8478479,18.7761194 C24.5432398,18.7761194 31.5922477,13.2964447 31.5922477,4.59294141 C31.5922477,-4.11056183 24.5432398,2.22907841 15.8478479,2.22907841 C7.15245613,2.22907841 0.103448276,-4.11056183 0.103448276,4.59294141 C0.103448276,13.2964447 7.15245613,18.7761194 15.8478479,18.7761194 Z" id="path-1" stroke="#F4C798" stroke-width="6"></path>
                                <g id="Oval-14" transform="translate(2.000000, 2.208955)">
                                    <mask id="mask-7" fill="white">
                                        <use xlink:href="#path-6"></use>
                                    </mask>
                                    <use id="Mask" fill="#000000" xlink:href="#path-6"></use>
                                    <path d="M13.4624348,6.88450598 C20.807615,7.06693383 28.0172081,2.73811979 28.8132396,0.610087903 C29.6092712,-1.51794399 20.8718712,-1.04225352 13.8635682,-1.04225352 C6.85526518,-1.04225352 -0.424275791,-2.02623979 -0.424275791,0.108711704 C-0.424275791,2.2436632 4.39017897,6.65918378 13.4624348,6.88450598 Z" fill="#FFFFFF" fill-rule="nonzero" mask="url(#mask-7)"></path>
                                </g>
                            </g>
                        </g>
                    </g>
                </g>
            </g>
        </g>
    </g>
</svg>