<?xml version="1.0" encoding="UTF-8"?>
<svg width="64px" height="89px" viewBox="0 0 64 89" version="1.1" xmlns="http://www.w3.org/2000/svg" xmlns:xlink="http://www.w3.org/1999/xlink">
    <!-- Generator: Sketch 45.1 (43504) - http://www.bohemiancoding.com/sketch -->
    <title>Ape</title>
    <desc>Created with Sketch.</desc>
    <defs>
        <path d="M23.3402183,0.606658145 C13.2325252,1.38556326 -0.513167876,8.61142404 0.330451661,19.5504934 C1.38045773,33.1778349 6.31041407,44.2667385 28.0999349,42.5876616 C49.8888727,40.9080017 50.2503406,24.4308937 49.494756,14.6228691 C48.7385884,4.81542763 36.4859912,-0.406618121 23.3402183,0.606658145" id="path-1"></path>
        <path d="M0.652308048,0.426182365 C1.0231042,0.139340062 1.39856445,0.0297336534 1.79851124,0.0297336534 C3.02517019,0.0297336534 4.47978715,1.05933428 6.71972237,1.15086729 C7.96970184,1.20217242 8.94275022,1.00394806 9.75896816,0.806306718 C11.0165268,0.501391018 11.9015402,0.196475317 12.8524341,0.80047659 C14.5443373,1.87730125 11.5190838,5.03431563 6.84098904,5.11243934 C2.8298609,5.17948582 -0.686289366,1.46277914 0.652308048,0.426182365 Z" id="path-3"></path>
    </defs>
    <g id="Specs" stroke="none" stroke-width="1" fill="none" fill-rule="evenodd">
        <g id="2.0.0_Zearned-It_JG" transform="translate(-627.000000, -205.000000)">
            <g id="Group-2" transform="translate(604.000000, 205.000000)">
                <g id="Ape" transform="translate(22.794760, 0.000000)">
                    <ellipse id="Shadow" fill-opacity="0.25" fill="#000000" cx="32.2270742" cy="79.7816594" rx="29.0829694" ry="8.25327511"></ellipse>
                    <path d="M26.170454,69.6016435 C26.8490809,66.8125103 21.1536287,63.1511898 17.8088842,63.1511898 C13.5610529,63.1511898 1.20759444,71.5250028 0.368639001,79.635877 C0.129603748,81.9451908 7.75191324,84.184543 9.4473145,81.0689225 C18.2863717,64.8232705 24.0203027,78.4412838 26.170454,69.6016435" id="Fill-4" fill="#3D9CD6"></path>
                    <path d="M45.0582617,46.2284267 C46.2814226,45.4087107 50.0086235,42.4126079 51.7186001,42.8539486 C57.404141,44.3213918 60.8334224,62.9276627 54.2051497,70.3826475 C51.488893,73.4382176 45.2325826,73.3344414 43.843263,72.6884632 C37.4056356,69.6946924 35.5464077,52.6054209 45.0582617,46.2284267" id="Fill-6" fill="#B8C5CC"></path>
                    <path d="M30.4057505,46.4562098 C28.3045724,46.0854137 24.9172679,47.8490274 23.6567942,52.0508008 C21.5252994,59.1548119 16.7918184,60.3861349 18.7723129,60.753433 C27.3863272,62.3520541 33.7324216,47.0433037 30.4057505,46.4562098" id="Fill-8" fill="#3D9CD6"></path>
                    <path d="M29.3401197,44.8577636 C25.122022,60.620098 21.481107,57.0229089 18.4616837,66.081762 C15.7978981,74.0742846 24.3227115,86.7728867 42.4829775,76.6494522 C49.7659736,72.589351 52.4192649,40.8781182 43.370906,43.2591425 C39.7428173,44.2141175 29.9202175,42.689539 29.3401197,44.8577636" id="Fill-10" fill="#FFFFFF"></path>
                    <path d="M48.343947,46.8114395 C62.951916,60.0598227 60.902626,75.4828436 60.4210574,77.3595618 C59.4322677,81.2167746 53.8306806,81.2599175 52.7841726,79.4910567 C49.6854595,74.2556016 55.4188075,67.7934876 47.6332544,53.293959 C46.6800285,50.1590991 46.8776698,46.0057158 48.343947,46.8114395" id="Fill-12" fill="#9DDBF7"></path>
                    <path d="M22.6959308,59.5377347 C22.1525629,57.7088235 19.700411,57.7199007 17.698345,57.7519665 C15.5948348,57.7857812 12.7229137,57.9735113 12.3048935,60.6337988 C11.8962015,63.239283 14.0906617,65.6034 16.2524732,66.0272503 C19.7639594,66.7152054 23.5319712,62.3519375 22.6959308,59.5377347" id="Fill-14" fill="#9DDBF7"></path>
                    <path d="M32.1996227,42.8418802 C36.0684957,43.1427148 43.3952177,42.0472338 46.2140846,44.7145174 C47.504292,45.9353462 46.1534513,51.7683894 44.636452,52.6831365 C42.5166174,53.9611006 28.5062365,52.2936839 29.1533807,50.6513368 C30.7654111,46.561502 29.5463314,42.6354937 32.1996227,42.8418802" id="Fill-16" fill="#DFEAEF"></path>
                    <path d="M32.1725126,42.7147834 C35.5942148,42.9812203 42.0732361,42.3597286 44.5656159,44.7185985 C45.706572,45.7983382 44.5119787,50.6081939 43.1704662,51.4174157 C41.29608,52.5472945 28.9064748,51.0734381 29.4789934,49.6205702 C30.9038767,46.0041417 29.826469,42.5323004 32.1725126,42.7147834" id="Fill-18" fill="#B8C5CC"></path>
                    <path d="M33.8289103,48.9426429 C33.769443,49.8358185 33.045341,50.5150284 32.2110497,50.4596422 C31.3767584,50.404256 30.7482706,49.6352621 30.8071549,48.7426695 C30.8666222,47.8494939 31.5907241,47.1702839 32.4250154,47.2256701 C33.2598898,47.2804734 33.8883776,48.0494672 33.8289103,48.9426429" id="Fill-20" fill="#F69799"></path>
                    <path d="M33.8289103,48.9426429 C33.769443,49.8358185 33.045341,50.5150284 32.2110497,50.4596422 C31.3767584,50.404256 30.7482706,49.6352621 30.8071549,48.7426695 C30.8666222,47.8494939 31.5907241,47.1702839 32.4250154,47.2256701 C33.2598898,47.2804734 33.8883776,48.0494672 33.8289103,48.9426429 Z" id="Stroke-22" stroke="#F15B5C" stroke-width="0.228"></path>
                    <path d="M41.433263,50.1286075 C41.4111085,50.4597588 41.1429226,50.7116203 40.8333428,50.6912149 C40.524346,50.6702264 40.2911409,50.3857162 40.3132954,50.0545649 C40.3348668,49.7234136 40.6036357,49.4715521 40.9132155,49.4919575 C41.2222123,49.512363 41.4554174,49.7974563 41.433263,50.1286075" id="Fill-24" fill="#F69799"></path>
                    <path d="M41.433263,50.1286075 C41.4111085,50.4597588 41.1429226,50.7116203 40.8333428,50.6912149 C40.524346,50.6702264 40.2911409,50.3857162 40.3132954,50.0545649 C40.3348668,49.7234136 40.6036357,49.4715521 40.9132155,49.4919575 C41.2222123,49.512363 41.4554174,49.7974563 41.433263,50.1286075 Z" id="Stroke-26" stroke="#F15B5C" stroke-width="0.228"></path>
                    <path d="M39.6662677,50.1814868 C39.6441132,50.5126381 39.3759274,50.7644996 39.0663476,50.7440942 C38.7573508,50.7231057 38.5241456,50.4385954 38.5463001,50.1074442 C38.5678716,49.7762929 38.8366405,49.5244314 39.1462203,49.5448368 C39.4552171,49.5652423 39.6884222,49.8503355 39.6662677,50.1814868" id="Fill-28" fill="#F69799"></path>
                    <path d="M39.6662677,50.1814868 C39.6441132,50.5126381 39.3759274,50.7644996 39.0663476,50.7440942 C38.7573508,50.7231057 38.5241456,50.4385954 38.5463001,50.1074442 C38.5678716,49.7762929 38.8366405,49.5244314 39.1462203,49.5448368 C39.4552171,49.5652423 39.6884222,49.8503355 39.6662677,50.1814868 Z" id="Stroke-30" stroke="#F15B5C" stroke-width="0.228"></path>
                    <path d="M42.038955,73.5411777 C42.7957056,70.4313874 36.444364,66.3479656 32.7148311,66.3479656 C27.977852,66.3479656 14.2024253,75.6860818 13.2666897,84.7303596 C13.0002529,87.3055272 21.4999966,89.8031541 23.3901242,86.3289807 C33.2477048,68.2130236 39.6410233,83.3981753 42.038955,73.5411777" id="Fill-32" fill="#3D9CD6"></path>
                    <path d="M34.1380237,0.142080222 C22.5990341,1.03117476 6.90724428,9.28022303 7.86979843,21.7689405 C9.06905579,37.3254713 14.6968785,49.9844285 39.5717031,48.0674823 C64.4459446,46.1499532 64.8587177,27.3396279 63.9958588,16.1428668 C63.1329998,4.9466888 49.1453564,-1.0146172 34.1380237,0.142080222" id="Fill-34" fill="#FFFFFF"></path>
                    <g id="Head" transform="translate(11.004367, 2.358079)">
                        <mask id="mask-2" fill="white">
                            <use xlink:href="#path-1"></use>
                        </mask>
                        <use id="Mask" fill="#C7E6F7" xlink:href="#path-1"></use>
                        <g mask="url(#mask-2)">
                            <g transform="translate(-2.358079, 3.930131)">
                                <path d="M5.71564938,11.2959815 C9.38629804,10.6465052 12.889039,13.095742 13.5385153,16.7663907 C14.1879916,20.4376224 11.7387547,23.9397803 8.06810608,24.5898396 C4.3968744,25.2393159 0.894716446,22.7900791 0.245240175,19.1188474 C-0.40481911,15.4481987 2.04500072,11.9454578 5.71564938,11.2959815" id="Fill-39" fill="#3D3D3C"></path>
                                <path d="M6.11600428,13.5587125 C8.53725649,13.1301981 10.8471532,14.7457266 11.2756677,17.1669788 C11.7041821,19.588231 10.0886536,21.8981278 7.66740137,22.3266422 C5.24614917,22.7551566 2.93625241,21.1396281 2.50773799,18.7183759 C2.07922358,16.2971237 3.69475207,13.9872269 6.11600428,13.5587125" id="Fill-42" fill="#D86D7A"></path>
                                <path d="M46.5860718,7.69121328 C50.2567204,7.04173701 53.7594614,9.49097383 54.4089377,13.1616225 C55.058414,16.8328542 52.6091771,20.3350121 48.9385285,20.9850714 C45.2672968,21.6345477 41.7651388,19.1853109 41.1156626,15.5140792 C40.4656033,11.8434305 42.9154231,8.34068955 46.5860718,7.69121328" id="Fill-45" fill="#3D3D3C"></path>
                                <path d="M46.9864267,9.9539443 C49.4076789,9.52542989 51.7175756,11.1409584 52.1460901,13.5622106 C52.5746045,15.9834628 50.959076,18.2933596 48.5378238,18.721874 C46.1165716,19.1503884 43.8066748,17.5348599 43.3781604,15.1136077 C42.949646,12.6923555 44.5651745,10.3824587 46.9864267,9.9539443" id="Fill-48" fill="#D86D7A"></path>
                                <path d="M26.5012221,0.6156532 C38.1533162,0.192968912 47.9421013,9.29613095 48.3647856,20.948225 C48.7874699,32.600319 39.6848908,42.3885211 28.0327968,42.8117884 C16.3807027,43.2344727 6.59191764,34.1313107 6.16865034,22.4792166 C5.74596605,10.8271226 14.8491281,1.03833749 26.5012221,0.6156532" id="Fill-51" fill="#3D3D3C"></path>
                                <path d="M42.7680958,16.0496347 C42.6118483,11.7440851 39.0368138,8.28098904 34.587843,8.44248359 C30.9999822,8.57249545 27.9310027,11.1272576 27.1946576,14.602597 C26.3574512,11.327814 23.1112358,9.0027589 19.522792,9.13277076 C15.2172424,9.28901819 11.7541463,12.8640527 11.9156408,17.3130235 C12.0718883,21.6185731 15.6469228,25.0816692 20.0958936,24.9201747 L20.2416468,28.938882 C20.3978942,33.2444316 23.9729288,36.7081107 28.4218995,36.5466162 C32.7280322,36.3903687 36.1911283,32.8153342 36.0296337,28.3657804 L35.8832975,24.3476561 C39.7428423,23.7763035 42.9190961,20.2117632 42.7680958,16.0496347" id="Fill-54" fill="#F4C798"></path>
                                <path d="M25.4977988,22.4230725 C26.1321167,22.400335 26.6644074,22.8953129 26.6877279,23.5296308 C26.7104654,24.1639488 26.2154876,24.6962395 25.5811696,24.71956 C24.9468517,24.7422975 24.414561,24.2473196 24.3912405,23.6130016 C24.368503,22.9786837 24.8634808,22.44581 25.4977988,22.4230725" id="Fill-57" fill="#401713"></path>
                                <path d="M29.6599855,22.2720139 C30.2943035,22.2492764 30.8265942,22.7442543 30.8499147,23.3785722 C30.8726522,24.0128901 30.3776743,24.5451808 29.7433564,24.5685013 C29.1090384,24.5912388 28.5767477,24.096261 28.5534272,23.461943 C28.5306897,22.8276251 29.0256676,22.2947514 29.6599855,22.2720139" id="Fill-59" fill="#401713"></path>
                                <path d="M18.9147679,12.1727745 C21.055008,12.0952338 22.8530195,13.7673145 22.9305602,15.9075545 C23.0081009,18.0472115 21.3360201,19.8452231 19.1957801,19.9233468 C17.0561231,20.0008875 15.2581116,18.3288067 15.1799879,16.1885667 C15.1024472,14.0483267 16.7745279,12.2503152 18.9147679,12.1727745" id="Fill-61" fill="#FFFFFF"></path>
                                <path d="M19.5101989,13.2290771 C20.741522,12.9224123 21.9885864,13.6721668 22.2952511,14.9034899 C22.6019158,16.1353959 21.8521614,17.3818773 20.6202553,17.6885421 C19.3889322,17.9952068 18.1418678,17.2454523 17.8357861,16.0141293 C17.5291214,14.7828062 18.2788758,13.5357418 19.5101989,13.2290771" id="Fill-63" fill="#1D1C1A"></path>
                                <path d="M20.6457913,13.8836256 C20.8836605,13.8748804 21.0836339,14.0608614 21.0917961,14.2987307 C21.1005413,14.5365999 20.9145602,14.7359903 20.677274,14.7447355 C20.4394047,14.7534807 20.2394313,14.5674996 20.2306861,14.3296304 C20.2219409,14.0917611 20.407922,13.8923707 20.6457913,13.8836256" id="Fill-65" fill="#FFFFFF"></path>
                                <path d="M35.2660618,11.2919004 C37.4063019,11.2143597 39.2043134,12.8864404 39.2818541,15.0266805 C39.3593948,17.1663375 37.687314,18.964349 35.547074,19.0418897 C33.407417,19.1200134 31.6094055,17.4479327 31.5312818,15.3076926 C31.4537411,13.1674526 33.1258218,11.3694411 35.2660618,11.2919004" id="Fill-67" fill="#FFFFFF"></path>
                                <path d="M36.3333251,12.2816813 C37.6013779,12.2356232 38.6671254,13.226745 38.7131834,14.4947979 C38.7592414,15.7628507 37.7681196,16.8285982 36.5000667,16.8746562 C35.2320139,16.9207142 34.1662665,15.9295924 34.1202085,14.6615395 C34.0741504,13.3929037 35.0652722,12.3277393 36.3333251,12.2816813" id="Fill-69" fill="#1D1C1A"></path>
                                <path d="M37.002274,13.1462893 C37.2401432,13.1375441 37.4401166,13.3235251 37.4482788,13.5613944 C37.457024,13.7992636 37.2710429,13.998654 37.0337567,14.0073992 C36.7958874,14.0161444 36.5959141,13.8301633 36.5871689,13.5922941 C36.5784237,13.3544248 36.7644048,13.1550344 37.002274,13.1462893" id="Fill-71" fill="#FFFFFF"></path>
                                <g id="Mouth" stroke-width="1" fill="none" transform="translate(21.222707, 26.724891)">
                                    <g id="Fill-77-+-Clip-81-Mask">
                                        <mask id="mask-4" fill="white">
                                            <use xlink:href="#path-3"></use>
                                        </mask>
                                        <use id="Mask" fill="#4D1E00" xlink:href="#path-3"></use>
                                        <path d="M12.8736558,0.442390121 C12.8258488,1.23353851 9.88163406,2.41938656 7.01321102,2.24681477 C4.14478799,2.07424298 0.984275543,0.881398768 1.03208259,0.0896673704 C1.07930663,-0.701481014 4.15994633,-1.15972908 7.02836936,-0.987740305 C9.89679239,-0.815168513 12.9214629,-0.348758264 12.8736558,0.442390121" id="Fill-77" fill="#FFFFFF" mask="url(#mask-4)"></path>
                                    </g>
                                </g>
                            </g>
                        </g>
                    </g>
                </g>
            </g>
        </g>
    </g>
</svg>