<?xml version="1.0" encoding="UTF-8"?>
<svg width="960px" height="1180px" viewBox="0 0 960 1180" version="1.1" xmlns="http://www.w3.org/2000/svg" xmlns:xlink="http://www.w3.org/1999/xlink">
    <!-- Generator: Sketch 45.2 (43514) - http://www.bohemiancoding.com/sketch -->
    <title>Background/TitleDev</title>
    <desc>Created with Sketch.</desc>
    <defs>
        <radialGradient cx="59.5281363%" cy="90.2926377%" fx="59.5281363%" fy="90.2926377%" r="41.031995%" gradientTransform="translate(0.595281,0.902926),scale(1.000000,0.812713),rotate(74.336973),scale(1.000000,1.545529),translate(-0.595281,-0.902926)" id="radialGradient-1">
            <stop stop-color="#36005C" offset="0%"></stop>
            <stop stop-color="#740084" offset="49.220743%"></stop>
            <stop stop-color="#35005A" offset="100%"></stop>
        </radialGradient>
        <radialGradient cx="2.56544957%" cy="2.54029813%" fx="2.56544957%" fy="2.54029813%" r="138.171501%" gradientTransform="translate(0.025654,0.025403),scale(0.208522,1.000000),rotate(11.666345),translate(-0.025654,-0.025403)" id="radialGradient-2">
            <stop stop-color="#3023AE" stop-opacity="0.25" offset="0%"></stop>
            <stop stop-color="#C86DD7" stop-opacity="0.25" offset="100%"></stop>
        </radialGradient>
        <filter x="-3.8%" y="-18.1%" width="107.5%" height="136.1%" filterUnits="objectBoundingBox" id="filter-3">
            <feGaussianBlur stdDeviation="15" in="SourceGraphic"></feGaussianBlur>
        </filter>
        <radialGradient cx="2.56544957%" cy="2.54029813%" fx="2.56544957%" fy="2.54029813%" r="138.171501%" gradientTransform="translate(0.025654,0.025403),scale(0.254419,1.000000),rotate(14.140010),translate(-0.025654,-0.025403)" id="radialGradient-4">
            <stop stop-color="#3023AE" stop-opacity="0.25" offset="0%"></stop>
            <stop stop-color="#C86DD7" stop-opacity="0.25" offset="100%"></stop>
        </radialGradient>
        <filter x="-3.8%" y="-14.8%" width="107.5%" height="129.6%" filterUnits="objectBoundingBox" id="filter-5">
            <feGaussianBlur stdDeviation="15" in="SourceGraphic"></feGaussianBlur>
        </filter>
    </defs>
    <g id="Symbols" stroke="none" stroke-width="1" fill="none" fill-rule="evenodd">
        <g id="Background/TitleDev">
            <polygon id="Rectangle" fill="url(#radialGradient-1)" points="0.405827263 0 959.406868 0 959.406868 1180 0.405827263 1180"></polygon>
            <g id="Large-stars" transform="translate(98.303850, 613.000000)" fill="#F1D9FF">
                <ellipse id="Star_L" cx="613.544485" cy="2.1484375" rx="1.99791883" ry="2"></ellipse>
                <ellipse id="Star_L" cx="70.8988033" cy="73.234375" rx="1.99791883" ry="2"></ellipse>
                <ellipse id="Star_L" cx="697.027836" cy="469.523438" rx="1.99791883" ry="2"></ellipse>
                <ellipse id="Star_L" cx="2.96175858" cy="397.273438" rx="1.99791883" ry="2"></ellipse>
                <ellipse id="Star_L" cx="753.941207" cy="130.5" rx="1.99791883" ry="2"></ellipse>
            </g>
            <g id="Stars" transform="translate(67.000000, 623.000000)" fill="#F1D9FF">
                <ellipse id="Star_S" cx="593.901405" cy="1.1484375" rx="1" ry="1"></ellipse>
                <ellipse id="Star_S" cx="51.2557232" cy="72.234375" rx="1" ry="1"></ellipse>
                <ellipse id="Star_S" cx="677.384755" cy="468.523438" rx="1" ry="1"></ellipse>
                <ellipse id="Star_S" cx="733.755723" cy="71.1484375" rx="1" ry="1"></ellipse>
                <ellipse id="Star_S" cx="817.738554" cy="539.023438" rx="1.49843913" ry="1.5"></ellipse>
                <ellipse id="Star_S" cx="734.298127" cy="129.5" rx="1" ry="1"></ellipse>
                <ellipse id="Star_S" cx="450.83949" cy="122.234375" rx="1" ry="1"></ellipse>
                <ellipse id="Star_S" cx="543.953434" cy="351.148438" rx="1" ry="1"></ellipse>
                <ellipse id="Star_S" cx="1.30775234" cy="422.234375" rx="1" ry="1"></ellipse>
                <ellipse id="Star_S" cx="683.807752" cy="421.148438" rx="1" ry="1"></ellipse>
                <ellipse id="Star_S" cx="271.026795" cy="272.234375" rx="1" ry="1"></ellipse>
                <ellipse id="Star_S" cx="814.21488" cy="259.5" rx="1" ry="1"></ellipse>
                <ellipse id="Star_S" cx="530.756243" cy="252.234375" rx="1" ry="1"></ellipse>
                <ellipse id="Star_S" cx="322.96488" cy="506.273438" rx="1" ry="1"></ellipse>
            </g>
            <g id="Random-Stars" transform="translate(439.000000, 865.500000) scale(1, -1) translate(-439.000000, -865.500000) translate(43.000000, 607.000000)" fill="#F1D9FF">
                <path d="M127,514 C127,515.657 125.657,517 124,517 C122.343,517 121,515.657 121,514 C121,512.343 122.343,511 124,511 C125.657,511 127,512.343 127,514" id="Star-1"></path>
                <path d="M327,214 C327,215.657 325.657,217 324,217 C322.343,217 321,215.657 321,214 C321,212.343 322.343,211 324,211 C325.657,211 327,212.343 327,214" id="Star-2"></path>
                <path d="M460.5,302 C460.5,303.381 459.381,304.5 458,304.5 C456.619,304.5 455.5,303.381 455.5,302 C455.5,300.619 456.619,299.5 458,299.5 C459.381,299.5 460.5,300.619 460.5,302" id="Star-3"></path>
                <path d="M272,74.5 C272,75.881 270.881,77 269.5,77 C268.119,77 267,75.881 267,74.5 C267,73.119 268.119,72 269.5,72 C270.881,72 272,73.119 272,74.5" id="Star-4"></path>
                <path d="M792,438 C792,440.209 790.209,442 788,442 C785.791,442 784,440.209 784,438 C784,435.791 785.791,434 788,434 C790.209,434 792,435.791 792,438" id="Star-5"></path>
                <path d="M4,319 C4,320.104 3.104,321 2,321 C0.896,321 0,320.104 0,319 C0,317.896 0.896,317 2,317 C3.104,317 4,317.896 4,319" id="Star-6"></path>
                <path d="M4,319 C4,320.104 3.104,321 2,321 C0.896,321 0,320.104 0,319 C0,317.896 0.896,317 2,317 C3.104,317 4,317.896 4,319" id="Star-7"></path>
                <path d="M412,382 C412,383.104 411.104,384 410,384 C408.896,384 408,383.104 408,382 C408,380.896 408.896,380 410,380 C411.104,380 412,380.896 412,382" id="Star-8"></path>
                <path d="M144,277 C144,278.104 143.104,279 142,279 C140.896,279 140,278.104 140,277 C140,275.896 140.896,275 142,275 C143.104,275 144,275.896 144,277" id="Star-9"></path>
                <path d="M713,3 C713,4.657 711.657,6 710,6 C708.343,6 707,4.657 707,3 C707,1.343 708.343,0 710,0 C711.657,0 713,1.343 713,3" id="Star-10"></path>
            </g>
            <g id="Random-Stars" transform="translate(480.000000, 315.631929) scale(1, -1) translate(-480.000000, -315.631929) translate(84.000000, 57.131929)" fill="#F1D9FF">
                <path d="M127,514 C127,515.657 125.657,517 124,517 C122.343,517 121,515.657 121,514 C121,512.343 122.343,511 124,511 C125.657,511 127,512.343 127,514" id="Star-1"></path>
                <path d="M327,214 C327,215.657 325.657,217 324,217 C322.343,217 321,215.657 321,214 C321,212.343 322.343,211 324,211 C325.657,211 327,212.343 327,214" id="Star-2"></path>
                <path d="M460.5,302 C460.5,303.381 459.381,304.5 458,304.5 C456.619,304.5 455.5,303.381 455.5,302 C455.5,300.619 456.619,299.5 458,299.5 C459.381,299.5 460.5,300.619 460.5,302" id="Star-3"></path>
                <path d="M272,74.5 C272,75.881 270.881,77 269.5,77 C268.119,77 267,75.881 267,74.5 C267,73.119 268.119,72 269.5,72 C270.881,72 272,73.119 272,74.5" id="Star-4"></path>
                <path d="M792,438 C792,440.209 790.209,442 788,442 C785.791,442 784,440.209 784,438 C784,435.791 785.791,434 788,434 C790.209,434 792,435.791 792,438" id="Star-5"></path>
                <path d="M4,319 C4,320.104 3.104,321 2,321 C0.896,321 0,320.104 0,319 C0,317.896 0.896,317 2,317 C3.104,317 4,317.896 4,319" id="Star-6"></path>
                <path d="M4,319 C4,320.104 3.104,321 2,321 C0.896,321 0,320.104 0,319 C0,317.896 0.896,317 2,317 C3.104,317 4,317.896 4,319" id="Star-7"></path>
                <path d="M412,402 C412,403.104 411.104,404 410,404 C408.896,404 408,403.104 408,402 C408,400.896 408.896,400 410,400 C411.104,400 412,400.896 412,402" id="Star-8"></path>
                <path d="M144,277 C144,278.104 143.104,279 142,279 C140.896,279 140,278.104 140,277 C140,275.896 140.896,275 142,275 C143.104,275 144,275.896 144,277" id="Star-9"></path>
                <path d="M713,3 C713,4.657 711.657,6 710,6 C708.343,6 707,4.657 707,3 C707,1.343 708.343,0 710,0 C711.657,0 713,1.343 713,3" id="Star-10"></path>
            </g>
            <g id="Aurora" transform="translate(496.977527, 827.613964) rotate(-8.000000) translate(-496.977527, -827.613964) translate(-100.522473, 655.613964)">
                <path d="M72.2179539,124.768271 C139.631119,102.227264 201.878323,-10.7083483 353.17678,11.7803418 C504.475237,34.2690319 646.977945,48.3446741 799.593592,24.4703399 C952.20924,0.596005637 948.909025,10.1120996 1102.84186,0.94622069 C1136.78478,-1.07489879 1194.72338,2.04146406 1194.66131,2.04146406 C1194.59924,2.04146406 1194.59924,37.9885304 1194.59924,37.9885304 C1194.59924,37.9885304 1143.15133,62.4373048 1109.41719,70 C1061.87769,80.6576511 1119.31399,102.569091 1020.38956,148.55693 C921.465131,194.544769 386.22718,226.428125 345.495578,152.410514 C304.763976,78.3929032 268.974177,99.4738791 214.163587,108 C190.059919,111.749472 119.033316,158.84017 1.08377657,249.272094 L0.505310596,189.998047 C29.9939088,152.63715 53.8981232,130.893891 72.2179539,124.768271 Z" id="Path-3" fill="url(#radialGradient-2)" filter="url(#filter-3)"></path>
                <path d="M1194.32615,202.614115 C1138.62025,227.5 1072.06004,169.793707 942.236491,150.497002 C790.938035,128.008312 648.435327,123.93267 495.819679,147.807004 C343.204031,171.681338 346.504246,252.165244 192.571408,261.331123 C122.658777,265.494047 39.0643961,361.331123 1.1105525,340.544218 L1.1105525,301.691406 C14.1851374,317.998047 68.6616014,214.159006 109.572068,204.987487 C157.11157,194.329835 176.099281,159.708253 275.023711,113.720414 C373.94814,67.7325744 911.196501,39.8668296 949.917693,39.8668296 C988.638886,39.8668296 1089.47044,96.5261209 1144.28103,88 C1165.33981,84.7241778 1194.69706,157.073416 1194.5116,157.073416 C1194.32615,157.073416 1194.32615,202.614115 1194.32615,202.614115 Z" id="Path-3" fill="url(#radialGradient-4)" filter="url(#filter-5)"></path>
            </g>
        </g>
    </g>
</svg>