<?xml version="1.0" encoding="UTF-8"?>
<svg width="150px" height="285px" viewBox="0 0 150 285" version="1.1" xmlns="http://www.w3.org/2000/svg" xmlns:xlink="http://www.w3.org/1999/xlink">
    <!-- Generator: Sketch 45.2 (43514) - http://www.bohemiancoding.com/sketch -->
    <title>Animal/Zearned/Bear</title>
    <desc>Created with Sketch.</desc>
    <defs>
        <radialGradient cx="50.8963466%" cy="50%" fx="50.8963466%" fy="50%" r="50%" id="radialGradient-1">
            <stop stop-color="#000000" offset="0%"></stop>
            <stop stop-color="#000000" stop-opacity="0" offset="100%"></stop>
        </radialGradient>
        <path d="M70.0992,0.0152 C108.7592,0.0152 140.0992,31.3552 140.0992,70.0152 C140.0992,108.6752 108.7592,140.0152 70.0992,140.0152 C31.4392,140.0152 0.0992,108.6752 0.0992,70.0152 C0.0992,31.3552 31.4392,0.0152 70.0992,0.0152" id="path-2"></path>
        <path d="M24.9377776,63.4215755 C50.923586,64.6464411 52.4165327,48.7725179 49.9628966,37.1907008 C46.0168485,18.564301 56.0168485,6.56430101 33.6892803,1.19880682 C15.0223802,-3.2869994 14.6420113,13.0094317 8.21957846,22.5873132 C-1.75881782,37.4682139 -7.47451946,61.8945493 24.9377776,63.4215755 Z" id="path-4"></path>
        <path d="M24.8212734,4.05949673 C28.7341513,1.067296 11.4197427,-4.57844229 2.29814401,10.15442 C-3.13466234,18.9292439 5.79833951,30.918326 6.91065541,32.1026332 C8.37887183,33.6641341 17.0847463,28.991799 15.3113274,25.6203766 C13.5389225,22.2479402 8.81487532,13.5511914 13.3057113,10.0337586 C17.7965473,6.51632573 22.2944811,5.99210758 24.8212734,4.05949673" id="path-6"></path>
        <path d="M43.618,0.2628 C59.798,-0.5872 89.386,5.8408 90.765,32.1038 C92.145,58.3678 64.348,75.8088 47.634,76.6868 C30.918,77.5648 2.282,63.7748 0.978,38.9648 C-0.325,14.1548 27.951,1.0858 43.618,0.2628" id="path-8"></path>
        <path d="M1.50292778,14.2274314 C-1.22750458,16.2112066 6.00642245,26.2535834 18.2598113,25.3830224 C30.5132002,24.5124614 37.2341508,14.0694938 35.4518175,12.8922988 C31.1916669,10.0785555 28.4726862,15.0683376 18.0631128,15.328975 C7.6535393,15.5896124 4.23336013,12.2436562 1.50292778,14.2274314 Z" id="path-10"></path>
    </defs>
    <g id="Symbols" stroke="none" stroke-width="1" fill="none" fill-rule="evenodd">
        <g id="Animal/Zearned/Bear">
            <g id="Planets/Earth1" transform="translate(0.000000, 135.000000)">
                <circle id="Moon-Shadow" fill="url(#radialGradient-1)" cx="75" cy="75" r="75"></circle>
                <g id="Planet-2" transform="translate(5.000000, 5.000000)">
                    <mask id="mask-3" fill="white">
                        <use xlink:href="#path-2"></use>
                    </mask>
                    <use id="Mask" fill="#1CC7E6" xlink:href="#path-2"></use>
                    <path d="M145,89 C119,124 23.8973339,142.36156 33,119 C43,93.3354757 -94,92 -55,200 C-16,308 5.3505,143.0972 28.6475,153.1202 C51.9435,163.1442 93.1645,160.6622 100.5305,163.6692 C113.0725,168.7882 258.33,151.958 256,145 C199.333333,84.3333333 162.333333,65.6666667 145,89 Z" id="Fill-3" fill="#FAD232" mask="url(#mask-3)"></path>
                    <path d="M2.75097656,22 C4.50097656,33.75 -54.0770234,39.843 -56.7490234,46 C-59.4210234,52.157 -26.2519531,28.5240234 -26.2519531,40.2490234 C-26.2519531,45.8500234 65.2845772,40.3914683 46.5,30 C23,17 97.2490234,26.7490234 93.75,22 C90.2509766,17.2509766 1.00097656,10.25 2.75097656,22 Z" id="Fill-6" fill="#FAD232" mask="url(#mask-3)"></path>
                    <path d="M140.8243,71.1671 C140.8243,110.3921 109.0253,142.1911 69.7983,142.1911 C45.8283,142.1911 24.6313,130.3161 11.7693,112.1291 C16.5143,112.4781 21.7313,114.1981 27.6693,115.9171 C42.7163,120.2791 62.3913,124.6391 90.7783,106.6631 C138.6513,76.3391 117.2253,49.4251 137.0863,48.3691 C139.5113,55.5251 140.8243,63.1921 140.8243,71.1671" id="Fill-9" fill-opacity="0.25" fill="#136FCB" mask="url(#mask-3)"></path>
                    <path d="M8,-34 C-20.51,-19.777 -46.2490234,50.75 -24.5,25.5 C-2.75097656,0.25 123,12.2980008 104,23.2740004 C85,34.25 145,64 145,64 C145,64 119.749023,9.25 76.75,-0.75" id="Fill-12" fill="#FAD232" mask="url(#mask-3)"></path>
                    <ellipse id="Shadow" fill-opacity="0.25" fill="#000000" mask="url(#mask-3)" cx="66.3171397" cy="13.1711662" rx="44.6412123" ry="17.7434318"></ellipse>
                </g>
            </g>
            <g id="Bear" transform="translate(31.759766, 81.486309)">
                <path d="M48.7433511,48.8817892 C40.9682934,55.1166392 12.7477137,54.0083791 5.65505216,38.7898292 C-1.288557,23.8906772 16.9688359,2.33790905 19.2198307,2.06515337 C21.4708255,1.7923977 45.2614069,3.92780087 50.2947124,9.54007842 C55.3280179,15.152356 54.451955,44.3037525 48.7433511,48.8817892" id="Fill-1" fill="#CFDEE6"></path>
                <path d="M58.298286,17.3200507 C56.130436,12.8971501 74.1454921,15.5638691 75.7404537,32.818454 C76.6905357,43.094955 63.3488288,49.8438835 61.8248445,50.4076462 C59.8141586,51.15088 54.1055547,43.0858293 57.1961097,40.8591696 C60.2866647,38.6314959 68.3922739,32.9533109 65.9415286,27.8023859 C63.4907834,22.6514608 59.698567,20.1763805 58.298286,17.3200507" id="Fill-3" fill="#65C6FD" transform="translate(66.042964, 32.945622) rotate(-8.000000) translate(-66.042964, -32.945622) "></path>
                <path d="M65.9272592,59.6723824 C60.1614761,60.0261081 52.3148544,60.811859 52.4063553,58.5975226 C52.8336287,48.2574425 69.7466459,47.5887524 72.0716551,48.2574425 C76.8042675,49.6185774 80.136043,72.7644356 74.1209785,75.2776435 C67.9610038,77.8508735 61.8773427,73.1923069 64.263647,68.4497094 C65.1600885,66.6676032 65.5846988,64.2166496 65.9272592,61.3636841 L65.9272592,59.6723824 Z" id="Leg-L" fill="#99DCFF" transform="translate(64.885544, 62.042101) rotate(15.000000) translate(-64.885544, -62.042101) "></path>
                <g id="Body" transform="translate(11.223386, 0.949390)">
                    <mask id="mask-5" fill="white">
                        <use xlink:href="#path-4"></use>
                    </mask>
                    <use id="Mask" fill="#FFFFFF" xlink:href="#path-4"></use>
                    <path d="M42.6922455,6.95750043 C39.0146068,17.8312248 36.4594235,21.339532 36.2495334,32.725307 C36.0366015,44.2418831 35.8398929,54.7019111 30.6818702,60.6366285 C25.5228335,66.5703319 20.5868683,66.7416914 22.5853867,68.7615029 C34.0897952,80.3956985 45.0375388,71.9717054 50.923586,64.6468467 C56.8106471,57.3219879 51.9993992,39.9994677 58.4867257,25.6569806 C64.9740521,11.3144935 62.0355913,0.766250795 55.6760241,2.03370282 C49.3174708,3.3021688 48.4079472,-2.41556076 45.4421094,-0.68472828" id="Fill-11" fill="#E4E4E4" mask="url(#mask-5)"></path>
                </g>
                <path d="M30.9948256,75.7944509 C27.0624777,80.7954275 -0.651392806,87.2743751 0.330321215,74.9847592 C1.3397748,62.3478849 26.674253,75.5218135 20.5718232,60.6943802 C16.4952336,50.7892501 28.7661183,51.618783 29.9621604,54.6427966 C32.4076759,60.8254298 35.4070288,70.1841506 30.9948256,75.7944509 Z" id="Leg-R" fill="#99DCFF"></path>
                <g id="Panel" transform="translate(43.000000, 18.500000) rotate(-16.000000) translate(-43.000000, -18.500000) translate(28.000000, 5.000000)">
                    <path d="M1.5143802,4.26681576 C-0.0815953914,12.1280602 -0.348267297,17.1857007 1.03984616,20.3147863 C2.01020743,22.5008875 23.2202565,26.6915909 26.1952199,26.3833466 C29.1711973,26.0761162 29.2178395,18.4967531 29.6315359,13.8629485 C30.0452322,9.22914392 10.8397852,-1.4164391 5.91598758,0.500962315 C0.992189962,2.41734977 1.81654076,2.78034803 1.5143802,4.26681576" id="Fill-14" fill="#DFEAEF"></path>
                    <path d="M3.92852141,6.04418908 C2.28387567,11.6077965 2.65599958,17.4451735 3.5351043,19.3727145 C4.35844114,21.1795942 21.955745,24.6686361 24.4267695,24.4131178 C26.8988079,24.1575994 26.9373384,17.8629257 27.2810714,14.0139274 C27.6248044,10.1659431 11.6741742,1.32419775 7.584867,2.91611749 C3.49454584,4.50803723 4.2854359,4.83554684 3.92852141,6.04418908" id="Fill-16" fill="#B8C5CC"></path>
                    <path d="M10.9425978,15.6478918 C10.5968369,17.3158587 9.05358736,18.4058674 7.49512835,18.0824137 C5.93666934,17.7599739 4.95414053,16.145747 5.29990145,14.4777801 C5.64566236,12.8098133 7.18891194,11.7198045 8.74737095,12.0432583 C10.30583,12.3656981 11.2883588,13.979925 10.9425978,15.6478918" id="Fill-18" fill="#F69799"></path>
                    <path d="M10.9425978,15.6478918 C10.5968369,17.3158587 9.05358736,18.4058674 7.49512835,18.0824137 C5.93666934,17.7599739 4.95414053,16.145747 5.29990145,14.4777801 C5.64566236,12.8098133 7.18891194,11.7198045 8.74737095,12.0432583 C10.30583,12.3656981 11.2883588,13.979925 10.9425978,15.6478918 Z" id="Stroke-20" stroke="#F15B5C" stroke-width="0.25"></path>
                    <path d="M24.9644703,19.8782411 C24.8367111,20.4967577 24.2638228,20.9003144 23.6868786,20.7806669 C23.1089205,20.6610195 22.7449083,20.0627821 22.8726675,19.4442655 C23.0014406,18.825749 23.5733149,18.4221922 24.1502591,18.5418397 C24.7282172,18.6614872 25.0922294,19.2597245 24.9644703,19.8782411" id="Fill-22" fill="#F69799"></path>
                    <path d="M24.9644703,19.8782411 C24.8367111,20.4967577 24.2638228,20.9003144 23.6868786,20.7806669 C23.1089205,20.6610195 22.7449083,20.0627821 22.8726675,19.4442655 C23.0014406,18.825749 23.5733149,18.4221922 24.1502591,18.5418397 C24.7282172,18.6614872 25.0922294,19.2597245 24.9644703,19.8782411 Z" id="Stroke-24" stroke="#F15B5C" stroke-width="0.25"></path>
                    <path d="M21.6201207,19.5143303 C21.4923615,20.1328469 20.9194732,20.5364036 20.342529,20.4167561 C19.7645709,20.2971087 19.4005587,19.6988713 19.5283178,19.0803547 C19.657091,18.4618381 20.2289653,18.0582814 20.8059095,18.1779289 C21.3838676,18.2975763 21.7478798,18.8958137 21.6201207,19.5143303" id="Fill-26" fill="#F69799"></path>
                    <path d="M21.6201207,19.5143303 C21.4923615,20.1328469 20.9194732,20.5364036 20.342529,20.4167561 C19.7645709,20.2971087 19.4005587,19.6988713 19.5283178,19.0803547 C19.657091,18.4618381 20.2289653,18.0582814 20.8059095,18.1779289 C21.3838676,18.2975763 21.7478798,18.8958137 21.6201207,19.5143303 Z" id="Stroke-28" stroke="#F15B5C" stroke-width="0.25"></path>
                </g>
                <g id="Arm-R" transform="translate(0.083770, 15.144853)">
                    <mask id="mask-7" fill="white">
                        <use xlink:href="#path-6"></use>
                    </mask>
                    <use id="Mask" fill="#99DCFF" xlink:href="#path-6"></use>
                    <polygon id="Fill-37" fill="#FAF077" mask="url(#mask-7)" points="16.1201646 -1.01487418 18.803107 3.42729166 14.4238068 4.75051158 11.6283146 -0.124615883"></polygon>
                </g>
            </g>
            <g id="Animal/Head/Bear" transform="translate(22.726562, 10.857422)">
                <path d="M54.48895,2.59162396 C80.6216152,5.3344421 102.760423,19.9780012 100.713249,39.4747905 C98.6662319,58.9705921 92.0313431,91.1387097 48.7163614,86.5917734 C5.40137964,82.0448371 -0.271861371,58.5359128 2.57076175,31.4470886 C4.85477389,9.70065211 34.3965172,0.482508271 54.48895,2.59162396 Z" id="Helmet" fill="#FFFFFF"></path>
                <g id="Head" stroke-width="1" transform="translate(50.526726, 44.876695) rotate(9.000000) translate(-50.526726, -44.876695) translate(5.026726, 6.376695)">
                    <mask id="mask-9" fill="white">
                        <use xlink:href="#path-8"></use>
                    </mask>
                    <use id="Mask" fill="#C7E7F8" xlink:href="#path-8"></use>
                    <path d="M82.3931502,70.2427508 C83.8010604,79.1319458 24.3833255,87.5303254 23.1812,81.0365 C21.9790745,74.5426746 38.7201574,62.9853615 53.5354825,60.6388446 C68.3508076,58.2923276 80.98524,61.3535557 82.3931502,70.2427508 Z" id="Fill-56" fill="#945749" mask="url(#mask-9)"></path>
                    <g mask="url(#mask-9)">
                        <g transform="translate(45.233331, 40.253059) rotate(-6.000000) translate(-45.233331, -40.253059) translate(-2.266669, 0.253059)">
                            <g id="Ear-R" stroke-width="1" fill="none" fill-rule="evenodd" transform="translate(14.808102, 23.140678) rotate(-8.000000) translate(-14.808102, -23.140678) translate(2.308102, 10.140678)">
                                <path d="M24.3484995,11.7351617 C24.5752058,6.83982785 22.9932446,2.42063593 17.8711782,0.890534129 C12.5622662,-0.696605505 6.69530795,0.573106203 2.92102273,4.66247066 C-0.506974947,8.37488947 -0.566765604,13.9893959 1.25435817,18.4557061 C2.37792426,21.2108812 6.04010201,26.6121158 9.90905578,25.2556075 C11.3315752,24.7571464 13.25235,21.8606165 14.4232503,20.7471389 C16.0699847,19.1823184 17.823844,17.7662923 19.5652469,16.2957082 C21.2717719,14.8524031 22.7441168,13.461176 24.3484995,11.7351617" id="Fill-17" fill="#945749" fill-rule="nonzero"></path>
                                <path d="M22.0632508,17.0461277 C24.2954352,9.84696148 15.8799003,3.60751879 10.0702414,8.81780062 C5.5236602,12.8922857 7.85549584,19.1565274 12.554045,21.9712204 C14.6541918,23.2285325 15.0677438,22.638315 17.1728733,21.1156529 C18.769782,19.9575369 20.8151208,19.0771704 22.0632508,17.0461277" id="Fill-19" fill="#F8BD65" fill-rule="nonzero"></path>
                            </g>
                            <g id="Ear-L" stroke-width="1" fill="none" fill-rule="evenodd" transform="translate(78.563651, 15.284919) rotate(-8.000000) translate(-78.563651, -15.284919) translate(65.563651, 2.284919)">
                                <path d="M0.959366007,10.6800982 C1.18607225,5.78476438 3.16414649,1.52924624 8.4057941,0.470326511 C13.8417614,-0.623311893 19.5667168,1.17461972 22.9498714,5.59381164 C26.0191252,9.60133922 25.5632215,15.1984863 23.3360194,19.4788035 C21.9633256,22.1199031 17.8228226,27.1665111 14.0933803,25.460336 C12.7231778,24.8353998 11.0764435,21.7751962 10.012668,20.5600425 C8.51790157,18.8513874 6.90106256,17.2791273 5.30415376,15.6572689 C3.73714028,14.0651695 2.39683306,12.5449872 0.959366007,10.6800982" id="Fill-21" fill="#945749" fill-rule="nonzero"></path>
                                <path d="M2.74611014,16.1773052 C1.1865705,8.80454552 10.1427127,3.36115256 15.4466422,9.07733515 C19.5971103,13.551085 16.6997548,19.5747759 11.762043,21.9480457 C9.55477122,23.0094453 9.19851856,22.384509 7.24286582,20.6758541 C5.75806449,19.3763835 3.80241175,18.3125039 2.74611014,16.1773052" id="Fill-24" fill="#F8BD65" fill-rule="nonzero"></path>
                            </g>
                            <path d="M18.0031611,23.3011664 C6.00954929,38.2809522 10.020857,59.2165399 22.634951,67.1134666 C35.2490449,75.0127596 59.0612132,78.1042363 73.3109077,69.2820181 C87.5629795,60.4574333 93.4547468,47.6379938 88.4766252,33.6284626 C83.4985036,19.6189314 71.0413133,13.0235661 61.3774814,11.5042892 C51.7112722,9.98501237 45.4327532,10.1293673 45.4327532,10.1293673 C45.4327532,10.1293673 29.4785156,8.96979466 18.0031611,23.3011664 Z" id="path-1" fill="#9F6A5C" fill-rule="nonzero" transform="translate(50.514646, 42.363504) rotate(-8.000000) translate(-50.514646, -42.363504) "></path>
                            <path d="M49.7747054,39.5989803 C58.1806945,39.5989803 75.9645634,48.4976676 75.1147149,56.8252757 C74.2648664,65.1528838 64.6125907,71.3863567 49.7105846,70.7708553 C34.8085784,70.1553539 24.990095,63.664573 24.2976184,55.7317928 C23.6051418,47.7990125 41.5089334,39.5989803 49.7747054,39.5989803 Z" id="Fill-29" fill="#F8BD65" fill-rule="nonzero" transform="translate(49.711109, 55.205881) rotate(-8.000000) translate(-49.711109, -55.205881) "></path>
                            <g id="Mouth" stroke-width="1" fill="none" fill-rule="evenodd" transform="translate(51.814402, 55.667088) rotate(-4.000000) translate(-51.814402, -55.667088) translate(32.814402, 39.667088)">
                                <mask id="mask-11" fill="white">
                                    <use xlink:href="#path-10"></use>
                                </mask>
                                <use id="Mask" fill="#000000" xlink:href="#path-10"></use>
                                <path d="M16.9689043,18.3027235 C32.3790894,18.3027235 35.8841512,13.4534429 35.8841512,11.6035048 C35.8841512,9.75356659 22.9441418,8.67259656 16.0019907,8.67259656 C9.05983956,8.67259656 -0.918760913,8.61709198 -0.918760913,10.4670302 C-0.918760913,12.3169683 1.55871907,18.3027235 16.9689043,18.3027235 Z" id="Oval-15" fill="#FFFFFF" mask="url(#mask-11)"></path>
                            </g>
                            <path d="M54.5466457,43.7605636 C52.815208,41.3476154 41.9706775,40.2316579 42.3941947,44.8393227 C42.8002729,49.2733939 47.6906504,53.558671 51.4798833,49.9008102 C52.797769,48.6261386 55.8695141,45.6031336 54.5466457,43.7605636 L54.5466457,43.7605636 Z" id="Nose" fill="#2D2317" fill-rule="nonzero" transform="translate(48.626315, 46.473818) rotate(-8.000000) translate(-48.626315, -46.473818) "></path>
                            <g id="Eye-R" stroke-width="1" fill="none" fill-rule="evenodd" transform="translate(29.546185, 32.686236) rotate(-8.000000) translate(-29.546185, -32.686236) translate(22.546185, 25.686236)">
                                <path d="M13.4694273,6.96726709 C13.3025117,10.5953691 10.2133278,13.4001424 6.56858894,13.2339888 C2.92385014,13.067835 0.106215422,9.9902721 0.273131007,6.36465 C0.442537869,2.73654799 3.53172182,-0.0682253264 7.17396935,0.0979283536 C10.8187082,0.264082035 13.6363429,3.33916508 13.4694273,6.96726709" id="Fill-34" fill="#FFFFFF" fill-rule="nonzero"></path>
                                <path d="M11.137756,6.66939949 C11.0381049,8.81947771 9.20701598,10.4810146 7.04956978,10.3818183 C4.88963228,10.2826221 3.22047644,8.46237129 3.31763626,6.31229307 C3.41728735,4.16221485 5.24837623,2.50067804 7.40831371,2.59987428 C9.56575992,2.6965906 11.237407,4.51932127 11.137756,6.66939949" id="Fill-36" fill="#1D1C1A" fill-rule="nonzero"></path>
                                <path d="M9.6320279,5.13805773 C9.61209768,5.59188047 9.22594969,5.94154717 8.77004593,5.92170793 C8.31414216,5.89938878 7.96287206,5.5150034 7.98280227,5.06366056 C8.00273249,4.60983783 8.38888048,4.25769122 8.84478425,4.28001037 C9.30068801,4.29984962 9.65195812,4.684235 9.6320279,5.13805773" id="Fill-38" fill="#FFFFFF" fill-rule="nonzero"></path>
                            </g>
                            <g id="Eye-L" stroke-width="1" fill="none" fill-rule="evenodd" transform="translate(65.617839, 28.815865) rotate(-8.000000) translate(-65.617839, -28.815865) translate(58.617839, 21.815865)">
                                <path d="M13.9851598,7.08469344 C13.8182443,10.7127954 10.7290603,13.5175688 7.08432146,13.3514151 C3.44207393,13.1852614 0.621947942,10.1076985 0.788863526,6.48207637 C0.958270388,2.85397435 4.04745434,0.0492010302 7.68970187,0.215354711 C11.3344407,0.381508389 14.1520754,3.45659144 13.9851598,7.08469344" id="Fill-40" fill="#FFFFFF" fill-rule="nonzero"></path>
                                <path d="M11.6534885,6.78682584 C11.5538374,8.93690407 9.7227485,10.5984409 7.56530229,10.4992447 C5.4053648,10.4000484 3.73620896,8.57979765 3.83336878,6.42971943 C3.93301987,4.2796412 5.76410875,2.6181044 7.92404623,2.71730063 C10.0814924,2.81401695 11.7531396,4.63674763 11.6534885,6.78682584" id="Fill-42" fill="#1D1C1A" fill-rule="nonzero"></path>
                                <path d="M10.1477604,5.25548409 C10.1278302,5.70930683 9.74168221,6.05897353 9.28577845,6.03913429 C8.82987469,6.01681514 8.47860458,5.63242976 8.49853479,5.18108692 C8.51846501,4.72726418 8.90461302,4.37511757 9.36051677,4.39743672 C9.81642053,4.41727597 10.1676906,4.80166135 10.1477604,5.25548409" id="Fill-44" fill="#FFFFFF" fill-rule="nonzero"></path>
                            </g>
                        </g>
                    </g>
                </g>
            </g>
        </g>
    </g>
</svg>