<?xml version="1.0" encoding="UTF-8"?>
<svg width="114px" height="168px" viewBox="0 0 114 168" version="1.1" xmlns="http://www.w3.org/2000/svg" xmlns:xlink="http://www.w3.org/1999/xlink">
    <!-- Generator: Sketch 44.1 (41455) - http://www.bohemiancoding.com/sketch -->
    <title>Animal_Success/Bear NoFlag</title>
    <desc>Created with Sketch.</desc>
    <defs>
        <path d="M1.5506,4.2931 C3.6036,10.5971 2.8456,30.4361 1.1346,34.1321 C-1.4664,39.7501 4.5226,43.6311 11.6046,40.3971 C18.5206,37.2391 18.9376,23.0921 12.4626,10.7131 C4.5836,-4.3529 0.5716,1.2831 1.5506,4.2931" id="path-1"></path>
        <path d="M7.0174,0.569 C14.2044,1.44 30.2204,-0.499 36.8954,1.643 C38.7714,2.245 41.1244,3.356 41.1204,4.483 C41.1144,5.77 40.0204,4.95 39.4304,6.544 C39.1344,7.344 40.2724,7.837 40.2194,8.622 C40.1184,10.106 38.6054,10.332 38.3444,11.642 C38.2564,12.078 38.8714,13.633 38.1454,13.864 C36.9614,14.239 33.3684,14.359 31.3324,14.206 C27.1294,13.89 3.0964,8.583 1.0754,4.908 C-0.9476,1.234 4.7824,0.298 7.0174,0.569" id="path-3"></path>
        <path d="M4.994,24.7501 C-2.73,40.6421 -4.992,65.2791 26.876,62.3651 C52.427,60.0281 50.077,47.7601 50.116,35.9981 C50.174,18.3311 44.42,3.1191 26.965,0.3951 C8.159,-2.5409 9.965,14.5211 4.994,24.7501" id="path-5"></path>
        <path d="M43.618,0.2628 C59.798,-0.5872 89.386,5.8408 90.765,32.1038 C92.145,58.3678 64.348,75.8088 47.634,76.6868 C30.918,77.5648 2.282,63.7748 0.978,38.9648 C-0.325,14.1548 27.951,1.0858 43.618,0.2628" id="path-7"></path>
        <path d="M5.13533802,7.37174358 C0.308055495,10.1059097 6.53817919,20.812286 19.6714245,26.2468375 C32.8046698,31.681389 43.9909244,27.8595608 43.871994,23.2753812 C43.6853797,16.0210843 32.5785225,21.6340581 23.0340949,17.471 C13.4896673,13.3079419 9.96262054,4.63757749 5.13533802,7.37174358 Z" id="path-9"></path>
        <path d="M22.7166,3.6393 C26.1326,0.1843 8.4506,-2.9767 1.5446,12.6553 C-2.5694,21.9653 7.7866,32.4623 9.0336,33.4673 C10.6806,34.7933 18.5496,29.0453 16.3596,25.9933 C14.1686,22.9403 8.3726,15.0873 12.2806,11.0403 C16.1886,6.9943 20.5106,5.8703 22.7166,3.6393" id="path-11"></path>
    </defs>
    <g id="Symbols" stroke="none" stroke-width="1" fill="none" fill-rule="evenodd">
        <g id="Animal_Success/Bear-NoFlag">
            <ellipse id="Shadow" fill-opacity="0.25" fill="#000000" cx="52.6542969" cy="156.326172" rx="32.0371094" ry="11.3261719"></ellipse>
            <g id="Bear">
                <path d="M67.0145,114.2516 C60.2675,121.3986 32.5505,124.1536 23.5525,110.2516 C14.7445,96.6416 29.6485,73.1066 31.8095,72.5346 C33.9715,71.9616 57.5015,70.8136 63.1805,75.6116 C68.8605,80.4096 71.9675,109.0036 67.0145,114.2516" id="Backpack" fill="#A1AEB4"></path>
                <path d="M47.0789,119.006 C44.9719,125.292 45.5539,145.137 47.2309,148.848 C49.7819,154.489 43.7599,158.317 36.7059,155.02 C29.8179,151.8 29.5259,137.651 36.1109,125.329 C44.1239,110.334 48.0859,116.006 47.0789,119.006" id="R-leg" fill="#9DDBF9"></path>
                <g id="L-Leg" transform="translate(56.000000, 115.000000)">
                    <mask id="mask-2" fill="white">
                        <use xlink:href="#path-1"></use>
                    </mask>
                    <use id="Mask" fill="#9DDBF9" xlink:href="#path-1"></use>
                    <path d="M-18.131,12.1881 C-18.713,4.2091 -1.5,0.7791 0.348,-6.7199 C2.197,-14.2189 19.528,-12.3589 18.611,-1.8159 C17.693,8.7281 20.807,28.9551 0.783,26.8431 C-19.24,24.7311 -17.864,15.8511 -18.131,12.1881" id="Fill-21" fill="#3D9CD6" mask="url(#mask-2)"></path>
                </g>
                <g id="L-arm" transform="translate(72.000000, 87.000000)">
                    <mask id="mask-4" fill="white">
                        <use xlink:href="#path-3"></use>
                    </mask>
                    <use id="Mask" fill="#9DDBF9" xlink:href="#path-3"></use>
                    <path d="M29.7078,-13.5087 C35.2048,-7.6957 24.0398,5.8463 27.3508,12.8243 C30.6608,19.8023 16.0598,29.3223 10.1028,20.5743 C4.1458,11.8273 -11.0592,-1.8727 5.7878,-12.8997 C22.6348,-23.9267 27.1858,-16.1767 29.7078,-13.5087" id="Fill-26" fill="#3D9CD6" mask="url(#mask-4)"></path>
                </g>
                <g id="Body" transform="translate(28.000000, 69.000000)">
                    <mask id="mask-6" fill="white">
                        <use xlink:href="#path-5"></use>
                    </mask>
                    <use id="Mask" fill="#FFFFFF" xlink:href="#path-5"></use>
                    <path d="M36.5418,4.7955 C34.4278,15.9175 32.4088,19.6915 33.7518,30.8415 C35.1098,42.1205 36.3408,52.3645 32.1078,58.8625 C27.8758,65.3605 23.0778,66.1985 25.3048,67.9005 C38.1238,77.7005 47.6718,67.9835 52.4268,60.0275 C57.1808,52.0725 50.1268,35.8065 54.5128,20.9145 C58.8988,6.0225 54.5948,-3.8825 48.5558,-1.7795 C42.5178,0.3245 40.8508,-5.1375 38.1888,-3.0435" id="Fill-31" fill="#E4E4E4" mask="url(#mask-6)"></path>
                </g>
                <g id="Lapel" transform="translate(42.000000, 73.000000)">
                    <path d="M0.8455,5.1696 C0.3555,13.0656 0.7825,18.0416 2.5645,20.9106 C3.8085,22.9136 25.0965,24.1236 27.9605,23.4186 C30.8255,22.7126 29.8405,15.3026 29.6155,10.7206 C29.3895,6.1386 9.1825,-1.6494 4.6325,0.8926 C0.0835,3.4346 0.9385,3.6766 0.8455,5.1696" id="Fill-34" fill="#DFEBEF"></path>
                    <path d="M3.4451,6.5773 C2.5941,12.2353 3.7521,17.8873 4.8721,19.6503 C5.9231,21.3043 23.5871,22.3193 25.9661,21.7333 C28.3441,21.1473 27.5271,14.9933 27.3401,11.1873 C27.1521,7.3823 10.3691,0.9143 6.5911,3.0253 C2.8121,5.1363 3.6301,5.3483 3.4451,6.5773" id="Fill-36" fill="#B8C5CC"></path>
                    <path d="M11.1219,16.9181 C11.0119,18.5941 9.6519,19.8691 8.0859,19.7651 C6.5189,19.6611 5.3409,18.2181 5.4509,16.5421 C5.5619,14.8661 6.9219,13.5911 8.4879,13.6951 C10.0539,13.7991 11.2329,15.2421 11.1219,16.9181" id="Fill-38" fill="#F79799"></path>
                    <path d="M11.1219,16.9181 C11.0119,18.5941 9.6519,19.8691 8.0859,19.7651 C6.5189,19.6611 5.3409,18.2181 5.4509,16.5421 C5.5619,14.8661 6.9219,13.5911 8.4879,13.6951 C10.0539,13.7991 11.2329,15.2421 11.1219,16.9181 Z" id="Stroke-40" stroke="#F15B5C" stroke-width="0.25"></path>
                    <path d="M25.3944,19.1442 C25.3534,19.7652 24.8494,20.2382 24.2684,20.1992 C23.6884,20.1612 23.2504,19.6262 23.2914,19.0042 C23.3324,18.3832 23.8374,17.9112 24.4174,17.9492 C24.9984,17.9882 25.4354,18.5222 25.3944,19.1442" id="Fill-42" fill="#F79799"></path>
                    <path d="M25.3944,19.1442 C25.3534,19.7652 24.8494,20.2382 24.2684,20.1992 C23.6884,20.1612 23.2504,19.6262 23.2914,19.0042 C23.3324,18.3832 23.8374,17.9112 24.4174,17.9492 C24.9984,17.9882 25.4354,18.5222 25.3944,19.1442 Z" id="Stroke-44" stroke="#F15B5C" stroke-width="0.25"></path>
                    <path d="M22.078,19.2433 C22.037,19.8643 21.533,20.3373 20.952,20.2983 C20.372,20.2603 19.934,19.7253 19.975,19.1043 C20.017,18.4823 20.521,18.0103 21.101,18.0483 C21.682,18.0873 22.119,18.6213 22.078,19.2433" id="Fill-46" fill="#F79799"></path>
                    <path d="M22.078,19.2433 C22.037,19.8643 21.533,20.3373 20.952,20.2983 C20.372,20.2603 19.934,19.7253 19.975,19.1043 C20.017,18.4823 20.521,18.0103 21.101,18.0483 C21.682,18.0873 22.119,18.6213 22.078,19.2433 Z" id="Stroke-48" stroke="#F15B5C" stroke-width="0.25"></path>
                </g>
                <path d="M47.7986,0.1157 C27.6236,1.1757 -0.1124,14.9017 1.0336,36.7377 C2.4636,63.9377 11.7446,86.2697 55.2376,83.9847 C98.7306,81.6997 100.2516,48.8897 99.2236,29.3137 C98.1956,9.7367 74.0386,-1.2633 47.7986,0.1157" id="Helmet" fill="#F3FAFD"></path>
                <g id="Head" transform="translate(5.000000, 4.000000)">
                    <mask id="mask-8" fill="white">
                        <use xlink:href="#path-7"></use>
                    </mask>
                    <use id="Mask" fill="#C7E6F8" xlink:href="#path-7"></use>
                    <path d="M75.1942,58.5695 C75.4592,66.5375 71.2362,70.6985 58.5222,81.7415 C45.8092,92.7845 18.9652,87.4615 23.1812,81.0365 C27.3982,74.6115 30.3982,64.2565 43.1642,60.4815 C55.9292,56.7045 75.0712,54.8585 75.1942,58.5695" id="Fill-56" fill="#9F6A5C" mask="url(#mask-8)"></path>
                    <g mask="url(#mask-8)">
                        <g transform="translate(47.036388, 40.386854) rotate(-8.000000) translate(-47.036388, -40.386854) translate(2.036388, 4.386854)">
                            <g id="Ear-R" stroke-width="1" fill="none" fill-rule="evenodd">
                                <path d="M24.3484995,11.7351617 C24.5752058,6.83982785 22.9932446,2.42063593 17.8711782,0.890534129 C12.5622662,-0.696605505 6.69530795,0.573106203 2.92102273,4.66247066 C-0.506974947,8.37488947 -0.566765604,13.9893959 1.25435817,18.4557061 C2.37792426,21.2108812 6.04010201,26.6121158 9.90905578,25.2556075 C11.3315752,24.7571464 13.25235,21.8606165 14.4232503,20.7471389 C16.0699847,19.1823184 17.823844,17.7662923 19.5652469,16.2957082 C21.2717719,14.8524031 22.7441168,13.461176 24.3484995,11.7351617" id="Fill-17" fill="#945749" fill-rule="nonzero"></path>
                                <path d="M22.0632508,17.0461277 C24.2954352,9.84696148 15.8799003,3.60751879 10.0702414,8.81780062 C5.5236602,12.8922857 7.85549584,19.1565274 12.554045,21.9712204 C14.6541918,23.2285325 15.0677438,22.638315 17.1728733,21.1156529 C18.769782,19.9575369 20.8151208,19.0771704 22.0632508,17.0461277" id="Fill-19" fill="#F8BD65" fill-rule="nonzero"></path>
                            </g>
                            <g id="Ear-L" stroke-width="1" fill="none" fill-rule="evenodd" transform="translate(63.728395, 1.093750)">
                                <path d="M0.959366007,10.6800982 C1.18607225,5.78476438 3.16414649,1.52924624 8.4057941,0.470326511 C13.8417614,-0.623311893 19.5667168,1.17461972 22.9498714,5.59381164 C26.0191252,9.60133922 25.5632215,15.1984863 23.3360194,19.4788035 C21.9633256,22.1199031 17.8228226,27.1665111 14.0933803,25.460336 C12.7231778,24.8353998 11.0764435,21.7751962 10.012668,20.5600425 C8.51790157,18.8513874 6.90106256,17.2791273 5.30415376,15.6572689 C3.73714028,14.0651695 2.39683306,12.5449872 0.959366007,10.6800982" id="Fill-21" fill="#945749" fill-rule="nonzero"></path>
                                <path d="M2.74611014,16.1773052 C1.1865705,8.80454552 10.1427127,3.36115256 15.4466422,9.07733515 C19.5971103,13.551085 16.6997548,19.5747759 11.762043,21.9480457 C9.55477122,23.0094453 9.19851856,22.384509 7.24286582,20.6758541 C5.75806449,19.3763835 3.80241175,18.3125039 2.74611014,16.1773052" id="Fill-24" fill="#F8BD65" fill-rule="nonzero"></path>
                            </g>
                            <path d="M39.8571994,4.77208249 C39.8571994,4.77208249 23.1382369,3.55692871 11.1128411,18.5752375 C-1.45565338,34.2730405 2.49052999,53.1575221 15.7092478,61.4329674 C28.9279656,69.7108926 53.2129375,73.9788103 68.145654,64.7337219 C83.0808619,55.4861536 90.1810025,44.0785875 84.9642676,29.3975458 C79.7475329,14.7189842 66.6932393,7.80500714 56.5661968,6.2129077 C46.436663,4.62080825 39.8571994,4.77208249 39.8571994,4.77208249" id="path-1" fill="#9F6A5C" fill-rule="nonzero"></path>
                            <path d="M42.5771605,35 C50.9831496,35 68.7670185,43.8986874 67.91717,52.2262955 C67.0673215,60.5539035 57.4150459,66.7873764 42.5130397,66.171875 C27.6110335,65.5563736 17.7925501,59.0655928 17.1000735,51.1328125 C16.4075969,43.2000322 34.3113885,35 42.5771605,35 Z" id="Fill-29" fill="#F8BD65" fill-rule="nonzero"></path>
                            <g id="Mouth" stroke-width="1" fill="none" fill-rule="evenodd" transform="translate(43.000977, 51.750488) rotate(4.000000) translate(-43.000977, -51.750488) translate(19.500977, 33.250488)">
                                <path d="M5.13533802,7.37174358 C0.308055495,10.1059097 6.53817919,20.812286 19.6714245,26.2468375 C32.8046698,31.681389 43.9909244,27.8595608 43.871994,23.2753812 C43.6853797,16.0210843 32.5785225,21.6340581 23.0340949,17.471 C13.4896673,13.3079419 9.96262054,4.63757749 5.13533802,7.37174358 Z" id="Mask" stroke="#F8BD65" stroke-width="10" transform="translate(23.690799, 17.882068) rotate(-21.000000) translate(-23.690799, -17.882068) "></path>
                                <mask id="mask-10" fill="white">
                                    <use xlink:href="#path-9"></use>
                                </mask>
                                <use id="Mask" fill="#000000" transform="translate(23.690799, 17.882068) rotate(-21.000000) translate(-23.690799, -17.882068) " xlink:href="#path-9"></use>
                                <path d="M22.9689043,20.3027235 C38.3790894,20.3027235 41.8841512,15.4534429 41.8841512,13.6035048 C41.8841512,11.7535666 28.9441418,10.6725966 22.0019907,10.6725966 C15.0598396,10.6725966 5.08123909,10.617092 5.08123909,12.4670302 C5.08123909,14.3169683 7.55871907,20.3027235 22.9689043,20.3027235 Z" id="Oval-15" fill="#FFFFFF" mask="url(#mask-10)"></path>
                            </g>
                            <path d="M48.5749263,39.095589 C46.8434886,36.6826408 35.9989581,35.5666833 36.4224753,40.174348 C36.8285535,44.6084193 41.718931,48.8936964 45.5081639,45.2358355 C46.8260496,43.961164 49.8977946,40.938159 48.5749263,39.095589 L48.5749263,39.095589 Z" id="Nose" fill="#2D2317" fill-rule="nonzero"></path>
                            <g id="Eye-R" stroke-width="1" fill="none" fill-rule="evenodd" transform="translate(18.679012, 18.500000)">
                                <path d="M13.4694273,6.96726709 C13.3025117,10.5953691 10.2133278,13.4001424 6.56858894,13.2339888 C2.92385014,13.067835 0.106215422,9.9902721 0.273131007,6.36465 C0.442537869,2.73654799 3.53172182,-0.0682253264 7.17396935,0.0979283536 C10.8187082,0.264082035 13.6363429,3.33916508 13.4694273,6.96726709" id="Fill-34" fill="#FFFFFF" fill-rule="nonzero"></path>
                                <path d="M11.137756,6.66939949 C11.0381049,8.81947771 9.20701598,10.4810146 7.04956978,10.3818183 C4.88963228,10.2826221 3.22047644,8.46237129 3.31763626,6.31229307 C3.41728735,4.16221485 5.24837623,2.50067804 7.40831371,2.59987428 C9.56575992,2.6965906 11.237407,4.51932127 11.137756,6.66939949" id="Fill-36" fill="#1D1C1A" fill-rule="nonzero"></path>
                                <path d="M9.6320279,5.13805773 C9.61209768,5.59188047 9.22594969,5.94154717 8.77004593,5.92170793 C8.31414216,5.89938878 7.96287206,5.5150034 7.98280227,5.06366056 C8.00273249,4.60983783 8.38888048,4.25769122 8.84478425,4.28001037 C9.30068801,4.29984962 9.65195812,4.684235 9.6320279,5.13805773" id="Fill-38" fill="#FFFFFF" fill-rule="nonzero"></path>
                            </g>
                            <g id="Eye-L" stroke-width="1" fill="none" fill-rule="evenodd" transform="translate(54.938272, 19.687500)">
                                <path d="M13.9851598,7.08469344 C13.8182443,10.7127954 10.7290603,13.5175688 7.08432146,13.3514151 C3.44207393,13.1852614 0.621947942,10.1076985 0.788863526,6.48207637 C0.958270388,2.85397435 4.04745434,0.0492010302 7.68970187,0.215354711 C11.3344407,0.381508389 14.1520754,3.45659144 13.9851598,7.08469344" id="Fill-40" fill="#FFFFFF" fill-rule="nonzero"></path>
                                <path d="M11.6534885,6.78682584 C11.5538374,8.93690407 9.7227485,10.5984409 7.56530229,10.4992447 C5.4053648,10.4000484 3.73620896,8.57979765 3.83336878,6.42971943 C3.93301987,4.2796412 5.76410875,2.6181044 7.92404623,2.71730063 C10.0814924,2.81401695 11.7531396,4.63674763 11.6534885,6.78682584" id="Fill-42" fill="#1D1C1A" fill-rule="nonzero"></path>
                                <path d="M10.1477604,5.25548409 C10.1278302,5.70930683 9.74168221,6.05897353 9.28577845,6.03913429 C8.82987469,6.01681514 8.47860458,5.63242976 8.49853479,5.18108692 C8.51846501,4.72726418 8.90461302,4.37511757 9.36051677,4.39743672 C9.81642053,4.41727597 10.1676906,4.80166135 10.1477604,5.25548409" id="Fill-44" fill="#FFFFFF" fill-rule="nonzero"></path>
                            </g>
                        </g>
                    </g>
                </g>
                <g id="R-arm" transform="translate(16.000000, 85.000000)">
                    <mask id="mask-12" fill="white">
                        <use xlink:href="#path-11"></use>
                    </mask>
                    <use id="Mask" fill="#9DDBF9" xlink:href="#path-11"></use>
                    <polygon id="Fill-122" fill="#FAF077" mask="url(#mask-12)" points="13.5282 -0.1341 16.7522 3.8399 12.6552 5.7279 9.2612 1.3449"></polygon>
                </g>
            </g>
        </g>
    </g>
</svg>