<?xml version="1.0" encoding="UTF-8"?>
<svg width="960px" height="51px" viewBox="0 0 960 51" version="1.1" xmlns="http://www.w3.org/2000/svg" xmlns:xlink="http://www.w3.org/1999/xlink">
    <!-- Generator: Sketch 44.1 (41455) - http://www.bohemiancoding.com/sketch -->
    <title>Prompt/Default</title>
    <desc>Created with Sketch.</desc>
    <defs>
        <filter x="-13.0%" y="-75.0%" width="126.1%" height="250.0%" filterUnits="objectBoundingBox" id="filter-1">
            <feGaussianBlur stdDeviation="1" in="SourceGraphic"></feGaussianBlur>
        </filter>
    </defs>
    <g id="Symbols" stroke="none" stroke-width="1" fill="none" fill-rule="evenodd">
        <g id="Prompt/Default">
            <g id="Yellow" transform="translate(52.000000, 0.000000)">
                <path d="M18,24.9957568 C18,11.1909815 29.192347,0 42.9963209,0 L908,0 L908,51 L42.9963209,51 C29.1912341,51 18,39.8078336 18,26.0042432 L18,24.9957568 Z" id="Combined-Shape" fill="#FAD232"></path>
                <path d="M27.5,20.5 C27.5,20.5 34.1942508,25.56782 27.5,38 C24,44.5 0,33.5 0,33.5 C0,33.5 19.5,35.5 27.5,20.5 Z" id="Triangle-1" fill="#FAD232"></path>
                <text id="Count-by-twos" font-family="Oxygen-Bold, Oxygen" font-size="24" font-weight="bold" fill="#000000">
                    <tspan x="381.484375" y="35">Count by twos</tspan>
                </text>
            </g>
            <ellipse id="Shadow" fill="#CFDEE6" style="mix-blend-mode: multiply;" filter="url(#filter-1)" cx="32.5" cy="47" rx="11.5" ry="2"></ellipse>
            <g id="Yellow-Smiley" transform="translate(16.000000, 9.000000)">
                <path d="M16.65,0 C7.45,0 0,7.46666667 0,16.6666667 C0,25.8666667 7.45,33.3333333 16.65,33.3333333 C25.8666667,33.3333333 33.3333333,25.8666667 33.3333333,16.6666667 C33.3333333,7.46666667 25.8666667,0 16.65,0 L16.65,0 Z" id="Path" fill="#000000"></path>
                <path d="M3.33333333,16.6666667 C3.33333333,9.3 9.3,3.33333333 16.6666667,3.33333333 C24.0333333,3.33333333 30,9.3 30,16.6666667 C30,24.0333333 24.0333333,30 16.6666667,30 C9.3,30 3.33333333,24.0333333 3.33333333,16.6666667 Z" id="Path" fill="#FFE919"></path>
                <path d="M26.1833333,15 L7.15,15 C7.34999847,16.5369531 7.53824166,26.8333333 16.6666667,26.8333333 C25.7950917,26.8333333 25.9800034,16.5364863 26.1833333,15 Z" id="Path" fill="#000000"></path>
                <path d="M10.8333333,13 C11.6633333,13 12.3333333,12.33 12.3333333,11.5 C12.3333333,10.67 11.6633333,10 10.8333333,10 C10.0033333,10 9.33333333,10.67 9.33333333,11.5 C9.33333333,12.33 10.0033333,13 10.8333333,13 L10.8333333,13 Z" id="Path" fill="#000000"></path>
                <path d="M22.5,13 C23.33,13 24,12.33 24,11.5 C24,10.67 23.33,10 22.5,10 C21.67,10 21,10.67 21,11.5 C21,12.33 21.67,13 22.5,13 L22.5,13 Z" id="Path" fill="#000000"></path>
            </g>
            <path d="M930.235016,21.7966482 L936.469898,17.5933084 L936.469898,25.999988 L936.469898,34.4067981 L930.235016,30.2034583 L929.256754,29.5439343 L924.000133,29.5439343 L924.000133,22.4560416 L929.256885,22.4560416 L930.235016,21.7966482 Z M944.363441,35.9997408 C944.051879,35.9997408 943.741231,35.8688798 943.521911,35.6138117 C943.120195,35.1490789 943.172383,34.4471523 943.637116,34.0459582 C946.059415,31.9568787 947.449178,28.925417 947.449178,25.7289113 C947.449178,22.7637282 946.285258,19.9852471 944.172303,17.9042566 C943.734838,17.4738373 943.729358,16.7696928 944.159256,16.3320977 C944.590327,15.8939807 945.29395,15.8879791 945.731545,16.3202249 C948.273354,18.821719 949.672902,22.1631765 949.672902,25.7289113 C949.672902,29.5730682 948.001847,33.217998 945.089765,35.7299296 C944.879187,35.9112824 944.620727,35.9997408 944.363441,35.9997408 Z M941.166935,32.4682804 C940.855373,32.4682804 940.544725,32.3374194 940.325406,32.0828732 C939.92369,31.6176185 939.975878,30.9156919 940.44061,30.5144978 C941.803235,29.339097 942.585009,27.6338591 942.585009,25.8363791 C942.585009,24.1692383 941.930182,22.6067341 940.741343,21.4357692 C940.304792,21.0046976 940.299442,20.3012054 940.72934,19.8636103 C941.161455,19.4249714 941.864034,19.4194917 942.302673,19.8516071 C943.918278,21.4438583 944.808603,23.5693389 944.808603,25.8363791 C944.808603,28.2809884 943.745667,30.6002164 941.893259,32.1984693 C941.682681,32.3793001 941.424221,32.4682804 941.166935,32.4682804 Z" id="Combined-Shape" fill="#000000"></path>
        </g>
    </g>
</svg>