<?xml version="1.0" encoding="UTF-8"?>
<svg width="110px" height="110px" viewBox="0 0 110 110" version="1.1" xmlns="http://www.w3.org/2000/svg" xmlns:xlink="http://www.w3.org/1999/xlink">
    <!-- Generator: Sketch 44.1 (41455) - http://www.bohemiancoding.com/sketch -->
    <title>Planets/Dots_Blue</title>
    <desc>Created with Sketch.</desc>
    <defs>
        <radialGradient cx="50.8963466%" cy="50%" fx="50.8963466%" fy="50%" r="50%" id="radialGradient-1">
            <stop stop-color="#000000" offset="0%"></stop>
            <stop stop-color="#000000" stop-opacity="0" offset="100%"></stop>
        </radialGradient>
        <path d="M100,50.9994938 C100,78.6139424 77.6144486,101.000506 50,101.000506 C22.3855514,101.000506 0,78.6139424 0,50.9994938 C0,23.3860576 22.3855514,0.999493814 50,0.999493814 C77.6144486,0.999493814 100,23.3860576 100,50.9994938" id="path-2"></path>
    </defs>
    <g id="Symbols" stroke="none" stroke-width="1" fill="none" fill-rule="evenodd">
        <g id="Planets/Dots_Blue">
            <circle id="Moon-Shadow" fill="url(#radialGradient-1)" cx="55" cy="55" r="55"></circle>
            <g id="Dots_Blue" transform="translate(5.000000, 4.500000)">
                <mask id="mask-3" fill="white">
                    <use xlink:href="#path-2"></use>
                </mask>
                <use id="Mask" fill="#F3FDFF" xlink:href="#path-2"></use>
                <path d="M87.597,64.2012 C87.597,67.0402 85.296,69.3412 82.458,69.3412 C79.62,69.3412 77.319,67.0402 77.319,64.2012 C77.319,61.3632 79.62,59.0622 82.458,59.0622 C85.296,59.0622 87.597,61.3632 87.597,64.2012" id="Fill-4" fill="#C7E7F8" mask="url(#mask-3)"></path>
                <path d="M43.4603,83.2559 C43.4603,85.9099 41.3083,88.0629 38.6533,88.0629 C35.9993,88.0629 33.8473,85.9099 33.8473,83.2559 C33.8473,80.6019 35.9993,78.4489 38.6533,78.4489 C41.3083,78.4489 43.4603,80.6019 43.4603,83.2559" id="Fill-6" fill="#C7E7F8" mask="url(#mask-3)"></path>
                <path d="M40.847,23.7969 C40.847,28.0079 37.433,31.4219 33.222,31.4219 C29.011,31.4219 25.597,28.0079 25.597,23.7969 C25.597,19.5859 29.011,16.1719 33.222,16.1719 C37.433,16.1719 40.847,19.5859 40.847,23.7969" id="Fill-8" fill="#C7E7F8" mask="url(#mask-3)"></path>
                <path d="M19.0048,67.3701 C19.0048,69.5681 17.2238,71.3491 15.0258,71.3491 C12.8278,71.3491 11.0468,69.5681 11.0468,67.3701 C11.0468,65.1731 12.8278,63.3911 15.0258,63.3911 C17.2238,63.3911 19.0048,65.1731 19.0048,67.3701" id="Fill-10" fill="#C7E7F8" mask="url(#mask-3)"></path>
                <path d="M26.1415,57.167 C26.1415,59.138 24.5435,60.735 22.5735,60.735 C20.6025,60.735 19.0045,59.138 19.0045,57.167 C19.0045,55.196 20.6025,53.599 22.5735,53.599 C24.5435,53.599 26.1415,55.196 26.1415,57.167" id="Fill-12" fill="#C7E7F8" mask="url(#mask-3)"></path>
                <path d="M77.3192,83.2559 C77.3192,85.2269 75.7212,86.8239 73.7512,86.8239 C71.7792,86.8239 70.1822,85.2269 70.1822,83.2559 C70.1822,81.2849 71.7792,79.6879 73.7512,79.6879 C75.7212,79.6879 77.3192,81.2849 77.3192,83.2559" id="Fill-14" fill="#C7E7F8" mask="url(#mask-3)"></path>
                <path d="M85.0184,33.9453 C85.0184,35.3393 83.8894,36.4683 82.4954,36.4683 C81.1014,36.4683 79.9724,35.3393 79.9724,33.9453 C79.9724,32.5513 81.1014,31.4223 82.4954,31.4223 C83.8894,31.4223 85.0184,32.5513 85.0184,33.9453" id="Fill-16" fill="#C7E7F8" mask="url(#mask-3)"></path>
                <path d="M48.0009,21.2739 C48.0009,22.6679 46.8709,23.7969 45.4779,23.7969 C44.0839,23.7969 42.9549,22.6679 42.9549,21.2739 C42.9549,19.8799 44.0839,18.7509 45.4779,18.7509 C46.8709,18.7509 48.0009,19.8799 48.0009,21.2739" id="Fill-18" fill="#C7E7F8" mask="url(#mask-3)"></path>
                <path d="M98.5772345,36.2310534 C84.0038323,36.2310534 99.4220694,54.3629003 67.086858,74.8433882 C34.7516466,95.3238761 19.4871694,72.0131912 7.52937605,80.2655387 C-4.4284173,88.5178861 -0.390106419,93.6392753 7.52937605,97.192651 C15.4488585,100.746027 48.1321419,127.251877 78.8908914,101.469205 C109.649641,75.6865334 113.150637,36.2310534 98.5772345,36.2310534 Z" id="Path-2" fill-opacity="0.5" fill="#99DCFF" mask="url(#mask-3)"></path>
            </g>
        </g>
    </g>
</svg>