<?xml version="1.0" encoding="UTF-8"?>
<svg width="150px" height="150px" viewBox="0 0 150 150" version="1.1" xmlns="http://www.w3.org/2000/svg" xmlns:xlink="http://www.w3.org/1999/xlink">
    <!-- Generator: Sketch 45.2 (43514) - http://www.bohemiancoding.com/sketch -->
    <title>Planets/Earth1</title>
    <desc>Created with Sketch.</desc>
    <defs>
        <radialGradient cx="50.8963466%" cy="50%" fx="50.8963466%" fy="50%" r="50%" id="radialGradient-1">
            <stop stop-color="#000000" offset="0%"></stop>
            <stop stop-color="#000000" stop-opacity="0" offset="100%"></stop>
        </radialGradient>
        <path d="M1.46280426,81.2239083 C0.883143932,77.5976725 0.582,73.8784942 0.582,70.089 C0.582,31.428 31.923,0.088 70.581,0.088 C98.8552008,0.088 123.214609,16.8511631 134.262109,40.9815459 L134.2621,81.2239083 L1.46280426,81.2239083 L1.46280426,81.2239083 Z" id="path-2"></path>
        <path d="M140.353927,0.7807 C137.457097,36.7779218 107.324763,65.089 70.581,65.089 C33.839138,65.089 3.70689784,36.7779218 0.810072811,0.7807 L140.353927,0.7807 L140.353927,0.7807 Z" id="path-4"></path>
        <path d="M89.4323619,0.370711945 C81.7374812,30.6723707 54.2766955,53.089 21.581,53.089 C14.1332797,53.089 6.95714139,51.9257293 0.224374856,49.7709704 L0.224374856,0.370711945 L89.4323619,0.370711945 L89.4323619,0.370711945 Z" id="path-6"></path>
        <path d="M125.141997,0.501299443 C128.012242,8.1510258 129.582,16.4366716 129.582,25.089 C129.582,63.748 98.241,95.089 59.581,95.089 C34.8738177,95.089 13.155462,82.2869203 0.6978,62.9543668 L0.6978,0.5013 L125.142001,0.5013 L125.141997,0.501299443 Z" id="path-8"></path>
    </defs>
    <g id="Symbols" stroke="none" stroke-width="1" fill="none" fill-rule="evenodd">
        <g id="Planets/Earth1">
            <circle id="Moon-Shadow" fill="url(#radialGradient-1)" cx="75" cy="75" r="75"></circle>
            <g id="Planet-2" transform="translate(5.000000, 5.000000)">
                <path d="M0.582,70.2367 C0.582,31.5767 31.923,0.2367 70.582,0.2367 C109.241,0.2367 140.582,31.5767 140.582,70.2367 C140.582,108.8957 109.241,140.2367 70.582,140.2367 C31.923,140.2367 0.582,108.8957 0.582,70.2367" id="Fill-1" fill="#1CC7E6"></path>
                <g id="Group-15" transform="translate(0.000000, 0.148000)">
                    <g id="Group-5">
                        <mask id="mask-3" fill="white">
                            <use xlink:href="#path-2"></use>
                        </mask>
                        <g id="Clip-4"></g>
                        <path d="M134.2621,7.2811 C126.1571,4.1831 77.9881,-14.1479 68.7931,-14.1479 C28.4091,-14.1479 -12.7379,18.5901 -12.7379,58.9751 C-12.7379,63.2271 -3.9669,67.3951 -3.2699,71.4491 C0.8741,70.1911 -33.4879,85.9651 -27.2379,79.7811 C-18.4449,71.0821 4.3851,53.9571 -4.7379,58.9751 C-9.4679,61.5771 16.4131,33.3171 26.2601,23.2791 C36.8191,12.5141 57.5201,6.2641 54.7621,10.7791 C44.2621,27.9681 85.6931,18.6461 117.2601,10.7791 L134.2621,7.2811 Z" id="Fill-3" fill="#FAD232" mask="url(#mask-3)"></path>
                    </g>
                    <g id="Group-8" transform="translate(0.000000, 75.000000)">
                        <mask id="mask-5" fill="white">
                            <use xlink:href="#path-4"></use>
                        </mask>
                        <g id="Clip-7"></g>
                        <path d="M201.2484,65.2127 C191.4644,104.4537 55.0024,100.0647 15.7614,90.2797 C1.5044,86.7257 -20.9876,16.7807 -0.9876,0.7807 C3.2624,14.7097 22.0474,49.9077 16.7624,28.2097 C12.0684,8.9417 77.2624,102.7807 134.2624,38.2807 C191.2624,-26.2193 127.7934,44.4197 128.2644,43.7807 C161.7624,-1.7193 202.5224,60.1017 201.2484,65.2127" id="Fill-6" fill="#FAD232" mask="url(#mask-5)"></path>
                    </g>
                    <g id="Group-11" transform="translate(49.000000, 87.000000)">
                        <mask id="mask-7" fill="white">
                            <use xlink:href="#path-6"></use>
                        </mask>
                        <g id="Clip-10"></g>
                        <path d="M96.2621,3.7811 C87.7641,21.8631 2.2621,29.1421 58.2621,33.8611 C76.7621,49.2791 -1.7409,53.5981 0.2621,64.2811 C4.7621,88.2811 61.0051,48.8461 83.2601,49.2791 C105.5151,49.7121 131.3251,45.8111 132.7621,45.7811 C151.1871,45.3911 104.7601,-14.3009 96.2621,3.7811" id="Fill-9" fill="#FAD232" mask="url(#mask-7)"></path>
                    </g>
                    <g id="Group-14" transform="translate(11.000000, 45.000000)">
                        <mask id="mask-9" fill="white">
                            <use xlink:href="#path-8"></use>
                        </mask>
                        <g id="Clip-13"></g>
                        <path d="M132.1898,23.7293 C132.1898,63.6953 99.7898,96.0953 59.8238,96.0953 C35.3998,96.0953 13.8028,83.9963 0.6978,65.4643 C5.5338,65.8203 10.8488,67.5733 16.8978,69.3263 C32.2298,73.7703 52.2768,78.2113 81.1968,59.8953 C129.9758,29.0003 108.1458,1.5773 128.3808,0.5013 C130.8508,7.7923 132.1898,15.6043 132.1898,23.7293" id="Fill-12" fill-opacity="0.25" fill="#136FCB" mask="url(#mask-9)"></path>
                    </g>
                </g>
            </g>
        </g>
    </g>
</svg>