<?xml version="1.0" encoding="UTF-8"?>
<svg width="944px" height="150px" viewBox="0 0 944 150" version="1.1" xmlns="http://www.w3.org/2000/svg" xmlns:xlink="http://www.w3.org/1999/xlink">
    <!-- Generator: Sketch 45.2 (43514) - http://www.bohemiancoding.com/sketch -->
    <title>Group</title>
    <desc>Created with Sketch.</desc>
    <defs>
        <radialGradient cx="50.8963466%" cy="50%" fx="50.8963466%" fy="50%" r="50%" id="radialGradient-1">
            <stop stop-color="#000000" offset="0%"></stop>
            <stop stop-color="#000000" stop-opacity="0" offset="100%"></stop>
        </radialGradient>
        <path d="M1.46280426,81.2239083 C0.883143932,77.5976725 0.582,73.8784942 0.582,70.089 C0.582,31.428 31.923,0.088 70.581,0.088 C98.8552008,0.088 123.214609,16.8511631 134.262109,40.9815459 L134.2621,81.2239083 L1.46280426,81.2239083 L1.46280426,81.2239083 Z" id="path-2"></path>
        <path d="M140.353927,0.7807 C137.457097,36.7779218 107.324763,65.089 70.581,65.089 C33.839138,65.089 3.70689784,36.7779218 0.810072811,0.7807 L140.353927,0.7807 L140.353927,0.7807 Z" id="path-4"></path>
        <path d="M89.4323619,0.370711945 C81.7374812,30.6723707 54.2766955,53.089 21.581,53.089 C14.1332797,53.089 6.95714139,51.9257293 0.224374856,49.7709704 L0.224374856,0.370711945 L89.4323619,0.370711945 L89.4323619,0.370711945 Z" id="path-6"></path>
        <path d="M125.141997,0.501299443 C128.012242,8.1510258 129.582,16.4366716 129.582,25.089 C129.582,63.748 98.241,95.089 59.581,95.089 C34.8738177,95.089 13.155462,82.2869203 0.6978,62.9543668 L0.6978,0.5013 L125.142001,0.5013 L125.141997,0.501299443 Z" id="path-8"></path>
        <path d="M60,29.9996963 C60,46.5683654 46.5686691,60.0003037 30,60.0003037 C13.4313309,60.0003037 0,46.5683654 0,29.9996963 C0,13.4316346 13.4313309,-0.000303711353 30,-0.000303711353 C46.5686691,-0.000303711353 60,13.4316346 60,29.9996963" id="path-10"></path>
        <path d="M60,29.9996963 C60,46.5683654 46.5686691,60.0003037 30,60.0003037 C13.4313309,60.0003037 0,46.5683654 0,29.9996963 C0,13.4316346 13.4313309,-0.000303711353 30,-0.000303711353 C46.5686691,-0.000303711353 60,13.4316346 60,29.9996963" id="path-12"></path>
        <path d="M60,29.9996963 C60,46.5683654 46.5686691,60.0003037 30,60.0003037 C13.4313309,60.0003037 0,46.5683654 0,29.9996963 C0,13.4316346 13.4313309,-0.000303711353 30,-0.000303711353 C46.5686691,-0.000303711353 60,13.4316346 60,29.9996963" id="path-14"></path>
        <path d="M60,29.9996963 C60,46.5683654 46.5686691,60.0003037 30,60.0003037 C13.4313309,60.0003037 0,46.5683654 0,29.9996963 C0,13.4316346 13.4313309,-0.000303711353 30,-0.000303711353 C46.5686691,-0.000303711353 60,13.4316346 60,29.9996963" id="path-16"></path>
        <path d="M11.012777,19.8311042 C27.951001,-1.97640368 59.3604127,-5.92447167 81.1679205,11.01274 C102.976441,27.950964 106.924509,59.3603757 89.987297,81.1688958 C73.049073,102.976404 41.6396613,106.924472 19.8311412,89.98726 C-1.97636667,73.0480237 -5.92443466,41.6396243 11.012777,19.8311042" id="path-18"></path>
        <path d="M60,29.9996963 C60,46.5683654 46.5686691,60.0003037 30,60.0003037 C13.4313309,60.0003037 0,46.5683654 0,29.9996963 C0,13.4316346 13.4313309,-0.000303711353 30,-0.000303711353 C46.5686691,-0.000303711353 60,13.4316346 60,29.9996963" id="path-20"></path>
        <path d="M60,29.9996963 C60,46.5683654 46.5686691,60.0003037 30,60.0003037 C13.4313309,60.0003037 0,46.5683654 0,29.9996963 C0,13.4316346 13.4313309,-0.000303711353 30,-0.000303711353 C46.5686691,-0.000303711353 60,13.4316346 60,29.9996963" id="path-22"></path>
        <path d="M78.5601613,92.1578451 C91.8639449,83.172634 100.611,67.9532511 100.611,50.691 C100.611,23.079 78.226,0.691 50.611,0.691 C22.997,0.691 0.611,23.079 0.611,50.691 C0.611,67.9532511 9.35844584,83.172634 22.6622782,92.1578451 L78.5601613,92.1578451 L78.5601613,92.1578451 Z" id="path-24"></path>
        <path d="M32.6285264,0.0225026563 C13.8991438,7.24464609 0.611,25.4173615 0.611,46.691 C0.611,74.306 22.997,96.693 50.611,96.693 C78.226,96.693 100.611,74.306 100.611,46.691 C100.611,25.4173615 87.3234498,7.24464609 68.5938824,0.0225026563 L32.6285264,0.0225026563 L32.6285264,0.0225026563 Z" id="path-26"></path>
        <path d="M-0.000140758247,0.518266112 C0.042052739,0.459633839 0.0843700714,0.40109663 0.126810856,0.342654868 L81.0954744,0.342654868 C87.0810768,8.58511798 90.611,18.7261689 90.611,29.691 C90.611,57.306 68.226,79.693 40.611,79.693 C23.8848754,79.693 9.07683472,71.4795066 -0.000140758254,58.8657234 L-0.000140758247,0.518266112 Z" id="path-28"></path>
        <path d="M74.4123835,0.204054868 C74.5438551,1.6821538 74.611,3.17874208 74.611,4.691 C74.611,32.306 52.226,54.693 24.611,54.693 C16.0469446,54.693 7.98573628,52.5397414 0.939194751,48.7450738 L0.939202575,0.204054868 L74.4123835,0.204054868 L74.4123835,0.204054868 Z" id="path-30"></path>
        <path d="M61.0862351,0.961759084 C57.5655976,25.1309093 36.7565155,43.693 11.611,43.693 C7.63203366,43.693 3.76161423,43.2281875 0.0510738647,42.3498977 L0.0510738647,0.961759084 L61.0862351,0.961759084 L61.0862351,0.961759084 Z" id="path-32"></path>
        <path d="M0.611609115,15.4415759 C0.636286989,10.3899032 1.41024255,5.51522168 2.82804387,0.923 L98.3940408,0.923 C99.8351132,5.59075795 100.611,10.5503444 100.611,15.691 C100.611,43.306 78.226,65.693 50.611,65.693 C23.080195,65.693 0.745935761,43.4406911 0.611609115,15.9404512 L0.611609115,15.4415759 L0.611609115,15.4415759 Z" id="path-34"></path>
    </defs>
    <g id="Layout" stroke="none" stroke-width="1" fill="none" fill-rule="evenodd">
        <g id="1.1.2_CountUp_3" transform="translate(-16.000000, -220.000000)">
            <g id="Group" transform="translate(15.000000, 220.000000)">
                <g id="Planets/Earth1" transform="translate(490.000000, 0.000000)">
                    <circle id="Moon-Shadow" fill="url(#radialGradient-1)" fill-rule="evenodd" cx="75" cy="75" r="75"></circle>
                    <g id="Planet-2" stroke-width="1" fill-rule="evenodd" transform="translate(5.000000, 5.000000)">
                        <path d="M0.582,70.2367 C0.582,31.5767 31.923,0.2367 70.582,0.2367 C109.241,0.2367 140.582,31.5767 140.582,70.2367 C140.582,108.8957 109.241,140.2367 70.582,140.2367 C31.923,140.2367 0.582,108.8957 0.582,70.2367" id="Fill-1" fill="#1CC7E6"></path>
                        <g id="Group-15" transform="translate(0.000000, 0.148000)">
                            <g id="Group-5">
                                <mask id="mask-3" fill="white">
                                    <use xlink:href="#path-2"></use>
                                </mask>
                                <g id="Clip-4"></g>
                                <path d="M134.2621,7.2811 C126.1571,4.1831 77.9881,-14.1479 68.7931,-14.1479 C28.4091,-14.1479 -12.7379,18.5901 -12.7379,58.9751 C-12.7379,63.2271 -3.9669,67.3951 -3.2699,71.4491 C0.8741,70.1911 -33.4879,85.9651 -27.2379,79.7811 C-18.4449,71.0821 4.3851,53.9571 -4.7379,58.9751 C-9.4679,61.5771 16.4131,33.3171 26.2601,23.2791 C36.8191,12.5141 57.5201,6.2641 54.7621,10.7791 C44.2621,27.9681 85.6931,18.6461 117.2601,10.7791 L134.2621,7.2811 Z" id="Fill-3" fill="#FAD232" mask="url(#mask-3)"></path>
                            </g>
                            <g id="Group-8" transform="translate(0.000000, 75.000000)">
                                <mask id="mask-5" fill="white">
                                    <use xlink:href="#path-4"></use>
                                </mask>
                                <g id="Clip-7"></g>
                                <path d="M201.2484,65.2127 C191.4644,104.4537 55.0024,100.0647 15.7614,90.2797 C1.5044,86.7257 -20.9876,16.7807 -0.9876,0.7807 C3.2624,14.7097 22.0474,49.9077 16.7624,28.2097 C12.0684,8.9417 77.2624,102.7807 134.2624,38.2807 C191.2624,-26.2193 127.7934,44.4197 128.2644,43.7807 C161.7624,-1.7193 202.5224,60.1017 201.2484,65.2127" id="Fill-6" fill="#FAD232" mask="url(#mask-5)"></path>
                            </g>
                            <g id="Group-11" transform="translate(49.000000, 87.000000)">
                                <mask id="mask-7" fill="white">
                                    <use xlink:href="#path-6"></use>
                                </mask>
                                <g id="Clip-10"></g>
                                <path d="M96.2621,3.7811 C87.7641,21.8631 2.2621,29.1421 58.2621,33.8611 C76.7621,49.2791 -1.7409,53.5981 0.2621,64.2811 C4.7621,88.2811 61.0051,48.8461 83.2601,49.2791 C105.5151,49.7121 131.3251,45.8111 132.7621,45.7811 C151.1871,45.3911 104.7601,-14.3009 96.2621,3.7811" id="Fill-9" fill="#FAD232" mask="url(#mask-7)"></path>
                            </g>
                            <g id="Group-14" transform="translate(11.000000, 45.000000)">
                                <mask id="mask-9" fill="white">
                                    <use xlink:href="#path-8"></use>
                                </mask>
                                <g id="Clip-13"></g>
                                <path d="M132.1898,23.7293 C132.1898,63.6953 99.7898,96.0953 59.8238,96.0953 C35.3998,96.0953 13.8028,83.9963 0.6978,65.4643 C5.5338,65.8203 10.8488,67.5733 16.8978,69.3263 C32.2298,73.7703 52.2768,78.2113 81.1968,59.8953 C129.9758,29.0003 108.1458,1.5773 128.3808,0.5013 C130.8508,7.7923 132.1898,15.6043 132.1898,23.7293" id="Fill-12" fill-opacity="0.25" fill="#136FCB" mask="url(#mask-9)"></path>
                            </g>
                        </g>
                    </g>
                    <g id="TextField/Invisible" transform="translate(42.000000, 46.000000)" font-size="30" font-family="Oxygen-Bold, Oxygen" fill="#000000" font-weight="bold">
                        <text id="Input">
                            <tspan x="15.6123047" y="41">30</tspan>
                        </text>
                    </g>
                </g>
                <g id="Asteroid/R1" transform="translate(400.000000, 40.000000)">
                    <circle id="Moon-Shadow" fill="url(#radialGradient-1)" cx="35" cy="35" r="35"></circle>
                    <ellipse id="Crater-Mound" fill="#E0E0E0" transform="translate(53.825623, 57.082772) rotate(141.000000) translate(-53.825623, -57.082772) " cx="53.8256225" cy="57.0827717" rx="6.07589564" ry="3.17816079"></ellipse>
                    <g id="Moon" stroke-width="1" transform="translate(5.000000, 5.000000)">
                        <mask id="mask-11" fill="white">
                            <use xlink:href="#path-10"></use>
                        </mask>
                        <use id="Mask" fill="#FFFFFF" xlink:href="#path-10"></use>
                        <path d="M56.2698185,38.7059971 C56.2698185,40.6917388 54.6603815,42.3011758 52.6753393,42.3011758 C50.690297,42.3011758 49.0808601,40.6917388 49.0808601,38.7059971 C49.0808601,36.7209549 50.690297,35.1115179 52.6753393,35.1115179 C54.6603815,35.1115179 56.2698185,36.7209549 56.2698185,38.7059971" id="Fill-4" fill="#E4E4E4" mask="url(#mask-11)"></path>
                        <path d="M25.3983549,52.0338281 C25.3983549,53.8901713 23.8931361,55.3960895 22.0360934,55.3960895 C20.1797502,55.3960895 18.6745314,53.8901713 18.6745314,52.0338281 C18.6745314,50.1774848 20.1797502,48.6715666 22.0360934,48.6715666 C23.8931361,48.6715666 25.3983549,50.1774848 25.3983549,52.0338281" id="Fill-6" fill="#E4E4E4" mask="url(#mask-11)"></path>
                        <path d="M23.5704793,10.4451648 C23.5704793,13.3905534 21.1825532,15.7784795 18.2371646,15.7784795 C15.291776,15.7784795 12.90385,13.3905534 12.90385,10.4451648 C12.90385,7.49977617 15.291776,5.1118501 18.2371646,5.1118501 C21.1825532,5.1118501 23.5704793,7.49977617 23.5704793,10.4451648" id="Fill-8" fill="#E4E4E4" mask="url(#mask-11)"></path>
                        <path d="M8.29292838,40.9224877 C8.29292838,42.4598812 7.04720596,43.7056037 5.50981243,43.7056037 C3.9724189,43.7056037 2.72669648,42.4598812 2.72669648,40.9224877 C2.72669648,39.3857936 3.9724189,38.1393718 5.50981243,38.1393718 C7.04720596,38.1393718 8.29292838,39.3857936 8.29292838,40.9224877" id="Fill-10" fill="#E4E4E4" mask="url(#mask-11)"></path>
                        <path d="M13.2847011,33.7859181 C13.2847011,35.1645363 12.1669782,36.2815597 10.7890595,36.2815597 C9.41044141,36.2815597 8.29271854,35.1645363 8.29271854,33.7859181 C8.29271854,32.4073 9.41044141,31.2902766 10.7890595,31.2902766 C12.1669782,31.2902766 13.2847011,32.4073 13.2847011,33.7859181" id="Fill-12" fill="#E4E4E4" mask="url(#mask-11)"></path>
                        <path d="M40.0809999,58.0338281 C40.0809999,59.4124462 38.9632771,60.5294696 37.5853584,60.5294696 C36.2060408,60.5294696 35.0890174,59.4124462 35.0890174,58.0338281 C35.0890174,56.65521 36.2060408,55.5381865 37.5853584,55.5381865 C38.9632771,55.5381865 40.0809999,56.65521 40.0809999,58.0338281" id="Fill-14" fill="#E4E4E4" mask="url(#mask-11)"></path>
                        <path d="M54.4662139,17.5434744 C54.4662139,18.5185092 53.6765336,19.3081895 52.7014988,19.3081895 C51.7264639,19.3081895 50.9367836,18.5185092 50.9367836,17.5434744 C50.9367836,16.5684395 51.7264639,15.7787592 52.7014988,15.7787592 C53.6765336,15.7787592 54.4662139,16.5684395 54.4662139,17.5434744" id="Fill-16" fill="#E4E4E4" mask="url(#mask-11)"></path>
                        <path d="M28.5742826,8.68044964 C28.5742826,9.65548448 27.7839028,10.4451648 26.8095674,10.4451648 C25.8345326,10.4451648 25.0448523,9.65548448 25.0448523,8.68044964 C25.0448523,7.7054148 25.8345326,6.9157345 26.8095674,6.9157345 C27.7839028,6.9157345 28.5742826,7.7054148 28.5742826,8.68044964" id="Fill-18" fill="#E4E4E4" mask="url(#mask-11)"></path>
                        <path d="M59.8720703,22.546875 C51.4492188,22.546875 60.3603516,33.0263672 41.671875,44.8632812 C22.9833984,56.7001953 14.1611328,43.2275391 7.25,47.9970703 C0.338867187,52.7666016 2.67285156,55.7265625 7.25,57.7802734 C11.8271484,59.8339844 30.7167969,75.1533203 48.4941406,60.2519531 C66.2714844,45.3505859 68.2949219,22.546875 59.8720703,22.546875 Z" id="Path-2" fill-opacity="0.5" fill="#CCCCCC" mask="url(#mask-11)"></path>
                    </g>
                    <g id="Moon_craters" stroke-width="1" transform="translate(50.711989, 11.384339) rotate(31.000000) translate(-50.711989, -11.384339) translate(43.211989, 7.384339)">
                        <ellipse id="Oval-4" fill="#FFFFFF" cx="7.5" cy="4" rx="6.85826919" ry="3.58740234"></ellipse>
                        <ellipse id="Oval-4" fill="#E4E4E4" cx="7.5" cy="3.20629883" rx="4.60056495" ry="2.2409668"></ellipse>
                    </g>
                </g>
                <g id="Asteroid/R1" transform="translate(310.000000, 40.000000)">
                    <circle id="Moon-Shadow" fill="url(#radialGradient-1)" cx="35" cy="35" r="35"></circle>
                    <ellipse id="Crater-Mound" fill="#E0E0E0" transform="translate(53.825623, 57.082772) rotate(141.000000) translate(-53.825623, -57.082772) " cx="53.8256225" cy="57.0827717" rx="6.07589564" ry="3.17816079"></ellipse>
                    <g id="Moon" stroke-width="1" transform="translate(5.000000, 5.000000)">
                        <mask id="mask-13" fill="white">
                            <use xlink:href="#path-12"></use>
                        </mask>
                        <use id="Mask" fill="#FFFFFF" xlink:href="#path-12"></use>
                        <path d="M56.2698185,38.7059971 C56.2698185,40.6917388 54.6603815,42.3011758 52.6753393,42.3011758 C50.690297,42.3011758 49.0808601,40.6917388 49.0808601,38.7059971 C49.0808601,36.7209549 50.690297,35.1115179 52.6753393,35.1115179 C54.6603815,35.1115179 56.2698185,36.7209549 56.2698185,38.7059971" id="Fill-4" fill="#E4E4E4" mask="url(#mask-13)"></path>
                        <path d="M25.3983549,52.0338281 C25.3983549,53.8901713 23.8931361,55.3960895 22.0360934,55.3960895 C20.1797502,55.3960895 18.6745314,53.8901713 18.6745314,52.0338281 C18.6745314,50.1774848 20.1797502,48.6715666 22.0360934,48.6715666 C23.8931361,48.6715666 25.3983549,50.1774848 25.3983549,52.0338281" id="Fill-6" fill="#E4E4E4" mask="url(#mask-13)"></path>
                        <path d="M23.5704793,10.4451648 C23.5704793,13.3905534 21.1825532,15.7784795 18.2371646,15.7784795 C15.291776,15.7784795 12.90385,13.3905534 12.90385,10.4451648 C12.90385,7.49977617 15.291776,5.1118501 18.2371646,5.1118501 C21.1825532,5.1118501 23.5704793,7.49977617 23.5704793,10.4451648" id="Fill-8" fill="#E4E4E4" mask="url(#mask-13)"></path>
                        <path d="M8.29292838,40.9224877 C8.29292838,42.4598812 7.04720596,43.7056037 5.50981243,43.7056037 C3.9724189,43.7056037 2.72669648,42.4598812 2.72669648,40.9224877 C2.72669648,39.3857936 3.9724189,38.1393718 5.50981243,38.1393718 C7.04720596,38.1393718 8.29292838,39.3857936 8.29292838,40.9224877" id="Fill-10" fill="#E4E4E4" mask="url(#mask-13)"></path>
                        <path d="M13.2847011,33.7859181 C13.2847011,35.1645363 12.1669782,36.2815597 10.7890595,36.2815597 C9.41044141,36.2815597 8.29271854,35.1645363 8.29271854,33.7859181 C8.29271854,32.4073 9.41044141,31.2902766 10.7890595,31.2902766 C12.1669782,31.2902766 13.2847011,32.4073 13.2847011,33.7859181" id="Fill-12" fill="#E4E4E4" mask="url(#mask-13)"></path>
                        <path d="M40.0809999,58.0338281 C40.0809999,59.4124462 38.9632771,60.5294696 37.5853584,60.5294696 C36.2060408,60.5294696 35.0890174,59.4124462 35.0890174,58.0338281 C35.0890174,56.65521 36.2060408,55.5381865 37.5853584,55.5381865 C38.9632771,55.5381865 40.0809999,56.65521 40.0809999,58.0338281" id="Fill-14" fill="#E4E4E4" mask="url(#mask-13)"></path>
                        <path d="M54.4662139,17.5434744 C54.4662139,18.5185092 53.6765336,19.3081895 52.7014988,19.3081895 C51.7264639,19.3081895 50.9367836,18.5185092 50.9367836,17.5434744 C50.9367836,16.5684395 51.7264639,15.7787592 52.7014988,15.7787592 C53.6765336,15.7787592 54.4662139,16.5684395 54.4662139,17.5434744" id="Fill-16" fill="#E4E4E4" mask="url(#mask-13)"></path>
                        <path d="M28.5742826,8.68044964 C28.5742826,9.65548448 27.7839028,10.4451648 26.8095674,10.4451648 C25.8345326,10.4451648 25.0448523,9.65548448 25.0448523,8.68044964 C25.0448523,7.7054148 25.8345326,6.9157345 26.8095674,6.9157345 C27.7839028,6.9157345 28.5742826,7.7054148 28.5742826,8.68044964" id="Fill-18" fill="#E4E4E4" mask="url(#mask-13)"></path>
                        <path d="M59.8720703,22.546875 C51.4492188,22.546875 60.3603516,33.0263672 41.671875,44.8632812 C22.9833984,56.7001953 14.1611328,43.2275391 7.25,47.9970703 C0.338867187,52.7666016 2.67285156,55.7265625 7.25,57.7802734 C11.8271484,59.8339844 30.7167969,75.1533203 48.4941406,60.2519531 C66.2714844,45.3505859 68.2949219,22.546875 59.8720703,22.546875 Z" id="Path-2" fill-opacity="0.5" fill="#CCCCCC" mask="url(#mask-13)"></path>
                    </g>
                    <g id="Moon_craters" stroke-width="1" transform="translate(50.711989, 11.384339) rotate(31.000000) translate(-50.711989, -11.384339) translate(43.211989, 7.384339)">
                        <ellipse id="Oval-4" fill="#FFFFFF" cx="7.5" cy="4" rx="6.85826919" ry="3.58740234"></ellipse>
                        <ellipse id="Oval-4" fill="#E4E4E4" cx="7.5" cy="3.20629883" rx="4.60056495" ry="2.2409668"></ellipse>
                    </g>
                </g>
                <g id="Asteroid/R1" transform="translate(90.000000, 40.000000)">
                    <circle id="Moon-Shadow" fill="url(#radialGradient-1)" cx="35" cy="35" r="35"></circle>
                    <ellipse id="Crater-Mound" fill="#E0E0E0" transform="translate(53.825623, 57.082772) rotate(141.000000) translate(-53.825623, -57.082772) " cx="53.8256225" cy="57.0827717" rx="6.07589564" ry="3.17816079"></ellipse>
                    <g id="Moon" stroke-width="1" transform="translate(5.000000, 5.000000)">
                        <mask id="mask-15" fill="white">
                            <use xlink:href="#path-14"></use>
                        </mask>
                        <use id="Mask" fill="#FFFFFF" xlink:href="#path-14"></use>
                        <path d="M56.2698185,38.7059971 C56.2698185,40.6917388 54.6603815,42.3011758 52.6753393,42.3011758 C50.690297,42.3011758 49.0808601,40.6917388 49.0808601,38.7059971 C49.0808601,36.7209549 50.690297,35.1115179 52.6753393,35.1115179 C54.6603815,35.1115179 56.2698185,36.7209549 56.2698185,38.7059971" id="Fill-4" fill="#E4E4E4" mask="url(#mask-15)"></path>
                        <path d="M25.3983549,52.0338281 C25.3983549,53.8901713 23.8931361,55.3960895 22.0360934,55.3960895 C20.1797502,55.3960895 18.6745314,53.8901713 18.6745314,52.0338281 C18.6745314,50.1774848 20.1797502,48.6715666 22.0360934,48.6715666 C23.8931361,48.6715666 25.3983549,50.1774848 25.3983549,52.0338281" id="Fill-6" fill="#E4E4E4" mask="url(#mask-15)"></path>
                        <path d="M23.5704793,10.4451648 C23.5704793,13.3905534 21.1825532,15.7784795 18.2371646,15.7784795 C15.291776,15.7784795 12.90385,13.3905534 12.90385,10.4451648 C12.90385,7.49977617 15.291776,5.1118501 18.2371646,5.1118501 C21.1825532,5.1118501 23.5704793,7.49977617 23.5704793,10.4451648" id="Fill-8" fill="#E4E4E4" mask="url(#mask-15)"></path>
                        <path d="M8.29292838,40.9224877 C8.29292838,42.4598812 7.04720596,43.7056037 5.50981243,43.7056037 C3.9724189,43.7056037 2.72669648,42.4598812 2.72669648,40.9224877 C2.72669648,39.3857936 3.9724189,38.1393718 5.50981243,38.1393718 C7.04720596,38.1393718 8.29292838,39.3857936 8.29292838,40.9224877" id="Fill-10" fill="#E4E4E4" mask="url(#mask-15)"></path>
                        <path d="M13.2847011,33.7859181 C13.2847011,35.1645363 12.1669782,36.2815597 10.7890595,36.2815597 C9.41044141,36.2815597 8.29271854,35.1645363 8.29271854,33.7859181 C8.29271854,32.4073 9.41044141,31.2902766 10.7890595,31.2902766 C12.1669782,31.2902766 13.2847011,32.4073 13.2847011,33.7859181" id="Fill-12" fill="#E4E4E4" mask="url(#mask-15)"></path>
                        <path d="M40.0809999,58.0338281 C40.0809999,59.4124462 38.9632771,60.5294696 37.5853584,60.5294696 C36.2060408,60.5294696 35.0890174,59.4124462 35.0890174,58.0338281 C35.0890174,56.65521 36.2060408,55.5381865 37.5853584,55.5381865 C38.9632771,55.5381865 40.0809999,56.65521 40.0809999,58.0338281" id="Fill-14" fill="#E4E4E4" mask="url(#mask-15)"></path>
                        <path d="M54.4662139,17.5434744 C54.4662139,18.5185092 53.6765336,19.3081895 52.7014988,19.3081895 C51.7264639,19.3081895 50.9367836,18.5185092 50.9367836,17.5434744 C50.9367836,16.5684395 51.7264639,15.7787592 52.7014988,15.7787592 C53.6765336,15.7787592 54.4662139,16.5684395 54.4662139,17.5434744" id="Fill-16" fill="#E4E4E4" mask="url(#mask-15)"></path>
                        <path d="M28.5742826,8.68044964 C28.5742826,9.65548448 27.7839028,10.4451648 26.8095674,10.4451648 C25.8345326,10.4451648 25.0448523,9.65548448 25.0448523,8.68044964 C25.0448523,7.7054148 25.8345326,6.9157345 26.8095674,6.9157345 C27.7839028,6.9157345 28.5742826,7.7054148 28.5742826,8.68044964" id="Fill-18" fill="#E4E4E4" mask="url(#mask-15)"></path>
                        <path d="M59.8720703,22.546875 C51.4492188,22.546875 60.3603516,33.0263672 41.671875,44.8632812 C22.9833984,56.7001953 14.1611328,43.2275391 7.25,47.9970703 C0.338867187,52.7666016 2.67285156,55.7265625 7.25,57.7802734 C11.8271484,59.8339844 30.7167969,75.1533203 48.4941406,60.2519531 C66.2714844,45.3505859 68.2949219,22.546875 59.8720703,22.546875 Z" id="Path-2" fill-opacity="0.5" fill="#CCCCCC" mask="url(#mask-15)"></path>
                    </g>
                    <g id="Moon_craters" stroke-width="1" transform="translate(50.711989, 11.384339) rotate(31.000000) translate(-50.711989, -11.384339) translate(43.211989, 7.384339)">
                        <ellipse id="Oval-4" fill="#FFFFFF" cx="7.5" cy="4" rx="6.85826919" ry="3.58740234"></ellipse>
                        <ellipse id="Oval-4" fill="#E4E4E4" cx="7.5" cy="3.20629883" rx="4.60056495" ry="2.2409668"></ellipse>
                    </g>
                </g>
                <g id="Asteroid/R1" transform="translate(0.000000, 40.000000)">
                    <circle id="Moon-Shadow" fill="url(#radialGradient-1)" cx="35" cy="35" r="35"></circle>
                    <ellipse id="Crater-Mound" fill="#E0E0E0" transform="translate(53.825623, 57.082772) rotate(141.000000) translate(-53.825623, -57.082772) " cx="53.8256225" cy="57.0827717" rx="6.07589564" ry="3.17816079"></ellipse>
                    <g id="Moon" stroke-width="1" transform="translate(5.000000, 5.000000)">
                        <mask id="mask-17" fill="white">
                            <use xlink:href="#path-16"></use>
                        </mask>
                        <use id="Mask" fill="#FFFFFF" xlink:href="#path-16"></use>
                        <path d="M56.2698185,38.7059971 C56.2698185,40.6917388 54.6603815,42.3011758 52.6753393,42.3011758 C50.690297,42.3011758 49.0808601,40.6917388 49.0808601,38.7059971 C49.0808601,36.7209549 50.690297,35.1115179 52.6753393,35.1115179 C54.6603815,35.1115179 56.2698185,36.7209549 56.2698185,38.7059971" id="Fill-4" fill="#E4E4E4" mask="url(#mask-17)"></path>
                        <path d="M25.3983549,52.0338281 C25.3983549,53.8901713 23.8931361,55.3960895 22.0360934,55.3960895 C20.1797502,55.3960895 18.6745314,53.8901713 18.6745314,52.0338281 C18.6745314,50.1774848 20.1797502,48.6715666 22.0360934,48.6715666 C23.8931361,48.6715666 25.3983549,50.1774848 25.3983549,52.0338281" id="Fill-6" fill="#E4E4E4" mask="url(#mask-17)"></path>
                        <path d="M23.5704793,10.4451648 C23.5704793,13.3905534 21.1825532,15.7784795 18.2371646,15.7784795 C15.291776,15.7784795 12.90385,13.3905534 12.90385,10.4451648 C12.90385,7.49977617 15.291776,5.1118501 18.2371646,5.1118501 C21.1825532,5.1118501 23.5704793,7.49977617 23.5704793,10.4451648" id="Fill-8" fill="#E4E4E4" mask="url(#mask-17)"></path>
                        <path d="M8.29292838,40.9224877 C8.29292838,42.4598812 7.04720596,43.7056037 5.50981243,43.7056037 C3.9724189,43.7056037 2.72669648,42.4598812 2.72669648,40.9224877 C2.72669648,39.3857936 3.9724189,38.1393718 5.50981243,38.1393718 C7.04720596,38.1393718 8.29292838,39.3857936 8.29292838,40.9224877" id="Fill-10" fill="#E4E4E4" mask="url(#mask-17)"></path>
                        <path d="M13.2847011,33.7859181 C13.2847011,35.1645363 12.1669782,36.2815597 10.7890595,36.2815597 C9.41044141,36.2815597 8.29271854,35.1645363 8.29271854,33.7859181 C8.29271854,32.4073 9.41044141,31.2902766 10.7890595,31.2902766 C12.1669782,31.2902766 13.2847011,32.4073 13.2847011,33.7859181" id="Fill-12" fill="#E4E4E4" mask="url(#mask-17)"></path>
                        <path d="M40.0809999,58.0338281 C40.0809999,59.4124462 38.9632771,60.5294696 37.5853584,60.5294696 C36.2060408,60.5294696 35.0890174,59.4124462 35.0890174,58.0338281 C35.0890174,56.65521 36.2060408,55.5381865 37.5853584,55.5381865 C38.9632771,55.5381865 40.0809999,56.65521 40.0809999,58.0338281" id="Fill-14" fill="#E4E4E4" mask="url(#mask-17)"></path>
                        <path d="M54.4662139,17.5434744 C54.4662139,18.5185092 53.6765336,19.3081895 52.7014988,19.3081895 C51.7264639,19.3081895 50.9367836,18.5185092 50.9367836,17.5434744 C50.9367836,16.5684395 51.7264639,15.7787592 52.7014988,15.7787592 C53.6765336,15.7787592 54.4662139,16.5684395 54.4662139,17.5434744" id="Fill-16" fill="#E4E4E4" mask="url(#mask-17)"></path>
                        <path d="M28.5742826,8.68044964 C28.5742826,9.65548448 27.7839028,10.4451648 26.8095674,10.4451648 C25.8345326,10.4451648 25.0448523,9.65548448 25.0448523,8.68044964 C25.0448523,7.7054148 25.8345326,6.9157345 26.8095674,6.9157345 C27.7839028,6.9157345 28.5742826,7.7054148 28.5742826,8.68044964" id="Fill-18" fill="#E4E4E4" mask="url(#mask-17)"></path>
                        <path d="M59.8720703,22.546875 C51.4492188,22.546875 60.3603516,33.0263672 41.671875,44.8632812 C22.9833984,56.7001953 14.1611328,43.2275391 7.25,47.9970703 C0.338867187,52.7666016 2.67285156,55.7265625 7.25,57.7802734 C11.8271484,59.8339844 30.7167969,75.1533203 48.4941406,60.2519531 C66.2714844,45.3505859 68.2949219,22.546875 59.8720703,22.546875 Z" id="Path-2" fill-opacity="0.5" fill="#CCCCCC" mask="url(#mask-17)"></path>
                    </g>
                    <g id="Moon_craters" stroke-width="1" transform="translate(50.711989, 11.384339) rotate(31.000000) translate(-50.711989, -11.384339) translate(43.211989, 7.384339)">
                        <ellipse id="Oval-4" fill="#FFFFFF" cx="7.5" cy="4" rx="6.85826919" ry="3.58740234"></ellipse>
                        <ellipse id="Oval-4" fill="#E4E4E4" cx="7.5" cy="3.20629883" rx="4.60056495" ry="2.2409668"></ellipse>
                    </g>
                </g>
                <g id="Planets/Waves_Orange" transform="translate(180.000000, 20.000000)">
                    <circle id="Moon-Shadow" fill="url(#radialGradient-1)" fill-rule="evenodd" cx="55" cy="55" r="55"></circle>
                    <g id="Waves_Orange" stroke-width="1" fill-rule="evenodd" transform="translate(5.000000, 5.000000)">
                        <mask id="mask-19" fill="white">
                            <use xlink:href="#path-18"></use>
                        </mask>
                        <use id="Mask" fill="#FFDCCB" xlink:href="#path-18"></use>
                        <path d="M31.0651,34.5585 L31.0651,34.5585 C29.6321,36.4035 29.9901,39.0785 31.8631,40.5335 L57.5201,60.4595 C58.5801,61.2845 58.7831,62.7985 57.9721,63.8425 C57.1611,64.8865 55.6431,65.0655 54.5831,64.2425 L46.5721,58.0205 C44.5891,56.4795 41.7521,56.8145 40.2351,58.7665 L37.2091,62.6625 C36.6291,63.4095 35.5441,63.5375 34.7861,62.9485 L31.5551,60.4385 C29.6811,58.9835 27.0011,59.2985 25.5681,61.1435 C24.1361,62.9885 24.4931,65.6625 26.3671,67.1195 L40.7361,78.2785 C42.1681,79.3915 42.4411,81.4365 41.3461,82.8465 C40.2511,84.2575 38.2011,84.4985 36.7691,83.3865 L29.7321,77.9205 C28.4661,76.9375 26.6561,77.1515 25.6891,78.3965 C24.7211,79.6425 24.9621,81.4495 26.2281,82.4315 L27.2161,83.1995 C27.9751,83.7875 28.1191,84.8715 27.5391,85.6175 L23.5031,90.8135 C22.9241,91.5605 23.0681,92.6425 23.8271,93.2325 C23.8271,93.2325 73.9391,119.4155 74.5191,118.6685 L128.9961,48.5285 C129.5761,47.7825 86.6931,17.6915 86.6931,17.6915 C85.9351,17.1025 84.8501,17.2295 84.2711,17.9765 L83.7661,18.6265 C83.1861,19.3735 82.1011,19.5005 81.3421,18.9125 L79.1291,17.1925 C77.2551,15.7375 74.5751,16.0535 73.1421,17.8985 C71.7101,19.7425 72.0671,22.4175 73.9411,23.8725 L76.8891,26.1625 C78.2051,27.1845 78.4561,29.0635 77.4501,30.3595 C76.4431,31.6555 74.5611,31.8775 73.2451,30.8545 L67.5501,26.4325 C66.7921,25.8435 65.7071,25.9705 65.1271,26.7175 L59.4441,34.0335 C58.8651,34.7805 57.7801,34.9085 57.0221,34.3195 L45.0661,25.0345 C43.1931,23.5795 40.5131,23.8945 39.0801,25.7395 C37.6481,27.5835 38.0051,30.2595 39.8781,31.7145 L59.5401,46.9845 C60.2981,47.5735 60.4421,48.6565 59.8621,49.4035 C59.2831,50.1495 58.1981,50.2775 57.4401,49.6885 L37.0511,33.8535 C35.1781,32.3985 32.4981,32.7135 31.0651,34.5585" id="Fill-4" fill="#F5BFA0" mask="url(#mask-19)"></path>
                        <path d="M99.5772345,35.2310534 C85.0038323,35.2310534 100.422069,53.3629003 68.086858,73.8433882 C35.7516466,94.3238761 20.4871694,71.0131912 8.52937605,79.2655387 C-3.4284173,87.5178861 0.609893581,92.6392753 8.52937605,96.192651 C16.4488585,99.7460266 49.1321419,126.251877 79.8908914,100.469205 C110.649641,74.6865334 114.150637,35.2310534 99.5772345,35.2310534 Z" id="Path-2" fill-opacity="0.5" fill="#FF9E59" mask="url(#mask-19)"></path>
                    </g>
                    <g id="TextField/Invisible" transform="translate(22.000000, 26.000000)" font-size="30" font-family="Oxygen-Bold, Oxygen" fill="#000000" font-weight="bold">
                        <text id="Input">
                            <tspan x="17.6923828" y="41">27</tspan>
                        </text>
                    </g>
                </g>
                <g id="Asteroid/R1_Continuation" transform="translate(750.000000, 40.000000)">
                    <ellipse id="Crater-Mound" fill="#420E6C" transform="translate(53.825623, 57.082772) rotate(141.000000) translate(-53.825623, -57.082772) " cx="53.8256225" cy="57.0827717" rx="6.07589564" ry="3.17816079"></ellipse>
                    <g id="Moon" stroke-width="1" transform="translate(5.000000, 5.000000)">
                        <mask id="mask-21" fill="white">
                            <use xlink:href="#path-20"></use>
                        </mask>
                        <use id="Mask" fill="#420E6C" xlink:href="#path-20"></use>
                        <path d="M56.2698185,38.7059971 C56.2698185,40.6917388 54.6603815,42.3011758 52.6753393,42.3011758 C50.690297,42.3011758 49.0808601,40.6917388 49.0808601,38.7059971 C49.0808601,36.7209549 50.690297,35.1115179 52.6753393,35.1115179 C54.6603815,35.1115179 56.2698185,36.7209549 56.2698185,38.7059971" id="Fill-4" fill="#2B0A50" mask="url(#mask-21)"></path>
                        <path d="M25.3983549,52.0338281 C25.3983549,53.8901713 23.8931361,55.3960895 22.0360934,55.3960895 C20.1797502,55.3960895 18.6745314,53.8901713 18.6745314,52.0338281 C18.6745314,50.1774848 20.1797502,48.6715666 22.0360934,48.6715666 C23.8931361,48.6715666 25.3983549,50.1774848 25.3983549,52.0338281" id="Fill-6" fill="#2B0A50" mask="url(#mask-21)"></path>
                        <path d="M23.5704793,10.4451648 C23.5704793,13.3905534 21.1825532,15.7784795 18.2371646,15.7784795 C15.291776,15.7784795 12.90385,13.3905534 12.90385,10.4451648 C12.90385,7.49977617 15.291776,5.1118501 18.2371646,5.1118501 C21.1825532,5.1118501 23.5704793,7.49977617 23.5704793,10.4451648" id="Fill-8" fill="#2B0A50" mask="url(#mask-21)"></path>
                        <path d="M8.29292838,40.9224877 C8.29292838,42.4598812 7.04720596,43.7056037 5.50981243,43.7056037 C3.9724189,43.7056037 2.72669648,42.4598812 2.72669648,40.9224877 C2.72669648,39.3857936 3.9724189,38.1393718 5.50981243,38.1393718 C7.04720596,38.1393718 8.29292838,39.3857936 8.29292838,40.9224877" id="Fill-10" fill="#2B0A50" mask="url(#mask-21)"></path>
                        <path d="M13.2847011,33.7859181 C13.2847011,35.1645363 12.1669782,36.2815597 10.7890595,36.2815597 C9.41044141,36.2815597 8.29271854,35.1645363 8.29271854,33.7859181 C8.29271854,32.4073 9.41044141,31.2902766 10.7890595,31.2902766 C12.1669782,31.2902766 13.2847011,32.4073 13.2847011,33.7859181" id="Fill-12" fill="#2B0A50" mask="url(#mask-21)"></path>
                        <path d="M40.0809999,58.0338281 C40.0809999,59.4124462 38.9632771,60.5294696 37.5853584,60.5294696 C36.2060408,60.5294696 35.0890174,59.4124462 35.0890174,58.0338281 C35.0890174,56.65521 36.2060408,55.5381865 37.5853584,55.5381865 C38.9632771,55.5381865 40.0809999,56.65521 40.0809999,58.0338281" id="Fill-14" fill="#2B0A50" mask="url(#mask-21)"></path>
                        <path d="M54.4662139,17.5434744 C54.4662139,18.5185092 53.6765336,19.3081895 52.7014988,19.3081895 C51.7264639,19.3081895 50.9367836,18.5185092 50.9367836,17.5434744 C50.9367836,16.5684395 51.7264639,15.7787592 52.7014988,15.7787592 C53.6765336,15.7787592 54.4662139,16.5684395 54.4662139,17.5434744" id="Fill-16" fill="#2B0A50" mask="url(#mask-21)"></path>
                        <path d="M28.5742826,8.68044964 C28.5742826,9.65548448 27.7839028,10.4451648 26.8095674,10.4451648 C25.8345326,10.4451648 25.0448523,9.65548448 25.0448523,8.68044964 C25.0448523,7.7054148 25.8345326,6.9157345 26.8095674,6.9157345 C27.7839028,6.9157345 28.5742826,7.7054148 28.5742826,8.68044964" id="Fill-18" fill="#2B0A50" mask="url(#mask-21)"></path>
                        <path d="M59.8720703,22.546875 C51.4492187,22.546875 60.3603516,33.0263672 41.671875,44.8632812 C22.9833984,56.7001953 14.1611328,43.2275391 7.25,47.9970703 C0.338867187,52.7666016 2.67285156,55.7265625 7.25,57.7802734 C11.8271484,59.8339844 30.7167969,75.1533203 48.4941406,60.2519531 C66.2714844,45.3505859 68.2949219,22.546875 59.8720703,22.546875 Z" id="Path-2" fill-opacity="0.25" fill="#2B004D" mask="url(#mask-21)"></path>
                    </g>
                    <g id="Moon_craters" stroke-width="1" transform="translate(50.711989, 11.384339) rotate(31.000000) translate(-50.711989, -11.384339) translate(43.211989, 7.384339)">
                        <ellipse id="Oval-4" fill="#420E6C" cx="7.5" cy="4" rx="6.85826919" ry="3.58740234"></ellipse>
                        <ellipse id="Oval-4" fill="#2B0A50" cx="7.5" cy="3.20629883" rx="4.60056495" ry="2.2409668"></ellipse>
                    </g>
                </g>
                <g id="Asteroid/R1_Continuation" transform="translate(660.000000, 40.000000)">
                    <ellipse id="Crater-Mound" fill="#420E6C" transform="translate(53.825623, 57.082772) rotate(141.000000) translate(-53.825623, -57.082772) " cx="53.8256225" cy="57.0827717" rx="6.07589564" ry="3.17816079"></ellipse>
                    <g id="Moon" stroke-width="1" transform="translate(5.000000, 5.000000)">
                        <mask id="mask-23" fill="white">
                            <use xlink:href="#path-22"></use>
                        </mask>
                        <use id="Mask" fill="#420E6C" xlink:href="#path-22"></use>
                        <path d="M56.2698185,38.7059971 C56.2698185,40.6917388 54.6603815,42.3011758 52.6753393,42.3011758 C50.690297,42.3011758 49.0808601,40.6917388 49.0808601,38.7059971 C49.0808601,36.7209549 50.690297,35.1115179 52.6753393,35.1115179 C54.6603815,35.1115179 56.2698185,36.7209549 56.2698185,38.7059971" id="Fill-4" fill="#2B0A50" mask="url(#mask-23)"></path>
                        <path d="M25.3983549,52.0338281 C25.3983549,53.8901713 23.8931361,55.3960895 22.0360934,55.3960895 C20.1797502,55.3960895 18.6745314,53.8901713 18.6745314,52.0338281 C18.6745314,50.1774848 20.1797502,48.6715666 22.0360934,48.6715666 C23.8931361,48.6715666 25.3983549,50.1774848 25.3983549,52.0338281" id="Fill-6" fill="#2B0A50" mask="url(#mask-23)"></path>
                        <path d="M23.5704793,10.4451648 C23.5704793,13.3905534 21.1825532,15.7784795 18.2371646,15.7784795 C15.291776,15.7784795 12.90385,13.3905534 12.90385,10.4451648 C12.90385,7.49977617 15.291776,5.1118501 18.2371646,5.1118501 C21.1825532,5.1118501 23.5704793,7.49977617 23.5704793,10.4451648" id="Fill-8" fill="#2B0A50" mask="url(#mask-23)"></path>
                        <path d="M8.29292838,40.9224877 C8.29292838,42.4598812 7.04720596,43.7056037 5.50981243,43.7056037 C3.9724189,43.7056037 2.72669648,42.4598812 2.72669648,40.9224877 C2.72669648,39.3857936 3.9724189,38.1393718 5.50981243,38.1393718 C7.04720596,38.1393718 8.29292838,39.3857936 8.29292838,40.9224877" id="Fill-10" fill="#2B0A50" mask="url(#mask-23)"></path>
                        <path d="M13.2847011,33.7859181 C13.2847011,35.1645363 12.1669782,36.2815597 10.7890595,36.2815597 C9.41044141,36.2815597 8.29271854,35.1645363 8.29271854,33.7859181 C8.29271854,32.4073 9.41044141,31.2902766 10.7890595,31.2902766 C12.1669782,31.2902766 13.2847011,32.4073 13.2847011,33.7859181" id="Fill-12" fill="#2B0A50" mask="url(#mask-23)"></path>
                        <path d="M40.0809999,58.0338281 C40.0809999,59.4124462 38.9632771,60.5294696 37.5853584,60.5294696 C36.2060408,60.5294696 35.0890174,59.4124462 35.0890174,58.0338281 C35.0890174,56.65521 36.2060408,55.5381865 37.5853584,55.5381865 C38.9632771,55.5381865 40.0809999,56.65521 40.0809999,58.0338281" id="Fill-14" fill="#2B0A50" mask="url(#mask-23)"></path>
                        <path d="M54.4662139,17.5434744 C54.4662139,18.5185092 53.6765336,19.3081895 52.7014988,19.3081895 C51.7264639,19.3081895 50.9367836,18.5185092 50.9367836,17.5434744 C50.9367836,16.5684395 51.7264639,15.7787592 52.7014988,15.7787592 C53.6765336,15.7787592 54.4662139,16.5684395 54.4662139,17.5434744" id="Fill-16" fill="#2B0A50" mask="url(#mask-23)"></path>
                        <path d="M28.5742826,8.68044964 C28.5742826,9.65548448 27.7839028,10.4451648 26.8095674,10.4451648 C25.8345326,10.4451648 25.0448523,9.65548448 25.0448523,8.68044964 C25.0448523,7.7054148 25.8345326,6.9157345 26.8095674,6.9157345 C27.7839028,6.9157345 28.5742826,7.7054148 28.5742826,8.68044964" id="Fill-18" fill="#2B0A50" mask="url(#mask-23)"></path>
                        <path d="M59.8720703,22.546875 C51.4492187,22.546875 60.3603516,33.0263672 41.671875,44.8632812 C22.9833984,56.7001953 14.1611328,43.2275391 7.25,47.9970703 C0.338867187,52.7666016 2.67285156,55.7265625 7.25,57.7802734 C11.8271484,59.8339844 30.7167969,75.1533203 48.4941406,60.2519531 C66.2714844,45.3505859 68.2949219,22.546875 59.8720703,22.546875 Z" id="Path-2" fill-opacity="0.25" fill="#2B004D" mask="url(#mask-23)"></path>
                    </g>
                    <g id="Moon_craters" stroke-width="1" transform="translate(50.711989, 11.384339) rotate(31.000000) translate(-50.711989, -11.384339) translate(43.211989, 7.384339)">
                        <ellipse id="Oval-4" fill="#420E6C" cx="7.5" cy="4" rx="6.85826919" ry="3.58740234"></ellipse>
                        <ellipse id="Oval-4" fill="#2B0A50" cx="7.5" cy="3.20629883" rx="4.60056495" ry="2.2409668"></ellipse>
                    </g>
                </g>
                <g id="Planets/Stripes_Continuation" transform="translate(840.000000, 20.000000)">
                    <g id="Group-2" transform="translate(5.000000, 4.000000)">
                        <g id="Group-3" transform="translate(0.000000, 0.638000)">
                            <mask id="mask-25" fill="white">
                                <use xlink:href="#path-24"></use>
                            </mask>
                            <g id="Clip-2"></g>
                            <path d="M71.9951,82.7853 C99.3721,66.9793 111.4781,36.6933 99.0351,15.1403 C86.5911,-6.4127 54.3091,-11.0707 26.9321,4.7343 C-0.4439,20.5403 -12.5499,50.8263 -0.1069,72.3793 C12.3371,93.9323 44.6181,98.5913 71.9951,82.7853" id="Fill-1" fill="#490080" mask="url(#mask-25)"></path>
                        </g>
                        <g id="Group-6" transform="translate(0.000000, 4.638000)">
                            <mask id="mask-27" fill="white">
                                <use xlink:href="#path-26"></use>
                            </mask>
                            <g id="Clip-5"></g>
                            <path d="M76.9951,87.4454 C104.3721,71.6394 116.4781,41.3534 104.0351,19.8004 C91.5911,-1.7526 59.3091,-6.4106 31.9321,9.3954 C4.5561,25.2014 -7.5499,55.4874 4.8931,77.0394 C17.3371,98.5924 49.6181,103.2514 76.9951,87.4454" id="Fill-4" fill="#2B0A50" mask="url(#mask-27)"></path>
                        </g>
                        <g id="Group-9" transform="translate(10.000000, 21.638000)">
                            <mask id="mask-29" fill="white">
                                <use xlink:href="#path-28"></use>
                            </mask>
                            <g id="Clip-8"></g>
                            <path d="M76.9951,87.7662 C104.3721,71.9602 116.4781,41.6742 104.0351,20.1212 C91.5911,-1.4318 59.3091,-6.0908 31.9321,9.7152 C4.5561,25.5212 -7.5499,55.8072 4.8931,77.3602 C17.3371,98.9132 49.6181,103.5722 76.9951,87.7662" id="Fill-7" fill="#490080" mask="url(#mask-29)"></path>
                        </g>
                        <g id="Group-12" transform="translate(26.000000, 46.638000)">
                            <mask id="mask-31" fill="white">
                                <use xlink:href="#path-30"></use>
                            </mask>
                            <g id="Clip-11"></g>
                            <path d="M77.9346,87.6276 C105.3116,71.8206 117.4166,41.5356 104.9736,19.9826 C92.5296,-1.5704 60.2486,-6.2294 32.8716,9.5766 C5.4946,25.3826 -6.6104,55.6686 5.8326,77.2216 C18.2766,98.7746 50.5576,103.4336 77.9346,87.6276" id="Fill-10" fill="#2B0A50" mask="url(#mask-31)"></path>
                        </g>
                        <g id="Group-15" transform="translate(39.000000, 57.638000)">
                            <mask id="mask-33" fill="white">
                                <use xlink:href="#path-32"></use>
                            </mask>
                            <g id="Clip-14"></g>
                            <path d="M64.1646,73.7584 C86.9616,60.5964 97.0416,35.3784 86.6796,17.4314 C76.3186,-0.5156 49.4376,-4.3956 26.6416,8.7664 C3.8446,21.9274 -6.2354,47.1464 4.1256,65.0934 C14.4876,83.0404 41.3686,86.9194 64.1646,73.7584" id="Fill-13" fill="#420E6C" mask="url(#mask-33)"></path>
                        </g>
                        <g id="Group-18" transform="translate(0.000000, 35.638000)">
                            <mask id="mask-35" fill="white">
                                <use xlink:href="#path-34"></use>
                            </mask>
                            <g id="Clip-17"></g>
                            <path d="M99.1885,0.923 C84.6155,0.923 100.0335,19.055 67.6985,39.535 C35.3625,60.016 20.0985,36.705 8.1405,44.958 C-3.8165,53.21 0.2215,58.331 8.1405,61.885 C16.0605,65.438 48.7435,91.944 79.5025,66.161 C110.2605,40.379 113.7615,0.923 99.1885,0.923" id="Fill-16" fill-opacity="0.5" fill="#2B004D" mask="url(#mask-35)"></path>
                        </g>
                    </g>
                </g>
            </g>
        </g>
    </g>
</svg>