<?xml version="1.0" encoding="UTF-8"?>
<svg width="960px" height="579px" viewBox="0 0 960 579" version="1.1" xmlns="http://www.w3.org/2000/svg" xmlns:xlink="http://www.w3.org/1999/xlink">
    <!-- Generator: Sketch 45.2 (43514) - http://www.bohemiancoding.com/sketch -->
    <title>Group</title>
    <desc>Created with Sketch.</desc>
    <defs>
        <path d="M4.6772,38.2648 C31.1182,91.2678 58.5052,120.9328 66.9702,124.0018 C69.6472,124.9728 54.4102,102.9558 71.1592,72.7238 C98.6732,23.0638 145.0982,29.5828 136.7302,23.7298 C121.1602,12.8408 60.1582,1.8148 27.3232,0.7098 C11.7422,0.1858 -8.9098,10.6508 4.6772,38.2648" id="path-1"></path>
        <path d="M5.1274,40.8058 C4.9404,40.9198 -5.4686,26.7368 5.7914,10.4248 C15.3174,-3.3762 29.9984,0.6128 30.0374,1.0418 C30.8774,10.2008 14.8464,34.8628 5.1274,40.8058" id="path-3"></path>
        <path d="M0.7373,54.1964 C14.7493,63.1124 33.6923,72.7024 55.1593,81.3094 C76.4523,89.8474 96.6213,95.9734 112.8453,99.2284 C109.5553,103.7264 105.6193,107.8644 101.0223,111.4754 C73.9473,132.7434 34.7583,128.0374 13.4893,100.9634 C2.6713,87.1904 -1.4117,70.2854 0.7373,54.1964 Z M123.0566,77.2404 C121.7256,82.7074 119.6636,88.0104 116.8706,92.9874 C102.6676,91.1404 80.9846,84.9494 57.4786,75.5234 C33.7546,66.0114 13.6526,55.4014 2.1596,46.8834 C3.5426,41.5044 5.6496,36.2964 8.4546,31.4074 C9.6886,29.2574 11.0546,27.1694 12.5576,25.1584 C15.7706,20.8604 19.5836,16.9034 24.0046,13.4304 C51.0776,-7.8366 90.2676,-3.1306 111.5356,23.9444 C122.1766,37.4914 126.3146,54.0704 124.4016,69.9214 C124.1046,72.3844 123.6446,74.8264 123.0566,77.2404 Z" id="path-5"></path>
        <path d="M7.3428,0.0382 C6.7058,0.1502 0.6108,5.2152 0.6108,5.2152 L1.3388,10.7942 L4.2498,16.7082 L9.3438,15.9802 L16.4408,18.6942 L20.2608,15.2072 L25.2278,13.1632 L20.8978,3.3342 L17.0768,0.7262 L12.9198,0.8782 L7.3428,0.0382 Z" id="path-7"></path>
        <path d="M7.0894,11.9171 C6.0484,12.7541 0.8034,24.0441 0.8034,24.0441 L4.5004,35.8011 L15.6604,43.6061 L27.4104,41.3701 L39.7074,35.0611 L43.1524,24.9421 L40.8604,9.2251 L32.4804,2.8141 L21.7774,0.6941 L15.5894,6.3151 L7.0894,11.9171 Z" id="path-9"></path>
        <path d="M14.1279,50.6432 C1.1989,43.3172 -3.3441,26.8962 3.9819,13.9672 C11.3089,1.0372 27.7299,-3.5048 40.6589,3.8212 C53.5879,11.1472 58.1309,27.5682 50.8049,40.4972 C43.4789,53.4272 27.0579,57.9702 14.1279,50.6432" id="path-11"></path>
        <path d="M0.8315,38.07 C0.9535,17.283 17.9035,0.53 38.6905,0.653 C59.4775,0.775 76.2305,17.725 76.1085,38.512 C75.9865,59.299 59.0365,76.052 38.2495,75.93 C17.4615,75.808 0.7095,58.858 0.8315,38.07" id="path-13"></path>
        <path d="M299.4432,2.1989 C295.9562,1.6259 263.8802,0.6509 263.9082,0.7149 C118.1272,4.1189 0.9962,123.3579 0.9962,269.9579 C0.9962,418.6999 121.5752,539.2789 270.3172,539.2789 C419.0592,539.2789 539.6382,418.6999 539.6382,269.9579 C539.6382,131.0569 434.4862,16.7209 299.4432,2.1989" id="path-15"></path>
    </defs>
    <g id="Layout" stroke="none" stroke-width="1" fill="none" fill-rule="evenodd">
        <g id="0.0.1_Title-Screen" transform="translate(0.000000, -11.000000)">
            <g id="Group" transform="translate(-60.000000, 11.000000)">
                <g id="Shuttle" transform="translate(159.000000, 68.000000)">
                    <g id="Wing-R" transform="translate(66.000000, 0.000000)">
                        <path d="M48.188,13.5871 C63.186,15.4081 65.587,0.0471 68.774,4.1741 C72.236,8.6561 59.708,19.9841 57.334,27.0221 C57.334,27.0221 31.289,11.5351 48.188,13.5871" id="Fill-82" fill="#A1ADB3"></path>
                        <path d="M0.9526,15.3375 C2.0926,13.8775 36.2006,17.5565 47.6536,8.3135 C57.4536,0.4035 64.3026,-0.8855 67.4896,3.2415 C70.9516,7.7235 58.4236,19.0515 56.0486,26.0895 C56.0486,26.0895 -1.1994,18.0935 0.9526,15.3375" id="Fill-84" fill="#F0F5F7"></path>
                    </g>
                    <g id="Body" transform="translate(0.000000, 8.000000)">
                        <mask id="mask-2" fill="white">
                            <use xlink:href="#path-1"></use>
                        </mask>
                        <use id="Mask" fill="#F0F5F7" xlink:href="#path-1"></use>
                        <path d="M128.1431,28.026 C132.0921,44.168 77.0601,61.017 85.4781,46.646 C89.9691,38.979 85.4781,33.503 78.7421,26.931 C47.3051,-3.736 0.6581,8.215 1.2711,21.455 C1.5981,28.491 -7.7109,7.216 20.3581,-0.451 C62.8121,-12.046 122.2641,3.995 128.1431,28.026" id="Fill-89" fill="#DFEAF0" mask="url(#mask-2)"></path>
                    </g>
                    <g id="Shuttle-Bottom" transform="translate(57.000000, 28.000000)">
                        <path d="M80.0693,3.8668 C65.1653,-6.0342 37.3433,8.4858 17.9283,36.2978 C-1.4877,64.1108 -5.1447,94.6828 9.7593,104.5838 C24.6633,114.4848 52.4853,99.9648 71.9003,72.1528 C91.3163,44.3408 94.9733,13.7678 80.0693,3.8668" id="Fill-92" fill="#5D6F78"></path>
                        <path d="M69.6953,14.2477 C57.8213,6.3597 35.6563,17.9277 20.1883,40.0847 C4.7203,62.2427 1.8063,86.5997 13.6803,94.4867 C25.5543,102.3747 47.7193,90.8077 63.1873,68.6497 C78.6553,46.4927 81.5693,22.1357 69.6953,14.2477" id="Fill-94" fill="#829199"></path>
                    </g>
                    <g id="Wing-L" transform="translate(24.000000, 79.000000)">
                        <path d="M11.5937,34.1881 C18.9117,47.0871 5.1927,54.9831 10.3057,56.3321 C15.8597,57.7951 21.9707,42.2351 27.7817,37.4631 C27.7817,37.4631 3.3477,19.6531 11.5937,34.1881" id="Fill-97" fill="#A1ADB3"></path>
                        <path d="M1.0581,0.401 C0.0941,1.977 10.9051,21.858 6.3771,35.669 C2.5021,47.487 3.8281,54.168 8.9411,55.516 C14.4951,56.98 20.6051,41.419 26.4161,36.648 C26.4161,36.648 2.8791,-2.574 1.0581,0.401" id="Fill-105" fill="#F0F5F7"></path>
                    </g>
                    <g id="Blaster" transform="translate(89.000000, 64.000000)">
                        <g id="Fill-102">
                            <mask id="mask-4" fill="white">
                                <use xlink:href="#path-3"></use>
                            </mask>
                            <use id="Mask" fill="#323232" xlink:href="#path-3"></use>
                            <path d="M14.915,4.8937 C-1.84,8.7947 -17.9,30.2557 -12.719,20.4117 C-7.537,10.5677 26.967,-17.2163 39.721,-3.1513 C47.151,5.0427 26.072,2.2967 14.915,4.8937" fill="#000000" mask="url(#mask-4)"></path>
                        </g>
                        <path d="M8.2695,44.2907 C16.4835,49.2947 29.1465,43.9727 36.5545,32.4017 C43.9625,20.8317 43.3085,7.3947 35.0955,2.3907 C26.8815,-2.6133 14.2175,2.7097 6.8105,14.2797 C-0.5975,25.8507 0.0565,39.2867 8.2695,44.2907" id="Fill-107" fill="#303B40"></path>
                        <path d="M7.1494,41.0504 C14.1024,45.2864 25.2104,40.1734 31.9604,29.6304 C38.7104,19.0874 38.5454,7.1064 31.5934,2.8704 C24.6414,-1.3656 13.5324,3.7474 6.7824,14.2904 C0.0324,24.8334 0.1964,36.8144 7.1494,41.0504" id="Fill-110" fill="#5D6F78"></path>
                        <path d="M12.9336,30.9894 C16.4776,33.1494 22.0106,30.7474 25.2896,25.6244 C28.5696,20.5024 28.3546,14.5984 24.8096,12.4394 C21.2656,10.2804 15.7336,12.6814 12.4536,17.8044 C9.1746,22.9264 9.3896,28.8304 12.9336,30.9894" id="Fill-113" fill="#FFFF73"></path>
                    </g>
                </g>
                <g id="Planets">
                    <g id="Ring-Planet" transform="translate(0.000000, 216.000000)">
                        <g id="Fill-9" transform="translate(25.000000, 0.000000)">
                            <mask id="mask-6" fill="white">
                                <use xlink:href="#path-5"></use>
                            </mask>
                            <use id="Mask" fill="#F1D9FF" xlink:href="#path-5"></use>
                            <path d="M109,8 C87.732,-19.075 -1.35416007,-12.3981755 13.1519,12.6945 C22,28 72.4187248,9.62028524 94,33 C106,46 119.1519,83.6945 130,77 C140.8481,70.3055 119.641,21.547 109,8 Z" fill-opacity="0.1" fill="#2B004D" mask="url(#mask-6)"></path>
                        </g>
                        <path d="M174.6064,97.0168 C176.9634,91.1378 166.9874,81.0378 149.4014,69.9208 C149.1054,72.3838 148.6444,74.8268 148.0564,77.2408 C155.7784,82.8948 159.7804,87.6558 158.6004,90.5988 C157.4244,93.5298 151.2894,94.2118 141.8704,92.9878 C127.6674,91.1408 105.9844,84.9498 82.4794,75.5238 C58.7544,66.0108 38.6524,55.4018 27.1594,46.8828 C19.7144,41.3658 15.8714,36.7228 17.0304,33.8328 C18.1924,30.9348 24.2104,30.2378 33.4554,31.4078 C34.6894,29.2568 36.0544,27.1688 37.5584,25.1588 C17.3844,21.1348 3.3654,21.5768 1.0234,27.4148 C-1.3106,33.2388 8.4614,43.2038 25.7374,54.1968 C39.7494,63.1128 58.6924,72.7028 80.1594,81.3098 C101.4524,89.8478 121.6214,95.9738 137.8454,99.2288 C158.1414,103.3018 172.2564,102.8768 174.6064,97.0168" id="Fill-4" fill="#FF9E59"></path>
                    </g>
                    <g id="Asteroid-2" transform="translate(293.277344, 526.246094)">
                        <mask id="mask-8" fill="white">
                            <use xlink:href="#path-7"></use>
                        </mask>
                        <use id="Mask" fill="#CFDEE6" xlink:href="#path-7"></use>
                        <path d="M14.2143,12.5464 C14.3233,13.0324 14.0173,13.5154 13.5313,13.6244 C13.0453,13.7344 12.5633,13.4284 12.4533,12.9424 C12.3433,12.4564 12.6493,11.9734 13.1353,11.8644 C13.6213,11.7554 14.1043,12.0604 14.2143,12.5464 Z" id="Fill-14" fill="#B8C5CC" mask="url(#mask-8)"></path>
                        <path d="M21.0197,10.0473 C21.1217,10.5013 20.8357,10.9533 20.3817,11.0553 C19.9267,11.1583 19.4747,10.8723 19.3727,10.4173 C19.2707,9.9633 19.5557,9.5113 20.0107,9.4093 C20.4657,9.3063 20.9167,9.5923 21.0197,10.0473 Z" id="Fill-16" fill="#B8C5CC" mask="url(#mask-8)"></path>
                        <path d="M6.0697,7.7026 C6.2317,8.4236 5.7787,9.1406 5.0577,9.3026 C4.3367,9.4646 3.6197,9.0116 3.4577,8.2906 C3.2957,7.5696 3.7487,6.8536 4.4697,6.6906 C5.1907,6.5286 5.9067,6.9816 6.0697,7.7026 Z" id="Fill-18" fill="#B8C5CC" mask="url(#mask-8)"></path>
                        <path d="M16.3389,14.7381 C16.4229,15.1141 16.1869,15.4881 15.8109,15.5731 C15.4339,15.6581 15.0609,15.4211 14.9759,15.0451 C14.8909,14.6681 15.1279,14.2951 15.5039,14.2101 C15.8799,14.1251 16.2539,14.3621 16.3389,14.7381 Z" id="Fill-20" fill="#B8C5CC" mask="url(#mask-8)"></path>
                        <path d="M16.7251,4.0845 C16.8011,4.4215 16.5891,4.7565 16.2511,4.8325 C15.9141,4.9085 15.5791,4.6965 15.5021,4.3595 C15.4271,4.0215 15.6391,3.6865 15.9761,3.6105 C16.3141,3.5345 16.6491,3.7465 16.7251,4.0845 Z" id="Fill-22" fill="#B8C5CC" mask="url(#mask-8)"></path>
                        <path d="M7.7634,4.528 C7.8174,4.766 7.6674,5.004 7.4284,5.057 C7.1904,5.111 6.9534,4.961 6.8994,4.722 C6.8454,4.484 6.9954,4.247 7.2344,4.193 C7.4724,4.139 7.7104,4.289 7.7634,4.528 Z" id="Fill-24" fill="#B8C5CC" mask="url(#mask-8)"></path>
                        <path d="M7.0202,11.3561 C7.0742,11.5951 6.9242,11.8321 6.6852,11.8851 C6.4472,11.9391 6.2102,11.7891 6.1562,11.5511 C6.1022,11.3121 6.2522,11.0751 6.4912,11.0211 C6.7302,10.9671 6.9672,11.1171 7.0202,11.3561 Z" id="Fill-26" fill="#B8C5CC" mask="url(#mask-8)"></path>
                        <path d="M-0.594047542,4.86269001 C2.91645214,9.11857357 11.8039971,1.66974721 16.7301703,3.86269001 C26.1092881,8.03791246 19.3914476,16.9462585 26.6957238,14.9731292 C34,13 27.8214994,4.17933213 23,1.03472786e-13 C14.6209722,-7.26303939 -4.10454722,0.606806444 -0.594047542,4.86269001 Z" id="Fill-47" fill-opacity="0.25" fill="#000000" mask="url(#mask-8)"></path>
                    </g>
                    <g id="Asteroid" transform="translate(942.000000, 316.000000)">
                        <mask id="mask-10" fill="white">
                            <use xlink:href="#path-9"></use>
                        </mask>
                        <use id="Mask" fill="#A1ADB3" xlink:href="#path-9"></use>
                        <path d="M26.9224,25.9875 C27.6934,25.3055 28.8704,25.3775 29.5534,26.1485 C30.2354,26.9195 30.1634,28.0975 29.3924,28.7795 C28.6214,29.4625 27.4434,29.3895 26.7614,28.6195 C26.0784,27.8475 26.1514,26.6705 26.9224,25.9875" id="Fill-33" fill="#829199" mask="url(#mask-10)"></path>
                        <path d="M36.9233,14.6955 C37.6453,14.0575 38.7463,14.1255 39.3843,14.8455 C40.0233,15.5665 39.9553,16.6695 39.2343,17.3065 C38.5133,17.9455 37.4113,17.8785 36.7733,17.1565 C36.1353,16.4355 36.2023,15.3335 36.9233,14.6955" id="Fill-35" fill="#829199" mask="url(#mask-10)"></path>
                        <path d="M5.1538,27.1554 C5.2478,25.6304 6.5588,24.4694 8.0838,24.5624 C9.6078,24.6564 10.7678,25.9684 10.6748,27.4924 C10.5828,29.0164 9.2708,30.1764 7.7468,30.0844 C6.2208,29.9914 5.0608,28.6794 5.1538,27.1554" id="Fill-37" fill="#829199" mask="url(#mask-10)"></path>
                        <path d="M33.5454,27.8752 C34.1434,27.3472 35.0554,27.4022 35.5834,28.0002 C36.1114,28.5972 36.0564,29.5092 35.4584,30.0372 C34.8614,30.5652 33.9494,30.5102 33.4214,29.9132 C32.8934,29.3152 32.9484,28.4032 33.5454,27.8752" id="Fill-39" fill="#829199" mask="url(#mask-10)"></path>
                        <path d="M23.8442,8.216 C24.3792,7.742 25.1982,7.793 25.6712,8.328 C26.1452,8.863 26.0952,9.682 25.5602,10.155 C25.0242,10.629 24.2062,10.578 23.7332,10.043 C23.2592,9.508 23.3092,8.69 23.8442,8.216" id="Fill-41" fill="#829199" mask="url(#mask-10)"></path>
                        <path d="M8.5981,17.9777 C8.9771,17.6427 9.5551,17.6777 9.8901,18.0567 C10.2251,18.4347 10.1901,19.0137 9.8121,19.3487 C9.4331,19.6837 8.8551,19.6477 8.5201,19.2697 C8.1851,18.8907 8.2201,18.3127 8.5981,17.9777" id="Fill-43" fill="#829199" mask="url(#mask-10)"></path>
                        <path d="M14.0542,31.0793 C14.4332,30.7443 15.0112,30.7793 15.3462,31.1583 C15.6812,31.5363 15.6462,32.1143 15.2672,32.4493 C14.8892,32.7843 14.3102,32.7493 13.9752,32.3713 C13.6402,31.9923 13.6762,31.4143 14.0542,31.0793" id="Fill-45" fill="#829199" mask="url(#mask-10)"></path>
                        <path d="M7,10 C12.0398,16.1099 21.927808,6.85173219 29,10 C42.465,15.9941 29,34 39,36 C49,38 54.376327,14.6087408 44,4 C22.4762,-18.0059 1.9602,3.8901 7,10 Z" id="Fill-47" fill-opacity="0.25" fill="#000000" mask="url(#mask-10)"></path>
                    </g>
                    <g id="Orange-Planet" transform="translate(89.000000, 0.000000)">
                        <mask id="mask-12" fill="white">
                            <use xlink:href="#path-11"></use>
                        </mask>
                        <use id="Mask" fill="#F5BFA0" xlink:href="#path-11"></use>
                        <path d="M20.3779,38.8966 L20.3779,38.8966 C21.4849,39.5236 22.8989,39.1206 23.5359,37.9966 L32.2609,22.5976 C32.6219,21.9606 33.4229,21.7326 34.0489,22.0876 C34.6759,22.4426 34.8919,23.2466 34.5309,23.8836 L31.8069,28.6906 C31.1319,29.8816 31.5359,31.3846 32.7079,32.0486 L35.0459,33.3746 C35.4939,33.6276 35.6489,34.2026 35.3899,34.6576 L34.2919,36.5976 C33.6539,37.7216 34.0349,39.1416 35.1429,39.7696 C36.2499,40.3966 37.6639,39.9936 38.3009,38.8686 L43.1879,30.2446 C43.6749,29.3846 44.7559,29.0766 45.6029,29.5566 C46.4489,30.0366 46.7399,31.1226 46.2529,31.9816 L43.8599,36.2056 C43.4289,36.9646 43.6869,37.9236 44.4339,38.3476 C45.1819,38.7716 46.1369,38.4996 46.5669,37.7396 L46.9029,37.1466 C47.1609,36.6916 47.7329,36.5276 48.1819,36.7816 L51.2999,38.5486 C51.7489,38.8026 52.3209,38.6396 52.5789,38.1846 C52.5789,38.1846 62.7539,9.1096 62.3059,8.8556 L20.2089,-14.9984 C19.7599,-15.2514 6.9099,10.2326 6.9099,10.2326 C6.6519,10.6876 6.8059,11.2626 7.2539,11.5166 L7.6449,11.7376 C8.0929,11.9916 8.2469,12.5656 7.9889,13.0216 L7.2359,14.3496 C6.5989,15.4746 6.9799,16.8946 8.0869,17.5216 C9.1939,18.1486 10.6079,17.7466 11.2459,16.6216 L12.2479,14.8526 C12.6959,14.0626 13.6889,13.7786 14.4669,14.2196 C15.2439,14.6606 15.5119,15.6576 15.0649,16.4476 L13.1279,19.8656 C12.8699,20.3206 13.0239,20.8956 13.4719,21.1496 L17.8629,23.6376 C18.3119,23.8916 18.4649,24.4666 18.2079,24.9216 L14.1419,32.0966 C13.5049,33.2216 13.8859,34.6416 14.9929,35.2686 C16.0999,35.8966 17.5139,35.4936 18.1509,34.3686 L24.8379,22.5686 C25.0959,22.1126 25.6679,21.9496 26.1159,22.2036 C26.5639,22.4576 26.7179,23.0326 26.4609,23.4876 L19.5269,35.7246 C18.8899,36.8486 19.2709,38.2696 20.3779,38.8966" id="Fill-53" fill="#F89D5B" mask="url(#mask-12)"></path>
                        <path d="M39,-4 C20,-11 1,2 1,12 C1,21.1163686 9.881,14.636 24,10 C45.307,3.005 48.617,40.173 58,29 C67.558,17.621 58,3 39,-4 Z" id="Fill-56" fill-opacity="0.1" fill="#4D1E00" mask="url(#mask-12)"></path>
                    </g>
                    <g id="Moon" transform="translate(959.000000, 17.000000)">
                        <mask id="mask-14" fill="white">
                            <use xlink:href="#path-13"></use>
                        </mask>
                        <use id="Mask" fill="#FBFFCC" xlink:href="#path-13"></use>
                        <path d="M10.1763,27.5983 C10.1893,25.4353 11.9523,23.6923 14.1153,23.7043 C16.2783,23.7173 18.0213,25.4813 18.0083,27.6443 C17.9953,29.8073 16.2323,31.5503 14.0693,31.5373 C11.9063,31.5253 10.1633,29.7613 10.1763,27.5983" id="Fill-62" fill="#E1E8C0" mask="url(#mask-14)"></path>
                        <path d="M43.897,13.2746 C43.909,11.2516 45.559,9.6216 47.582,9.6326 C49.605,9.6456 51.235,11.2946 51.223,13.3176 C51.211,15.3406 49.562,16.9716 47.539,16.9596 C45.516,16.9476 43.885,15.2976 43.897,13.2746" id="Fill-64" fill="#E1E8C0" mask="url(#mask-14)"></path>
                        <path d="M56.979,33.2345 C56.988,31.7325 58.212,30.5225 59.714,30.5305 C61.216,30.5395 62.426,31.7645 62.417,33.2665 C62.409,34.7685 61.184,35.9785 59.682,35.9695 C58.18,35.9615 56.97,34.7365 56.979,33.2345" id="Fill-70" fill="#E1E8C0" mask="url(#mask-14)"></path>
                        <path d="M18.0942,13.1232 C18.1032,11.6212 19.3272,10.4112 20.8292,10.4192 C22.3312,10.4282 23.5412,11.6532 23.5322,13.1552 C23.5242,14.6572 22.2992,15.8672 20.7972,15.8582 C19.2952,15.8502 18.0852,14.6252 18.0942,13.1232" id="Fill-72" fill="#E1E8C0" mask="url(#mask-14)"></path>
                        <path d="M12.0054,50.6676 C12.0124,49.6056 12.8774,48.7496 13.9404,48.7556 C15.0014,48.7626 15.8584,49.6276 15.8514,50.6896 C15.8454,51.7516 14.9794,52.6076 13.9174,52.6016 C12.8554,52.5956 11.9994,51.7296 12.0054,50.6676" id="Fill-74" fill="#E1E8C0" mask="url(#mask-14)"></path>
                        <path d="M45.6226,58.5993 C45.6416,55.3903 48.2586,52.8033 51.4676,52.8223 C54.6776,52.8413 57.2636,55.4583 57.2446,58.6673 C57.2266,61.8763 54.6086,64.4633 51.3996,64.4443 C48.1896,64.4253 45.6036,61.8083 45.6226,58.5993" id="Fill-66" fill="#E1E8C0" mask="url(#mask-14)"></path>
                        <path d="M40.1597,60.4899 C40.1667,59.4279 41.0317,58.5729 42.0947,58.5779 C43.1557,58.5849 44.0127,59.4509 44.0057,60.5129 C43.9997,61.5749 43.1337,62.4299 42.0717,62.4249 C41.0097,62.4179 40.1537,61.5519 40.1597,60.4899" id="Fill-76" fill="#E1E8C0" mask="url(#mask-14)"></path>
                        <path d="M53.9960938,27 C42,10 1.80094837,23.3582929 12,5 C22,-13 58,-5 70,9 C82,23 86.787,65.123 76,65 C65.213,64.877 65.9921875,44 53.9960938,27 Z" id="Fill-78" fill-opacity="0.1" fill="#4D3300" mask="url(#mask-14)"></path>
                    </g>
                </g>
                <g id="Big-Planet" transform="translate(656.000000, 461.000000)">
                    <path d="M289,55 C269.372,42.706 286.0299,20.9242 286.7059,19.2592 C287.4809,17.3482 285.4989,18.6452 295.4359,35.4622 C299,19.2592 305,10 309.5409,7.0392 C307.9099,27.4902 309.4859,41.5742 315.4029,40.2432 C320.1609,20.1732 345.8229,-6.2548 341.8259,1.4222 C336.8929,10.9002 326.8619,37.2402 341.1399,50.3242 C352.369361,60.6145957 334.989395,62.1731957 289,55 Z" id="Grass" fill="#1CC7E6"></path>
                    <g id="Planet" transform="translate(0.000000, 38.000000)">
                        <mask id="mask-16" fill="white">
                            <use xlink:href="#path-15"></use>
                        </mask>
                        <use id="Mask" fill="#FAD232" xlink:href="#path-15"></use>
                        <path d="M-116.7238,-53.721 C-47.7718,-48.966 112.3302,62.98 282.2762,38.279 C454.2762,13.279 623.8632,182.977 613.2762,137.279 C593.8072,46.555 452.5442,-12.84 359.2762,-24.721 C202.2762,-44.721 -7.7238,-148.721 -45.7238,-110.721 C-45.7238,-110.721 -145.7238,-55.721 -116.7238,-53.721" id="Fill-6" fill="#1CC7E6" mask="url(#mask-16)"></path>
                    </g>
                </g>
            </g>
        </g>
    </g>
</svg>