<?xml version="1.0" encoding="UTF-8"?>
<svg width="944px" height="282px" viewBox="0 0 944 282" version="1.1" xmlns="http://www.w3.org/2000/svg" xmlns:xlink="http://www.w3.org/1999/xlink">
    <!-- Generator: Sketch 45.2 (43514) - http://www.bohemiancoding.com/sketch -->
    <title>Group</title>
    <desc>Created with Sketch.</desc>
    <defs>
        <radialGradient cx="50.8963466%" cy="50%" fx="50.8963466%" fy="50%" r="50%" id="radialGradient-1">
            <stop stop-color="#000000" offset="0%"></stop>
            <stop stop-color="#000000" stop-opacity="0" offset="100%"></stop>
        </radialGradient>
        <path d="M1.46280426,81.2239083 C0.883143932,77.5976725 0.582,73.8784942 0.582,70.089 C0.582,31.428 31.923,0.088 70.581,0.088 C98.8552008,0.088 123.214609,16.8511631 134.262109,40.9815459 L134.2621,81.2239083 L1.46280426,81.2239083 L1.46280426,81.2239083 Z" id="path-2"></path>
        <path d="M140.353927,0.7807 C137.457097,36.7779218 107.324763,65.089 70.581,65.089 C33.839138,65.089 3.70689784,36.7779218 0.810072811,0.7807 L140.353927,0.7807 L140.353927,0.7807 Z" id="path-4"></path>
        <path d="M89.4323619,0.370711945 C81.7374812,30.6723707 54.2766955,53.089 21.581,53.089 C14.1332797,53.089 6.95714139,51.9257293 0.224374856,49.7709704 L0.224374856,0.370711945 L89.4323619,0.370711945 L89.4323619,0.370711945 Z" id="path-6"></path>
        <path d="M125.141997,0.501299443 C128.012242,8.1510258 129.582,16.4366716 129.582,25.089 C129.582,63.748 98.241,95.089 59.581,95.089 C34.8738177,95.089 13.155462,82.2869203 0.6978,62.9543668 L0.6978,0.5013 L125.142001,0.5013 L125.141997,0.501299443 Z" id="path-8"></path>
        <path d="M60,29.9996963 C60,46.5683654 46.5686691,60.0003037 30,60.0003037 C13.4313309,60.0003037 0,46.5683654 0,29.9996963 C0,13.4316346 13.4313309,-0.000303711353 30,-0.000303711353 C46.5686691,-0.000303711353 60,13.4316346 60,29.9996963" id="path-10"></path>
        <path d="M60,29.9996963 C60,46.5683654 46.5686691,60.0003037 30,60.0003037 C13.4313309,60.0003037 0,46.5683654 0,29.9996963 C0,13.4316346 13.4313309,-0.000303711353 30,-0.000303711353 C46.5686691,-0.000303711353 60,13.4316346 60,29.9996963" id="path-12"></path>
        <path d="M60,29.9996963 C60,46.5683654 46.5686691,60.0003037 30,60.0003037 C13.4313309,60.0003037 0,46.5683654 0,29.9996963 C0,13.4316346 13.4313309,-0.000303711353 30,-0.000303711353 C46.5686691,-0.000303711353 60,13.4316346 60,29.9996963" id="path-14"></path>
        <path d="M60,29.9996963 C60,46.5683654 46.5686691,60.0003037 30,60.0003037 C13.4313309,60.0003037 0,46.5683654 0,29.9996963 C0,13.4316346 13.4313309,-0.000303711353 30,-0.000303711353 C46.5686691,-0.000303711353 60,13.4316346 60,29.9996963" id="path-16"></path>
        <path d="M11.012777,19.8311042 C27.951001,-1.97640368 59.3604127,-5.92447167 81.1679205,11.01274 C102.976441,27.950964 106.924509,59.3603757 89.987297,81.1688958 C73.049073,102.976404 41.6396613,106.924472 19.8311412,89.98726 C-1.97636667,73.0480237 -5.92443466,41.6396243 11.012777,19.8311042" id="path-18"></path>
        <path d="M60,29.9996963 C60,46.5683654 46.5686691,60.0003037 30,60.0003037 C13.4313309,60.0003037 0,46.5683654 0,29.9996963 C0,13.4316346 13.4313309,-0.000303711353 30,-0.000303711353 C46.5686691,-0.000303711353 60,13.4316346 60,29.9996963" id="path-20"></path>
        <path d="M60,29.9996963 C60,46.5683654 46.5686691,60.0003037 30,60.0003037 C13.4313309,60.0003037 0,46.5683654 0,29.9996963 C0,13.4316346 13.4313309,-0.000303711353 30,-0.000303711353 C46.5686691,-0.000303711353 60,13.4316346 60,29.9996963" id="path-22"></path>
        <path d="M78.5601613,92.1578451 C91.8639449,83.172634 100.611,67.9532511 100.611,50.691 C100.611,23.079 78.226,0.691 50.611,0.691 C22.997,0.691 0.611,23.079 0.611,50.691 C0.611,67.9532511 9.35844584,83.172634 22.6622782,92.1578451 L78.5601613,92.1578451 L78.5601613,92.1578451 Z" id="path-24"></path>
        <path d="M32.6285264,0.0225026563 C13.8991438,7.24464609 0.611,25.4173615 0.611,46.691 C0.611,74.306 22.997,96.693 50.611,96.693 C78.226,96.693 100.611,74.306 100.611,46.691 C100.611,25.4173615 87.3234498,7.24464609 68.5938824,0.0225026563 L32.6285264,0.0225026563 L32.6285264,0.0225026563 Z" id="path-26"></path>
        <path d="M-0.000140758247,0.518266112 C0.042052739,0.459633839 0.0843700714,0.40109663 0.126810856,0.342654868 L81.0954744,0.342654868 C87.0810768,8.58511798 90.611,18.7261689 90.611,29.691 C90.611,57.306 68.226,79.693 40.611,79.693 C23.8848754,79.693 9.07683472,71.4795066 -0.000140758254,58.8657234 L-0.000140758247,0.518266112 Z" id="path-28"></path>
        <path d="M74.4123835,0.204054868 C74.5438551,1.6821538 74.611,3.17874208 74.611,4.691 C74.611,32.306 52.226,54.693 24.611,54.693 C16.0469446,54.693 7.98573628,52.5397414 0.939194751,48.7450738 L0.939202575,0.204054868 L74.4123835,0.204054868 L74.4123835,0.204054868 Z" id="path-30"></path>
        <path d="M61.0862351,0.961759084 C57.5655976,25.1309093 36.7565155,43.693 11.611,43.693 C7.63203366,43.693 3.76161423,43.2281875 0.0510738647,42.3498977 L0.0510738647,0.961759084 L61.0862351,0.961759084 L61.0862351,0.961759084 Z" id="path-32"></path>
        <path d="M0.611609115,15.4415759 C0.636286989,10.3899032 1.41024255,5.51522168 2.82804387,0.923 L98.3940408,0.923 C99.8351132,5.59075795 100.611,10.5503444 100.611,15.691 C100.611,43.306 78.226,65.693 50.611,65.693 C23.080195,65.693 0.745935761,43.4406911 0.611609115,15.9404512 L0.611609115,15.4415759 L0.611609115,15.4415759 Z" id="path-34"></path>
        <path d="M24.2454,24.276 C22.9584,25.061 18.2564,25.813 18.0454,25.854 C16.0994,26.248 13.0094,25.134 11.8064,24.421 C8.2374,22.301 6.3284,18.185 6.2094,14.177 C6.5774,10.886 8.1684,7.656 11.4724,5.88 C14.8454,4.066 12.0734,-1.214 8.6844,0.608 C3.6974,3.289 1.0594,8.048 0.3214,12.995 C0.0134,19.301 2.7954,25.933 8.6014,29.444 C10.6434,30.682 14.4934,33.332 25.1774,30.189 L24.2454,24.276 Z" id="path-36"></path>
        <path d="M24.2688,2.1779 C21.5528,8.2259 7.6618,22.4099 3.9118,23.9979 C-1.7902,26.4109 0.0378,33.3099 7.4568,35.6729 C14.7008,37.9809 24.5148,27.7839 28.0378,14.2639 C32.3238,-2.1881 25.5648,-0.7101 24.2688,2.1779" id="path-38"></path>
        <path d="M12.7375,11.008 C-0.7205,22.458 -9.6035,40.647 18.4655,56.019 C47.0875,71.695 46.4045,53.43 51.1655,42.675 C58.3165,26.52 73.2935,15.304 58.4035,5.796 C42.3615,-4.448 21.3995,3.638 12.7375,11.008" id="path-40"></path>
        <path d="M16.6086,2.0295 C18.4416,-2.4695 0.4996,1.3725 0.4996,18.4625 C0.4996,28.8985 11.8646,36.5085 15.3836,34.8235 C18.9026,33.1385 22.4826,27.0965 19.2906,25.1145 C16.0986,23.1325 7.7376,18.0955 9.7996,12.8625 C11.8616,7.6285 15.4246,4.9355 16.6086,2.0295" id="path-42"></path>
        <path d="M43.618,0.2628 C59.798,-0.5872 89.386,5.8408 90.765,32.1038 C92.145,58.3678 64.348,75.8088 47.634,76.6868 C30.918,77.5648 2.282,63.7748 0.978,38.9648 C-0.325,14.1548 27.951,1.0858 43.618,0.2628" id="path-44"></path>
        <path d="M0.8084,39.1867 C-1.7576,21.2557 14.8654,3.4747 34.8504,0.6137 C54.6484,-2.2203 75.1904,9.2327 77.7564,27.1637 C80.3224,45.0937 71.0484,61.7627 44.1534,65.6117 C15.2024,69.7557 3.3744,57.1177 0.8084,39.1867" id="path-46"></path>
        <path d="M2.35097976,19.3945189 C-0.887640904,23.2850634 11.8227188,30.4742522 23.1673227,28.4494825 C34.5119266,26.4247129 46.3072859,16.7632239 41.3694007,14.4764063 C37.9099615,12.8742819 32.1472249,19.5791295 22.3903989,21.1038111 C12.6335729,22.6284927 5.24886165,15.9133029 2.35097976,19.3945189 Z" id="path-48"></path>
    </defs>
    <g id="Layout" stroke="none" stroke-width="1" fill="none" fill-rule="evenodd">
        <g id="1.1.2_CountUp_3" transform="translate(-16.000000, -88.000000)">
            <g id="Group" transform="translate(15.000000, 85.000000)">
                <g id="Planets/Earth1" transform="translate(490.000000, 135.000000)">
                    <circle id="Moon-Shadow" fill="url(#radialGradient-1)" fill-rule="evenodd" cx="75" cy="75" r="75"></circle>
                    <g id="Planet-2" stroke-width="1" fill-rule="evenodd" transform="translate(5.000000, 5.000000)">
                        <path d="M0.582,70.2367 C0.582,31.5767 31.923,0.2367 70.582,0.2367 C109.241,0.2367 140.582,31.5767 140.582,70.2367 C140.582,108.8957 109.241,140.2367 70.582,140.2367 C31.923,140.2367 0.582,108.8957 0.582,70.2367" id="Fill-1" fill="#1CC7E6"></path>
                        <g id="Group-15" transform="translate(0.000000, 0.148000)">
                            <g id="Group-5">
                                <mask id="mask-3" fill="white">
                                    <use xlink:href="#path-2"></use>
                                </mask>
                                <g id="Clip-4"></g>
                                <path d="M134.2621,7.2811 C126.1571,4.1831 77.9881,-14.1479 68.7931,-14.1479 C28.4091,-14.1479 -12.7379,18.5901 -12.7379,58.9751 C-12.7379,63.2271 -3.9669,67.3951 -3.2699,71.4491 C0.8741,70.1911 -33.4879,85.9651 -27.2379,79.7811 C-18.4449,71.0821 4.3851,53.9571 -4.7379,58.9751 C-9.4679,61.5771 16.4131,33.3171 26.2601,23.2791 C36.8191,12.5141 57.5201,6.2641 54.7621,10.7791 C44.2621,27.9681 85.6931,18.6461 117.2601,10.7791 L134.2621,7.2811 Z" id="Fill-3" fill="#FAD232" mask="url(#mask-3)"></path>
                            </g>
                            <g id="Group-8" transform="translate(0.000000, 75.000000)">
                                <mask id="mask-5" fill="white">
                                    <use xlink:href="#path-4"></use>
                                </mask>
                                <g id="Clip-7"></g>
                                <path d="M201.2484,65.2127 C191.4644,104.4537 55.0024,100.0647 15.7614,90.2797 C1.5044,86.7257 -20.9876,16.7807 -0.9876,0.7807 C3.2624,14.7097 22.0474,49.9077 16.7624,28.2097 C12.0684,8.9417 77.2624,102.7807 134.2624,38.2807 C191.2624,-26.2193 127.7934,44.4197 128.2644,43.7807 C161.7624,-1.7193 202.5224,60.1017 201.2484,65.2127" id="Fill-6" fill="#FAD232" mask="url(#mask-5)"></path>
                            </g>
                            <g id="Group-11" transform="translate(49.000000, 87.000000)">
                                <mask id="mask-7" fill="white">
                                    <use xlink:href="#path-6"></use>
                                </mask>
                                <g id="Clip-10"></g>
                                <path d="M96.2621,3.7811 C87.7641,21.8631 2.2621,29.1421 58.2621,33.8611 C76.7621,49.2791 -1.7409,53.5981 0.2621,64.2811 C4.7621,88.2811 61.0051,48.8461 83.2601,49.2791 C105.5151,49.7121 131.3251,45.8111 132.7621,45.7811 C151.1871,45.3911 104.7601,-14.3009 96.2621,3.7811" id="Fill-9" fill="#FAD232" mask="url(#mask-7)"></path>
                            </g>
                            <g id="Group-14" transform="translate(11.000000, 45.000000)">
                                <mask id="mask-9" fill="white">
                                    <use xlink:href="#path-8"></use>
                                </mask>
                                <g id="Clip-13"></g>
                                <path d="M132.1898,23.7293 C132.1898,63.6953 99.7898,96.0953 59.8238,96.0953 C35.3998,96.0953 13.8028,83.9963 0.6978,65.4643 C5.5338,65.8203 10.8488,67.5733 16.8978,69.3263 C32.2298,73.7703 52.2768,78.2113 81.1968,59.8953 C129.9758,29.0003 108.1458,1.5773 128.3808,0.5013 C130.8508,7.7923 132.1898,15.6043 132.1898,23.7293" id="Fill-12" fill-opacity="0.25" fill="#136FCB" mask="url(#mask-9)"></path>
                            </g>
                        </g>
                    </g>
                    <g id="TextField/Invisible" transform="translate(42.000000, 46.000000)" font-size="30" font-family="Oxygen-Bold, Oxygen" fill="#000000" font-weight="bold">
                        <text id="Input">
                            <tspan x="15.6123047" y="41">30</tspan>
                        </text>
                    </g>
                </g>
                <g id="Asteroid/R1" transform="translate(400.000000, 175.000000)">
                    <circle id="Moon-Shadow" fill="url(#radialGradient-1)" cx="35" cy="35" r="35"></circle>
                    <ellipse id="Crater-Mound" fill="#E0E0E0" transform="translate(53.825623, 57.082772) rotate(141.000000) translate(-53.825623, -57.082772) " cx="53.8256225" cy="57.0827717" rx="6.07589564" ry="3.17816079"></ellipse>
                    <g id="Moon" stroke-width="1" transform="translate(5.000000, 5.000000)">
                        <mask id="mask-11" fill="white">
                            <use xlink:href="#path-10"></use>
                        </mask>
                        <use id="Mask" fill="#FFFFFF" xlink:href="#path-10"></use>
                        <path d="M56.2698185,38.7059971 C56.2698185,40.6917388 54.6603815,42.3011758 52.6753393,42.3011758 C50.690297,42.3011758 49.0808601,40.6917388 49.0808601,38.7059971 C49.0808601,36.7209549 50.690297,35.1115179 52.6753393,35.1115179 C54.6603815,35.1115179 56.2698185,36.7209549 56.2698185,38.7059971" id="Fill-4" fill="#E4E4E4" mask="url(#mask-11)"></path>
                        <path d="M25.3983549,52.0338281 C25.3983549,53.8901713 23.8931361,55.3960895 22.0360934,55.3960895 C20.1797502,55.3960895 18.6745314,53.8901713 18.6745314,52.0338281 C18.6745314,50.1774848 20.1797502,48.6715666 22.0360934,48.6715666 C23.8931361,48.6715666 25.3983549,50.1774848 25.3983549,52.0338281" id="Fill-6" fill="#E4E4E4" mask="url(#mask-11)"></path>
                        <path d="M23.5704793,10.4451648 C23.5704793,13.3905534 21.1825532,15.7784795 18.2371646,15.7784795 C15.291776,15.7784795 12.90385,13.3905534 12.90385,10.4451648 C12.90385,7.49977617 15.291776,5.1118501 18.2371646,5.1118501 C21.1825532,5.1118501 23.5704793,7.49977617 23.5704793,10.4451648" id="Fill-8" fill="#E4E4E4" mask="url(#mask-11)"></path>
                        <path d="M8.29292838,40.9224877 C8.29292838,42.4598812 7.04720596,43.7056037 5.50981243,43.7056037 C3.9724189,43.7056037 2.72669648,42.4598812 2.72669648,40.9224877 C2.72669648,39.3857936 3.9724189,38.1393718 5.50981243,38.1393718 C7.04720596,38.1393718 8.29292838,39.3857936 8.29292838,40.9224877" id="Fill-10" fill="#E4E4E4" mask="url(#mask-11)"></path>
                        <path d="M13.2847011,33.7859181 C13.2847011,35.1645363 12.1669782,36.2815597 10.7890595,36.2815597 C9.41044141,36.2815597 8.29271854,35.1645363 8.29271854,33.7859181 C8.29271854,32.4073 9.41044141,31.2902766 10.7890595,31.2902766 C12.1669782,31.2902766 13.2847011,32.4073 13.2847011,33.7859181" id="Fill-12" fill="#E4E4E4" mask="url(#mask-11)"></path>
                        <path d="M40.0809999,58.0338281 C40.0809999,59.4124462 38.9632771,60.5294696 37.5853584,60.5294696 C36.2060408,60.5294696 35.0890174,59.4124462 35.0890174,58.0338281 C35.0890174,56.65521 36.2060408,55.5381865 37.5853584,55.5381865 C38.9632771,55.5381865 40.0809999,56.65521 40.0809999,58.0338281" id="Fill-14" fill="#E4E4E4" mask="url(#mask-11)"></path>
                        <path d="M54.4662139,17.5434744 C54.4662139,18.5185092 53.6765336,19.3081895 52.7014988,19.3081895 C51.7264639,19.3081895 50.9367836,18.5185092 50.9367836,17.5434744 C50.9367836,16.5684395 51.7264639,15.7787592 52.7014988,15.7787592 C53.6765336,15.7787592 54.4662139,16.5684395 54.4662139,17.5434744" id="Fill-16" fill="#E4E4E4" mask="url(#mask-11)"></path>
                        <path d="M28.5742826,8.68044964 C28.5742826,9.65548448 27.7839028,10.4451648 26.8095674,10.4451648 C25.8345326,10.4451648 25.0448523,9.65548448 25.0448523,8.68044964 C25.0448523,7.7054148 25.8345326,6.9157345 26.8095674,6.9157345 C27.7839028,6.9157345 28.5742826,7.7054148 28.5742826,8.68044964" id="Fill-18" fill="#E4E4E4" mask="url(#mask-11)"></path>
                        <path d="M59.8720703,22.546875 C51.4492188,22.546875 60.3603516,33.0263672 41.671875,44.8632812 C22.9833984,56.7001953 14.1611328,43.2275391 7.25,47.9970703 C0.338867187,52.7666016 2.67285156,55.7265625 7.25,57.7802734 C11.8271484,59.8339844 30.7167969,75.1533203 48.4941406,60.2519531 C66.2714844,45.3505859 68.2949219,22.546875 59.8720703,22.546875 Z" id="Path-2" fill-opacity="0.5" fill="#CCCCCC" mask="url(#mask-11)"></path>
                    </g>
                    <g id="Moon_craters" stroke-width="1" transform="translate(50.711989, 11.384339) rotate(31.000000) translate(-50.711989, -11.384339) translate(43.211989, 7.384339)">
                        <ellipse id="Oval-4" fill="#FFFFFF" cx="7.5" cy="4" rx="6.85826919" ry="3.58740234"></ellipse>
                        <ellipse id="Oval-4" fill="#E4E4E4" cx="7.5" cy="3.20629883" rx="4.60056495" ry="2.2409668"></ellipse>
                    </g>
                </g>
                <g id="Asteroid/R1" transform="translate(310.000000, 175.000000)">
                    <circle id="Moon-Shadow" fill="url(#radialGradient-1)" cx="35" cy="35" r="35"></circle>
                    <ellipse id="Crater-Mound" fill="#E0E0E0" transform="translate(53.825623, 57.082772) rotate(141.000000) translate(-53.825623, -57.082772) " cx="53.8256225" cy="57.0827717" rx="6.07589564" ry="3.17816079"></ellipse>
                    <g id="Moon" stroke-width="1" transform="translate(5.000000, 5.000000)">
                        <mask id="mask-13" fill="white">
                            <use xlink:href="#path-12"></use>
                        </mask>
                        <use id="Mask" fill="#FFFFFF" xlink:href="#path-12"></use>
                        <path d="M56.2698185,38.7059971 C56.2698185,40.6917388 54.6603815,42.3011758 52.6753393,42.3011758 C50.690297,42.3011758 49.0808601,40.6917388 49.0808601,38.7059971 C49.0808601,36.7209549 50.690297,35.1115179 52.6753393,35.1115179 C54.6603815,35.1115179 56.2698185,36.7209549 56.2698185,38.7059971" id="Fill-4" fill="#E4E4E4" mask="url(#mask-13)"></path>
                        <path d="M25.3983549,52.0338281 C25.3983549,53.8901713 23.8931361,55.3960895 22.0360934,55.3960895 C20.1797502,55.3960895 18.6745314,53.8901713 18.6745314,52.0338281 C18.6745314,50.1774848 20.1797502,48.6715666 22.0360934,48.6715666 C23.8931361,48.6715666 25.3983549,50.1774848 25.3983549,52.0338281" id="Fill-6" fill="#E4E4E4" mask="url(#mask-13)"></path>
                        <path d="M23.5704793,10.4451648 C23.5704793,13.3905534 21.1825532,15.7784795 18.2371646,15.7784795 C15.291776,15.7784795 12.90385,13.3905534 12.90385,10.4451648 C12.90385,7.49977617 15.291776,5.1118501 18.2371646,5.1118501 C21.1825532,5.1118501 23.5704793,7.49977617 23.5704793,10.4451648" id="Fill-8" fill="#E4E4E4" mask="url(#mask-13)"></path>
                        <path d="M8.29292838,40.9224877 C8.29292838,42.4598812 7.04720596,43.7056037 5.50981243,43.7056037 C3.9724189,43.7056037 2.72669648,42.4598812 2.72669648,40.9224877 C2.72669648,39.3857936 3.9724189,38.1393718 5.50981243,38.1393718 C7.04720596,38.1393718 8.29292838,39.3857936 8.29292838,40.9224877" id="Fill-10" fill="#E4E4E4" mask="url(#mask-13)"></path>
                        <path d="M13.2847011,33.7859181 C13.2847011,35.1645363 12.1669782,36.2815597 10.7890595,36.2815597 C9.41044141,36.2815597 8.29271854,35.1645363 8.29271854,33.7859181 C8.29271854,32.4073 9.41044141,31.2902766 10.7890595,31.2902766 C12.1669782,31.2902766 13.2847011,32.4073 13.2847011,33.7859181" id="Fill-12" fill="#E4E4E4" mask="url(#mask-13)"></path>
                        <path d="M40.0809999,58.0338281 C40.0809999,59.4124462 38.9632771,60.5294696 37.5853584,60.5294696 C36.2060408,60.5294696 35.0890174,59.4124462 35.0890174,58.0338281 C35.0890174,56.65521 36.2060408,55.5381865 37.5853584,55.5381865 C38.9632771,55.5381865 40.0809999,56.65521 40.0809999,58.0338281" id="Fill-14" fill="#E4E4E4" mask="url(#mask-13)"></path>
                        <path d="M54.4662139,17.5434744 C54.4662139,18.5185092 53.6765336,19.3081895 52.7014988,19.3081895 C51.7264639,19.3081895 50.9367836,18.5185092 50.9367836,17.5434744 C50.9367836,16.5684395 51.7264639,15.7787592 52.7014988,15.7787592 C53.6765336,15.7787592 54.4662139,16.5684395 54.4662139,17.5434744" id="Fill-16" fill="#E4E4E4" mask="url(#mask-13)"></path>
                        <path d="M28.5742826,8.68044964 C28.5742826,9.65548448 27.7839028,10.4451648 26.8095674,10.4451648 C25.8345326,10.4451648 25.0448523,9.65548448 25.0448523,8.68044964 C25.0448523,7.7054148 25.8345326,6.9157345 26.8095674,6.9157345 C27.7839028,6.9157345 28.5742826,7.7054148 28.5742826,8.68044964" id="Fill-18" fill="#E4E4E4" mask="url(#mask-13)"></path>
                        <path d="M59.8720703,22.546875 C51.4492188,22.546875 60.3603516,33.0263672 41.671875,44.8632812 C22.9833984,56.7001953 14.1611328,43.2275391 7.25,47.9970703 C0.338867187,52.7666016 2.67285156,55.7265625 7.25,57.7802734 C11.8271484,59.8339844 30.7167969,75.1533203 48.4941406,60.2519531 C66.2714844,45.3505859 68.2949219,22.546875 59.8720703,22.546875 Z" id="Path-2" fill-opacity="0.5" fill="#CCCCCC" mask="url(#mask-13)"></path>
                    </g>
                    <g id="Moon_craters" stroke-width="1" transform="translate(50.711989, 11.384339) rotate(31.000000) translate(-50.711989, -11.384339) translate(43.211989, 7.384339)">
                        <ellipse id="Oval-4" fill="#FFFFFF" cx="7.5" cy="4" rx="6.85826919" ry="3.58740234"></ellipse>
                        <ellipse id="Oval-4" fill="#E4E4E4" cx="7.5" cy="3.20629883" rx="4.60056495" ry="2.2409668"></ellipse>
                    </g>
                </g>
                <g id="Asteroid/R1" transform="translate(90.000000, 175.000000)">
                    <circle id="Moon-Shadow" fill="url(#radialGradient-1)" cx="35" cy="35" r="35"></circle>
                    <ellipse id="Crater-Mound" fill="#E0E0E0" transform="translate(53.825623, 57.082772) rotate(141.000000) translate(-53.825623, -57.082772) " cx="53.8256225" cy="57.0827717" rx="6.07589564" ry="3.17816079"></ellipse>
                    <g id="Moon" stroke-width="1" transform="translate(5.000000, 5.000000)">
                        <mask id="mask-15" fill="white">
                            <use xlink:href="#path-14"></use>
                        </mask>
                        <use id="Mask" fill="#FFFFFF" xlink:href="#path-14"></use>
                        <path d="M56.2698185,38.7059971 C56.2698185,40.6917388 54.6603815,42.3011758 52.6753393,42.3011758 C50.690297,42.3011758 49.0808601,40.6917388 49.0808601,38.7059971 C49.0808601,36.7209549 50.690297,35.1115179 52.6753393,35.1115179 C54.6603815,35.1115179 56.2698185,36.7209549 56.2698185,38.7059971" id="Fill-4" fill="#E4E4E4" mask="url(#mask-15)"></path>
                        <path d="M25.3983549,52.0338281 C25.3983549,53.8901713 23.8931361,55.3960895 22.0360934,55.3960895 C20.1797502,55.3960895 18.6745314,53.8901713 18.6745314,52.0338281 C18.6745314,50.1774848 20.1797502,48.6715666 22.0360934,48.6715666 C23.8931361,48.6715666 25.3983549,50.1774848 25.3983549,52.0338281" id="Fill-6" fill="#E4E4E4" mask="url(#mask-15)"></path>
                        <path d="M23.5704793,10.4451648 C23.5704793,13.3905534 21.1825532,15.7784795 18.2371646,15.7784795 C15.291776,15.7784795 12.90385,13.3905534 12.90385,10.4451648 C12.90385,7.49977617 15.291776,5.1118501 18.2371646,5.1118501 C21.1825532,5.1118501 23.5704793,7.49977617 23.5704793,10.4451648" id="Fill-8" fill="#E4E4E4" mask="url(#mask-15)"></path>
                        <path d="M8.29292838,40.9224877 C8.29292838,42.4598812 7.04720596,43.7056037 5.50981243,43.7056037 C3.9724189,43.7056037 2.72669648,42.4598812 2.72669648,40.9224877 C2.72669648,39.3857936 3.9724189,38.1393718 5.50981243,38.1393718 C7.04720596,38.1393718 8.29292838,39.3857936 8.29292838,40.9224877" id="Fill-10" fill="#E4E4E4" mask="url(#mask-15)"></path>
                        <path d="M13.2847011,33.7859181 C13.2847011,35.1645363 12.1669782,36.2815597 10.7890595,36.2815597 C9.41044141,36.2815597 8.29271854,35.1645363 8.29271854,33.7859181 C8.29271854,32.4073 9.41044141,31.2902766 10.7890595,31.2902766 C12.1669782,31.2902766 13.2847011,32.4073 13.2847011,33.7859181" id="Fill-12" fill="#E4E4E4" mask="url(#mask-15)"></path>
                        <path d="M40.0809999,58.0338281 C40.0809999,59.4124462 38.9632771,60.5294696 37.5853584,60.5294696 C36.2060408,60.5294696 35.0890174,59.4124462 35.0890174,58.0338281 C35.0890174,56.65521 36.2060408,55.5381865 37.5853584,55.5381865 C38.9632771,55.5381865 40.0809999,56.65521 40.0809999,58.0338281" id="Fill-14" fill="#E4E4E4" mask="url(#mask-15)"></path>
                        <path d="M54.4662139,17.5434744 C54.4662139,18.5185092 53.6765336,19.3081895 52.7014988,19.3081895 C51.7264639,19.3081895 50.9367836,18.5185092 50.9367836,17.5434744 C50.9367836,16.5684395 51.7264639,15.7787592 52.7014988,15.7787592 C53.6765336,15.7787592 54.4662139,16.5684395 54.4662139,17.5434744" id="Fill-16" fill="#E4E4E4" mask="url(#mask-15)"></path>
                        <path d="M28.5742826,8.68044964 C28.5742826,9.65548448 27.7839028,10.4451648 26.8095674,10.4451648 C25.8345326,10.4451648 25.0448523,9.65548448 25.0448523,8.68044964 C25.0448523,7.7054148 25.8345326,6.9157345 26.8095674,6.9157345 C27.7839028,6.9157345 28.5742826,7.7054148 28.5742826,8.68044964" id="Fill-18" fill="#E4E4E4" mask="url(#mask-15)"></path>
                        <path d="M59.8720703,22.546875 C51.4492188,22.546875 60.3603516,33.0263672 41.671875,44.8632812 C22.9833984,56.7001953 14.1611328,43.2275391 7.25,47.9970703 C0.338867187,52.7666016 2.67285156,55.7265625 7.25,57.7802734 C11.8271484,59.8339844 30.7167969,75.1533203 48.4941406,60.2519531 C66.2714844,45.3505859 68.2949219,22.546875 59.8720703,22.546875 Z" id="Path-2" fill-opacity="0.5" fill="#CCCCCC" mask="url(#mask-15)"></path>
                    </g>
                    <g id="Moon_craters" stroke-width="1" transform="translate(50.711989, 11.384339) rotate(31.000000) translate(-50.711989, -11.384339) translate(43.211989, 7.384339)">
                        <ellipse id="Oval-4" fill="#FFFFFF" cx="7.5" cy="4" rx="6.85826919" ry="3.58740234"></ellipse>
                        <ellipse id="Oval-4" fill="#E4E4E4" cx="7.5" cy="3.20629883" rx="4.60056495" ry="2.2409668"></ellipse>
                    </g>
                </g>
                <g id="Asteroid/R1" transform="translate(0.000000, 175.000000)">
                    <circle id="Moon-Shadow" fill="url(#radialGradient-1)" cx="35" cy="35" r="35"></circle>
                    <ellipse id="Crater-Mound" fill="#E0E0E0" transform="translate(53.825623, 57.082772) rotate(141.000000) translate(-53.825623, -57.082772) " cx="53.8256225" cy="57.0827717" rx="6.07589564" ry="3.17816079"></ellipse>
                    <g id="Moon" stroke-width="1" transform="translate(5.000000, 5.000000)">
                        <mask id="mask-17" fill="white">
                            <use xlink:href="#path-16"></use>
                        </mask>
                        <use id="Mask" fill="#FFFFFF" xlink:href="#path-16"></use>
                        <path d="M56.2698185,38.7059971 C56.2698185,40.6917388 54.6603815,42.3011758 52.6753393,42.3011758 C50.690297,42.3011758 49.0808601,40.6917388 49.0808601,38.7059971 C49.0808601,36.7209549 50.690297,35.1115179 52.6753393,35.1115179 C54.6603815,35.1115179 56.2698185,36.7209549 56.2698185,38.7059971" id="Fill-4" fill="#E4E4E4" mask="url(#mask-17)"></path>
                        <path d="M25.3983549,52.0338281 C25.3983549,53.8901713 23.8931361,55.3960895 22.0360934,55.3960895 C20.1797502,55.3960895 18.6745314,53.8901713 18.6745314,52.0338281 C18.6745314,50.1774848 20.1797502,48.6715666 22.0360934,48.6715666 C23.8931361,48.6715666 25.3983549,50.1774848 25.3983549,52.0338281" id="Fill-6" fill="#E4E4E4" mask="url(#mask-17)"></path>
                        <path d="M23.5704793,10.4451648 C23.5704793,13.3905534 21.1825532,15.7784795 18.2371646,15.7784795 C15.291776,15.7784795 12.90385,13.3905534 12.90385,10.4451648 C12.90385,7.49977617 15.291776,5.1118501 18.2371646,5.1118501 C21.1825532,5.1118501 23.5704793,7.49977617 23.5704793,10.4451648" id="Fill-8" fill="#E4E4E4" mask="url(#mask-17)"></path>
                        <path d="M8.29292838,40.9224877 C8.29292838,42.4598812 7.04720596,43.7056037 5.50981243,43.7056037 C3.9724189,43.7056037 2.72669648,42.4598812 2.72669648,40.9224877 C2.72669648,39.3857936 3.9724189,38.1393718 5.50981243,38.1393718 C7.04720596,38.1393718 8.29292838,39.3857936 8.29292838,40.9224877" id="Fill-10" fill="#E4E4E4" mask="url(#mask-17)"></path>
                        <path d="M13.2847011,33.7859181 C13.2847011,35.1645363 12.1669782,36.2815597 10.7890595,36.2815597 C9.41044141,36.2815597 8.29271854,35.1645363 8.29271854,33.7859181 C8.29271854,32.4073 9.41044141,31.2902766 10.7890595,31.2902766 C12.1669782,31.2902766 13.2847011,32.4073 13.2847011,33.7859181" id="Fill-12" fill="#E4E4E4" mask="url(#mask-17)"></path>
                        <path d="M40.0809999,58.0338281 C40.0809999,59.4124462 38.9632771,60.5294696 37.5853584,60.5294696 C36.2060408,60.5294696 35.0890174,59.4124462 35.0890174,58.0338281 C35.0890174,56.65521 36.2060408,55.5381865 37.5853584,55.5381865 C38.9632771,55.5381865 40.0809999,56.65521 40.0809999,58.0338281" id="Fill-14" fill="#E4E4E4" mask="url(#mask-17)"></path>
                        <path d="M54.4662139,17.5434744 C54.4662139,18.5185092 53.6765336,19.3081895 52.7014988,19.3081895 C51.7264639,19.3081895 50.9367836,18.5185092 50.9367836,17.5434744 C50.9367836,16.5684395 51.7264639,15.7787592 52.7014988,15.7787592 C53.6765336,15.7787592 54.4662139,16.5684395 54.4662139,17.5434744" id="Fill-16" fill="#E4E4E4" mask="url(#mask-17)"></path>
                        <path d="M28.5742826,8.68044964 C28.5742826,9.65548448 27.7839028,10.4451648 26.8095674,10.4451648 C25.8345326,10.4451648 25.0448523,9.65548448 25.0448523,8.68044964 C25.0448523,7.7054148 25.8345326,6.9157345 26.8095674,6.9157345 C27.7839028,6.9157345 28.5742826,7.7054148 28.5742826,8.68044964" id="Fill-18" fill="#E4E4E4" mask="url(#mask-17)"></path>
                        <path d="M59.8720703,22.546875 C51.4492188,22.546875 60.3603516,33.0263672 41.671875,44.8632812 C22.9833984,56.7001953 14.1611328,43.2275391 7.25,47.9970703 C0.338867187,52.7666016 2.67285156,55.7265625 7.25,57.7802734 C11.8271484,59.8339844 30.7167969,75.1533203 48.4941406,60.2519531 C66.2714844,45.3505859 68.2949219,22.546875 59.8720703,22.546875 Z" id="Path-2" fill-opacity="0.5" fill="#CCCCCC" mask="url(#mask-17)"></path>
                    </g>
                    <g id="Moon_craters" stroke-width="1" transform="translate(50.711989, 11.384339) rotate(31.000000) translate(-50.711989, -11.384339) translate(43.211989, 7.384339)">
                        <ellipse id="Oval-4" fill="#FFFFFF" cx="7.5" cy="4" rx="6.85826919" ry="3.58740234"></ellipse>
                        <ellipse id="Oval-4" fill="#E4E4E4" cx="7.5" cy="3.20629883" rx="4.60056495" ry="2.2409668"></ellipse>
                    </g>
                </g>
                <g id="Planets/Waves_Orange" transform="translate(180.000000, 155.000000)">
                    <circle id="Moon-Shadow" fill="url(#radialGradient-1)" fill-rule="evenodd" cx="55" cy="55" r="55"></circle>
                    <g id="Waves_Orange" stroke-width="1" fill-rule="evenodd" transform="translate(5.000000, 5.000000)">
                        <mask id="mask-19" fill="white">
                            <use xlink:href="#path-18"></use>
                        </mask>
                        <use id="Mask" fill="#FFDCCB" xlink:href="#path-18"></use>
                        <path d="M31.0651,34.5585 L31.0651,34.5585 C29.6321,36.4035 29.9901,39.0785 31.8631,40.5335 L57.5201,60.4595 C58.5801,61.2845 58.7831,62.7985 57.9721,63.8425 C57.1611,64.8865 55.6431,65.0655 54.5831,64.2425 L46.5721,58.0205 C44.5891,56.4795 41.7521,56.8145 40.2351,58.7665 L37.2091,62.6625 C36.6291,63.4095 35.5441,63.5375 34.7861,62.9485 L31.5551,60.4385 C29.6811,58.9835 27.0011,59.2985 25.5681,61.1435 C24.1361,62.9885 24.4931,65.6625 26.3671,67.1195 L40.7361,78.2785 C42.1681,79.3915 42.4411,81.4365 41.3461,82.8465 C40.2511,84.2575 38.2011,84.4985 36.7691,83.3865 L29.7321,77.9205 C28.4661,76.9375 26.6561,77.1515 25.6891,78.3965 C24.7211,79.6425 24.9621,81.4495 26.2281,82.4315 L27.2161,83.1995 C27.9751,83.7875 28.1191,84.8715 27.5391,85.6175 L23.5031,90.8135 C22.9241,91.5605 23.0681,92.6425 23.8271,93.2325 C23.8271,93.2325 73.9391,119.4155 74.5191,118.6685 L128.9961,48.5285 C129.5761,47.7825 86.6931,17.6915 86.6931,17.6915 C85.9351,17.1025 84.8501,17.2295 84.2711,17.9765 L83.7661,18.6265 C83.1861,19.3735 82.1011,19.5005 81.3421,18.9125 L79.1291,17.1925 C77.2551,15.7375 74.5751,16.0535 73.1421,17.8985 C71.7101,19.7425 72.0671,22.4175 73.9411,23.8725 L76.8891,26.1625 C78.2051,27.1845 78.4561,29.0635 77.4501,30.3595 C76.4431,31.6555 74.5611,31.8775 73.2451,30.8545 L67.5501,26.4325 C66.7921,25.8435 65.7071,25.9705 65.1271,26.7175 L59.4441,34.0335 C58.8651,34.7805 57.7801,34.9085 57.0221,34.3195 L45.0661,25.0345 C43.1931,23.5795 40.5131,23.8945 39.0801,25.7395 C37.6481,27.5835 38.0051,30.2595 39.8781,31.7145 L59.5401,46.9845 C60.2981,47.5735 60.4421,48.6565 59.8621,49.4035 C59.2831,50.1495 58.1981,50.2775 57.4401,49.6885 L37.0511,33.8535 C35.1781,32.3985 32.4981,32.7135 31.0651,34.5585" id="Fill-4" fill="#F5BFA0" mask="url(#mask-19)"></path>
                        <path d="M99.5772345,35.2310534 C85.0038323,35.2310534 100.422069,53.3629003 68.086858,73.8433882 C35.7516466,94.3238761 20.4871694,71.0131912 8.52937605,79.2655387 C-3.4284173,87.5178861 0.609893581,92.6392753 8.52937605,96.192651 C16.4488585,99.7460266 49.1321419,126.251877 79.8908914,100.469205 C110.649641,74.6865334 114.150637,35.2310534 99.5772345,35.2310534 Z" id="Path-2" fill-opacity="0.5" fill="#FF9E59" mask="url(#mask-19)"></path>
                    </g>
                    <g id="TextField/Invisible" transform="translate(22.000000, 26.000000)" font-size="30" font-family="Oxygen-Bold, Oxygen" fill="#000000" font-weight="bold">
                        <text id="Input">
                            <tspan x="17.6923828" y="41">27</tspan>
                        </text>
                    </g>
                </g>
                <g id="Asteroid/R1_Continuation" transform="translate(750.000000, 175.000000)">
                    <ellipse id="Crater-Mound" fill="#420E6C" transform="translate(53.825623, 57.082772) rotate(141.000000) translate(-53.825623, -57.082772) " cx="53.8256225" cy="57.0827717" rx="6.07589564" ry="3.17816079"></ellipse>
                    <g id="Moon" stroke-width="1" transform="translate(5.000000, 5.000000)">
                        <mask id="mask-21" fill="white">
                            <use xlink:href="#path-20"></use>
                        </mask>
                        <use id="Mask" fill="#420E6C" xlink:href="#path-20"></use>
                        <path d="M56.2698185,38.7059971 C56.2698185,40.6917388 54.6603815,42.3011758 52.6753393,42.3011758 C50.690297,42.3011758 49.0808601,40.6917388 49.0808601,38.7059971 C49.0808601,36.7209549 50.690297,35.1115179 52.6753393,35.1115179 C54.6603815,35.1115179 56.2698185,36.7209549 56.2698185,38.7059971" id="Fill-4" fill="#2B0A50" mask="url(#mask-21)"></path>
                        <path d="M25.3983549,52.0338281 C25.3983549,53.8901713 23.8931361,55.3960895 22.0360934,55.3960895 C20.1797502,55.3960895 18.6745314,53.8901713 18.6745314,52.0338281 C18.6745314,50.1774848 20.1797502,48.6715666 22.0360934,48.6715666 C23.8931361,48.6715666 25.3983549,50.1774848 25.3983549,52.0338281" id="Fill-6" fill="#2B0A50" mask="url(#mask-21)"></path>
                        <path d="M23.5704793,10.4451648 C23.5704793,13.3905534 21.1825532,15.7784795 18.2371646,15.7784795 C15.291776,15.7784795 12.90385,13.3905534 12.90385,10.4451648 C12.90385,7.49977617 15.291776,5.1118501 18.2371646,5.1118501 C21.1825532,5.1118501 23.5704793,7.49977617 23.5704793,10.4451648" id="Fill-8" fill="#2B0A50" mask="url(#mask-21)"></path>
                        <path d="M8.29292838,40.9224877 C8.29292838,42.4598812 7.04720596,43.7056037 5.50981243,43.7056037 C3.9724189,43.7056037 2.72669648,42.4598812 2.72669648,40.9224877 C2.72669648,39.3857936 3.9724189,38.1393718 5.50981243,38.1393718 C7.04720596,38.1393718 8.29292838,39.3857936 8.29292838,40.9224877" id="Fill-10" fill="#2B0A50" mask="url(#mask-21)"></path>
                        <path d="M13.2847011,33.7859181 C13.2847011,35.1645363 12.1669782,36.2815597 10.7890595,36.2815597 C9.41044141,36.2815597 8.29271854,35.1645363 8.29271854,33.7859181 C8.29271854,32.4073 9.41044141,31.2902766 10.7890595,31.2902766 C12.1669782,31.2902766 13.2847011,32.4073 13.2847011,33.7859181" id="Fill-12" fill="#2B0A50" mask="url(#mask-21)"></path>
                        <path d="M40.0809999,58.0338281 C40.0809999,59.4124462 38.9632771,60.5294696 37.5853584,60.5294696 C36.2060408,60.5294696 35.0890174,59.4124462 35.0890174,58.0338281 C35.0890174,56.65521 36.2060408,55.5381865 37.5853584,55.5381865 C38.9632771,55.5381865 40.0809999,56.65521 40.0809999,58.0338281" id="Fill-14" fill="#2B0A50" mask="url(#mask-21)"></path>
                        <path d="M54.4662139,17.5434744 C54.4662139,18.5185092 53.6765336,19.3081895 52.7014988,19.3081895 C51.7264639,19.3081895 50.9367836,18.5185092 50.9367836,17.5434744 C50.9367836,16.5684395 51.7264639,15.7787592 52.7014988,15.7787592 C53.6765336,15.7787592 54.4662139,16.5684395 54.4662139,17.5434744" id="Fill-16" fill="#2B0A50" mask="url(#mask-21)"></path>
                        <path d="M28.5742826,8.68044964 C28.5742826,9.65548448 27.7839028,10.4451648 26.8095674,10.4451648 C25.8345326,10.4451648 25.0448523,9.65548448 25.0448523,8.68044964 C25.0448523,7.7054148 25.8345326,6.9157345 26.8095674,6.9157345 C27.7839028,6.9157345 28.5742826,7.7054148 28.5742826,8.68044964" id="Fill-18" fill="#2B0A50" mask="url(#mask-21)"></path>
                        <path d="M59.8720703,22.546875 C51.4492187,22.546875 60.3603516,33.0263672 41.671875,44.8632812 C22.9833984,56.7001953 14.1611328,43.2275391 7.25,47.9970703 C0.338867187,52.7666016 2.67285156,55.7265625 7.25,57.7802734 C11.8271484,59.8339844 30.7167969,75.1533203 48.4941406,60.2519531 C66.2714844,45.3505859 68.2949219,22.546875 59.8720703,22.546875 Z" id="Path-2" fill-opacity="0.25" fill="#2B004D" mask="url(#mask-21)"></path>
                    </g>
                    <g id="Moon_craters" stroke-width="1" transform="translate(50.711989, 11.384339) rotate(31.000000) translate(-50.711989, -11.384339) translate(43.211989, 7.384339)">
                        <ellipse id="Oval-4" fill="#420E6C" cx="7.5" cy="4" rx="6.85826919" ry="3.58740234"></ellipse>
                        <ellipse id="Oval-4" fill="#2B0A50" cx="7.5" cy="3.20629883" rx="4.60056495" ry="2.2409668"></ellipse>
                    </g>
                </g>
                <g id="Asteroid/R1_Continuation" transform="translate(660.000000, 175.000000)">
                    <ellipse id="Crater-Mound" fill="#420E6C" transform="translate(53.825623, 57.082772) rotate(141.000000) translate(-53.825623, -57.082772) " cx="53.8256225" cy="57.0827717" rx="6.07589564" ry="3.17816079"></ellipse>
                    <g id="Moon" stroke-width="1" transform="translate(5.000000, 5.000000)">
                        <mask id="mask-23" fill="white">
                            <use xlink:href="#path-22"></use>
                        </mask>
                        <use id="Mask" fill="#420E6C" xlink:href="#path-22"></use>
                        <path d="M56.2698185,38.7059971 C56.2698185,40.6917388 54.6603815,42.3011758 52.6753393,42.3011758 C50.690297,42.3011758 49.0808601,40.6917388 49.0808601,38.7059971 C49.0808601,36.7209549 50.690297,35.1115179 52.6753393,35.1115179 C54.6603815,35.1115179 56.2698185,36.7209549 56.2698185,38.7059971" id="Fill-4" fill="#2B0A50" mask="url(#mask-23)"></path>
                        <path d="M25.3983549,52.0338281 C25.3983549,53.8901713 23.8931361,55.3960895 22.0360934,55.3960895 C20.1797502,55.3960895 18.6745314,53.8901713 18.6745314,52.0338281 C18.6745314,50.1774848 20.1797502,48.6715666 22.0360934,48.6715666 C23.8931361,48.6715666 25.3983549,50.1774848 25.3983549,52.0338281" id="Fill-6" fill="#2B0A50" mask="url(#mask-23)"></path>
                        <path d="M23.5704793,10.4451648 C23.5704793,13.3905534 21.1825532,15.7784795 18.2371646,15.7784795 C15.291776,15.7784795 12.90385,13.3905534 12.90385,10.4451648 C12.90385,7.49977617 15.291776,5.1118501 18.2371646,5.1118501 C21.1825532,5.1118501 23.5704793,7.49977617 23.5704793,10.4451648" id="Fill-8" fill="#2B0A50" mask="url(#mask-23)"></path>
                        <path d="M8.29292838,40.9224877 C8.29292838,42.4598812 7.04720596,43.7056037 5.50981243,43.7056037 C3.9724189,43.7056037 2.72669648,42.4598812 2.72669648,40.9224877 C2.72669648,39.3857936 3.9724189,38.1393718 5.50981243,38.1393718 C7.04720596,38.1393718 8.29292838,39.3857936 8.29292838,40.9224877" id="Fill-10" fill="#2B0A50" mask="url(#mask-23)"></path>
                        <path d="M13.2847011,33.7859181 C13.2847011,35.1645363 12.1669782,36.2815597 10.7890595,36.2815597 C9.41044141,36.2815597 8.29271854,35.1645363 8.29271854,33.7859181 C8.29271854,32.4073 9.41044141,31.2902766 10.7890595,31.2902766 C12.1669782,31.2902766 13.2847011,32.4073 13.2847011,33.7859181" id="Fill-12" fill="#2B0A50" mask="url(#mask-23)"></path>
                        <path d="M40.0809999,58.0338281 C40.0809999,59.4124462 38.9632771,60.5294696 37.5853584,60.5294696 C36.2060408,60.5294696 35.0890174,59.4124462 35.0890174,58.0338281 C35.0890174,56.65521 36.2060408,55.5381865 37.5853584,55.5381865 C38.9632771,55.5381865 40.0809999,56.65521 40.0809999,58.0338281" id="Fill-14" fill="#2B0A50" mask="url(#mask-23)"></path>
                        <path d="M54.4662139,17.5434744 C54.4662139,18.5185092 53.6765336,19.3081895 52.7014988,19.3081895 C51.7264639,19.3081895 50.9367836,18.5185092 50.9367836,17.5434744 C50.9367836,16.5684395 51.7264639,15.7787592 52.7014988,15.7787592 C53.6765336,15.7787592 54.4662139,16.5684395 54.4662139,17.5434744" id="Fill-16" fill="#2B0A50" mask="url(#mask-23)"></path>
                        <path d="M28.5742826,8.68044964 C28.5742826,9.65548448 27.7839028,10.4451648 26.8095674,10.4451648 C25.8345326,10.4451648 25.0448523,9.65548448 25.0448523,8.68044964 C25.0448523,7.7054148 25.8345326,6.9157345 26.8095674,6.9157345 C27.7839028,6.9157345 28.5742826,7.7054148 28.5742826,8.68044964" id="Fill-18" fill="#2B0A50" mask="url(#mask-23)"></path>
                        <path d="M59.8720703,22.546875 C51.4492187,22.546875 60.3603516,33.0263672 41.671875,44.8632812 C22.9833984,56.7001953 14.1611328,43.2275391 7.25,47.9970703 C0.338867187,52.7666016 2.67285156,55.7265625 7.25,57.7802734 C11.8271484,59.8339844 30.7167969,75.1533203 48.4941406,60.2519531 C66.2714844,45.3505859 68.2949219,22.546875 59.8720703,22.546875 Z" id="Path-2" fill-opacity="0.25" fill="#2B004D" mask="url(#mask-23)"></path>
                    </g>
                    <g id="Moon_craters" stroke-width="1" transform="translate(50.711989, 11.384339) rotate(31.000000) translate(-50.711989, -11.384339) translate(43.211989, 7.384339)">
                        <ellipse id="Oval-4" fill="#420E6C" cx="7.5" cy="4" rx="6.85826919" ry="3.58740234"></ellipse>
                        <ellipse id="Oval-4" fill="#2B0A50" cx="7.5" cy="3.20629883" rx="4.60056495" ry="2.2409668"></ellipse>
                    </g>
                </g>
                <g id="Planets/Stripes_Continuation" transform="translate(840.000000, 155.000000)">
                    <g id="Group-2" transform="translate(5.000000, 4.000000)">
                        <g id="Group-3" transform="translate(0.000000, 0.638000)">
                            <mask id="mask-25" fill="white">
                                <use xlink:href="#path-24"></use>
                            </mask>
                            <g id="Clip-2"></g>
                            <path d="M71.9951,82.7853 C99.3721,66.9793 111.4781,36.6933 99.0351,15.1403 C86.5911,-6.4127 54.3091,-11.0707 26.9321,4.7343 C-0.4439,20.5403 -12.5499,50.8263 -0.1069,72.3793 C12.3371,93.9323 44.6181,98.5913 71.9951,82.7853" id="Fill-1" fill="#490080" mask="url(#mask-25)"></path>
                        </g>
                        <g id="Group-6" transform="translate(0.000000, 4.638000)">
                            <mask id="mask-27" fill="white">
                                <use xlink:href="#path-26"></use>
                            </mask>
                            <g id="Clip-5"></g>
                            <path d="M76.9951,87.4454 C104.3721,71.6394 116.4781,41.3534 104.0351,19.8004 C91.5911,-1.7526 59.3091,-6.4106 31.9321,9.3954 C4.5561,25.2014 -7.5499,55.4874 4.8931,77.0394 C17.3371,98.5924 49.6181,103.2514 76.9951,87.4454" id="Fill-4" fill="#2B0A50" mask="url(#mask-27)"></path>
                        </g>
                        <g id="Group-9" transform="translate(10.000000, 21.638000)">
                            <mask id="mask-29" fill="white">
                                <use xlink:href="#path-28"></use>
                            </mask>
                            <g id="Clip-8"></g>
                            <path d="M76.9951,87.7662 C104.3721,71.9602 116.4781,41.6742 104.0351,20.1212 C91.5911,-1.4318 59.3091,-6.0908 31.9321,9.7152 C4.5561,25.5212 -7.5499,55.8072 4.8931,77.3602 C17.3371,98.9132 49.6181,103.5722 76.9951,87.7662" id="Fill-7" fill="#490080" mask="url(#mask-29)"></path>
                        </g>
                        <g id="Group-12" transform="translate(26.000000, 46.638000)">
                            <mask id="mask-31" fill="white">
                                <use xlink:href="#path-30"></use>
                            </mask>
                            <g id="Clip-11"></g>
                            <path d="M77.9346,87.6276 C105.3116,71.8206 117.4166,41.5356 104.9736,19.9826 C92.5296,-1.5704 60.2486,-6.2294 32.8716,9.5766 C5.4946,25.3826 -6.6104,55.6686 5.8326,77.2216 C18.2766,98.7746 50.5576,103.4336 77.9346,87.6276" id="Fill-10" fill="#2B0A50" mask="url(#mask-31)"></path>
                        </g>
                        <g id="Group-15" transform="translate(39.000000, 57.638000)">
                            <mask id="mask-33" fill="white">
                                <use xlink:href="#path-32"></use>
                            </mask>
                            <g id="Clip-14"></g>
                            <path d="M64.1646,73.7584 C86.9616,60.5964 97.0416,35.3784 86.6796,17.4314 C76.3186,-0.5156 49.4376,-4.3956 26.6416,8.7664 C3.8446,21.9274 -6.2354,47.1464 4.1256,65.0934 C14.4876,83.0404 41.3686,86.9194 64.1646,73.7584" id="Fill-13" fill="#420E6C" mask="url(#mask-33)"></path>
                        </g>
                        <g id="Group-18" transform="translate(0.000000, 35.638000)">
                            <mask id="mask-35" fill="white">
                                <use xlink:href="#path-34"></use>
                            </mask>
                            <g id="Clip-17"></g>
                            <path d="M99.1885,0.923 C84.6155,0.923 100.0335,19.055 67.6985,39.535 C35.3625,60.016 20.0985,36.705 8.1405,44.958 C-3.8165,53.21 0.2215,58.331 8.1405,61.885 C16.0605,65.438 48.7435,91.944 79.5025,66.161 C110.2605,40.379 113.7615,0.923 99.1885,0.923" id="Fill-16" fill-opacity="0.5" fill="#2B004D" mask="url(#mask-35)"></path>
                        </g>
                    </g>
                </g>
                <g id="Animal/TaskSuccess/Tiger" transform="translate(513.000000, 0.000000)">
                    <ellipse id="Shadow" fill-opacity="0.25" fill="#000000" cx="52" cy="157.5" rx="40" ry="12.5"></ellipse>
                    <g id="Group-2" stroke-width="1" transform="translate(0.000000, 1.000000)">
                        <path d="M19.8249569,108.594807 C16.7029569,117.914807 8.07495692,86.199807 22.5749569,78.949807 C37.0749569,71.699807 40.0749569,72.449807 42.0749569,73.449807 C44.0749569,74.449807 55.9009569,79.490807 56.9879569,86.845807 C58.0749569,94.199807 22.1089569,101.774807 19.8249569,108.594807" id="Backpack" fill="#CFDEE6" transform="translate(35.716962, 91.557179) rotate(-30.000000) translate(-35.716962, -91.557179) "></path>
                        <path d="M47.954491,130.885218 C43.339491,135.645218 25.446491,144.246218 21.379491,144.460218 C15.196491,144.786218 14.563491,151.894218 20.732491,156.644218 C26.756491,161.283218 39.458491,155.041218 47.377491,143.532218 C57.015491,129.526218 50.157491,128.612218 47.954491,130.885218" id="R-leg" fill="#99DCFF" transform="translate(34.396536, 144.059654) rotate(-30.000000) translate(-34.396536, -144.059654) "></path>
                        <g id="Tail" transform="translate(19.306054, 119.891662) rotate(-30.000000) translate(-19.306054, -119.891662) translate(6.306054, 103.891662)">
                            <mask id="mask-37" fill="white">
                                <use xlink:href="#path-36"></use>
                            </mask>
                            <use id="Mask" fill="#D2662A" xlink:href="#path-36"></use>
                            <path d="M7.0247,11.3185 C6.6697,12.1935 6.4517,12.3785 6.3717,13.3885 L0.3087,13.5955 C0.3077,12.2215 0.6697,10.7665 0.9117,9.7965 L7.0247,11.3185 Z" id="Fill-3" fill="#000000" mask="url(#mask-37)"></path>
                            <path d="M7.6213,19.6452 L1.6903,21.8412 C1.2453,20.8712 0.6373,19.1742 0.3933,18.0832 L6.5843,16.9762 C6.5843,16.9762 7.1753,18.6752 7.6213,19.6452" id="Fill-6" fill="#000000" mask="url(#mask-37)"></path>
                            <path d="M10.2288,6.9635 C9.2588,7.4095 9.1788,7.7325 8.4518,8.5825 L3.2518,5.2265 C3.7768,4.4975 4.9888,3.0825 5.8368,2.4345 L10.2288,6.9635 Z" id="Fill-8" fill="#000000" mask="url(#mask-37)"></path>
                        </g>
                        <g id="Leg-L" transform="translate(74.401494, 141.319763) rotate(-30.000000) translate(-74.401494, -141.319763) translate(59.401494, 123.319763)">
                            <mask id="mask-39" fill="white">
                                <use xlink:href="#path-38"></use>
                            </mask>
                            <use id="Mask" fill="#99DCFF" xlink:href="#path-38"></use>
                            <path d="M4.387,-5.1996 C9.317,-11.4996 24.37,-2.4746 30.778,-6.7866 C37.186,-11.0986 48.772,1.9234 41.009,9.1154 C33.245,16.3084 21.96,33.3814 8.549,18.3634 C-4.863,3.3454 2.124,-2.3076 4.387,-5.1996" id="Fill-20" fill="#65C6FD" mask="url(#mask-39)"></path>
                        </g>
                        <g id="Arm-L" transform="translate(74.000000, 88.000000)">
                            <path d="M6.8818,22.6498 C14.4198,28.8508 27.6698,25.1638 28.5438,21.6208 C29.4178,18.0788 28.5208,11.1058 25.1078,11.9458 C22.2118,12.6588 23.4989014,7.24206543 20.2678,7.5608 C18.8516034,7.70050184 19.3468,13.8538 18.8428,14.0008 C14.8728,15.1568 10.3288,16.1418 8.3638,12.6048 C5.8088,8.0058 5.9818,3.8328 4.5868,1.2508 C2.4268,-2.7472 -5.4602,12.4948 6.8818,22.6498 Z" id="Path" fill="#65C6FD"></path>
                            <path d="M25.7118,10.6430547 C23.8188,10.7332144 22.2428,11.3020792 22.9788,14.1281567 C23.3778,15.6608716 23.9638,16.0783969 24.6498,19.0193207 C25.2798,21.7230385 24.0288,24.6102957 25.8368,24.2518035 C27.5238,23.9158513 30.8988,20.0250307 29.9618,15.665165 C29.0248,11.3042259 27.0238,10.5797283 25.7118,10.6430547" id="Fill-110" fill="#99DCFF"></path>
                        </g>
                        <g id="Body" transform="translate(57.398032, 108.868903) rotate(-30.000000) translate(-57.398032, -108.868903) translate(24.898032, 77.368903)">
                            <mask id="mask-41" fill="white">
                                <use xlink:href="#path-40"></use>
                            </mask>
                            <use id="Mask" fill="#FFFFFF" xlink:href="#path-40"></use>
                            <path d="M56.5066,11.3297 C50.1026,20.6647 46.7376,23.3097 43.4876,34.0597 C40.1996,44.9347 37.2106,54.8097 30.7236,59.0597 C24.2376,63.3097 19.5076,62.1497 20.8626,64.6027 C28.6646,78.7277 41.3126,73.6647 48.8626,68.2897 C56.4116,62.9147 56.4876,45.1847 66.4876,33.3097 C76.4876,21.4347 76.5246,10.6357 70.1496,10.1357 C63.7746,9.6357 64.4426,3.9647 61.1636,4.8127" id="Fill-30" fill="#E4E4E4" mask="url(#mask-41)"></path>
                        </g>
                        <g id="Panel" transform="translate(61.071797, 88.232051) rotate(-30.000000) translate(-61.071797, -88.232051) translate(46.071797, 72.732051)">
                            <path d="M5.4875,2.99085625 C3.8885,9.43685625 1.9875,16.0948563 0.7375,18.0948563 C-0.5125,20.0948562 20.0805,30.0908563 22.9875,30.5948562 C25.8945,31.1008562 27.9685,23.9198563 29.6035,19.6328562 C31.2375,15.3448563 15.8615,0.09485625 10.6745,0.59485625 C5.4875,1.09485625 5.8475,1.53785625 5.4875,2.99085625" id="Fill-33" fill="#DFEAEF"></path>
                            <path d="M8.134,5.12805625 C6.806,10.4820562 5.227,16.0120562 4.189,17.6730562 C3.151,19.3340562 20.254,27.6350562 22.668,28.0550562 C25.083,28.4740562 26.806,22.5100562 28.163,18.9490562 C29.52,15.3890562 16.75,2.72305625 12.442,3.13905625 C8.134,3.55405625 8.433,3.92205625 8.134,5.12805625" id="Fill-35" fill="#B8C5CC"></path>
                            <g id="Buttons" transform="translate(7.000000, 13.035156)">
                                <path d="M16.9006,12.2536 C16.6126,12.8066 16.0056,13.0596 15.5436,12.8186 C15.0806,12.5786 14.9386,11.9356 15.2266,11.3826 C15.5136,10.8306 16.1216,10.5776 16.5836,10.8176 C17.0466,11.0586 17.1876,11.7016 16.9006,12.2536" id="Fill-43" fill="#F15B5C"></path>
                                <path d="M17.1853,12.4191 C16.8983,12.9711 16.2903,13.2241 15.8283,12.9831 C15.3653,12.7431 15.2233,12.1001 15.5113,11.5481 C15.7983,10.9961 16.4063,10.7431 16.8683,10.9831 C17.3313,11.2241 17.4733,11.8661 17.1853,12.4191" id="Fill-47" fill="#F69799"></path>
                                <path d="M14.1292,11.1711 C13.8412,11.7231 13.2332,11.9761 12.7722,11.7361 C12.3092,11.4951 12.1672,10.8531 12.4542,10.3001 C12.7422,9.7481 13.3502,9.4951 13.8122,9.7351 C14.2742,9.9761 14.4162,10.6181 14.1292,11.1711" id="Fill-49" fill="#F15B5C"></path>
                                <path d="M14.4138,11.3361 C14.1258,11.8881 13.5188,12.1411 13.0568,11.9011 C12.5938,11.6601 12.4518,11.0181 12.7398,10.4651 C13.0268,9.9131 13.6348,9.6601 14.0968,9.9001 C14.5598,10.1411 14.7008,10.7831 14.4138,11.3361" id="Fill-53" fill="#F69799"></path>
                                <path d="M5.5715,4.8927 C4.7965,6.3827 3.1565,7.0647 1.9095,6.4167 C0.6615,5.7677 0.2795,4.0337 1.0535,2.5427 C1.8295,1.0527 3.4685,0.3707 4.7165,1.0197 C5.9635,1.6677 6.3465,3.4027 5.5715,4.8927" id="Fill-37" fill="#F15B5C"></path>
                                <path d="M6.3396,5.338 C5.5646,6.828 3.9246,7.51 2.6776,6.862 C1.4296,6.213 1.0476,4.479 1.8226,2.988 C2.5976,1.498 4.2366,0.816 5.4846,1.465 C6.7326,2.113 7.1146,3.848 6.3396,5.338" id="Fill-41" fill="#F69799"></path>
                            </g>
                        </g>
                        <g id="Arm-R" transform="translate(49.317905, 104.873713) rotate(-30.000000) translate(-49.317905, -104.873713) translate(38.817905, 86.873713)">
                            <mask id="mask-43" fill="white">
                                <use xlink:href="#path-42"></use>
                            </mask>
                            <use id="Mask" fill="#99DCFF" xlink:href="#path-42"></use>
                            <polygon id="Badge" fill="#FAF077" mask="url(#mask-43)" points="6.675 2.0602 11.175 4.4982 8.112 7.8102 3.3 5.0602"></polygon>
                        </g>
                        <g id="Animal/Head/Tiger" transform="translate(13.000000, 0.000000)">
                            <path d="M54.48895,2.59162396 C80.6216152,5.3344421 102.760423,19.9780012 100.713249,39.4747905 C98.6662319,58.9705921 92.0313431,91.1387097 48.7163614,86.5917734 C5.40137964,82.0448371 -0.271861371,58.5359128 2.57076175,31.4470886 C4.85477389,9.70065211 34.3965172,0.482508271 54.48895,2.59162396 Z" id="Helmet" fill="#FFFFFF"></path>
                            <g id="Head" stroke-width="1" transform="translate(50.526726, 44.876695) rotate(9.000000) translate(-50.526726, -44.876695) translate(5.026726, 6.376695)">
                                <mask id="mask-45" fill="white">
                                    <use xlink:href="#path-44"></use>
                                </mask>
                                <use id="Mask" fill="#C7E7F8" xlink:href="#path-44"></use>
                                <path d="M75.1942,58.5695 C75.4592,66.5375 71.2362,70.6985 58.5222,81.7415 C45.8092,92.7845 18.9652,87.4615 23.1812,81.0365 C27.3982,74.6115 30.3982,64.2565 43.1642,60.4815 C55.9292,56.7045 75.0712,54.8585 75.1942,58.5695" id="Fill-56" fill="#E28031" mask="url(#mask-45)"></path>
                                <g id="R-ear" mask="url(#mask-45)">
                                    <g transform="translate(56.000000, 3.000000)">
                                        <path d="M13.3241,23.7912 C19.6171,22.8902 23.9881,17.0592 23.0881,10.7672 C22.1861,4.4752 16.3551,0.1042 10.0631,1.0042 C3.7701,1.9052 -0.5999,7.7362 0.3011,14.0282 C1.2011,20.3202 7.0321,24.6912 13.3241,23.7912" id="Fill-59" fill="#E28031"></path>
                                        <path d="M12.6297,18.9347 C16.2397,18.4177 18.7477,15.0727 18.2317,11.4617 C17.7147,7.8517 14.3687,5.3437 10.7587,5.8607 C7.1487,6.3767 4.6397,9.7227 5.1567,13.3327 C5.6737,16.9437 9.0197,19.4517 12.6297,18.9347" id="Fill-61" fill="#754D24"></path>
                                    </g>
                                </g>
                                <g id="L-ear" mask="url(#mask-45)">
                                    <g transform="translate(7.000000, 10.000000)">
                                        <path d="M13.202,23.8214 C19.495,22.9214 23.865,17.0904 22.965,10.7974 C22.064,4.5054 16.233,0.1344 9.941,1.0344 C3.648,1.9354 -0.723,7.7664 0.179,14.0584 C1.079,20.3514 6.91,24.7214 13.202,23.8214" id="Fill-64" fill="#E28031"></path>
                                        <path d="M12.5076,18.9655 C16.1176,18.4485 18.6256,15.1025 18.1096,11.4925 C17.5916,7.8825 14.2456,5.3745 10.6356,5.8905 C7.0256,6.4075 4.5176,9.7535 5.0336,13.3635 C5.5506,16.9745 8.8966,19.4825 12.5076,18.9655" id="Fill-67" fill="#754D24"></path>
                                    </g>
                                </g>
                                <g mask="url(#mask-45)">
                                    <g transform="translate(8.000000, 9.000000)">
                                        <mask id="mask-47" fill="white">
                                            <use xlink:href="#path-46"></use>
                                        </mask>
                                        <use id="Mask" stroke="none" fill="#E28031" fill-rule="evenodd" xlink:href="#path-46"></use>
                                        <path d="M1.1668,45.6515 L18.7768,42.1785 L7.7878,58.6185 C7.6018,58.6445 3.3838,54.4835 1.1668,45.6515" id="Fill-74" stroke="none" fill="#333333" fill-rule="evenodd" mask="url(#mask-47)"></path>
                                        <path d="M-0.3576,31.0031 L11.7044,35.3761 L0.3384,42.5301 C0.3384,42.5301 -1.3706,34.5791 -0.3576,31.0031" id="Fill-76" stroke="none" fill="#333333" fill-rule="evenodd" mask="url(#mask-47)"></path>
                                        <path d="M79.7664,34.6232 L61.8894,36.2292 L76.6214,48.6062 C76.5944,48.4192 80.1164,43.7222 79.7664,34.6232" id="Fill-79" stroke="none" fill="#333333" fill-rule="evenodd" mask="url(#mask-47)"></path>
                                        <path d="M77.1209,20.1349 L66.7699,27.7159 L79.6849,31.3949 C79.6849,31.3949 79.0969,23.2829 77.1209,20.1349" id="Fill-82" stroke="none" fill="#333333" fill-rule="evenodd" mask="url(#mask-47)"></path>
                                        <g id="Nose" stroke="none" stroke-width="1" fill="none" fill-rule="evenodd" mask="url(#mask-47)">
                                            <g transform="translate(30.000000, 20.000000)">
                                                <polygon id="Fill-86" fill="#F1AA31" points="2.3582 2.318 13.2032 0.766 22.1232 22.644 0.4332 25.748"></polygon>
                                                <path d="M22.1229,22.6437 C22.8149,27.4817 18.5499,32.1787 12.5439,33.0387 C6.5379,33.8977 1.1269,30.5867 0.4339,25.7477" id="Fill-88" fill="#333333"></path>
                                            </g>
                                        </g>
                                        <g id="Mouth" stroke="none" stroke-width="1" fill="none" fill-rule="evenodd" mask="url(#mask-47)">
                                            <g transform="translate(21.000000, 33.000000)">
                                                <mask id="mask-49" fill="white">
                                                    <use xlink:href="#path-48"></use>
                                                </mask>
                                                <use id="Mask" stroke="none" fill="#000000" fill-rule="evenodd" xlink:href="#path-48"></use>
                                                <path d="M4.9451,18.5978 C3.0941,20.8478 7.4211,25.3048 8.6611,25.1468 C9.9011,24.9878 12.4271,21.4698 11.7911,19.6658 C11.1541,17.8638 5.9141,17.4208 4.9451,18.5978" id="Fill-95" stroke="none" fill="#FFFFFF" fill-rule="evenodd" mask="url(#mask-49)"></path>
                                                <path d="M38.3475,13.817 C40.7555,15.458 37.8535,20.949 36.6185,21.145 C35.3835,21.34 31.9715,18.672 32.0765,16.763 C32.1825,14.854 37.0885,12.959 38.3475,13.817" id="Fill-97" stroke="none" fill="#FFFFFF" fill-rule="evenodd" mask="url(#mask-49)"></path>
                                            </g>
                                        </g>
                                        <g id="R-eye" stroke="none" stroke-width="1" fill="none" fill-rule="evenodd" mask="url(#mask-47)">
                                            <g transform="translate(15.000000, 20.000000)">
                                                <path d="M8.0916,14.318 C11.8056,13.786 14.3846,10.345 13.8536,6.631 C13.3216,2.918 9.8806,0.339 6.1666,0.87 C2.4526,1.401 -0.1264,4.843 0.4046,8.556 C0.9366,12.27 4.3776,14.849 8.0916,14.318" id="Fill-101" fill="#FFFFFF"></path>
                                                <path d="M7.7508,11.4762 C9.9168,11.1662 11.4218,9.1592 11.1108,6.9922 C10.8018,4.8262 8.7938,3.3212 6.6278,3.6312 C4.4618,3.9412 2.9568,5.9492 3.2668,8.1152 C3.5768,10.2812 5.5838,11.7862 7.7508,11.4762" id="Fill-104" fill="#1D1C1A"></path>
                                                <path d="M8.7635,6.5661 C9.1755,6.5071 9.4625,6.1251 9.4035,5.7121 C9.3445,5.2991 8.9615,5.0131 8.5495,5.0721 C8.1365,5.1311 7.8505,5.5131 7.9095,5.9261 C7.9675,6.3381 8.3505,6.6251 8.7635,6.5661" id="Fill-107" fill="#FFFFFF"></path>
                                            </g>
                                        </g>
                                        <g id="L-eye" stroke="none" stroke-width="1" fill="none" fill-rule="evenodd" mask="url(#mask-47)">
                                            <g transform="translate(48.000000, 15.000000)">
                                                <path d="M7.911,14.2394 C11.624,13.7084 14.204,10.2664 13.673,6.5534 C13.14,2.8394 9.7,0.2604 5.986,0.7914 C2.272,1.3234 -0.307,4.7644 0.224,8.4784 C0.756,12.1914 4.197,14.7714 7.911,14.2394" id="Fill-110" fill="#FFFFFF"></path>
                                                <path d="M7.5692,11.3976 C9.7362,11.0876 11.2412,9.0806 10.9302,6.9146 C10.6212,4.7476 8.6132,3.2436 6.4472,3.5536 C4.2812,3.8636 2.7762,5.8706 3.0862,8.0366 C3.3962,10.2036 5.4032,11.7076 7.5692,11.3976" id="Fill-113" fill="#1D1C1A"></path>
                                                <path d="M8.5819,6.4879 C8.9949,6.4289 9.2809,6.0469 9.2229,5.6339 C9.1639,5.2209 8.7809,4.9349 8.3679,4.9939 C7.9559,5.0529 7.6689,5.4349 7.7279,5.8479 C7.7869,6.2599 8.1699,6.5469 8.5819,6.4879" id="Fill-116" fill="#FFFFFF"></path>
                                            </g>
                                        </g>
                                    </g>
                                </g>
                            </g>
                        </g>
                    </g>
                </g>
            </g>
        </g>
    </g>
</svg>