<?xml version="1.0" encoding="UTF-8"?>
<svg width="114px" height="167px" viewBox="0 0 114 167" version="1.1" xmlns="http://www.w3.org/2000/svg" xmlns:xlink="http://www.w3.org/1999/xlink">
    <!-- Generator: Sketch 44.1 (41455) - http://www.bohemiancoding.com/sketch -->
    <title>Animal_Success/Lion NoFlag</title>
    <desc>Created with Sketch.</desc>
    <defs>
        <path d="M1.5506,4.2931 C3.6036,10.5971 2.8456,30.4361 1.1346,34.1321 C-1.4664,39.7501 4.5226,43.6311 11.6046,40.3971 C18.5206,37.2391 18.9376,23.0921 12.4626,10.7131 C4.5836,-4.3529 0.5716,1.2831 1.5506,4.2931" id="path-1"></path>
        <path d="M7.0174,0.569 C14.2044,1.44 30.2204,-0.499 36.8954,1.643 C38.7714,2.245 41.1244,3.356 41.1204,4.483 C41.1144,5.77 40.0204,4.95 39.4304,6.544 C39.1344,7.344 40.2724,7.837 40.2194,8.622 C40.1184,10.106 38.6054,10.332 38.3444,11.642 C38.2564,12.078 38.8714,13.633 38.1454,13.864 C36.9614,14.239 33.3684,14.359 31.3324,14.206 C27.1294,13.89 3.0964,8.583 1.0754,4.908 C-0.9476,1.234 4.7824,0.298 7.0174,0.569" id="path-3"></path>
        <path d="M4.994,24.7501 C-2.73,40.6421 -4.992,65.2791 26.876,62.3651 C52.427,60.0281 50.077,47.7601 50.116,35.9981 C50.174,18.3311 44.42,3.1191 26.965,0.3951 C8.159,-2.5409 9.965,14.5211 4.994,24.7501" id="path-5"></path>
        <path d="M43.618,0.2628 C59.798,-0.5872 89.386,5.8408 90.765,32.1038 C92.145,58.3678 64.348,75.8088 47.634,76.6868 C30.918,77.5648 2.282,63.7748 0.978,38.9648 C-0.325,14.1548 27.951,1.0858 43.618,0.2628" id="path-7"></path>
        <path d="M7.86257477,1.92142284 C6.5330975,-0.15419255 2.94998386,1.01011514 1.91987023,2.05680745 C-1.12422068,5.15034591 1.74029899,11.6161858 17.4581685,18.7195923 C33.176038,25.8229988 37.4011884,19.9233459 37.2977566,15.870269 C37.1354611,9.45642284 26.601393,15.430269 18.8549384,12.4196536 C15.7175066,11.2003459 10.0262339,5.3009613 7.86257477,1.92142284 Z" id="path-9"></path>
        <path d="M22.7166,3.6393 C26.1326,0.1843 8.4506,-2.9767 1.5446,12.6553 C-2.5694,21.9653 7.7866,32.4623 9.0336,33.4673 C10.6806,34.7933 18.5496,29.0453 16.3596,25.9933 C14.1686,22.9403 8.3726,15.0873 12.2806,11.0403 C16.1886,6.9943 20.5106,5.8703 22.7166,3.6393" id="path-11"></path>
    </defs>
    <g id="Symbols" stroke="none" stroke-width="1" fill="none" fill-rule="evenodd">
        <g id="Animal_Success/Lion-NoFlag">
            <ellipse id="Shadow" fill-opacity="0.25" fill="#000000" cx="49.6542969" cy="155.326172" rx="32.0371094" ry="11.3261719"></ellipse>
            <g id="Lion">
                <g id="Tail" transform="translate(23.453154, 111.129272) scale(-1, 1) rotate(42.000000) translate(-23.453154, -111.129272) translate(8.453154, 93.129272)" fill-rule="nonzero">
                    <path d="M2.79909297,26.2106576 C3.85804989,27.28322 8.23900227,29.1494331 8.43401361,29.2401361 C10.2276644,30.0927438 13.4952381,29.7594104 14.8353741,29.3580499 C22.1913832,27.1471655 26.6834467,14.9340136 20.6403628,9.44648526 C17.8058957,6.87052154 21.7718821,2.4170068 24.6199546,5.00430839 C34.0258503,13.5485261 28.4226757,31.3920635 16.7310658,35.006576 C14.4498866,35.714059 10.0734694,37.3557823 0.465759637,31.7231293" id="Fill-46" fill="#D9A333"></path>
                    <path d="M22.2600907,3.98684807 L18.9517007,0.78276644 L20.6705215,4.9414966 C18.3190476,4.30884354 16.8882086,4.72380952 16.8882086,4.72380952 C18.4029478,6.20453515 19.7385488,8.2430839 20.3507937,9.14557823 C21.3621315,10.6353741 23.2260771,11.093424 24.6931973,10.4222222 C25.7498866,9.93696145 27.4278912,8.49705215 25.8836735,6.08435374 L23.0492063,0.213605442 C23.1240363,2.49024943 22.2600907,3.98684807 22.2600907,3.98684807" id="Fill-48" fill="#754D24"></path>
                </g>
                <path d="M67.0145,114.2516 C60.2675,121.3986 32.5505,124.1536 23.5525,110.2516 C14.7445,96.6416 29.6485,73.1066 31.8095,72.5346 C33.9715,71.9616 57.5015,70.8136 63.1805,75.6116 C68.8605,80.4096 71.9675,109.0036 67.0145,114.2516" id="Backpack" fill="#A1AEB4"></path>
                <path d="M47.0789,119.006 C44.9719,125.292 45.5539,145.137 47.2309,148.848 C49.7819,154.489 43.7599,158.317 36.7059,155.02 C29.8179,151.8 29.5259,137.651 36.1109,125.329 C44.1239,110.334 48.0859,116.006 47.0789,119.006" id="R-leg" fill="#9DDBF9"></path>
                <g id="L-Leg" transform="translate(56.000000, 115.000000)">
                    <mask id="mask-2" fill="white">
                        <use xlink:href="#path-1"></use>
                    </mask>
                    <use id="Mask" fill="#9DDBF9" xlink:href="#path-1"></use>
                    <path d="M-18.131,12.1881 C-18.713,4.2091 -1.5,0.7791 0.348,-6.7199 C2.197,-14.2189 19.528,-12.3589 18.611,-1.8159 C17.693,8.7281 20.807,28.9551 0.783,26.8431 C-19.24,24.7311 -17.864,15.8511 -18.131,12.1881" id="Fill-21" fill="#3D9CD6" mask="url(#mask-2)"></path>
                </g>
                <g id="L-arm" transform="translate(72.000000, 87.000000)">
                    <mask id="mask-4" fill="white">
                        <use xlink:href="#path-3"></use>
                    </mask>
                    <use id="Mask" fill="#9DDBF9" xlink:href="#path-3"></use>
                    <path d="M29.7078,-13.5087 C35.2048,-7.6957 24.0398,5.8463 27.3508,12.8243 C30.6608,19.8023 16.0598,29.3223 10.1028,20.5743 C4.1458,11.8273 -11.0592,-1.8727 5.7878,-12.8997 C22.6348,-23.9267 27.1858,-16.1767 29.7078,-13.5087" id="Fill-26" fill="#3D9CD6" mask="url(#mask-4)"></path>
                </g>
                <g id="Body" transform="translate(28.000000, 69.000000)">
                    <mask id="mask-6" fill="white">
                        <use xlink:href="#path-5"></use>
                    </mask>
                    <use id="Mask" fill="#FFFFFF" xlink:href="#path-5"></use>
                    <path d="M36.5418,4.7955 C34.4278,15.9175 32.4088,19.6915 33.7518,30.8415 C35.1098,42.1205 36.3408,52.3645 32.1078,58.8625 C27.8758,65.3605 23.0778,66.1985 25.3048,67.9005 C38.1238,77.7005 47.6718,67.9835 52.4268,60.0275 C57.1808,52.0725 50.1268,35.8065 54.5128,20.9145 C58.8988,6.0225 54.5948,-3.8825 48.5558,-1.7795 C42.5178,0.3245 40.8508,-5.1375 38.1888,-3.0435" id="Fill-31" fill="#E4E4E4" mask="url(#mask-6)"></path>
                </g>
                <g id="Lapel" transform="translate(42.000000, 73.000000)">
                    <path d="M0.8455,5.1696 C0.3555,13.0656 0.7825,18.0416 2.5645,20.9106 C3.8085,22.9136 25.0965,24.1236 27.9605,23.4186 C30.8255,22.7126 29.8405,15.3026 29.6155,10.7206 C29.3895,6.1386 9.1825,-1.6494 4.6325,0.8926 C0.0835,3.4346 0.9385,3.6766 0.8455,5.1696" id="Fill-34" fill="#DFEBEF"></path>
                    <path d="M3.4451,6.5773 C2.5941,12.2353 3.7521,17.8873 4.8721,19.6503 C5.9231,21.3043 23.5871,22.3193 25.9661,21.7333 C28.3441,21.1473 27.5271,14.9933 27.3401,11.1873 C27.1521,7.3823 10.3691,0.9143 6.5911,3.0253 C2.8121,5.1363 3.6301,5.3483 3.4451,6.5773" id="Fill-36" fill="#B8C5CC"></path>
                    <path d="M11.1219,16.9181 C11.0119,18.5941 9.6519,19.8691 8.0859,19.7651 C6.5189,19.6611 5.3409,18.2181 5.4509,16.5421 C5.5619,14.8661 6.9219,13.5911 8.4879,13.6951 C10.0539,13.7991 11.2329,15.2421 11.1219,16.9181" id="Fill-38" fill="#F79799"></path>
                    <path d="M11.1219,16.9181 C11.0119,18.5941 9.6519,19.8691 8.0859,19.7651 C6.5189,19.6611 5.3409,18.2181 5.4509,16.5421 C5.5619,14.8661 6.9219,13.5911 8.4879,13.6951 C10.0539,13.7991 11.2329,15.2421 11.1219,16.9181 Z" id="Stroke-40" stroke="#F15B5C" stroke-width="0.25"></path>
                    <path d="M25.3944,19.1442 C25.3534,19.7652 24.8494,20.2382 24.2684,20.1992 C23.6884,20.1612 23.2504,19.6262 23.2914,19.0042 C23.3324,18.3832 23.8374,17.9112 24.4174,17.9492 C24.9984,17.9882 25.4354,18.5222 25.3944,19.1442" id="Fill-42" fill="#F79799"></path>
                    <path d="M25.3944,19.1442 C25.3534,19.7652 24.8494,20.2382 24.2684,20.1992 C23.6884,20.1612 23.2504,19.6262 23.2914,19.0042 C23.3324,18.3832 23.8374,17.9112 24.4174,17.9492 C24.9984,17.9882 25.4354,18.5222 25.3944,19.1442 Z" id="Stroke-44" stroke="#F15B5C" stroke-width="0.25"></path>
                    <path d="M22.078,19.2433 C22.037,19.8643 21.533,20.3373 20.952,20.2983 C20.372,20.2603 19.934,19.7253 19.975,19.1043 C20.017,18.4823 20.521,18.0103 21.101,18.0483 C21.682,18.0873 22.119,18.6213 22.078,19.2433" id="Fill-46" fill="#F79799"></path>
                    <path d="M22.078,19.2433 C22.037,19.8643 21.533,20.3373 20.952,20.2983 C20.372,20.2603 19.934,19.7253 19.975,19.1043 C20.017,18.4823 20.521,18.0103 21.101,18.0483 C21.682,18.0873 22.119,18.6213 22.078,19.2433 Z" id="Stroke-48" stroke="#F15B5C" stroke-width="0.25"></path>
                </g>
                <path d="M47.7986,0.1157 C27.6236,1.1757 -0.1124,14.9017 1.0336,36.7377 C2.4636,63.9377 11.7446,86.2697 55.2376,83.9847 C98.7306,81.6997 100.2516,48.8897 99.2236,29.3137 C98.1956,9.7367 74.0386,-1.2633 47.7986,0.1157" id="Helmet" fill="#F3FAFD"></path>
                <g id="Head" transform="translate(5.000000, 4.000000)">
                    <mask id="mask-8" fill="white">
                        <use xlink:href="#path-7"></use>
                    </mask>
                    <use id="Mask" fill="#C7E6F8" xlink:href="#path-7"></use>
                    <path d="M84.7019295,42.641589 C84.3707093,41.2098361 84.2492697,40.0216684 84.3376108,39.0770861 C84.4836093,37.5160059 85.9918027,36.6713259 88.8621912,36.5430463 C83.0000772,26.6223646 77.9955654,20.1408954 73.848656,17.0986389 C67.0356154,10.9457624 56.7180161,6.49841136 43.5784032,6.9828505 C22.195891,7.7689365 12.9996939,20.5803268 10.0732138,32.7867784 C9.50426196,35.1598967 4.45125107,44.7861511 5.46870623,43.1120391 C7.12627233,40.3846941 8.11283427,45.3483426 8.42839204,58.0029847 C11.8564539,55.6819331 16.2289902,61.1166601 21.5460007,74.3071657 C21.5460007,74.3071657 35.9785743,82.4654605 40.8780067,76.3575319 C42.6005022,74.2075211 47.8722321,92.5612719 49.9149033,92.608717 C49.9149033,92.608717 53.270543,83.5841653 58.8252188,78.2253694 C65.6705252,71.6205162 73.0357447,81.8871319 73.0357447,81.8871319 C79.7405333,57.9568807 83.4903908,49.3852244 84.2853172,56.1721631 C85.7153743,52.1328503 85.8542451,47.622659 84.7019295,42.641589 Z" id="Fill-52" fill="#FFE680" fill-rule="nonzero" mask="url(#mask-8)" transform="translate(47.097994, 49.777743) rotate(-6.000000) translate(-47.097994, -49.777743) "></path>
                    <g id="L-ear" mask="url(#mask-8)" fill-rule="nonzero">
                        <g transform="translate(69.400173, 17.190700) rotate(-6.000000) translate(-69.400173, -17.190700) translate(56.400173, 4.190700)">
                            <path d="M25.8535254,12.8229042 C25.8783452,19.8447747 20.2417641,25.5556629 13.2649126,25.580634 C6.28806109,25.6056051 0.611768153,19.9346707 0.58694833,12.9152973 C0.562128507,5.89592399 6.19622766,0.185035775 13.1755611,0.160064685 C20.1499306,0.135093596 25.8287056,5.80353096 25.8535254,12.8229042" id="Fill-54" fill="#D9A333"></path>
                            <path d="M20.5031167,12.9677365 C20.5031167,17.0155502 17.2417923,20.2967514 13.2209815,20.2967514 C9.19520658,20.2967514 5.93636423,17.0155502 5.93636423,12.9677365 C5.93636423,8.92242006 9.19520658,5.63872176 13.2209815,5.63872176 C17.2417923,5.63872176 20.5031167,8.92242006 20.5031167,12.9677365" id="Fill-56" fill="#754D24"></path>
                        </g>
                    </g>
                    <g id="R-ear" mask="url(#mask-8)" fill-rule="nonzero">
                        <g transform="translate(14.970259, 22.911514) rotate(-6.000000) translate(-14.970259, -22.911514) translate(1.970259, 9.911514)">
                            <path d="M25.8749108,13.0211747 C25.8997306,20.0430451 20.2631495,25.7539334 13.286298,25.7789045 C6.30944651,25.8038756 0.633153615,20.132941 0.608333795,13.1135677 C0.583513975,6.09419444 6.21761318,0.383306227 13.1969467,0.358335137 C20.1713162,0.333364047 25.850091,6.0018014 25.8749108,13.0211747" id="Fill-58" fill="#D9A333"></path>
                            <path d="M20.524254,12.9677365 C20.524254,17.0155502 17.2604476,20.2967514 13.2421187,20.2967514 C9.21634386,20.2967514 5.95750147,17.0155502 5.95750147,12.9677365 C5.95750147,8.92242006 9.21634386,5.63872176 13.2421187,5.63872176 C17.2604476,5.63872176 20.524254,8.92242006 20.524254,12.9677365" id="Fill-60" fill="#754D24"></path>
                        </g>
                    </g>
                    <path d="M10.2860423,41.1317712 C10.2860423,23.552124 25.9150832,9.30362029 45.1976015,9.30362029 C64.4776379,9.30362029 80.1091608,23.552124 80.1091608,41.1317712 C80.1091608,58.7089213 71.4594534,72.9599221 45.1976015,72.9599221 C17.1586505,72.9599221 10.2860423,58.7089213 10.2860423,41.1317712" id="Fill-62" fill="#D9A333" fill-rule="nonzero" mask="url(#mask-8)" transform="translate(45.197602, 41.131771) rotate(-6.000000) translate(-45.197602, -41.131771) "></path>
                    <g id="Nose" mask="url(#mask-8)">
                        <g transform="translate(47.647253, 50.170482) rotate(-6.000000) translate(-47.647253, -50.170482) translate(35.647253, 28.670482)">
                            <polygon id="Fill-64" fill="#F3BC4B" fill-rule="nonzero" points="5.80471778 0.956076809 17.6139883 0.956076809 23.8090154 25.7923226 0.135870823 25.7923226"></polygon>
                            <path d="M23.80976,25.7925723 C23.80976,31.1563624 18.5107284,35.5038291 11.9731877,35.5038291 C5.43564708,35.5038291 0.134133482,31.1563624 0.134133482,25.7925723" id="Fill-66" fill="#333333" fill-rule="nonzero"></path>
                            <path d="M4.59624079,42.7054913 C3.45452905,42.7054913 0.396727164,41.9338847 0.451330796,41.6791796 C0.505934319,41.4269716 0.756614542,41.2671566 1.00977676,41.322093 C4.73523176,42.1561274 7.47285794,41.8140235 9.14571383,40.3032726 C11.2851823,38.3755044 10.9550787,35.1092859 10.9525967,35.0768234 C10.9228129,34.8196213 11.1089616,34.5848931 11.3646057,34.5574248 C11.6301778,34.5249624 11.8510742,34.7122455 11.880858,34.9719449 C11.8982319,35.1242686 12.2754931,38.7400823 9.77613727,40.9999659 C8.52025438,42.1361506 6.78534887,42.7054913 4.59624079,42.7054913 L4.59624079,42.7054913 Z" id="Stroke-70" fill="#333333" fill-rule="evenodd"></path>
                            <path d="M18.2863572,42.3788695 C16.0972491,42.3788695 14.3623436,41.8095287 13.1064607,40.6733441 C10.6071048,38.4134605 10.9843661,34.7976467 11.00174,34.645323 C11.0315238,34.3856237 11.2499382,34.1983406 11.5179922,34.2308029 C11.7736363,34.2582712 11.9597851,34.4929994 11.9300013,34.7502016 C11.9275193,34.7826641 11.5974156,38.0488826 13.7368841,39.9766507 C15.40974,41.4874016 18.1498482,41.8295055 21.8728212,40.9954712 C22.1259834,40.9405348 22.3766635,41.1003497 22.4312672,41.3525577 C22.4883528,41.6072629 22.327024,41.8569737 22.0763438,41.9144073 C20.6913978,42.2240487 19.4280689,42.3788695 18.2863572,42.3788695 L18.2863572,42.3788695 Z" id="Stroke-74" fill="#333333" fill-rule="evenodd"></path>
                        </g>
                    </g>
                    <g id="Mouth" mask="url(#mask-8)">
                        <g transform="translate(47.935456, 64.651140) rotate(18.000000) translate(-47.935456, -64.651140) translate(28.935456, 53.151140)">
                            <mask id="mask-10" fill="white">
                                <use xlink:href="#path-9"></use>
                            </mask>
                            <use id="Mask" stroke="none" fill="#000000" fill-rule="evenodd" transform="translate(19.070534, 11.405047) scale(-1, 1) translate(-19.070534, -11.405047) " xlink:href="#path-9"></use>
                            <path d="M27.0128047,1.9212536 C24.7188047,2.78771514 25.9969865,7.8832536 26.9665547,8.29194591 C27.9361229,8.69979207 31.2551911,7.1902536 31.5495092,5.59948437 C31.8438274,4.00871514 28.212782,1.46771514 27.0128047,1.9212536" id="L-tooth" stroke="none" fill="#FFFFFF" fill-rule="evenodd" mask="url(#mask-10)" transform="translate(28.645733, 5.113644) scale(-1, 1) translate(-28.645733, -5.113644) "></path>
                            <path d="M9.86567117,12.5440382 C10.9294212,14.7651921 6.50792117,17.5625767 5.52573935,17.1834998 C4.54439844,16.8044228 3.1804439,13.4054228 4.06003481,12.0507305 C4.93962572,10.6960382 9.30898935,11.382269 9.86567117,12.5440382" id="R-tooth" stroke="none" fill="#FFFFFF" fill-rule="evenodd" mask="url(#mask-10)" transform="translate(6.903404, 14.261214) scale(-1, 1) translate(-6.903404, -14.261214) "></path>
                        </g>
                    </g>
                    <g id="R-eye" mask="url(#mask-8)" fill-rule="nonzero">
                        <g transform="translate(30.042771, 35.226254) rotate(-6.000000) translate(-30.042771, -35.226254) translate(23.042771, 28.226254)">
                            <path d="M13.0765857,6.81462575 C13.0765857,10.4329366 10.1602569,13.3670397 6.56386488,13.3670397 C2.96747298,13.3670397 0.05362605,10.4329366 0.05362605,6.81462575 C0.05362605,3.19631481 2.96747298,0.262211723 6.56386488,0.262211723 C10.1602569,0.262211723 13.0765857,3.19631481 13.0765857,6.81462575" id="Fill-76" fill="#FFFFFF"></path>
                            <path d="M10.7285172,6.71231275 C10.7285172,8.85732925 9.00105771,10.5953171 6.86903514,10.5953171 C4.73949457,10.5953171 3.01203505,8.85732925 3.01203505,6.71231275 C3.01203505,4.56729615 4.73949457,2.82930827 6.86903514,2.82930827 C9.00105771,2.82930827 10.7285172,4.56729615 10.7285172,6.71231275" id="Fill-78" fill="#1D1C1A"></path>
                            <path d="M9.17578926,5.25649814 C9.17578926,5.70847493 8.8109379,6.07554995 8.3616992,6.07554995 C7.9124604,6.07554995 7.54760903,5.70847493 7.54760903,5.25649814 C7.54760903,4.80452147 7.9124604,4.43744645 8.3616992,4.43744645 C8.8109379,4.43744645 9.17578926,4.80452147 9.17578926,5.25649814" id="Fill-80" fill="#FFFFFF"></path>
                        </g>
                    </g>
                    <g id="L-eye" mask="url(#mask-8)" fill-rule="nonzero">
                        <g transform="translate(61.549272, 31.310209) rotate(-6.000000) translate(-61.549272, -31.310209) translate(54.549272, 23.810209)">
                            <path d="M13.3327922,7.54157485 C13.3327922,11.1598858 10.4164633,14.0939889 6.82007139,14.0939889 C3.22367938,14.0939889 0.309832443,11.1598858 0.309832443,7.54157485 C0.309832443,3.92326401 3.22367938,0.989160927 6.82007139,0.989160927 C10.4164633,0.989160927 13.3327922,3.92326401 13.3327922,7.54157485" id="Fill-82" fill="#FFFFFF"></path>
                            <path d="M10.9847236,7.43926185 C10.9847236,9.58427845 9.25726421,11.3222663 7.12524165,11.3222663 C4.99570108,11.3222663 3.26824155,9.58427845 3.26824155,7.43926185 C3.26824155,5.29424524 4.99570108,3.55625747 7.12524165,3.55625747 C9.25726421,3.55625747 10.9847236,5.29424524 10.9847236,7.43926185" id="Fill-84" fill="#1D1C1A"></path>
                            <path d="M9.43224391,5.98344735 C9.43224391,6.43542413 9.06739255,6.80249905 8.61815374,6.80249905 C8.16891504,6.80249905 7.80406368,6.43542413 7.80406368,5.98344735 C7.80406368,5.53147067 8.16891504,5.16439565 8.61815374,5.16439565 C9.06739255,5.16439565 9.43224391,5.53147067 9.43224391,5.98344735" id="Fill-86" fill="#FFFFFF"></path>
                        </g>
                    </g>
                </g>
                <g id="R-arm" transform="translate(16.000000, 85.000000)">
                    <mask id="mask-12" fill="white">
                        <use xlink:href="#path-11"></use>
                    </mask>
                    <use id="Mask" fill="#9DDBF9" xlink:href="#path-11"></use>
                    <polygon id="Fill-122" fill="#FAF077" mask="url(#mask-12)" points="13.5282 -0.1341 16.7522 3.8399 12.6552 5.7279 9.2612 1.3449"></polygon>
                </g>
            </g>
        </g>
    </g>
</svg>