<?xml version="1.0" encoding="UTF-8"?>
<svg width="960px" height="60px" viewBox="0 0 960 60" version="1.1" xmlns="http://www.w3.org/2000/svg" xmlns:xlink="http://www.w3.org/1999/xlink">
    <!-- Generator: Sketch 44.1 (41455) - http://www.bohemiancoding.com/sketch -->
    <title>Keypad/NumberEntry</title>
    <desc>Created with Sketch.</desc>
    <defs></defs>
    <g id="Symbols" stroke="none" stroke-width="1" fill="none" fill-rule="evenodd">
        <g id="Keypad/NumberEntry">
            <rect id="Rectangle-path" fill="#CCCCCC" x="0" y="0" width="960" height="60"></rect>
            <path d="M134.3,54 L84.6,54 C81.9,54 79.6,52.2 79.6,50 L79.6,14 C79.6,11.8 81.8,10 84.6,10 L134.3,10 C137,10 139.3,11.8 139.3,14 L139.3,50 C139.3,52.2 137.1,54 134.3,54 L134.3,54 Z" id="Shape" fill="#4C4C4C"></path>
            <path d="M64.7,54 L15,54 C12.3,54 10,52.2 10,50 L10,14 C10,11.8 12.2,10 15,10 L64.7,10 C67.4,10 69.7,11.8 69.7,14 L69.7,50 C69.7,52.2 67.4,54 64.7,54 L64.7,54 Z" id="Shape" fill="#4C4C4C"></path>
            <path d="M204,54 L154.3,54 C151.6,54 149.3,52.2 149.3,50 L149.3,14 C149.3,11.8 151.5,10 154.3,10 L204,10 C206.7,10 209,11.8 209,14 L209,50 C208.9,52.2 206.7,54 204,54 L204,54 Z" id="Shape" fill="#4C4C4C"></path>
            <path d="M273.6,54 L223.9,54 C221.2,54 218.9,52.2 218.9,50 L218.9,14 C218.9,11.8 221.1,10 223.9,10 L273.6,10 C276.3,10 278.6,11.8 278.6,14 L278.6,50 C278.6,52.2 276.3,54 273.6,54 L273.6,54 Z" id="Shape" fill="#4C4C4C"></path>
            <path d="M343.2,54 L293.5,54 C290.8,54 288.5,52.2 288.5,50 L288.5,14 C288.5,11.8 290.7,10 293.5,10 L343.2,10 C345.9,10 348.2,11.8 348.2,14 L348.2,50 C348.2,52.2 346,54 343.2,54 L343.2,54 Z" id="Shape" fill="#4C4C4C"></path>
            <path d="M412.9,54 L363.2,54 C360.5,54 358.2,52.2 358.2,50 L358.2,14 C358.2,11.8 360.4,10 363.2,10 L412.9,10 C415.6,10 417.9,11.8 417.9,14 L417.9,50 C417.8,52.2 415.6,54 412.9,54 L412.9,54 Z" id="Shape" fill="#4C4C4C"></path>
            <path d="M482.5,54 L432.8,54 C430.1,54 427.8,52.2 427.8,50 L427.8,14 C427.8,11.8 430,10 432.8,10 L482.5,10 C485.2,10 487.5,11.8 487.5,14 L487.5,50 C487.5,52.2 485.2,54 482.5,54 L482.5,54 Z" id="Shape" fill="#4C4C4C"></path>
            <path d="M552.1,54 L502.4,54 C499.7,54 497.4,52.2 497.4,50 L497.4,14 C497.4,11.8 499.6,10 502.4,10 L552.1,10 C554.8,10 557.1,11.8 557.1,14 L557.1,50 C557.1,52.2 554.9,54 552.1,54 L552.1,54 Z" id="Shape" fill="#4C4C4C"></path>
            <path d="M621.7,54 L572,54 C569.3,54 567,52.2 567,50 L567,14 C567,11.8 569.2,10 572,10 L621.7,10 C624.4,10 626.7,11.8 626.7,14 L626.7,50 C626.7,52.2 624.5,54 621.7,54 L621.7,54 Z" id="Shape" fill="#4C4C4C"></path>
            <path d="M691.4,54 L641.7,54 C639,54 636.7,52.2 636.7,50 L636.7,14 C636.7,11.8 638.9,10 641.7,10 L691.4,10 C694.1,10 696.4,11.8 696.4,14 L696.4,50 C696.3,52.2 694.1,54 691.4,54 L691.4,54 Z" id="Shape" fill="#4C4C4C"></path>
            <path d="M761,54 L711.3,54 C708.6,54 706.3,52.2 706.3,50 L706.3,14 C706.3,11.8 708.5,10 711.3,10 L761,10 C763.7,10 766,11.8 766,14 L766,50 C766,52.2 763.7,54 761,54 L761,54 Z" id="Shape" fill="#BFBFBF"></path>
            <path d="M945,54 L780.9,54 C778.2,54 775.9,52.2 775.9,50 L775.9,14 C775.9,11.8 778.1,10 780.9,10 L945,10 C947.7,10 950,11.8 950,14 L950,50 C950,52.2 947.8,54 945,54 L945,54 Z" id="Shape" fill="#BFBFBF"></path>
            <path d="M134.3,52 L84.6,52 C81.9,52 79.6,50.2 79.6,48 L79.6,12 C79.6,9.8 81.8,8 84.6,8 L134.3,8 C137,8 139.3,9.8 139.3,12 L139.3,48 C139.3,50.2 137.1,52 134.3,52 L134.3,52 Z" id="Shape" fill="#F7F7F7"></path>
            <path d="M64.7,52 L15,52 C12.3,52 10,50.2 10,48 L10,12 C10,9.8 12.2,8 15,8 L64.7,8 C67.4,8 69.7,9.8 69.7,12 L69.7,48 C69.7,50.2 67.4,52 64.7,52 L64.7,52 Z" id="Shape" fill="#F7F7F7"></path>
            <path d="M204,52 L154.3,52 C151.6,52 149.3,50.2 149.3,48 L149.3,12 C149.3,9.8 151.5,8 154.3,8 L204,8 C206.7,8 209,9.8 209,12 L209,48 C208.9,50.2 206.7,52 204,52 L204,52 Z" id="Shape" fill="#F7F7F7"></path>
            <path d="M273.6,52 L223.9,52 C221.2,52 218.9,50.2 218.9,48 L218.9,12 C218.9,9.8 221.1,8 223.9,8 L273.6,8 C276.3,8 278.6,9.8 278.6,12 L278.6,48 C278.6,50.2 276.3,52 273.6,52 L273.6,52 Z" id="Shape" fill="#F7F7F7"></path>
            <path d="M343.2,52 L293.5,52 C290.8,52 288.5,50.2 288.5,48 L288.5,12 C288.5,9.8 290.7,8 293.5,8 L343.2,8 C345.9,8 348.2,9.8 348.2,12 L348.2,48 C348.2,50.2 346,52 343.2,52 L343.2,52 Z" id="Shape" fill="#F7F7F7"></path>
            <path d="M412.9,52 L363.2,52 C360.5,52 358.2,50.2 358.2,48 L358.2,12 C358.2,9.8 360.4,8 363.2,8 L412.9,8 C415.6,8 417.9,9.8 417.9,12 L417.9,48 C417.8,50.2 415.6,52 412.9,52 L412.9,52 Z" id="Shape" fill="#F7F7F7"></path>
            <path d="M482.5,52 L432.8,52 C430.1,52 427.8,50.2 427.8,48 L427.8,12 C427.8,9.8 430,8 432.8,8 L482.5,8 C485.2,8 487.5,9.8 487.5,12 L487.5,48 C487.5,50.2 485.2,52 482.5,52 L482.5,52 Z" id="Shape" fill="#F7F7F7"></path>
            <path d="M552.1,52 L502.4,52 C499.7,52 497.4,50.2 497.4,48 L497.4,12 C497.4,9.8 499.6,8 502.4,8 L552.1,8 C554.8,8 557.1,9.8 557.1,12 L557.1,48 C557.1,50.2 554.9,52 552.1,52 L552.1,52 Z" id="Shape" fill="#F7F7F7"></path>
            <path d="M621.7,52 L572,52 C569.3,52 567,50.2 567,48 L567,12 C567,9.8 569.2,8 572,8 L621.7,8 C624.4,8 626.7,9.8 626.7,12 L626.7,48 C626.7,50.2 624.5,52 621.7,52 L621.7,52 Z" id="Shape" fill="#F7F7F7"></path>
            <path d="M691.4,52 L641.7,52 C639,52 636.7,50.2 636.7,48 L636.7,12 C636.7,9.8 638.9,8 641.7,8 L691.4,8 C694.1,8 696.4,9.8 696.4,12 L696.4,48 C696.3,50.2 694.1,52 691.4,52 L691.4,52 Z" id="Shape" fill="#F7F7F7"></path>
            <path d="M761,52 L711.3,52 C708.6,52 706.3,50.2 706.3,48 L706.3,12 C706.3,9.8 708.5,8 711.3,8 L761,8 C763.7,8 766,9.8 766,12 L766,48 C766,50.2 763.7,52 761,52 L761,52 Z" id="Shape" fill="#F7F7F7"></path>
            <path d="M945,52 L780.9,52 C778.2,52 775.9,50.2 775.9,48 L775.9,12 C775.9,9.8 778.1,8 780.9,8 L945,8 C947.7,8 950,9.8 950,12 L950,48 C950,50.2 947.8,52 945,52 L945,52 Z" id="Shape" fill="#F7F7F7"></path>
            <path d="M732.6,23 L725.6,30 L732.6,37 L746.6,37 L746.6,23 L732.6,23 L732.6,23 Z M742.3,32.2 L740.9,33.6 L738.7,31.4 L736.5,33.6 L735.1,32.2 L737.3,30 L735.1,27.8 L736.5,26.4 L738.7,28.6 L740.9,26.4 L742.3,27.8 L740.1,30 L742.3,32.2 L742.3,32.2 Z" id="Shape" fill="#E4E4E4"></path>
            <text id="Enter" fill="#E4E4E4" font-family="Oxygen-Bold, Oxygen" font-size="24" font-weight="bold">
                <tspan x="816" y="39">Enter</tspan>
            </text>
            <path d="M894.4,39 C893.7,39 893.1,38.7 892.7,38.2 L888.9,32.9 C888.2,32 888.3,30.6 889.3,29.9 C890.2,29.2 891.6,29.3 892.4,30.3 L894.4,33.4 L902.6,22 C903.3,21 904.6,20.8 905.6,21.5 C906.6,22.2 906.8,23.5 906.1,24.4 L896.2,38.2 C895.7,38.7 895.1,39 894.4,39 L894.4,39 L894.4,39 Z" id="Shape" fill="#E4E4E4"></path>
            <text id="0" fill="#323232" font-family="Oxygen-Bold, Oxygen" font-size="24" font-weight="bold">
                <tspan x="658.9139" y="38.9997">0</tspan>
            </text>
            <text id="1" fill="#323232" font-family="Oxygen-Bold, Oxygen" font-size="24" font-weight="bold">
                <tspan x="35.822" y="38.9997">1</tspan>
            </text>
            <text id="2" fill="#323232" font-family="Oxygen-Bold, Oxygen" font-size="24" font-weight="bold">
                <tspan x="103.2949" y="38.9997">2</tspan>
            </text>
            <text id="3" fill="#323232" font-family="Oxygen-Bold, Oxygen" font-size="24" font-weight="bold">
                <tspan x="172.7843" y="38.9997">3</tspan>
            </text>
            <text id="4" fill="#323232" font-family="Oxygen-Bold, Oxygen" font-size="24" font-weight="bold">
                <tspan x="241.3882" y="38.9997">4</tspan>
            </text>
            <text id="5" fill="#323232" font-family="Oxygen-Bold, Oxygen" font-size="24" font-weight="bold">
                <tspan x="311.6916" y="38.9997">5</tspan>
            </text>
            <text id="6" fill="#323232" font-family="Oxygen-Bold, Oxygen" font-size="24" font-weight="bold">
                <tspan x="380.9286" y="38.9997">6</tspan>
            </text>
            <text id="7" fill="#323232" font-family="Oxygen-Bold, Oxygen" font-size="24" font-weight="bold">
                <tspan x="451.5484" y="38.9997">7</tspan>
            </text>
            <text id="8" fill="#323232" font-family="Oxygen-Bold, Oxygen" font-size="24" font-weight="bold">
                <tspan x="520.5043" y="38.9997">8</tspan>
            </text>
            <text id="9" fill="#323232" font-family="Oxygen-Bold, Oxygen" font-size="24" font-weight="bold">
                <tspan x="589.7589" y="38.9997">9</tspan>
            </text>
        </g>
    </g>
</svg>