<?xml version="1.0" encoding="UTF-8"?>
<svg width="92px" height="105px" viewBox="0 0 92 105" version="1.1" xmlns="http://www.w3.org/2000/svg" xmlns:xlink="http://www.w3.org/1999/xlink">
    <!-- Generator: Sketch 45.2 (43514) - http://www.bohemiancoding.com/sketch -->
    <title>Pig</title>
    <desc>Created with Sketch.</desc>
    <defs>
        <path d="M54.7786,20.3779 C56.9496,34.3549 60.1466,44.9259 39.8056,53.4379 C20.9656,61.3209 13.9246,53.1019 5.6286,42.0609 C-3.2444,30.2539 -2.1344,14.7719 19.1326,4.0319 C36.3366,-4.6551 52.5096,5.7739 54.7786,20.3779" id="path-1"></path>
        <path d="M12.875,0.875 C14.1807,0.7852 13.8556637,5.60400241 9.3423,8.6538 C4.09596026,12.1988886 -0.0453880702,9.96274471 0.875,9.25 C2.60143292,7.9130575 4.9613,8.35765206 7.3423,6.48765206 C10.875,4 11.5693,0.9648 12.875,0.875 Z" id="path-3"></path>
    </defs>
    <g id="Layout" stroke="none" stroke-width="1" fill="none" fill-rule="evenodd">
        <g id="0.0.1_Title-Screen" transform="translate(-788.000000, -186.000000)">
            <g id="Pig" transform="translate(788.000000, 185.000000)">
                <path d="M72.0228,38.1752 C73.2628,39.6902 81.5068,37.2442 85.5318,30.8672 C87.9688,27.0062 89.4758,22.0842 89.0658,18.2152 C88.8198,15.8942 96.5028,17.8142 86.0438,12.8452 C82.1398,10.9912 74.8358,9.5652 77.6108,23.0972 C79.0198,29.9702 70.5198,36.3402 72.0228,38.1752" id="Leg-L" fill="#65C6FD"></path>
                <path d="M48.4066,27.7167 C50.3396,28.4807 55.6476,23.4367 56.2566,17.3147 C56.7916,11.9307 53.5636,7.0067 49.6476,4.6817 C48.4956,3.9977 51.5216,-3.8493 42.2526,5.6947 C37.2646,10.8287 43.3556,10.8247 46.2426,15.5567 C49.6496,21.1417 46.4846,26.9567 48.4066,27.7167" id="Leg-R" fill="#99DCFF"></path>
                <path d="M30.4446,56.7211 C34.1156,47.8101 31.7256,42.6501 35.3306,30.5871 C38.9356,18.5231 48.0956,15.1561 57.2016,17.0171 C66.3066,18.8781 85.4996,30.6721 77.1606,48.8721 C68.8206,67.0721 51.0906,83.0831 34.6746,80.1001 C18.2586,77.1171 28.9646,60.3121 30.4446,56.7211" id="Body" fill="#FFFFFF"></path>
                <path d="M51.1839,61.5639 C51.1479,68.0779 40.3659,64.4669 36.5379,78.2909 C33.9569,87.6109 35.7729,99.1049 33.0239,102.5909 C29.3459,107.2539 19.5689,107.5219 16.4059,96.3959 C12.6499,83.1839 19.8329,63.9459 31.2049,59.0719 C40.6939,55.0059 51.2169,55.6109 51.1839,61.5639" id="Arm-R" fill="#99DCFF"></path>
                <path d="M58.7464,51.5898 C61.7244,46.2758 60.7644,29.6168 60.1454,28.1118 C58.4324,23.9438 55.1674,20.9268 48.8324,21.9148 C43.9964,22.6688 36.7814,31.0168 36.1054,35.3318 C34.8674,43.2348 35.6164,45.9648 42.5404,47.9358 C46.6074,49.0928 56.5514,55.5078 58.7464,51.5898" id="Backpack" fill="#B8C5CC"></path>
                <path d="M60.9036,50.4872 C53.9146,50.8482 78.4126,61.8782 66.4366,84.1782 C59.9956,96.1712 79.1206,102.3432 82.6966,92.1032 C90.5826,69.5242 79.5846,49.5232 60.9036,50.4872" id="Arm-L" fill="#65C6FD"></path>
                <g id="Head" transform="translate(0.000000, 27.000000)">
                    <path d="M45.2468,59.7402 C23.8748,68.6832 15.8888,59.3602 6.4768,46.8352 C-3.5872,33.4422 -2.3282,15.8802 21.7968,3.6982 C41.3108,-6.1558 59.6568,5.6752 62.2298,22.2392 C64.6928,38.0942 68.3198,50.0852 45.2468,59.7402 Z" id="Helmet" fill="#FFFFFF"></path>
                    <g transform="translate(4.000000, 3.000000)">
                        <mask id="mask-2" fill="white">
                            <use xlink:href="#path-1"></use>
                        </mask>
                        <use id="Mask" fill="#C7E7F8" xlink:href="#path-1"></use>
                        <g id="R-ear" mask="url(#mask-2)">
                            <g transform="translate(9.000000, 12.000000)">
                                <path d="M14.2484,7.9467 C14.2484,7.9467 9.8604,1.2187 0.8724,0.8447 C0.8724,0.8447 -0.3846,9.2807 5.0864,16.0717" id="Fill-124" fill="#F6A2A4"></path>
                                <path d="M14.0843,9.852 C14.0843,9.852 10.6853,4.637 3.7173,4.347 C3.7173,4.347 2.7423,10.887 6.9823,16.151" id="Fill-126" fill="#F28083"></path>
                            </g>
                        </g>
                        <g id="L-ear" mask="url(#mask-2)">
                            <g transform="translate(28.000000, 2.000000)">
                                <path d="M0.8792,14.54 C0.8792,14.54 -0.7668,6.678 5.3312,0.065 C5.3312,0.065 12.1802,5.149 13.1032,13.82" id="Fill-128" fill="#F6A2A4"></path>
                                <path d="M2.3411,15.7739 C2.3411,15.7739 1.0641,9.6799 5.7921,4.5539 C5.7921,4.5539 11.1011,8.4949 11.8181,15.2159" id="Fill-131" fill="#F28083"></path>
                            </g>
                        </g>
                        <path d="M55.2542,23.3803 C50.4932,11.8703 36.3382,6.7983 23.6372,12.0513 C10.9342,17.3053 4.4972,30.8923 9.2582,42.4023 C14.0182,53.9113 23.5732,60.8863 40.8742,53.7313 C59.3452,46.0923 60.0142,34.8893 55.2542,23.3803" id="head" fill="#F6A2A4" mask="url(#mask-2)"></path>
                        <g id="R-eye" mask="url(#mask-2)">
                            <g transform="translate(11.000000, 32.000000)">
                                <path d="M0.47,6.8574 C1.401,9.1084 3.98,10.1804 6.233,9.2484 C8.484,8.3174 9.554,5.7364 8.623,3.4854 C7.693,1.2344 5.112,0.1634 2.861,1.0944 C0.608,2.0264 -0.462,4.6074 0.47,6.8574" id="Fill-136" fill="#FFFFFF"></path>
                                <path d="M0.7864,5.6127 C1.3384,6.9467 2.8664,7.5807 4.2004,7.0297 C5.5344,6.4777 6.1694,4.9487 5.6174,3.6147 C5.0654,2.2807 3.5364,1.6467 2.2024,2.1987 C0.8684,2.7507 0.2344,4.2787 0.7864,5.6127" id="Fill-138" fill="#1D1C1A"></path>
                                <path d="M1.3831,4.3051 C1.5001,4.5871 1.8221,4.7211 2.1051,4.6041 C2.3851,4.4881 2.5191,4.1651 2.4031,3.8841 C2.2851,3.6021 1.9631,3.4681 1.6831,3.5841 C1.4011,3.7011 1.2671,4.0231 1.3831,4.3051" id="Fill-140" fill="#FFFFFF"></path>
                            </g>
                        </g>
                        <g id="Mouth" mask="url(#mask-2)">
                            <g transform="translate(25.000000, 44.000000)">
                                <mask id="mask-4" fill="white">
                                    <use xlink:href="#path-3"></use>
                                </mask>
                                <use id="Mask" stroke="none" fill="#000000" fill-rule="evenodd" xlink:href="#path-3"></use>
                                <path d="M12.875,-0.125 C14.1807,-0.2148 12.8556637,4.60400241 8.3423,7.6538 C3.09596026,11.1988886 -2.04538807,8.96274471 -1.125,8.25 C0.601432917,6.9130575 3.9613,7.35765206 6.3423,5.48765206 C9.875,3 11.5693,-0.0352 12.875,-0.125 Z" id="Mouth" stroke="none" fill="#FFFFFF" fill-rule="evenodd" mask="url(#mask-4)"></path>
                            </g>
                        </g>
                        <g id="Nose" mask="url(#mask-2)">
                            <g transform="translate(16.000000, 34.000000)">
                                <path d="M17.3792,5.6664 C15.5192,1.1674 10.4032,-0.9886 5.9562,0.8504 C1.5082,2.6894 -0.5878,7.8284 1.2732,12.3274 C3.1342,16.8264 8.2472,18.9834 12.6942,17.1444 C17.1422,15.3054 19.2392,10.1654 17.3792,5.6664" id="Fill-145" fill="#F28083"></path>
                                <path d="M9.5911,7.8027 C9.3541,7.2287 8.7021,6.9537 8.1341,7.1887 C7.5681,7.4227 7.2991,8.0777 7.5361,8.6527 C7.7741,9.2277 8.4271,9.5017 8.9931,9.2667 C9.5621,9.0317 9.8291,8.3777 9.5911,7.8027" id="Fill-147" fill="#DB6971"></path>
                                <path d="M4.8734,9.7421 C4.6364,9.1681 3.9844,8.8931 3.4164,9.1281 C2.8504,9.3621 2.5814,10.0171 2.8184,10.5921 C3.0564,11.1671 3.7094,11.4411 4.2754,11.2061 C4.8444,10.9711 5.1114,10.3171 4.8734,9.7421" id="Fill-149" fill="#DB6971"></path>
                            </g>
                        </g>
                        <g id="L-eye" mask="url(#mask-2)">
                            <g transform="translate(27.000000, 25.000000)">
                                <path d="M1.1946,6.1528 C2.1266,8.4038 4.7056,9.4748 6.9586,8.5438 C9.2096,7.6128 10.2796,5.0318 9.3486,2.7808 C8.4186,0.5298 5.8376,-0.5412 3.5866,0.3898 C1.3336,1.3208 0.2636,3.9018 1.1946,6.1528" id="Fill-151" fill="#FFFFFF"></path>
                                <path d="M1.511,4.9081 C2.063,6.2421 3.592,6.8761 4.926,6.3251 C6.26,5.7731 6.896,4.2431 6.344,2.9091 C5.792,1.5751 4.262,0.9421 2.928,1.4941 C1.594,2.0461 0.959,3.5741 1.511,4.9081" id="Fill-153" fill="#1D1C1A"></path>
                                <path d="M2.1087,3.6 C2.2247,3.882 2.5477,4.016 2.8307,3.899 C3.1097,3.784 3.2447,3.46 3.1277,3.179 C3.0107,2.897 2.6877,2.763 2.4077,2.879 C2.1267,2.996 1.9927,3.318 2.1087,3.6" id="Fill-155" fill="#FFFFFF"></path>
                            </g>
                        </g>
                    </g>
                </g>
            </g>
        </g>
    </g>
</svg>