<?xml version="1.0" encoding="UTF-8"?>
<svg width="55px" height="89px" viewBox="0 0 55 89" version="1.1" xmlns="http://www.w3.org/2000/svg" xmlns:xlink="http://www.w3.org/1999/xlink">
    <!-- Generator: Sketch 45.1 (43504) - http://www.bohemiancoding.com/sketch -->
    <title>Group 3</title>
    <desc>Created with Sketch.</desc>
    <defs>
        <path d="M2.43930203,2.41731742 C3.28131246,5.96233524 1.97762529,16.7963494 0.875097267,18.7441855 C-0.801778604,21.7049624 2.30519593,24.0996357 6.32947818,22.645354 C10.2592266,21.2245988 11.1215728,13.4942615 8.12946784,6.42291275 C4.48771775,-2.18296152 2.03753334,0.725052327 2.43930203,2.41731742" id="path-1"></path>
        <path d="M0.80161372,17.8325389 C-1.2286647,27.3293393 0.991230952,38.2309561 18.3711617,35.5306968 C36.094602,32.7765752 29.680593,25.0456883 28.1537621,18.7641366 C25.8596684,9.32889302 28.630828,-0.574622656 18.9576011,0.267937393 C8.53579834,1.17590165 2.10859858,11.7202686 0.80161372,17.8325389" id="path-3"></path>
        <path d="M23.9731143,0.144438866 C32.8658877,-0.322734026 49.1279012,3.21019226 49.8858205,17.6447354 C50.6442895,32.0798281 35.3666367,41.6656662 26.1803688,42.1482283 C16.9930017,42.6307904 1.25422181,35.0515973 0.537523632,21.415645 C-0.178624929,7.77969275 15.3622935,0.596772147 23.9731143,0.144438866" id="path-5"></path>
        <path d="M7.12764847,6.99086059 C12.4649904,7.38257504 16.6456588,2.69279439 15.9531752,1.20775849 C15.2606916,-0.277277418 14.4458769,1.96903965 7.8181011,1.96903965 C1.19032534,1.96903965 1.86977511,-1.07914688 0.480556295,0.539127077 C-0.908662523,2.15740104 1.7903065,6.59914615 7.12764847,6.99086059 Z" id="path-7"></path>
    </defs>
    <g id="Specs" stroke="none" stroke-width="1" fill="none" fill-rule="evenodd">
        <g id="2.0.0_Zearned-It_JG" transform="translate(-269.000000, -202.000000)">
            <g id="Group-4" transform="translate(239.000000, 200.000000)">
                <g id="Group-3" transform="translate(55.825198, 46.903766) rotate(4.000000) translate(-55.825198, -46.903766) translate(28.619247, 2.384937)">
                    <polygon id="Clip-13" points="53.7677525 48.5956858 53.7677525 59.4590722 35.0340963 59.4590722 35.0340963 48.5956858 53.7677525 48.5956858"></polygon>
                    <path d="M36.2447019,48.7470729 C34.0352489,47.2477227 34.0517374,57.3326114 43.2391045,59.2848445 C48.8495761,60.4769598 54.2391024,55.2358295 53.7351053,53.1516888 C53.2311082,51.0669985 50.3917963,48.4524792 48.9616976,49.9419363 C47.5315989,51.4313934 43.8689635,55.3512487 41.2907187,53.6446936 C38.712474,51.9386882 37.6715029,49.7154948 36.2447019,48.7470729" id="Fill-12" fill="#9DDBF8"></path>
                    <path d="M11.8879562,62.9464357 C13.6483736,68.0534598 -0.732307247,57.1216141 3.15896813,49.1065762 C7.0502435,41.0909886 8.60895212,40.4133131 9.8153574,40.179177 C11.0217627,39.945041 17.8633723,38.1813259 20.8005157,41.0228363 C23.7371096,43.8637971 10.5996582,59.2090525 11.8879562,62.9464357" id="Fill-15" fill="#CFDEE6"></path>
                    <path d="M17.6717215,68.6192336 C17.2551132,72.2389991 12.3366071,81.9798287 10.6360977,83.4352097 C8.05125761,85.6474107 10.1557341,88.9577429 14.4350378,88.9615902 C18.6132123,88.9659871 22.0587497,81.9919202 21.6558818,74.3242391 C21.1656251,64.9923232 17.8706822,66.8912436 17.6717215,68.6192336" id="Fill-17" fill="#9DDBF8"></path>
                    <path d="M43.9962183,77.0899803 C44.0125866,74.4468386 43.4336276,71.4325094 42.2049486,68.5292616 C40.2845932,63.9894404 38.6945565,62.6538755 37.6805166,62.6533259 C36.7720027,62.6533259 36.3251656,63.7239762 36.5153324,64.5236663 C37.1021765,66.9963845 36.645926,73.0140741 35.9420951,77.0899797 L43.996219,77.0899797 L43.9962183,77.0899803 Z" id="Clip-23"></path>
                    <g id="Fill-22" transform="translate(34.076140, 62.106514)">
                        <mask id="mask-2" fill="white">
                            <use xlink:href="#path-1"></use>
                        </mask>
                        <use id="Mask" fill="#9DDBF8" xlink:href="#path-1"></use>
                        <path d="M-8.69590123,5.86054652 C-8.65687856,1.46362519 0.925112248,0.356150628 2.27386787,-3.66923085 C3.62262348,-7.69406271 13.0331344,-5.89901958 12.0581171,-0.16488455 C11.0830997,5.56980009 11.8827898,16.7890945 1.00865375,14.7357322 C-9.86493269,12.6818203 -8.71348892,7.87873341 -8.69590123,5.86054652" fill="#3D9CD6" mask="url(#mask-2)"></path>
                    </g>
                    <path d="M29.7246172,38.1433732 C29.801939,38.1418134 29.8783957,38.1410391 29.9540266,38.1410391 C38.3087267,38.1421383 35.8448019,47.6306946 38.0465603,56.6878029 C39.5303203,62.7899596 45.6255798,70.2598505 29.7246172,73.2058665 L29.7246172,38.1433723 L29.7246172,38.1433732 Z" id="Clip-28"></path>
                    <g id="Fill-27" transform="translate(9.893073, 37.923446)">
                        <mask id="mask-4" fill="white">
                            <use xlink:href="#path-3"></use>
                        </mask>
                        <use id="Mask" fill="#FFFFFF" xlink:href="#path-3"></use>
                        <path d="M19.9843372,3.31505884 C20.3196025,9.52790867 19.7392088,11.8077124 21.9228299,17.5808701 C24.1317333,23.4210808 26.1361798,28.7259664 24.7324626,32.7507983 C23.3287455,36.7750805 20.8791107,37.8534255 22.2910721,38.4684449 C30.4215292,42.0112642 34.2380569,35.5692249 35.7280636,30.6985353 C37.21862,25.8278457 31.3135546,18.0760734 31.6949876,9.55209174 C32.0764205,1.02756051 28.4758915,-3.69088569 25.5299542,-1.7743776 C22.5845666,0.142680097 20.9763926,-2.55208306 19.8315442,-1.08461057" fill="#E4E4E4" mask="url(#mask-4)"></path>
                    </g>
                    <path d="M18.3484626,44.2929916 C19.810439,47.6373999 21.2119576,51.1763719 21.3367203,52.4663187 C21.4620325,53.7568151 33.783855,51.2164938 35.2194498,50.4629714 C36.6555942,49.709449 35.1551448,45.8852267 34.4313016,43.4696681 C33.7080081,41.0541094 21.9000758,39.5569577 19.8071413,41.5119388 C17.7136571,43.46692 18.0192431,43.5394692 18.3484626,44.2929916" id="Fill-30" fill="#DFEAEF"></path>
                    <path d="M20.9882643,44.4390793 C22.2023642,47.2168343 23.3664491,50.1561762 23.4703264,51.2273762 C23.5742036,52.2991258 33.8074884,50.1891532 35.0001533,49.5631415 C36.1928182,48.9376794 34.9468406,45.7614534 34.3455617,43.755358 C33.7448323,41.7492627 23.9380489,40.5060332 22.1996161,42.1295964 C20.4611833,43.7531596 20.7145559,43.8130676 20.9882643,44.4390793" id="Fill-32" fill="#B8C5CC"></path>
                    <path d="M26.772799,48.8662295 C26.9338363,49.7752929 26.4479764,50.6217003 25.6873091,50.7569056 C24.9260921,50.8915613 24.1786154,50.2639008 24.0175782,49.3548373 C23.8559913,48.4457739 24.3424007,47.5993665 25.1030681,47.4647108 C25.8637355,47.3295054 26.6117618,47.957166 26.772799,48.8662295" id="Fill-34" fill="#F15B5C"></path>
                    <polygon id="Fill-36" fill="#F15B5C" points="25.1030681 47.4646558 25.5872791 47.4014501 26.1709704 50.6936449 25.6873091 50.7568507"></polygon>
                    <path d="M27.2567901,48.8030787 C27.4178274,49.7121422 26.9319676,50.5585495 26.1713002,50.6937548 C25.4100832,50.8284106 24.6626065,50.20075 24.5015693,49.2916866 C24.3399824,48.3826231 24.8263919,47.5362157 25.5870592,47.40156 C26.3477266,47.2663547 27.0957529,47.8940152 27.2567901,48.8030787" id="Fill-38" fill="#F69799"></path>
                    <path d="M34.1752909,48.2802298 C34.2351989,48.6171439 34.0549252,48.9309741 33.7729726,48.9809891 C33.49102,49.0310041 33.2134643,48.7985169 33.1541059,48.4616028 C33.0941978,48.1246887 33.2744716,47.8108584 33.5564242,47.7608434 C33.8383768,47.7108285 34.1153828,47.9433157 34.1752909,48.2802298" id="Fill-40" fill="#F15B5C"></path>
                    <polygon id="Fill-42" fill="#F15B5C" points="33.5563692 47.7606785 33.7355438 47.7370451 33.9520922 48.9577404 33.7729176 48.9808242"></polygon>
                    <path d="M34.3546853,48.2568162 C34.4145933,48.5937303 34.2343195,48.9075605 33.952367,48.9575755 C33.6704144,49.0075905 33.3928587,48.7751033 33.3335003,48.4381892 C33.2735922,48.1012751 33.453866,47.7874448 33.7358186,47.7374298 C34.0177712,47.6874148 34.2947772,47.9199021 34.3546853,48.2568162" id="Fill-44" fill="#F69799"></path>
                    <path d="M32.6048205,48.7365203 C32.6647286,49.0734344 32.4844548,49.3872646 32.2025022,49.4372796 C31.9205496,49.4872946 31.642994,49.2548074 31.5836355,48.9178933 C31.5237275,48.5809792 31.7040012,48.2671489 31.9859538,48.2171339 C32.2679064,48.167119 32.5449124,48.3996062 32.6048205,48.7365203" id="Fill-46" fill="#F15B5C"></path>
                    <polygon id="Fill-48" fill="#F15B5C" points="31.9858439 48.2169691 32.1650184 48.1933356 32.3815668 49.4140309 32.2023923 49.4371147"></polygon>
                    <path d="M32.7842149,48.7130517 C32.8441229,49.0499658 32.6638492,49.3637961 32.3818966,49.413811 C32.099944,49.463826 31.8223883,49.2313388 31.7630299,48.8944247 C31.7031219,48.5575106 31.8833956,48.2436804 32.1653482,48.1936654 C32.4473008,48.1436504 32.7243068,48.3761376 32.7842149,48.7130517" id="Fill-50" fill="#F69799"></path>
                    <path d="M18.5913925,49.0097889 C17.8834882,46.4353915 11.3507623,54.1184619 17.0739051,61.566297 C20.5689079,66.1143625 28.0706053,65.6241058 29.0395768,63.711445 C30.009098,61.7987842 29.5457724,57.9668673 27.4907613,58.1718738 C25.4362998,58.3774298 20.1055823,58.9820065 19.2514803,56.0107869 C18.3973784,53.0395673 19.0486723,50.6723748 18.5913925,49.0097889" id="Fill-52" fill="#9DDBF8"></path>
                    <path d="M15.280928,51.9052716 C14.9837972,52.7574109 14.7812302,53.7327054 14.748546,54.7874535 L17.0496121,54.7874535 L17.0496121,51.9052716 L15.280928,51.9052716 L15.280928,51.9052716 Z" id="Clip-56"></path>
                    <polygon id="Fill-55" fill="#FAF077" points="14.2724066 52.3499102 17.0496121 51.9052716 16.8242698 54.3741429 13.806333 54.7874535"></polygon>
                    <path d="M25.7216566,0.297114563 C14.6331707,0.879706639 -0.610955576,8.42372441 0.0189034044,20.4251212 C0.804853092,35.3746537 5.90583145,47.6486596 29.8102439,46.3927889 C53.7146563,45.1369183 54.550621,27.1040447 53.9856166,16.3447782 C53.4206122,5.58496208 40.1435586,-0.460804751 25.7216566,0.297114563" id="Helmet" fill="#F3FAFD"></path>
                    <g id="Head" transform="translate(2.198461, 2.431886)">
                        <mask id="mask-6" fill="white">
                            <use xlink:href="#path-5"></use>
                        </mask>
                        <use id="Mask" fill="#C7E6F7" xlink:href="#path-5"></use>
                        <g id="Ear-L" mask="url(#mask-6)" fill-rule="nonzero">
                            <g transform="translate(36.630460, 6.623719) rotate(-7.000000) translate(-36.630460, -6.623719) translate(31.134308, -0.521278)">
                                <path d="M0.332819138,10.0675728 C0.332819138,10.0675728 1.56955417,3.48539414 8.3757193,0.333093968 C8.3757193,0.333093968 12.0323325,6.43294599 9.9807265,13.4081315" id="Fill-14" fill="#F7A2A4"></path>
                                <path d="M1.06579076,11.4837718 C1.06579076,11.4837718 2.02357334,6.38155278 7.30030946,3.93831399 C7.30030946,3.93831399 10.135181,8.66676425 8.54528938,14.0740446" id="Fill-16" fill="#F28083"></path>
                            </g>
                        </g>
                        <g id="Ear-R" mask="url(#mask-6)" fill-rule="nonzero">
                            <g transform="translate(11.425453, 9.718505) rotate(-7.000000) translate(-11.425453, -9.718505) translate(5.929301, 2.573507)">
                                <path d="M10.6206682,9.73475363 C10.6206682,9.73475363 9.38393317,3.15257501 2.57776805,0.000274830007 C2.57776805,0.000274830007 -1.07884519,6.10012682 0.97276081,13.0753124" id="Fill-18" fill="#F7A2A4"></path>
                                <path d="M9.88769657,11.1509527 C9.88769657,11.1509527 8.929914,6.04873361 3.65317786,3.60549486 C3.65317786,3.60549486 0.818306344,8.33394514 2.40819794,13.7412255" id="Fill-20" fill="#F28083"></path>
                            </g>
                        </g>
                        <path d="M4.67796842,23.400512 C4.67796842,13.014686 13.9685968,4.59664296 25.4290081,4.59664296 C36.8907935,4.59664296 46.1800477,13.014686 46.1800477,23.400512 C46.1800477,33.7849638 41.0393524,42.2043811 25.4290081,42.2043811 C8.76331648,42.2043811 4.67796842,33.7849638 4.67796842,23.400512" id="Face" fill="#F7A2A4" fill-rule="nonzero" mask="url(#mask-6)" transform="translate(25.429008, 23.400512) rotate(-7.000000) translate(-25.429008, -23.400512) "></path>
                        <g id="Mouth" mask="url(#mask-6)">
                            <g transform="translate(27.275169, 35.725150) rotate(-7.000000) translate(-27.275169, -35.725150) translate(19.030942, 32.152651)" id="Oval-14-+-Oval-15-Mask">
                                <g transform="translate(-0.000000, -0.000000)">
                                    <mask id="mask-8" fill="white">
                                        <use xlink:href="#path-7"></use>
                                    </mask>
                                    <use id="Mask" fill="#000000" xlink:href="#path-7"></use>
                                    <path d="M7.83287942,10.9382791 C11.6730253,10.9382791 15.3907046,8.17695004 15.3907046,7.00821001 C15.3907046,5.83946997 11.6730253,9.12440106 7.83287942,9.12440106 C3.99273356,9.12440106 0.275054242,5.83946997 0.275054242,7.00821001 C0.275054242,8.17695004 3.99273356,10.9382791 7.83287942,10.9382791 Z" id="Oval-14" fill="#FFFFFF" fill-rule="nonzero" mask="url(#mask-8)"></path>
                                    <path d="M7.816911,3.7680932 C12.1579455,3.7680932 15.9953306,1.5260639 15.9953306,0.357323856 C15.9953306,-0.811416189 12.4762269,-1.75886719 8.13519243,-1.75886719 C3.79415798,-1.75886719 0.275054242,-0.811416189 0.275054242,0.357323856 C0.275054242,1.5260639 3.47587655,3.7680932 7.816911,3.7680932 Z" id="Oval-15" fill="#FFFFFF" fill-rule="nonzero" mask="url(#mask-8)"></path>
                                </g>
                            </g>
                        </g>
                        <g id="Nose" mask="url(#mask-6)" fill-rule="nonzero">
                            <g transform="translate(26.308152, 28.547381) rotate(-7.000000) translate(-26.308152, -28.547381) translate(18.613539, 20.852769)">
                                <path d="M0.479715776,7.600149 C0.479715776,3.59724995 3.72545815,0.351507578 7.72835723,0.351507578 C11.7312562,0.351507578 14.9756245,3.59724995 14.9756245,7.600149 C14.9756245,11.603048 11.7312562,14.8487904 7.72835723,14.8487904 C3.72545815,14.8487904 0.479715776,11.603048 0.479715776,7.600149" id="Fill-24" fill="#F28083"></path>
                                <path d="M3.60645676,7.600149 C3.60645676,7.08896522 4.02007592,6.675346 4.53125973,6.675346 C5.0410694,6.675346 5.45606271,7.08896522 5.45606271,7.600149 C5.45606271,8.11133279 5.0410694,8.524952 4.53125973,8.524952 C4.02007592,8.524952 3.60645676,8.11133279 3.60645676,7.600149" id="Fill-26" fill="#DB6971"></path>
                                <path d="M9.99996461,7.600149 C9.99996461,7.08896522 10.4135838,6.675346 10.9247676,6.675346 C11.4345773,6.675346 11.8495706,7.08896522 11.8495706,7.600149 C11.8495706,8.11133279 11.4345773,8.524952 10.9247676,8.524952 C10.4135838,8.524952 9.99996461,8.11133279 9.99996461,7.600149" id="Fill-28" fill="#DB6971"></path>
                            </g>
                        </g>
                        <g id="Eye-R" mask="url(#mask-6)" fill-rule="nonzero">
                            <g transform="translate(15.176304, 21.773835) rotate(-7.000000) translate(-15.176304, -21.773835) translate(11.054190, 17.926529)">
                                <path d="M7.81053134,3.96304869 C7.81053134,5.99404244 6.16429965,7.64164835 4.13193174,7.64164835 C2.10093799,7.64164835 0.453332096,5.99404244 0.453332096,3.96304869 C0.453332096,1.93205495 2.10093799,0.284449056 4.13193174,0.284449056 C6.16429965,0.284449056 7.81053134,1.93205495 7.81053134,3.96304869" id="Fill-30" fill="#FFFFFF"></path>
                                <path d="M4.31781524,6.06759576 C3.11405981,6.06759576 2.13703914,5.09194924 2.13703914,3.88819381 C2.13703914,2.68443838 3.11405981,1.70879186 4.31781524,1.70879186 C5.52157067,1.70879186 6.49721722,2.68443838 6.49721722,3.88819381 C6.49721722,5.09194924 5.52157067,6.06759576 4.31781524,6.06759576 Z" id="Fill-32" fill="#1D1C1A"></path>
                                <path d="M5.62023464,3.07071196 C5.62023464,3.32492972 5.41411214,3.53105222 5.15989438,3.53105222 C4.90705077,3.53105222 4.70092827,3.32492972 4.70092827,3.07071196 C4.70092827,2.8164942 4.90705077,2.61037169 5.15989438,2.61037169 C5.41411214,2.61037169 5.62023464,2.8164942 5.62023464,3.07071196" id="Fill-34" fill="#FFFFFF"></path>
                            </g>
                        </g>
                        <g id="Eye-L" mask="url(#mask-6)" fill-rule="nonzero">
                            <g transform="translate(35.580358, 19.268532) rotate(-7.000000) translate(-35.580358, -19.268532) translate(31.458244, 15.421226)">
                                <path d="M7.74649601,3.75280374 C7.74649601,5.78379749 6.10026425,7.43140338 4.06789634,7.43140338 C2.0369026,7.43140338 0.389296704,5.78379749 0.389296704,3.75280374 C0.389296704,1.72180999 2.0369026,0.0742041019 4.06789634,0.0742041019 C6.10026425,0.0742041019 7.74649601,1.72180999 7.74649601,3.75280374" id="Fill-36" fill="#FFFFFF"></path>
                                <path d="M6.43304439,3.67794886 C6.43304439,4.88170428 5.45739786,5.85735081 4.25364244,5.85735081 C3.04988701,5.85735081 2.07424048,4.88170428 2.07424048,3.67794886 C2.07424048,2.47419343 3.04988701,1.49854691 4.25364244,1.49854691 C5.45739786,1.49854691 6.43304439,2.47419343 6.43304439,3.67794886" id="Fill-38" fill="#1D1C1A"></path>
                                <path d="M5.55606184,2.86060442 C5.55606184,3.11482218 5.34993933,3.32094468 5.09572157,3.32094468 C4.84287797,3.32094468 4.63675546,3.11482218 4.63675546,2.86060442 C4.63675546,2.60638666 4.84287797,2.40026415 5.09572157,2.40026415 C5.34993933,2.40026415 5.55606184,2.60638666 5.55606184,2.86060442" id="Fill-40" fill="#FFFFFF"></path>
                            </g>
                        </g>
                    </g>
                </g>
            </g>
        </g>
    </g>
</svg>