<?xml version="1.0" encoding="UTF-8"?>
<svg width="150px" height="285px" viewBox="0 0 150 285" version="1.1" xmlns="http://www.w3.org/2000/svg" xmlns:xlink="http://www.w3.org/1999/xlink">
    <!-- Generator: Sketch 45.2 (43514) - http://www.bohemiancoding.com/sketch -->
    <title>Animal/Zearned/Pig</title>
    <desc>Created with Sketch.</desc>
    <defs>
        <radialGradient cx="50.8963466%" cy="50%" fx="50.8963466%" fy="50%" r="50%" id="radialGradient-1">
            <stop stop-color="#000000" offset="0%"></stop>
            <stop stop-color="#000000" stop-opacity="0" offset="100%"></stop>
        </radialGradient>
        <path d="M140,70 C140,108.66 108.66,140 70,140 C31.34,140 0,108.66 0,70 C0,31.34 31.34,0 70,0 C108.66,0 140,31.34 140,70 Z" id="path-2"></path>
        <path d="M4.34321608,4.30407214 C5.84242906,10.6160328 3.5211933,29.9061674 1.55812461,33.3743207 C-1.42757956,38.6460311 4.10443804,42.9097849 11.2697366,40.3204132 C18.2667163,37.7907359 19.8021374,24.0267473 14.4746469,11.4360984 C7.99045288,-3.88679772 3.62786054,1.29096721 4.34321608,4.30407214" id="path-4"></path>
        <path d="M1.42728598,31.7511192 C-2.18765706,48.6603236 1.76490248,68.0708258 32.7101458,63.2629712 C64.2670133,58.3592138 52.8467682,44.5942466 50.1282214,33.4098438 C46.0435511,16.6102425 50.977645,-1.02312478 33.7543105,0.477066793 C15.1981248,2.0937116 3.75439334,20.8681248 1.42728598,31.7511192" id="path-6"></path>
        <path d="M8.53551453,1.8002053 C7.27507959,-2.7835503 -4.35654277,10.8962788 5.83360393,24.1572678 C12.0565121,32.2551708 25.4134037,31.3822609 27.138673,27.9767379 C28.8649208,24.571215 28.0399622,17.7484259 24.3809822,18.1134431 C20.7229809,18.479439 11.2315535,19.5558974 9.71081138,14.2655936 C8.19006924,8.97528987 9.34970852,4.76046592 8.53551453,1.8002053" id="path-8"></path>
        <path d="M41.0522353,0.24528 C56.2804706,-0.548053333 84.128,5.45141333 85.4258824,29.9635467 C86.7247059,54.4766133 60.5628235,70.75488 44.832,71.5743467 C29.0992941,72.3938133 2.14776471,59.5231467 0.920470588,36.3671467 C-0.305882353,13.2111467 26.3068235,1.01341333 41.0522353,0.24528" id="path-10"></path>
        <path d="M2.04080581,0.223004162 C-1.21755791,2.14602697 2.83809207,10.7445954 11.4948571,14.1742074 C20.1516221,17.6038195 29.0469489,13.6978041 28.9730737,11.0029508 C28.8841133,7.75781761 21.5201927,10.8606177 13.9423971,7.95819531 C6.36460153,5.05577291 3.99214359,-0.928637393 2.04080581,0.223004162 Z" id="path-12"></path>
    </defs>
    <g id="Symbols" stroke="none" stroke-width="1" fill="none" fill-rule="evenodd">
        <g id="Animal/Zearned/Pig">
            <g id="Planets/Earth1" transform="translate(0.000000, 135.000000)">
                <circle id="Moon-Shadow" fill="url(#radialGradient-1)" cx="75" cy="75" r="75"></circle>
                <g id="Planet-2" transform="translate(5.000000, 5.000000)">
                    <mask id="mask-3" fill="white">
                        <use xlink:href="#path-2"></use>
                    </mask>
                    <use id="Mask" fill="#1CC7E6" xlink:href="#path-2"></use>
                    <path d="M143.0455,147.6202 C136.8335,129.0652 41.3585,137.4792 54.0465,114.5562 C57.9355,107.5312 -3.7795,80.4092 -3.2585,91.6622 C-2.7075,103.5392 5.3505,143.0972 28.6475,153.1202 C51.9435,163.1442 93.1645,160.6622 100.5305,163.6692 C113.0725,168.7882 145.3755,154.5782 143.0455,147.6202" id="Fill-3" fill="#FAD232" mask="url(#mask-3)"></path>
                    <path d="M90.8115015,16.5726118 C97.1043069,30.4027598 11.4874525,-20.1092265 9.08539877,-14.5742546 C6.68334503,-9.0392827 -6,5 15.9960937,16.5726118 C23.4671555,20.503296 103.209179,39.3067637 101.599168,28.5733549 C98.9022514,10.5939107 138.906515,48.8002295 130.366279,33.9671881 C107.898997,12.3918551 84.518696,2.74246379 90.8115015,16.5726118 Z" id="Fill-6" fill="#FAD232" mask="url(#mask-3)"></path>
                    <path d="M130.5,136 C165.863,141.6477 149.536917,146.314404 183.406546,172.999566 C198.649726,185.009343 192.906546,220.999566 207.406546,228.499566 C221.906546,235.999566 206.928188,241.473168 207.406546,242.499566 C213.686605,255.974487 254.884766,227.754723 249.906546,186.999566 C239.279546,99.9995658 193.343,158.632566 194,130.499566 C194.655,102.367566 141.5,122.5 103,115 C54,109.5 95.137,130.3523 130.5,136 Z" id="Fill-12" fill="#FAD232" mask="url(#mask-3)"></path>
                    <path d="M140.8243,71.1671 C140.8243,110.3921 109.0253,142.1911 69.7983,142.1911 C45.8283,142.1911 24.6313,130.3161 11.7693,112.1291 C16.5143,112.4781 21.7313,114.1981 27.6693,115.9171 C42.7163,120.2791 62.3913,124.6391 90.7783,106.6631 C138.6513,76.3391 117.2253,49.4251 137.0863,48.3691 C139.5113,55.5251 140.8243,63.1921 140.8243,71.1671" id="Fill-9" fill-opacity="0.25" fill="#136FCB" mask="url(#mask-3)"></path>
                    <ellipse id="Shadow" fill-opacity="0.25" fill="#000000" mask="url(#mask-3)" cx="71.3171397" cy="10.1711662" rx="44.6412123" ry="17.7434318"></ellipse>
                </g>
            </g>
            <g id="Pig" transform="translate(28.809410, 0.000000)">
                <path d="M65.3812824,92.1167968 C61.4473162,89.44718 61.4766742,107.403485 77.8349276,110.879467 C87.8244616,113.002047 97.4205989,103.670131 96.5232241,99.9592856 C95.6258492,96.2474613 90.5704091,91.592268 88.0240957,94.2442701 C85.4777822,96.8962721 78.9564015,103.875637 74.3657957,100.837089 C69.7751899,97.7995186 67.9217242,93.8410875 65.3812824,92.1167968" id="Arm-L" fill="#99DCFF" transform="translate(79.903687, 101.518466) rotate(4.000000) translate(-79.903687, -101.518466) "></path>
                <path d="M22.426535,113.366666 C25.5609861,122.459804 -0.0440449203,102.995479 6.88443281,88.7245762 C13.8129105,74.452695 16.588216,73.246083 18.7362398,72.8292 C20.8842637,72.412317 33.0658584,69.2719943 38.2954891,74.3313488 C43.5241411,79.3897247 20.1327,106.712196 22.426535,113.366666" id="Backpack" fill="#CFDEE6" transform="translate(22.374805, 93.591411) rotate(4.000000) translate(-22.374805, -93.591411) "></path>
                <path d="M29.4496588,123.817777 C28.7078811,130.262827 19.9504027,147.606529 16.9226188,150.197858 C12.3202698,154.136717 16.0673237,160.030816 23.686692,160.037667 C31.1259981,160.045495 37.2608325,147.628058 36.5435197,133.97563 C35.6706098,117.360005 29.8039115,120.741063 29.4496588,123.817777" id="Leg-R" fill="#99DCFF" transform="translate(25.757310, 140.658038) rotate(4.000000) translate(-25.757310, -140.658038) "></path>
                <g id="Leg-L" transform="translate(68.074647, 136.162733) rotate(4.000000) translate(-68.074647, -136.162733) translate(59.074647, 115.162733)">
                    <mask id="mask-5" fill="white">
                        <use xlink:href="#path-4"></use>
                    </mask>
                    <use id="Mask" fill="#99DCFF" xlink:href="#path-4"></use>
                    <path d="M-15.4831905,10.4347963 C-15.41371,2.60600794 1.64717708,0.63413186 4.04865792,-6.53312392 C6.45013876,-13.6994011 23.2057031,-10.5032982 21.4696693,-0.293579565 C19.7336355,9.9171177 21.1574964,29.8932499 1.79592406,26.2372057 C-17.5646697,22.5801829 -15.5145057,14.0282102 -15.4831905,10.4347963" id="Fill-22" fill="#65C6FD" mask="url(#mask-5)"></path>
                </g>
                <g id="Body" transform="translate(45.818194, 102.568132) rotate(4.000000) translate(-45.818194, -102.568132) translate(18.305536, 70.470031)">
                    <mask id="mask-7" fill="white">
                        <use xlink:href="#path-6"></use>
                    </mask>
                    <use id="Mask" fill="#FFFFFF" xlink:href="#path-6"></use>
                    <path d="M35.5824304,5.90251501 C36.1793755,16.964593 35.1459755,21.0238198 39.0339475,31.303019 C42.9669351,41.7016072 46.535884,51.1470404 44.0365433,58.3133175 C41.5372026,65.4786161 37.1755889,67.3986265 39.6896085,68.4936783 C54.1660169,74.8017245 60.9614052,63.3315709 63.6143859,54.6592306 C66.2683452,45.9868902 55.7542823,32.1847363 56.4334297,17.0076514 C57.1125771,1.82958785 50.701778,-6.5716807 45.4564898,-3.15930756 C40.2121802,0.254044184 37.3488008,-4.54402451 35.31038,-1.93116638" id="Fill-27" fill="#E4E4E4" mask="url(#mask-7)"></path>
                </g>
                <g id="Panel" transform="translate(33.049286, 73.762681)">
                    <path d="M1.45076062,8.28979841 C4.05383276,14.2445706 6.54925906,20.5457666 6.77140094,22.8425374 C6.9945214,25.1402868 28.9337223,20.6172043 31.4898217,19.2755457 C34.0468997,17.9338871 31.3753257,11.1247984 30.0865114,6.82385778 C28.7986757,2.52291716 7.77446445,-0.142785293 4.04796117,3.33808975 C0.320479295,6.81896479 0.864580089,6.9481398 1.45076062,8.28979841" id="Fill-30" fill="#DFEAEF" transform="translate(16.794682, 12.609844) rotate(4.000000) translate(-16.794682, -12.609844) "></path>
                    <path d="M6.17875822,8.69753313 C8.34048242,13.6433702 10.4131541,18.8769152 10.5981093,20.7842038 C10.7830644,22.692471 29.0035908,18.9356312 31.1271497,17.8210074 C33.2507085,16.7073623 31.0322256,11.0520412 29.9616388,7.48015653 C28.8920306,3.90827182 11.4308966,1.6946819 8.33558943,4.58546202 C5.24028221,7.47624214 5.69141615,7.58290938 6.17875822,8.69753313" id="Fill-32" fill="#B8C5CC" transform="translate(18.922265, 12.285772) rotate(4.000000) translate(-18.922265, -12.285772) "></path>
                    <path d="M16.1602143,16.227022 C16.4469437,17.845624 15.5818626,19.3526658 14.2274822,19.593401 C12.8721232,19.8331577 11.5412291,18.7155981 11.2544998,17.0969961 C10.9667918,15.4783941 11.8328515,13.9713524 13.1872319,13.7315957 C14.5416123,13.4908605 15.8734849,14.60842 16.1602143,16.227022" id="Fill-34" fill="#F15B5C" transform="translate(13.707213, 16.662376) rotate(4.000000) translate(-13.707213, -16.662376) "></path>
                    <polygon id="Fill-36" fill="#F15B5C" transform="translate(14.140815, 16.636314) rotate(4.000000) translate(-14.140815, -16.636314) " points="13.1901062 13.7616809 14.0522515 13.6491421 15.0915231 19.5109474 14.2303564 19.6234862"></polygon>
                    <path d="M17.0277125,16.1749679 C17.3144419,17.7935699 16.4493607,19.3006116 15.0949803,19.5413469 C13.7396213,19.7811035 12.4087273,18.663544 12.1219979,17.044942 C11.83429,15.42634 12.7003497,13.9192982 14.0547301,13.6795416 C15.4091105,13.4388063 16.7409831,14.5563659 17.0277125,16.1749679" id="Fill-38" fill="#F69799" transform="translate(14.574711, 16.610322) rotate(4.000000) translate(-14.574711, -16.610322) "></path>
                    <path d="M29.3964895,16.213953 C29.5031568,16.8138339 29.1821765,17.3726137 28.6801554,17.4616661 C28.1781343,17.5507186 27.6839421,17.1367714 27.5782534,16.5368905 C27.4715862,15.9370096 27.7925665,15.3782298 28.2945876,15.2891773 C28.7966086,15.2001249 29.2898223,15.6140721 29.3964895,16.213953" id="Fill-40" fill="#F15B5C" transform="translate(28.487371, 16.375422) rotate(4.000000) translate(-28.487371, -16.375422) "></path>
                    <polygon id="Fill-42" fill="#F15B5C" transform="translate(28.804700, 16.376226) rotate(4.000000) translate(-28.804700, -16.376226) " points="28.2952066 15.3110215 28.6142297 15.2689417 28.9997976 17.4424091 28.6807744 17.4835102"></polygon>
                    <path d="M29.7180341,16.1946475 C29.8247013,16.7945284 29.503721,17.3533081 29.0016999,17.4423606 C28.4996789,17.5314131 28.0054866,17.1174659 27.899798,16.517585 C27.7931307,15.9177041 28.114111,15.3589243 28.6161321,15.2698718 C29.1181531,15.1808194 29.6113668,15.5947665 29.7180341,16.1946475" id="Fill-44" fill="#F69799" transform="translate(28.808916, 16.356116) rotate(4.000000) translate(-28.808916, -16.356116) "></path>
                    <path d="M26.5503811,16.8293501 C26.6570484,17.429231 26.3360681,17.9880108 25.834047,18.0770632 C25.3320259,18.1661157 24.8378337,17.7521685 24.732145,17.1522876 C24.6254778,16.5524067 24.9464581,15.9936269 25.4484792,15.9045744 C25.9505002,15.815522 26.4437139,16.2294692 26.5503811,16.8293501" id="Fill-46" fill="#F15B5C" transform="translate(25.641263, 16.990819) rotate(4.000000) translate(-25.641263, -16.990819) "></path>
                    <polygon id="Fill-48" fill="#F15B5C" transform="translate(25.958494, 16.991616) rotate(4.000000) translate(-25.958494, -16.991616) " points="25.4490006 15.9264117 25.7680237 15.884332 26.1535915 18.0577994 25.8345684 18.0989005"></polygon>
                    <path d="M26.8719325,16.8099469 C26.9785997,17.4098279 26.6576194,17.9686076 26.1555983,18.0576601 C25.6535773,18.1467126 25.159385,17.7327654 25.0536964,17.1328845 C24.9470291,16.5330036 25.2680095,15.9742238 25.7700305,15.8851713 C26.2720516,15.7961188 26.7652652,16.210066 26.8719325,16.8099469" id="Fill-50" fill="#F69799" transform="translate(25.962814, 16.971416) rotate(4.000000) translate(-25.962814, -16.971416) "></path>
                </g>
                <g id="Arm-R" transform="translate(25.165694, 88.006808)">
                    <mask id="mask-9" fill="white">
                        <use xlink:href="#path-8"></use>
                    </mask>
                    <use id="Mask" fill="#99DCFF" transform="translate(14.844596, 15.674856) rotate(4.000000) translate(-14.844596, -15.674856) " xlink:href="#path-8"></use>
                    <polygon id="Fill-55" fill="#FAF077" mask="url(#mask-9)" transform="translate(3.361317, 8.703529) rotate(4.000000) translate(-3.361317, -8.703529) " points="1.30381391 6.92932958 6.24867238 6.13764336 5.84744698 10.533508 0.47396234 11.2694142"></polygon>
                </g>
                <g id="Animal/Head/Pig" transform="translate(51.977604, 46.465529) rotate(-5.000000) translate(-51.977604, -46.465529) translate(3.824142, 4.496094)">
                    <path d="M51.2837176,2.41884903 C75.8791672,4.97881263 96.7156925,18.6461345 94.7889406,36.8431378 C92.8623359,55.0392193 86.6177347,85.0627957 45.8506931,80.8189885 C5.08365143,76.5751813 -0.255869526,54.6335186 2.41954047,29.350616 C4.56919896,9.05394197 32.3731926,0.450341052 51.2837176,2.41884903 Z" id="Helmet" fill="#FFFFFF"></path>
                    <g id="Head" stroke-width="1" transform="translate(47.554566, 41.884915) rotate(9.000000) translate(-47.554566, -41.884915) translate(4.731036, 5.951582)">
                        <mask id="mask-11" fill="white">
                            <use xlink:href="#path-10"></use>
                        </mask>
                        <use id="Mask" fill="#C7E7F8" xlink:href="#path-10"></use>
                        <path d="M70.7710118,54.6648667 C71.0204235,62.1016667 67.0458353,65.9852667 55.0797176,76.2920667 C43.1145412,86.5988667 17.8496,81.6307333 21.8176,75.6340667 C25.7865412,69.6374 28.6100706,59.9727333 40.6251294,56.4494 C52.6392471,52.9242 70.6552471,51.2012667 70.7710118,54.6648667" id="Fill-56" fill="#F28083" mask="url(#mask-11)"></path>
                        <g mask="url(#mask-11)">
                            <g transform="translate(4.417822, -5.130844)">
                                <g id="Ear-L" stroke-width="1" fill="none" fill-rule="evenodd" transform="translate(58.962324, 14.048120) rotate(-7.000000) translate(-58.962324, -14.048120) translate(49.550559, 1.914787)">
                                    <path d="M0.569928853,17.0963282 C0.569928853,17.0963282 2.68774871,5.91874958 14.3428173,0.565646151 C14.3428173,0.565646151 20.6045046,10.924158 17.0912768,22.7691244" id="Fill-14" fill="#F7A2A4" fill-rule="nonzero"></path>
                                    <path d="M1.82509008,19.5012578 C1.82509008,19.5012578 3.4652239,10.8368842 12.5012553,6.687879 C12.5012553,6.687879 17.355769,14.7175341 14.6331939,23.89995" id="Fill-16" fill="#F28083" fill-rule="nonzero"></path>
                                </g>
                                <g id="Ear-R" stroke-width="1" fill="none" fill-rule="evenodd" transform="translate(15.800560, 19.303555) rotate(-7.000000) translate(-15.800560, -19.303555) translate(6.388796, 7.170222)">
                                    <path d="M18.1871309,16.5311487 C18.1871309,16.5311487 16.0693111,5.35357013 4.41424251,0.000466704746 C4.41424251,0.000466704746 -1.84744485,10.3589785 1.66578297,22.2039449" id="Fill-18" fill="#F7A2A4" fill-rule="nonzero"></path>
                                    <path d="M16.9319697,18.9360784 C16.9319697,18.9360784 15.2918359,10.2717047 6.25580453,6.12269956 C6.25580453,6.12269956 1.4012908,14.1523547 4.12386588,23.3347706" id="Fill-20" fill="#F28083" fill-rule="nonzero"></path>
                                </g>
                                <path d="M4.24597883,42.5377643 C4.24597883,24.9009919 20.1555122,10.6058255 39.7806428,10.6058255 C59.4081266,10.6058255 75.3153068,24.9009919 75.3153068,42.5377643 C75.3153068,60.1722031 66.5122356,74.4697029 39.7806428,74.4697029 C11.2418438,74.4697029 4.24597883,60.1722031 4.24597883,42.5377643" id="Face" fill="#F7A2A4" fill-rule="nonzero" transform="translate(39.780643, 42.537764) rotate(-7.000000) translate(-39.780643, -42.537764) "></path>
                                <g id="Mouth" stroke-width="1" fill="none" fill-rule="evenodd" transform="translate(43.424783, 64.286199) rotate(-29.000000) translate(-43.424783, -64.286199) translate(28.836548, 56.352866)">
                                    <mask id="mask-13" fill="white">
                                        <use xlink:href="#path-12"></use>
                                    </mask>
                                    <use id="Mask" fill="#000000" xlink:href="#path-12"></use>
                                    <path d="M12.6740368,9.73270324 C21.4938701,13.3086023 27.3936967,12.6445135 29.4078129,10.3715764 C24.8846461,2.78402109 21.0792531,-1.78981178 17.9916338,-3.34992219 C14.9040146,-4.9100326 9.62519051,-4.60016933 2.15516155,-2.42033238 C0.347911871,2.10579235 3.85420363,6.15680422 12.6740368,9.73270324 Z" id="Oval" fill="#FFFFFF" mask="url(#mask-13)"></path>
                                </g>
                                <g id="Nose" stroke-width="1" fill="none" fill-rule="evenodd" transform="translate(41.286113, 51.277960) rotate(-7.000000) translate(-41.286113, -51.277960) translate(28.109642, 38.211294)">
                                    <path d="M13.2342563,0.596915369 C20.0889332,0.596915369 25.6446806,6.10869841 25.6446806,12.906253 C25.6446806,19.7038076 20.0889332,25.2155907 13.2342563,25.2155907 C6.37957934,25.2155907 0.82147879,19.7038076 0.82147879,12.906253 C0.82147879,6.10869841 6.37957934,0.596915369 13.2342563,0.596915369 Z" id="Fill-24" fill="#F28083" fill-rule="nonzero"></path>
                                    <path d="M6.17579801,12.906253 C6.17579801,12.0381822 6.88409109,11.3357915 7.75945663,11.3357915 C8.63246903,11.3357915 9.34311525,12.0381822 9.34311525,12.906253 C9.34311525,13.7743238 8.63246903,14.4767145 7.75945663,14.4767145 C6.88409109,14.4767145 6.17579801,13.7743238 6.17579801,12.906253" id="Fill-26" fill="#DB6971" fill-rule="nonzero"></path>
                                    <path d="M17.1242207,12.906253 C17.1242207,12.0381822 17.8325138,11.3357915 18.7078794,11.3357915 C19.5808918,11.3357915 20.2915379,12.0381822 20.2915379,12.906253 C20.2915379,13.7743238 19.5808918,14.4767145 18.7078794,14.4767145 C17.8325138,14.4767145 17.1242207,13.7743238 17.1242207,12.906253" id="Fill-28" fill="#DB6971" fill-rule="nonzero"></path>
                                </g>
                                <g id="Eye-R" stroke-width="1" fill="none" fill-rule="evenodd" transform="translate(22.223624, 39.775409) rotate(-7.000000) translate(-22.223624, -39.775409) translate(15.164801, 33.242076)">
                                    <path d="M13.3749736,6.72988242 C13.3749736,10.1788305 10.5559201,12.9767255 7.07563613,12.9767255 C3.59770531,12.9767255 0.776298632,10.1788305 0.776298632,6.72988242 C0.776298632,3.28093436 3.59770531,0.483039411 7.07563613,0.483039411 C10.5559201,0.483039411 13.3749736,3.28093436 13.3749736,6.72988242" id="Fill-30" fill="#FFFFFF" fill-rule="nonzero"></path>
                                    <path d="M7.39394827,10.3037356 C5.33260362,10.3037356 3.65952594,8.64693381 3.65952594,6.60276701 C3.65952594,4.55860023 5.33260362,2.90179839 7.39394827,2.90179839 C9.45529293,2.90179839 11.1260175,4.55860023 11.1260175,6.60276701 C11.1260175,8.64693381 9.45529293,10.3037356 7.39394827,10.3037356 Z" id="Fill-32" fill="#1D1C1A" fill-rule="nonzero"></path>
                                    <path d="M9.62424789,5.21455375 C9.62424789,5.64625565 9.27127792,5.99628421 8.83594828,5.99628421 C8.40297177,5.99628421 8.0500018,5.64625565 8.0500018,5.21455375 C8.0500018,4.78285186 8.40297177,4.4328233 8.83594828,4.4328233 C9.27127792,4.4328233 9.62424789,4.78285186 9.62424789,5.21455375" id="Fill-34" fill="#FFFFFF" fill-rule="nonzero"></path>
                                </g>
                                <g id="Eye-L" stroke-width="1" fill="none" fill-rule="evenodd" transform="translate(57.164100, 35.521010) rotate(-7.000000) translate(-57.164100, -35.521010) translate(50.105276, 28.987676)">
                                    <path d="M13.2653177,6.3728533 C13.2653177,9.82180136 10.4462641,12.6196963 6.96598013,12.6196963 C3.4880493,12.6196963 0.666642627,9.82180136 0.666642627,6.3728533 C0.666642627,2.92390523 3.4880493,0.126010282 6.96598013,0.126010282 C10.4462641,0.126010282 13.2653177,2.92390523 13.2653177,6.3728533" id="Fill-36" fill="#FFFFFF" fill-rule="nonzero"></path>
                                    <path d="M11.0161262,6.24573789 C11.0161262,8.28990467 9.34540162,9.94670652 7.28405696,9.94670652 C5.2227123,9.94670652 3.55198775,8.28990467 3.55198775,6.24573789 C3.55198775,4.2015711 5.2227123,2.54476926 7.28405696,2.54476926 C9.34540162,2.54476926 11.0161262,4.2015711 11.0161262,6.24573789" id="Fill-38" fill="#1D1C1A" fill-rule="nonzero"></path>
                                    <path d="M9.51435658,4.85775798 C9.51435658,5.28945987 9.16138659,5.63948843 8.72605696,5.63948843 C8.29308046,5.63948843 7.94011048,5.28945987 7.94011048,4.85775798 C7.94011048,4.42605608 8.29308046,4.07602752 8.72605696,4.07602752 C9.16138659,4.07602752 9.51435658,4.42605608 9.51435658,4.85775798" id="Fill-40" fill="#FFFFFF" fill-rule="nonzero"></path>
                                </g>
                            </g>
                        </g>
                    </g>
                </g>
            </g>
        </g>
    </g>
</svg>