<?xml version="1.0" encoding="UTF-8"?>
<svg width="70px" height="70px" viewBox="0 0 70 70" version="1.1" xmlns="http://www.w3.org/2000/svg" xmlns:xlink="http://www.w3.org/1999/xlink">
    <!-- Generator: Sketch 44.1 (41455) - http://www.bohemiancoding.com/sketch -->
    <title>Asteroid/R1</title>
    <desc>Created with Sketch.</desc>
    <defs>
        <radialGradient cx="50.8963466%" cy="50%" fx="50.8963466%" fy="50%" r="50%" id="radialGradient-1">
            <stop stop-color="#000000" offset="0%"></stop>
            <stop stop-color="#000000" stop-opacity="0" offset="100%"></stop>
        </radialGradient>
        <path d="M60,29.9996963 C60,46.5683654 46.5686691,60.0003037 30,60.0003037 C13.4313309,60.0003037 0,46.5683654 0,29.9996963 C0,13.4316346 13.4313309,-0.000303711353 30,-0.000303711353 C46.5686691,-0.000303711353 60,13.4316346 60,29.9996963" id="path-2"></path>
    </defs>
    <g id="Symbols" stroke="none" stroke-width="1" fill="none" fill-rule="evenodd">
        <g id="Asteroid/R1">
            <circle id="Moon-Shadow" fill="url(#radialGradient-1)" cx="35" cy="35" r="35"></circle>
            <ellipse id="Crater-Mound" fill="#E0E0E0" transform="translate(53.825623, 57.082772) rotate(141.000000) translate(-53.825623, -57.082772) " cx="53.8256225" cy="57.0827717" rx="6.07589564" ry="3.17816079"></ellipse>
            <g id="Moon" transform="translate(5.000000, 5.000000)">
                <mask id="mask-3" fill="white">
                    <use xlink:href="#path-2"></use>
                </mask>
                <use id="Mask" fill="#FFFFFF" xlink:href="#path-2"></use>
                <path d="M56.2698185,38.7059971 C56.2698185,40.6917388 54.6603815,42.3011758 52.6753393,42.3011758 C50.690297,42.3011758 49.0808601,40.6917388 49.0808601,38.7059971 C49.0808601,36.7209549 50.690297,35.1115179 52.6753393,35.1115179 C54.6603815,35.1115179 56.2698185,36.7209549 56.2698185,38.7059971" id="Fill-4" fill="#E4E4E4" mask="url(#mask-3)"></path>
                <path d="M25.3983549,52.0338281 C25.3983549,53.8901713 23.8931361,55.3960895 22.0360934,55.3960895 C20.1797502,55.3960895 18.6745314,53.8901713 18.6745314,52.0338281 C18.6745314,50.1774848 20.1797502,48.6715666 22.0360934,48.6715666 C23.8931361,48.6715666 25.3983549,50.1774848 25.3983549,52.0338281" id="Fill-6" fill="#E4E4E4" mask="url(#mask-3)"></path>
                <path d="M23.5704793,10.4451648 C23.5704793,13.3905534 21.1825532,15.7784795 18.2371646,15.7784795 C15.291776,15.7784795 12.90385,13.3905534 12.90385,10.4451648 C12.90385,7.49977617 15.291776,5.1118501 18.2371646,5.1118501 C21.1825532,5.1118501 23.5704793,7.49977617 23.5704793,10.4451648" id="Fill-8" fill="#E4E4E4" mask="url(#mask-3)"></path>
                <path d="M8.29292838,40.9224877 C8.29292838,42.4598812 7.04720596,43.7056037 5.50981243,43.7056037 C3.9724189,43.7056037 2.72669648,42.4598812 2.72669648,40.9224877 C2.72669648,39.3857936 3.9724189,38.1393718 5.50981243,38.1393718 C7.04720596,38.1393718 8.29292838,39.3857936 8.29292838,40.9224877" id="Fill-10" fill="#E4E4E4" mask="url(#mask-3)"></path>
                <path d="M13.2847011,33.7859181 C13.2847011,35.1645363 12.1669782,36.2815597 10.7890595,36.2815597 C9.41044141,36.2815597 8.29271854,35.1645363 8.29271854,33.7859181 C8.29271854,32.4073 9.41044141,31.2902766 10.7890595,31.2902766 C12.1669782,31.2902766 13.2847011,32.4073 13.2847011,33.7859181" id="Fill-12" fill="#E4E4E4" mask="url(#mask-3)"></path>
                <path d="M40.0809999,58.0338281 C40.0809999,59.4124462 38.9632771,60.5294696 37.5853584,60.5294696 C36.2060408,60.5294696 35.0890174,59.4124462 35.0890174,58.0338281 C35.0890174,56.65521 36.2060408,55.5381865 37.5853584,55.5381865 C38.9632771,55.5381865 40.0809999,56.65521 40.0809999,58.0338281" id="Fill-14" fill="#E4E4E4" mask="url(#mask-3)"></path>
                <path d="M54.4662139,17.5434744 C54.4662139,18.5185092 53.6765336,19.3081895 52.7014988,19.3081895 C51.7264639,19.3081895 50.9367836,18.5185092 50.9367836,17.5434744 C50.9367836,16.5684395 51.7264639,15.7787592 52.7014988,15.7787592 C53.6765336,15.7787592 54.4662139,16.5684395 54.4662139,17.5434744" id="Fill-16" fill="#E4E4E4" mask="url(#mask-3)"></path>
                <path d="M28.5742826,8.68044964 C28.5742826,9.65548448 27.7839028,10.4451648 26.8095674,10.4451648 C25.8345326,10.4451648 25.0448523,9.65548448 25.0448523,8.68044964 C25.0448523,7.7054148 25.8345326,6.9157345 26.8095674,6.9157345 C27.7839028,6.9157345 28.5742826,7.7054148 28.5742826,8.68044964" id="Fill-18" fill="#E4E4E4" mask="url(#mask-3)"></path>
                <path d="M59.8720703,22.546875 C51.4492188,22.546875 60.3603516,33.0263672 41.671875,44.8632812 C22.9833984,56.7001953 14.1611328,43.2275391 7.25,47.9970703 C0.338867187,52.7666016 2.67285156,55.7265625 7.25,57.7802734 C11.8271484,59.8339844 30.7167969,75.1533203 48.4941406,60.2519531 C66.2714844,45.3505859 68.2949219,22.546875 59.8720703,22.546875 Z" id="Path-2" fill-opacity="0.5" fill="#CCCCCC" mask="url(#mask-3)"></path>
            </g>
            <g id="Moon_craters" transform="translate(50.711989, 11.384339) rotate(31.000000) translate(-50.711989, -11.384339) translate(43.211989, 7.384339)">
                <ellipse id="Oval-4" fill="#FFFFFF" cx="7.5" cy="4" rx="6.85826919" ry="3.58740234"></ellipse>
                <ellipse id="Oval-4" fill="#E4E4E4" cx="7.5" cy="3.20629883" rx="4.60056495" ry="2.2409668"></ellipse>
            </g>
        </g>
    </g>
</svg>