<?xml version="1.0" encoding="UTF-8"?>
<svg width="70px" height="70px" viewBox="0 0 70 70" version="1.1" xmlns="http://www.w3.org/2000/svg" xmlns:xlink="http://www.w3.org/1999/xlink">
    <!-- Generator: Sketch 44.1 (41455) - http://www.bohemiancoding.com/sketch -->
    <title>Asteroid/R4_Continuation</title>
    <desc>Created with Sketch.</desc>
    <defs>
        <path d="M60,29.9996963 C60,46.5683654 46.5686691,60.0003037 30,60.0003037 C13.4313309,60.0003037 0,46.5683654 0,29.9996963 C0,13.4316346 13.4313309,-0.000303711353 30,-0.000303711353 C46.5686691,-0.000303711353 60,13.4316346 60,29.9996963" id="path-1"></path>
    </defs>
    <g id="Symbols" stroke="none" stroke-width="1" fill="none" fill-rule="evenodd">
        <g id="Asteroid/R4_Continuation">
            <ellipse id="Oval-4" fill="#420E6C" transform="translate(50.711989, 11.384339) rotate(31.000000) translate(-50.711989, -11.384339) " cx="50.7119892" cy="11.3843385" rx="6.85826919" ry="3.58740234"></ellipse>
            <g id="Moon" transform="translate(5.000000, 5.000000)">
                <mask id="mask-2" fill="white">
                    <use xlink:href="#path-1"></use>
                </mask>
                <use id="Mask" fill="#420E6C" xlink:href="#path-1"></use>
                <path d="M23.2698185,11.7059971 C23.2698185,13.6917388 21.6603815,15.3011758 19.6753393,15.3011758 C17.690297,15.3011758 16.0808601,13.6917388 16.0808601,11.7059971 C16.0808601,9.72095486 17.690297,8.11151786 19.6753393,8.11151786 C21.6603815,8.11151786 23.2698185,9.72095486 23.2698185,11.7059971" id="Fill-4" fill="#2B0A50" mask="url(#mask-2)"></path>
                <path d="M25.3983549,52.0338281 C25.3983549,53.8901713 23.8931361,55.3960895 22.0360934,55.3960895 C20.1797502,55.3960895 18.6745314,53.8901713 18.6745314,52.0338281 C18.6745314,50.1774848 20.1797502,48.6715666 22.0360934,48.6715666 C23.8931361,48.6715666 25.3983549,50.1774848 25.3983549,52.0338281" id="Fill-6" fill="#2B0A50" mask="url(#mask-2)"></path>
                <path d="M8.29292838,40.9224877 C8.29292838,42.4598812 7.04720596,43.7056037 5.50981243,43.7056037 C3.9724189,43.7056037 2.72669648,42.4598812 2.72669648,40.9224877 C2.72669648,39.3857936 3.9724189,38.1393718 5.50981243,38.1393718 C7.04720596,38.1393718 8.29292838,39.3857936 8.29292838,40.9224877" id="Fill-10" fill="#2B0A50" mask="url(#mask-2)"></path>
                <path d="M13.2847011,33.7859181 C13.2847011,35.1645363 12.1669782,36.2815597 10.7890595,36.2815597 C9.41044141,36.2815597 8.29271854,35.1645363 8.29271854,33.7859181 C8.29271854,32.4073 9.41044141,31.2902766 10.7890595,31.2902766 C12.1669782,31.2902766 13.2847011,32.4073 13.2847011,33.7859181" id="Fill-12" fill="#2B0A50" mask="url(#mask-2)"></path>
                <path d="M49.0809999,52.0338281 C49.0809999,53.4124462 47.9632771,54.5294696 46.5853584,54.5294696 C45.2060408,54.5294696 44.0890174,53.4124462 44.0890174,52.0338281 C44.0890174,50.65521 45.2060408,49.5381865 46.5853584,49.5381865 C47.9632771,49.5381865 49.0809999,50.65521 49.0809999,52.0338281" id="Fill-14" fill="#2B0A50" mask="url(#mask-2)"></path>
                <path d="M54.4662139,17.5434744 C54.4662139,18.5185092 53.6765336,19.3081895 52.7014988,19.3081895 C51.7264639,19.3081895 50.9367836,18.5185092 50.9367836,17.5434744 C50.9367836,16.5684395 51.7264639,15.7787592 52.7014988,15.7787592 C53.6765336,15.7787592 54.4662139,16.5684395 54.4662139,17.5434744" id="Fill-16" fill="#2B0A50" mask="url(#mask-2)"></path>
                <path d="M28.5742826,8.68044964 C28.5742826,9.65548448 27.7839028,10.4451648 26.8095674,10.4451648 C25.8345326,10.4451648 25.0448523,9.65548448 25.0448523,8.68044964 C25.0448523,7.7054148 25.8345326,6.9157345 26.8095674,6.9157345 C27.7839028,6.9157345 28.5742826,7.7054148 28.5742826,8.68044964" id="Fill-18" fill="#2B0A50" mask="url(#mask-2)"></path>
                <path d="M59.8720703,22.546875 C51.4492188,22.546875 60.3603516,33.0263672 41.671875,44.8632812 C22.9833984,56.7001953 14.1611328,43.2275391 7.25,47.9970703 C0.338867188,52.7666016 2.67285156,55.7265625 7.25,57.7802734 C11.8271484,59.8339844 30.7167969,75.1533203 48.4941406,60.2519531 C66.2714844,45.3505859 68.2949219,22.546875 59.8720703,22.546875 Z" id="Path-2" fill-opacity="0.25" fill="#2B004D" mask="url(#mask-2)"></path>
            </g>
            <g id="Moon_craters" transform="translate(40.711989, 62.384339) rotate(168.000000) translate(-40.711989, -62.384339) translate(33.211989, 58.384339)">
                <ellipse id="Oval-4" fill="#420E6C" cx="7.5" cy="4" rx="6.85826919" ry="3.58740234"></ellipse>
                <ellipse id="Oval-4" fill="#2B0A50" cx="7.5" cy="3.20629883" rx="4.60056495" ry="2.2409668"></ellipse>
            </g>
        </g>
    </g>
</svg>