<?xml version="1.0" encoding="UTF-8"?>
<svg width="150px" height="285px" viewBox="0 0 150 285" version="1.1" xmlns="http://www.w3.org/2000/svg" xmlns:xlink="http://www.w3.org/1999/xlink">
    <!-- Generator: Sketch 45.2 (43514) - http://www.bohemiancoding.com/sketch -->
    <title>Animal/Zearned/Rabbit</title>
    <desc>Created with Sketch.</desc>
    <defs>
        <radialGradient cx="50.8963466%" cy="50%" fx="50.8963466%" fy="50%" r="50%" id="radialGradient-1">
            <stop stop-color="#000000" offset="0%"></stop>
            <stop stop-color="#000000" stop-opacity="0" offset="100%"></stop>
        </radialGradient>
        <path d="M140,70 C140,108.659617 108.65953,140 69.9993363,140 C31.3391426,140 0,108.659617 0,70 C0,31.3403826 31.3391426,0 69.9993363,0 C108.65953,0 140,31.3403826 140,70 Z" id="path-2"></path>
        <path d="M1.89150609,3.73755739 C3.89738232,9.89985941 3.15739777,29.2929289 1.48485672,32.9058521 C-1.05767938,38.3975737 4.79572553,42.1923162 11.7195176,39.0300308 C18.4790859,35.9430146 18.8876903,22.1149809 12.5582319,10.013252 C4.85633192,-4.7141024 0.933534015,0.795214577 1.89150609,3.73755739" id="path-4"></path>
        <path d="M5.25701841,24.7122583 C-2.29336561,40.2470463 -4.50452157,64.3302689 26.6471664,61.4817682 C51.6238445,59.1972981 49.3276441,47.2050517 49.36479,35.7074317 C49.4214863,18.4375412 43.7968216,3.56746847 26.7341659,0.904697101 C8.35087721,-1.96530904 10.1162829,14.7131803 5.25701841,24.7122583" id="path-6"></path>
        <path d="M22.5819434,3.09874642 C25.9201829,-0.278593921 8.63660705,-3.36854264 1.88583646,11.9120895 C-2.13569122,21.0128243 7.98753209,31.2738783 9.20650268,32.2562884 C10.8164823,33.5524833 18.5086071,27.9336838 16.3668552,24.9493075 C14.2260809,21.9659087 8.56036029,14.2884468 12.3805183,10.3333907 C16.2006764,6.3783345 20.4255287,5.27959918 22.5819434,3.09874642" id="path-8"></path>
        <path d="M43.618,0.2628 C59.798,-0.5872 89.386,5.8408 90.765,32.1038 C92.145,58.3678 64.348,75.8088 47.634,76.6868 C30.918,77.5648 2.282,63.7748 0.978,38.9648 C-0.325,14.1548 27.951,1.0858 43.618,0.2628" id="path-10"></path>
        <path d="M2.16835617,0.23893303 C-2.30173087,2.7129184 4.56841314,13.3295681 10.9315729,15.7843233 C17.2947326,18.2390784 31.4600557,15.9579314 30.7838908,11.7888759 C30.2220417,8.32466187 22.8652048,11.6363761 14.813797,8.52663783 C6.76238912,5.41689955 4.3226385,-0.953362089 2.16835617,0.23893303 Z" id="path-12"></path>
        <path d="M5.63657638,3.37910928 C5.43757638,3.80110928 5.62057638,4.30510928 6.04157638,4.50210928 C6.46457638,4.70110928 6.96657638,4.51910928 7.16557638,4.09610928 C7.36357638,3.67310928 7.18257638,3.17110928 6.75957638,2.97310928 C6.64357638,2.91810928 6.52157638,2.89210928 6.40157638,2.89210928 C6.08457638,2.89210928 5.77957638,3.07210928 5.63657638,3.37910928 Z" id="path-14"></path>
    </defs>
    <g id="Symbols" stroke="none" stroke-width="1" fill="none" fill-rule="evenodd">
        <g id="Animal/Zearned/Rabbit">
            <circle id="Moon-Shadow" fill="url(#radialGradient-1)" cx="75" cy="210" r="75"></circle>
            <g id="Planet-2" transform="translate(5.000000, 140.000000)">
                <mask id="mask-3" fill="white">
                    <use xlink:href="#path-2"></use>
                </mask>
                <use id="Mask" fill="#1CC7E6" xlink:href="#path-2"></use>
                <path d="M0.690579439,89.6053645 C50.0098318,69.7292897 7.56104673,2.49919626 108.681607,11.706486 C116.063664,12.3777009 94.8831028,-7.55856075 79.7042243,0.697514019 C79.7042243,0.697514019 6.47899065,32.8831215 -21.430729,29.2902243 C-92.3282991,20.1614393 -8.77315888,93.4193832 0.690579439,89.6053645 Z" id="Fill-3" fill="#FAD232" mask="url(#mask-3)"></path>
                <path d="M116.961234,92.8886916 C120.552822,80.7178505 149.292075,74.9438318 148.699364,70.8733645 C147.786093,64.5969159 86.6034766,84.6326168 93.502729,95.6415888 C100.247589,106.398037 16.3731963,149.414673 20.3690841,154.807944 C24.364972,160.199907 97.6425421,95.6415888 100.40329,110.775981 C101.173944,115.008692 110.061981,116.280467 116.961234,92.8886916" id="Fill-6" fill="#FAD232" mask="url(#mask-3)"></path>
                <path d="M165.602336,58.7908411 C146.42757,54.8930841 105.976729,141.783364 92.4686916,119.333645 C88.3288785,112.454019 33.9827103,152.339626 43.9894393,157.514393 C54.5509346,162.977009 92.8376636,175.777196 113.166449,160.61271 C133.495234,145.449533 151.956916,108.510467 158.243832,103.634019 C168.947944,95.3321495 172.793364,60.2523364 165.602336,58.7908411" id="Fill-9" fill="#FAD232" mask="url(#mask-3)"></path>
                <path d="M140.724729,71.1517944 C140.724729,110.376654 108.925103,142.17628 69.6989346,142.17628 C45.7288411,142.17628 24.531271,130.30114 11.6695888,112.114224 C16.4151963,112.462262 21.6318318,114.182822 27.5694019,115.902075 C42.6161308,120.264318 62.2920187,124.623944 90.678,106.647682 C138.551458,76.3239439 117.126224,49.4099252 136.986598,48.3540374 C139.411084,55.5097383 140.724729,63.177028 140.724729,71.1517944" id="Fill-12" fill-opacity="0.25" fill="#136FCB" mask="url(#mask-3)"></path>
                <ellipse id="Shadow" fill-opacity="0.25" fill="#000000" mask="url(#mask-3)" cx="70.7195724" cy="18.8278764" rx="36.4784017" ry="16.2731889"></ellipse>
            </g>
            <g id="Rabbit" transform="translate(19.518072, -2.200195)">
                <path d="M71.9285071,124.247239 C65.3331626,131.233593 38.2391707,133.926667 29.4444005,120.337149 C20.8334045,107.033067 35.4024003,84.0270747 37.5148265,83.4679318 C39.6282302,82.9078114 62.6293353,81.7856155 68.1816633,86.4757686 C73.7330137,91.1659217 76.7711537,119.117201 71.9285071,124.247239" id="Backpack" fill="#CFDEE6"></path>
                <path d="M52.4416933,128.89487 C50.3810758,135.039577 50.9499939,154.438511 52.5902767,158.06512 C55.0839366,163.579324 49.1963185,167.322258 42.3018521,164.099366 C35.5686769,160.951744 35.2832403,147.120778 41.7192486,135.075745 C49.5521367,120.417795 53.4250809,125.961325 52.4416933,128.89487" id="Leg-R" fill="#99DCFF"></path>
                <g id="Leg-L" transform="translate(60.786217, 125.437568)">
                    <mask id="mask-5" fill="white">
                        <use xlink:href="#path-4"></use>
                    </mask>
                    <use id="Mask" fill="#99DCFF" xlink:href="#path-4"></use>
                    <path d="M-17.3480923,11.4550978 C-17.9160329,3.6554455 -1.09091514,0.302543223 0.716524014,-7.02789822 C2.52396317,-14.3583397 19.4644286,-12.5401478 18.5680404,-2.23412774 C17.6706748,8.07286981 20.7146799,27.845218 1.14174631,25.7806904 C-18.4321648,23.7161628 -17.0870938,15.0357628 -17.3480923,11.4550978" id="Fill-22" fill="#65C6FD" mask="url(#mask-5)"></path>
                </g>
                <path d="M77.4542576,96.4368376 C74.7963738,92.5013319 92.3526784,92.6538254 96.1689264,108.917845 C98.4416663,118.604116 86.5989808,126.82117 85.2196965,127.561155 C83.3975945,128.538677 76.8755642,121.59729 79.5305154,119.059641 C82.1844891,116.521993 89.1708426,110.022446 86.1454104,105.430045 C83.1209557,100.837644 79.1707871,98.9783961 77.4542576,96.4368376" id="Arm-L" fill="#99DCFF"></path>
                <g id="Body" transform="translate(33.415586, 79.494009)">
                    <mask id="mask-7" fill="white">
                        <use xlink:href="#path-6"></use>
                    </mask>
                    <use id="Mask" fill="#FFFFFF" xlink:href="#path-6"></use>
                    <path d="M36.0962902,5.20648049 C34.0298075,16.0784861 32.0561896,19.7676561 33.3690023,30.6670323 C34.6964779,41.6925089 35.8988306,51.7062497 31.7619553,58.0581911 C27.6241024,64.4101325 22.9349268,65.2292963 25.110892,66.8930397 C37.6427308,76.4727605 46.9761159,66.9741741 51.623258,59.1970048 C56.2704001,51.4208131 49.3749562,35.5204316 53.6633475,20.9631661 C57.9507613,6.40590064 53.7435044,-3.27646001 47.8402458,-1.22073013 C41.9369873,0.835977267 40.3074572,-4.50325079 37.7062698,-2.45631861" id="Fill-27" fill="#E4E4E4" mask="url(#mask-7)"></path>
                </g>
                <g id="Panel" transform="translate(48.000000, 84.000000)">
                    <path d="M0.302569606,4.97617348 C-0.176416433,12.6946914 0.240985687,17.5588435 1.98293083,20.3633556 C3.19896886,22.3213332 24.0084685,23.5041355 26.8090705,22.8140046 C29.6096725,22.1248512 28.6468129,14.8814093 28.4258928,10.402401 C28.2049727,5.92339281 8.45217493,-1.68955264 4.00542495,0.795309624 C-0.441325039,3.28017189 0.393479201,3.51673234 0.302569606,4.97617348" id="Fill-30" fill="#DFEAEF"></path>
                    <path d="M2.84393268,6.35242745 C2.01303853,11.8832499 3.14403209,17.4082073 4.23885733,19.1315795 C5.2662335,20.7474242 22.5322139,21.7405871 24.8587176,21.1677589 C27.1842436,20.5949307 26.3846302,14.5792571 26.200856,10.8588063 C26.0180593,7.13933309 9.61229867,0.816717367 5.91921855,2.88026743 C2.22613844,4.94381748 3.02477434,5.15105226 2.84393268,6.35242745" id="Fill-32" fill="#B8C5CC"></path>
                    <path d="M10.3488619,16.4605969 C10.2403569,18.0989247 8.91092625,19.3452659 7.38012597,19.2436036 C5.84932569,19.1419412 4.69682663,17.7313762 4.80533163,16.0930484 C4.91383663,14.4547207 6.24326727,13.2083795 7.77406755,13.3100418 C9.30486783,13.4117041 10.4573669,14.8222692 10.3488619,16.4605969" id="Fill-34" fill="#F69799"></path>
                    <path d="M10.3488619,16.4605969 C10.2403569,18.0989247 8.91092625,19.3452659 7.38012597,19.2436036 C5.84932569,19.1419412 4.69682663,17.7313762 4.80533163,16.0930484 C4.91383663,14.4547207 6.24326727,13.2083795 7.77406755,13.3100418 C9.30486783,13.4117041 10.4573669,14.8222692 10.3488619,16.4605969 Z" id="Stroke-36" stroke="#F15B5C" stroke-width="0.25"></path>
                    <path d="M24.2999657,18.6364643 C24.2598873,19.2435058 23.7672159,19.705874 23.1992753,19.6677506 C22.6323122,19.6306047 22.2051349,19.1076302 22.2452133,18.5005887 C22.2852917,17.8925697 22.7779631,17.431179 23.3449262,17.4683249 C23.9128668,17.5064483 24.3400441,18.0294228 24.2999657,18.6364643" id="Fill-38" fill="#F69799"></path>
                    <path d="M24.2999657,18.6364643 C24.2598873,19.2435058 23.7672159,19.705874 23.1992753,19.6677506 C22.6323122,19.6306047 22.2051349,19.1076302 22.2452133,18.5005887 C22.2852917,17.8925697 22.7779631,17.431179 23.3449262,17.4683249 C23.9128668,17.5064483 24.3400441,18.0294228 24.2999657,18.6364643 Z" id="Stroke-40" stroke="#F15B5C" stroke-width="0.25"></path>
                    <path d="M21.0582077,18.7334345 C21.0181293,19.340476 20.5254579,19.8028442 19.9575173,19.7647208 C19.3905543,19.727575 18.9633769,19.2046004 19.0034554,18.5975589 C19.0435338,17.9895399 19.5362051,17.5281493 20.1031682,17.5652951 C20.6711088,17.6034185 21.0982861,18.1263931 21.0582077,18.7334345" id="Fill-42" fill="#F69799"></path>
                    <path d="M21.0582077,18.7334345 C21.0181293,19.340476 20.5254579,19.8028442 19.9575173,19.7647208 C19.3905543,19.727575 18.9633769,19.2046004 19.0034554,18.5975589 C19.0435338,17.9895399 19.5362051,17.5281493 20.1031682,17.5652951 C20.6711088,17.6034185 21.0982861,18.1263931 21.0582077,18.7334345 Z" id="Stroke-44" stroke="#F15B5C" stroke-width="0.25"></path>
                </g>
                <g id="Arm-R" transform="translate(21.685315, 96.111892)">
                    <mask id="mask-9" fill="white">
                        <use xlink:href="#path-8"></use>
                    </mask>
                    <use id="Mask" fill="#99DCFF" xlink:href="#path-8"></use>
                    <polygon id="Fill-49" fill="#FAF077" mask="url(#mask-9)" points="13.5991957 -0.590228103 16.7507283 3.29444643 12.7458185 5.14000896 9.42908456 0.85650524"></polygon>
                </g>
                <g id="Animal/Head/Rabbit" transform="translate(58.481928, 54.000000) rotate(-10.000000) translate(-58.481928, -54.000000) translate(7.481928, 9.000000)">
                    <path d="M54.48895,2.59162396 C80.6216152,5.3344421 102.760423,19.9780012 100.713249,39.4747905 C98.6662319,58.9705921 92.0313431,91.1387097 48.7163614,86.5917734 C5.40137964,82.0448371 -0.271861371,58.5359128 2.57076175,31.4470886 C4.85477389,9.70065211 34.3965172,0.482508271 54.48895,2.59162396 Z" id="Helmet" fill="#FFFFFF"></path>
                    <g id="Head" stroke-width="1" transform="translate(50.526726, 44.876695) rotate(9.000000) translate(-50.526726, -44.876695) translate(5.026726, 6.376695)">
                        <mask id="mask-11" fill="white">
                            <use xlink:href="#path-10"></use>
                        </mask>
                        <use id="Mask" fill="#C7E7F8" xlink:href="#path-10"></use>
                        <g mask="url(#mask-11)">
                            <g transform="translate(-6.988640, -18.639380)">
                                <g id="R-ear" stroke-width="1" fill="none" transform="translate(39.986747, 54.930268) rotate(-32.000000) translate(-39.986747, -54.930268) translate(27.486747, 21.930268)">
                                    <path d="M6.95845255,0.433528036 C-1.19254745,17.874528 0.835,65.583 0.835,65.583 L12.313,63.751 C12.313,63.751 14.693,58.269 19.06,38.138 C21.786,25.582 25.4384623,8.77599029 23.7274623,0.477990293 C22.0754623,0.332990293 10.2154526,-0.229471964 6.95845255,0.433528036 Z" id="Clip-50" fill="#B48E6F"></path>
                                    <path d="M12.934,6.85 C2.829,10.288 3.798,55.429 3.798,55.429 L11.877,54.137 C11.877,54.137 13.55,50.278 16.628,36.108 C19.449,23.104 22.495,6.431 15.165,6.432 C14.507,6.432 13.766,6.567 12.934,6.85 Z" id="Clip-53" fill="#ECA5AB"></path>
                                </g>
                                <g id="L-ear" stroke-width="1" fill="none" transform="translate(67.282021, 51.434839) rotate(-32.000000) translate(-67.282021, -51.434839) translate(41.782021, 21.934839)">
                                    <path d="M15.622,27.156 C2.93,43.381 0.232,48.712 0.232,48.712 L6.157,58.712 C6.157,58.712 45.655,27.304 50.804,10.321 C48.22,6.731 45.125,3.494 41.892,0.697 C34.274,3.978 23.969,16.485 15.622,27.156 Z" id="Clip-56" fill="#B48E6F"></path>
                                    <path d="M18.738,27.729 C9.803,39.151 7.907,42.905 7.907,42.905 L12.076,49.945 C12.076,49.945 47.417,21.843 43.603,11.873 C42.705,9.523 41.344,8.528 39.674,8.528 C34.255,8.527 25.566,19 18.738,27.729 Z" id="Clip-59" fill="#ECA5AB"></path>
                                </g>
                                <path d="M58.9474993,36.1671183 C57.3864993,36.7291183 56.1844993,38.5951183 55.0634993,40.4181183 C43.0484993,37.1021183 30.0364993,42.8091183 24.5614993,54.4731183 C21.8544993,60.2421183 20.9794993,66.9061183 22.4944993,72.6191183 C25.2444993,80.5566183 29.8072435,87.7441183 38.1194993,92.2441183 C46.4317552,96.7441183 55.3964993,96.6446183 58.9474993,96.8066183 C68.2074993,96.2916183 77.6204993,90.3371183 81.8374993,81.3531183 C87.6834993,68.8981183 82.8144993,54.1741183 70.9924993,47.5571183 C72.4534993,45.8851183 72.4154993,43.7491183 69.9204993,43.8121183 C73.0934993,40.4751183 68.4054993,37.3391183 64.8344993,40.8591183 C67.2514993,38.0551183 63.8504993,35.7941183 60.8584993,35.7941183 C60.1754993,35.7941183 59.5144993,35.9121183 58.9474993,36.1671183 Z" id="Head" fill="#C9A589" transform="translate(53.033749, 66.300368) rotate(-32.000000) translate(-53.033749, -66.300368) "></path>
                                <g id="Nose" stroke-width="1" fill="none" transform="translate(56.150171, 71.361753) rotate(-32.000000) translate(-56.150171, -71.361753) translate(49.650171, 61.861753)">
                                    <path d="M5,8.75 L0.5,18.5" id="Line" stroke="#979797" stroke-linecap="square"></path>
                                    <path d="M4.762,9.281 C6.789,10.232 12.378,4.559 12.378,4.559 L3.525,0.404 C3.525,0.404 2.732,8.329 4.762,9.281 Z" id="Clip-83" fill="#FEA5BA"></path>
                                </g>
                                <g id="Mouth" stroke-width="1" fill="none" transform="translate(56.997333, 80.265815) rotate(-32.000000) translate(-56.997333, -80.265815) translate(41.497333, 71.765815)">
                                    <mask id="mask-13" fill="white">
                                        <use xlink:href="#path-12"></use>
                                    </mask>
                                    <use id="Mask" fill="#000000" xlink:href="#path-12"></use>
                                    <path d="M13.4661641,10.4278963 C22.8372369,14.2592167 28.7637826,14.4873857 31.2458012,11.1124033 C26.4399365,2.98287974 22.3967064,-1.91765548 19.116111,-3.58920235 C15.8355155,-5.26074921 10.2267649,-4.92875285 2.28985915,-2.59321327 C0.369656363,2.25620609 4.09509136,6.59657595 13.4661641,10.4278963 Z" id="Oval" fill="#FFFFFF" mask="url(#mask-13)"></path>
                                </g>
                                <g id="L-Eye" stroke-width="1" fill="none" transform="translate(67.175239, 59.755812) rotate(-32.000000) translate(-67.175239, -59.755812) translate(60.175239, 52.255812)">
                                    <path d="M0.727,4.577 C-0.859,7.956 0.594,11.975 3.973,13.561 C7.349,15.145 11.37,13.694 12.955,10.316 C14.54,6.938 13.086,2.918 9.711,1.334 C8.782,0.898 7.805,0.692 6.843,0.692 C4.306,0.692 1.876,2.128 0.727,4.577 Z" id="Clip-95" fill="#FFFFFF"></path>
                                    <g id="Group-2" transform="translate(2.340640, 2.947139)">
                                        <path d="M0.738576377,2.73810928 C-0.200423623,4.73710928 0.660576377,7.12210928 2.66357638,8.06110928 C4.66357638,9.00010928 7.04657638,8.13910928 7.98657638,6.13910928 C8.92457638,4.13910928 8.06257638,1.75610928 6.06257638,0.816109282 C5.51257638,0.558109282 4.93457638,0.436109282 4.36457638,0.436109282 C2.86057638,0.436109282 1.41957638,1.28710928 0.738576377,2.73810928 Z" id="Clip-98" fill="#1D1C1A"></path>
                                        <mask id="mask-15" fill="white">
                                            <use xlink:href="#path-14"></use>
                                        </mask>
                                        <use id="Clip-101" fill="#FFFFFF" xlink:href="#path-14"></use>
                                    </g>
                                </g>
                                <g id="R-eye" stroke-width="1" fill="none" transform="translate(38.342934, 63.622096) rotate(-32.000000) translate(-38.342934, -63.622096) translate(30.842934, 56.122096)">
                                    <path d="M1.533,4.712 C-0.053,8.089 1.402,12.109 4.779,13.694 C8.155,15.279 12.176,13.828 13.761,10.451 C15.346,7.072 13.894,3.053 10.518,1.468 C9.589,1.032 8.612,0.826 7.65,0.826 C5.113,0.826 2.682,2.262 1.533,4.712 Z" id="Clip-86" fill="#FFFFFF"></path>
                                    <g id="Group" transform="translate(3.146979, 3.080959)">
                                        <path d="M0.545576377,2.87210928 C-0.392423623,4.87210928 0.467576377,7.25610928 2.46957638,8.19610928 C4.46957638,9.13310928 6.85357638,8.27310928 7.79257638,6.27310928 C8.73157638,4.27310928 7.87057638,1.88910928 5.86957638,0.951109282 C5.31957638,0.692109282 4.74057638,0.570109282 4.17057638,0.570109282 C2.66657638,0.570109282 1.22557638,1.42210928 0.545576377,2.87210928 Z" id="Clip-89" fill="#1D1C1A"></path>
                                        <path d="M5.44257638,3.51210928 C5.24357638,3.93510928 5.42757638,4.43810928 5.84757638,4.63610928 C6.27057638,4.83410928 6.77257638,4.65310928 6.97157638,4.23010928 C7.17057638,3.80610928 6.98857638,3.30510928 6.56557638,3.10610928 C6.45057638,3.05210928 6.32857638,3.02610928 6.20857638,3.02610928 C5.89057638,3.02610928 5.58657638,3.20510928 5.44257638,3.51210928 Z" id="Clip-92" fill="#FFFFFF"></path>
                                    </g>
                                </g>
                            </g>
                        </g>
                    </g>
                </g>
            </g>
        </g>
    </g>
</svg>