<?xml version="1.0" encoding="UTF-8"?>
<svg width="114px" height="167px" viewBox="0 0 114 167" version="1.1" xmlns="http://www.w3.org/2000/svg" xmlns:xlink="http://www.w3.org/1999/xlink">
    <!-- Generator: Sketch 44.1 (41455) - http://www.bohemiancoding.com/sketch -->
    <title>Animal_Success/Rabbit NoFlag</title>
    <desc>Created with Sketch.</desc>
    <defs>
        <path d="M1.5506,4.2931 C3.6036,10.5971 2.8456,30.4361 1.1346,34.1321 C-1.4664,39.7501 4.5226,43.6311 11.6046,40.3971 C18.5206,37.2391 18.9376,23.0921 12.4626,10.7131 C4.5836,-4.3529 0.5716,1.2831 1.5506,4.2931" id="path-1"></path>
        <path d="M7.0174,0.569 C14.2044,1.44 30.2204,-0.499 36.8954,1.643 C38.7714,2.245 41.1244,3.356 41.1204,4.483 C41.1144,5.77 40.0204,4.95 39.4304,6.544 C39.1344,7.344 40.2724,7.837 40.2194,8.622 C40.1184,10.106 38.6054,10.332 38.3444,11.642 C38.2564,12.078 38.8714,13.633 38.1454,13.864 C36.9614,14.239 33.3684,14.359 31.3324,14.206 C27.1294,13.89 3.0964,8.583 1.0754,4.908 C-0.9476,1.234 4.7824,0.298 7.0174,0.569" id="path-3"></path>
        <path d="M4.994,24.7501 C-2.73,40.6421 -4.992,65.2791 26.876,62.3651 C52.427,60.0281 50.077,47.7601 50.116,35.9981 C50.174,18.3311 44.42,3.1191 26.965,0.3951 C8.159,-2.5409 9.965,14.5211 4.994,24.7501" id="path-5"></path>
        <path d="M43.618,0.2628 C59.798,-0.5872 89.386,5.8408 90.765,32.1038 C92.145,58.3678 64.348,75.8088 47.634,76.6868 C30.918,77.5648 2.282,63.7748 0.978,38.9648 C-0.325,14.1548 27.951,1.0858 43.618,0.2628" id="path-7"></path>
        <path d="M2.83686797,2.2077084 C-2.48736289,4.17343021 2.53325305,14.5698541 17.2309709,18.9085954 C31.9286888,23.2473367 38.9353056,19.9452706 38.827802,15.7587483 C38.6591175,9.13372969 31.8995396,14.9727783 19.0833692,10.9478284 C6.26719885,6.9228786 8.31193811,0.186296284 2.83686797,2.2077084 Z" id="path-9"></path>
        <path d="M8.63657638,6.37910928 C8.43757638,6.80110928 8.62057638,7.30510928 9.04157638,7.50210928 C9.46457638,7.70110928 9.96657638,7.51910928 10.1655764,7.09610928 C10.3635764,6.67310928 10.1825764,6.17110928 9.75957638,5.97310928 C9.64357638,5.91810928 9.52157638,5.89210928 9.40157638,5.89210928 C9.08457638,5.89210928 8.77957638,6.07210928 8.63657638,6.37910928 Z" id="path-11"></path>
        <path d="M22.7166,3.6393 C26.1326,0.1843 8.4506,-2.9767 1.5446,12.6553 C-2.5694,21.9653 7.7866,32.4623 9.0336,33.4673 C10.6806,34.7933 18.5496,29.0453 16.3596,25.9933 C14.1686,22.9403 8.3726,15.0873 12.2806,11.0403 C16.1886,6.9943 20.5106,5.8703 22.7166,3.6393" id="path-13"></path>
    </defs>
    <g id="Symbols" stroke="none" stroke-width="1" fill="none" fill-rule="evenodd">
        <g id="Animal_Success/Rabbit-NoFlag">
            <ellipse id="Shadow" fill-opacity="0.25" fill="#000000" cx="49.6542969" cy="155.326172" rx="32.0371094" ry="11.3261719"></ellipse>
            <g id="Rabbit">
                <path d="M67.0145,114.2516 C60.2675,121.3986 32.5505,124.1536 23.5525,110.2516 C14.7445,96.6416 29.6485,73.1066 31.8095,72.5346 C33.9715,71.9616 57.5015,70.8136 63.1805,75.6116 C68.8605,80.4096 71.9675,109.0036 67.0145,114.2516" id="Backpack" fill="#A1AEB4"></path>
                <path d="M47.0789,119.006 C44.9719,125.292 45.5539,145.137 47.2309,148.848 C49.7819,154.489 43.7599,158.317 36.7059,155.02 C29.8179,151.8 29.5259,137.651 36.1109,125.329 C44.1239,110.334 48.0859,116.006 47.0789,119.006" id="R-leg" fill="#9DDBF9"></path>
                <g id="L-Leg" transform="translate(56.000000, 115.000000)">
                    <mask id="mask-2" fill="white">
                        <use xlink:href="#path-1"></use>
                    </mask>
                    <use id="Mask" fill="#9DDBF9" xlink:href="#path-1"></use>
                    <path d="M-18.131,12.1881 C-18.713,4.2091 -1.5,0.7791 0.348,-6.7199 C2.197,-14.2189 19.528,-12.3589 18.611,-1.8159 C17.693,8.7281 20.807,28.9551 0.783,26.8431 C-19.24,24.7311 -17.864,15.8511 -18.131,12.1881" id="Fill-21" fill="#3D9CD6" mask="url(#mask-2)"></path>
                </g>
                <g id="L-arm" transform="translate(72.000000, 87.000000)">
                    <mask id="mask-4" fill="white">
                        <use xlink:href="#path-3"></use>
                    </mask>
                    <use id="Mask" fill="#9DDBF9" xlink:href="#path-3"></use>
                    <path d="M29.7078,-13.5087 C35.2048,-7.6957 24.0398,5.8463 27.3508,12.8243 C30.6608,19.8023 16.0598,29.3223 10.1028,20.5743 C4.1458,11.8273 -11.0592,-1.8727 5.7878,-12.8997 C22.6348,-23.9267 27.1858,-16.1767 29.7078,-13.5087" id="Fill-26" fill="#3D9CD6" mask="url(#mask-4)"></path>
                </g>
                <g id="Body" transform="translate(28.000000, 69.000000)">
                    <mask id="mask-6" fill="white">
                        <use xlink:href="#path-5"></use>
                    </mask>
                    <use id="Mask" fill="#FFFFFF" xlink:href="#path-5"></use>
                    <path d="M36.5418,4.7955 C34.4278,15.9175 32.4088,19.6915 33.7518,30.8415 C35.1098,42.1205 36.3408,52.3645 32.1078,58.8625 C27.8758,65.3605 23.0778,66.1985 25.3048,67.9005 C38.1238,77.7005 47.6718,67.9835 52.4268,60.0275 C57.1808,52.0725 50.1268,35.8065 54.5128,20.9145 C58.8988,6.0225 54.5948,-3.8825 48.5558,-1.7795 C42.5178,0.3245 40.8508,-5.1375 38.1888,-3.0435" id="Fill-31" fill="#E4E4E4" mask="url(#mask-6)"></path>
                </g>
                <g id="Lapel" transform="translate(42.000000, 73.000000)">
                    <path d="M0.8455,5.1696 C0.3555,13.0656 0.7825,18.0416 2.5645,20.9106 C3.8085,22.9136 25.0965,24.1236 27.9605,23.4186 C30.8255,22.7126 29.8405,15.3026 29.6155,10.7206 C29.3895,6.1386 9.1825,-1.6494 4.6325,0.8926 C0.0835,3.4346 0.9385,3.6766 0.8455,5.1696" id="Fill-34" fill="#DFEBEF"></path>
                    <path d="M3.4451,6.5773 C2.5941,12.2353 3.7521,17.8873 4.8721,19.6503 C5.9231,21.3043 23.5871,22.3193 25.9661,21.7333 C28.3441,21.1473 27.5271,14.9933 27.3401,11.1873 C27.1521,7.3823 10.3691,0.9143 6.5911,3.0253 C2.8121,5.1363 3.6301,5.3483 3.4451,6.5773" id="Fill-36" fill="#B8C5CC"></path>
                    <path d="M11.1219,16.9181 C11.0119,18.5941 9.6519,19.8691 8.0859,19.7651 C6.5189,19.6611 5.3409,18.2181 5.4509,16.5421 C5.5619,14.8661 6.9219,13.5911 8.4879,13.6951 C10.0539,13.7991 11.2329,15.2421 11.1219,16.9181" id="Fill-38" fill="#F79799"></path>
                    <path d="M11.1219,16.9181 C11.0119,18.5941 9.6519,19.8691 8.0859,19.7651 C6.5189,19.6611 5.3409,18.2181 5.4509,16.5421 C5.5619,14.8661 6.9219,13.5911 8.4879,13.6951 C10.0539,13.7991 11.2329,15.2421 11.1219,16.9181 Z" id="Stroke-40" stroke="#F15B5C" stroke-width="0.25"></path>
                    <path d="M25.3944,19.1442 C25.3534,19.7652 24.8494,20.2382 24.2684,20.1992 C23.6884,20.1612 23.2504,19.6262 23.2914,19.0042 C23.3324,18.3832 23.8374,17.9112 24.4174,17.9492 C24.9984,17.9882 25.4354,18.5222 25.3944,19.1442" id="Fill-42" fill="#F79799"></path>
                    <path d="M25.3944,19.1442 C25.3534,19.7652 24.8494,20.2382 24.2684,20.1992 C23.6884,20.1612 23.2504,19.6262 23.2914,19.0042 C23.3324,18.3832 23.8374,17.9112 24.4174,17.9492 C24.9984,17.9882 25.4354,18.5222 25.3944,19.1442 Z" id="Stroke-44" stroke="#F15B5C" stroke-width="0.25"></path>
                    <path d="M22.078,19.2433 C22.037,19.8643 21.533,20.3373 20.952,20.2983 C20.372,20.2603 19.934,19.7253 19.975,19.1043 C20.017,18.4823 20.521,18.0103 21.101,18.0483 C21.682,18.0873 22.119,18.6213 22.078,19.2433" id="Fill-46" fill="#F79799"></path>
                    <path d="M22.078,19.2433 C22.037,19.8643 21.533,20.3373 20.952,20.2983 C20.372,20.2603 19.934,19.7253 19.975,19.1043 C20.017,18.4823 20.521,18.0103 21.101,18.0483 C21.682,18.0873 22.119,18.6213 22.078,19.2433 Z" id="Stroke-48" stroke="#F15B5C" stroke-width="0.25"></path>
                </g>
                <path d="M47.7986,0.1157 C27.6236,1.1757 -0.1124,14.9017 1.0336,36.7377 C2.4636,63.9377 11.7446,86.2697 55.2376,83.9847 C98.7306,81.6997 100.2516,48.8897 99.2236,29.3137 C98.1956,9.7367 74.0386,-1.2633 47.7986,0.1157" id="Helmet" fill="#F3FAFD"></path>
                <g id="Head" transform="translate(5.000000, 4.000000)">
                    <mask id="mask-8" fill="white">
                        <use xlink:href="#path-7"></use>
                    </mask>
                    <use id="Mask" fill="#C7E6F8" xlink:href="#path-7"></use>
                    <g id="Group" mask="url(#mask-8)">
                        <g transform="translate(46.038586, 37.202062) rotate(-32.000000) translate(-46.038586, -37.202062) translate(7.538586, -2.297938)">
                            <g id="R-ear" stroke-width="1" fill="none" transform="translate(14.000000, 0.000000)">
                                <path d="M8.018,1.056 C-0.133,18.497 0.835,63.583 0.835,63.583 L12.313,61.751 C12.313,61.751 14.693,56.269 19.06,36.138 C21.786,23.582 24.657,8.617 22.946,0.319 C21.294,0.174 19.614,0.097 17.922,0.097 C14.62,0.097 11.275,0.393 8.018,1.056 Z" id="Clip-50" fill="#B48E6F"></path>
                                <path d="M12.934,4.85 C2.829,8.288 3.798,53.429 3.798,53.429 L11.877,52.137 C11.877,52.137 13.55,48.278 16.628,34.108 C19.449,21.104 22.495,4.431 15.165,4.432 C14.507,4.432 13.766,4.567 12.934,4.85 Z" id="Clip-53" fill="#ECA5AB"></path>
                            </g>
                            <g id="L-ear" stroke-width="1" fill="none" transform="translate(26.000000, 13.000000)">
                                <path d="M15.622,27.156 C2.93,43.381 0.232,48.712 0.232,48.712 L6.157,58.712 C6.157,58.712 45.655,27.304 50.804,10.321 C48.22,6.731 45.125,3.494 41.892,0.697 C34.274,3.978 23.969,16.485 15.622,27.156 Z" id="Clip-56" fill="#B48E6F"></path>
                                <path d="M18.738,27.729 C9.803,39.151 7.907,42.905 7.907,42.905 L12.076,49.945 C12.076,49.945 47.417,21.843 43.603,11.873 C42.705,9.523 41.344,8.528 39.674,8.528 C34.255,8.527 25.566,19 18.738,27.729 Z" id="Clip-59" fill="#ECA5AB"></path>
                            </g>
                            <path d="M37.453,17.423 C35.892,17.985 34.69,19.851 33.569,21.674 C21.554,18.358 8.542,24.065 3.067,35.729 C0.36,41.498 -0.515,48.162 1,53.875 C3.75,61.8125 8.31274414,69 16.625,73.5 C24.9372559,78 33.902,77.9005 37.453,78.0625 C46.713,77.5475 56.126,71.593 60.343,62.609 C66.189,50.154 61.32,35.43 49.498,28.813 C50.959,27.141 50.921,25.005 48.426,25.068 C51.599,21.731 46.911,18.595 43.34,22.115 C45.757,19.311 42.356,17.05 39.364,17.05 C38.681,17.05 38.02,17.168 37.453,17.423 Z" id="Head" fill="#C9A589"></path>
                            <g id="Nose" stroke-width="1" fill="none" transform="translate(25.000000, 44.000000)">
                                <path d="M5,8.75 L0.5,18.5" id="Line" stroke="#979797" stroke-linecap="square"></path>
                                <path d="M4.762,9.281 C6.789,10.232 12.378,4.559 12.378,4.559 L3.525,0.404 C3.525,0.404 2.732,8.329 4.762,9.281 Z" id="Clip-83" fill="#FEA5BA"></path>
                            </g>
                            <g id="Mouth" stroke-width="1" fill="none" transform="translate(7.000000, 50.000000)">
                                <mask id="mask-10" fill="white">
                                    <use xlink:href="#path-9"></use>
                                </mask>
                                <use id="Mask" fill="#000000" transform="translate(19.799590, 11.394217) rotate(5.000000) translate(-19.799590, -11.394217) " xlink:href="#path-9"></use>
                                <path d="M21.8281295,14.3029538 C31.9171995,13.4623073 37.301377,10.9750119 37.9806618,6.84106773 C30.0078785,1.77942611 24.1805377,-0.751394697 20.4986393,-0.751394697 C16.816741,-0.751394697 11.9700308,2.09073571 5.95850876,7.77499654 C6.44918587,12.9676146 11.7390594,15.1436004 21.8281295,14.3029538 Z" id="Oval" fill="#FFFFFF" mask="url(#mask-10)" transform="translate(21.969585, 6.863628) rotate(27.000000) translate(-21.969585, -6.863628) "></path>
                            </g>
                            <g id="L-Eye" stroke-width="1" fill="none" transform="translate(40.000000, 42.000000)">
                                <path d="M0.727,4.577 C-0.859,7.956 0.594,11.975 3.973,13.561 C7.349,15.145 11.37,13.694 12.955,10.316 C14.54,6.938 13.086,2.918 9.711,1.334 C8.782,0.898 7.805,0.692 6.843,0.692 C4.306,0.692 1.876,2.128 0.727,4.577 Z" id="Clip-95" fill="#FFFFFF"></path>
                                <path d="M3.73857638,5.73810928 C2.79957638,7.73710928 3.66057638,10.1221093 5.66357638,11.0611093 C7.66357638,12.0001093 10.0465764,11.1391093 10.9865764,9.13910928 C11.9245764,7.13910928 11.0625764,4.75610928 9.06257638,3.81610928 C8.51257638,3.55810928 7.93457638,3.43610928 7.36457638,3.43610928 C5.86057638,3.43610928 4.41957638,4.28710928 3.73857638,5.73810928 Z" id="Clip-98" fill="#1D1C1A"></path>
                                <mask id="mask-12" fill="white">
                                    <use xlink:href="#path-11"></use>
                                </mask>
                                <use id="Clip-101" fill="#FFFFFF" xlink:href="#path-11"></use>
                            </g>
                            <g id="R-eye" stroke-width="1" fill="none" transform="translate(13.000000, 30.000000)">
                                <path d="M1.533,4.712 C-0.053,8.089 1.402,12.109 4.779,13.694 C8.155,15.279 12.176,13.828 13.761,10.451 C15.346,7.072 13.894,3.053 10.518,1.468 C9.589,1.032 8.612,0.826 7.65,0.826 C5.113,0.826 2.682,2.262 1.533,4.712 Z" id="Clip-86" fill="#FFFFFF"></path>
                                <path d="M4.54557638,5.87210928 C3.60757638,7.87210928 4.46757638,10.2561093 6.46957638,11.1961093 C8.46957638,12.1331093 10.8535764,11.2731093 11.7925764,9.27310928 C12.7315764,7.27310928 11.8705764,4.88910928 9.86957638,3.95110928 C9.31957638,3.69210928 8.74057638,3.57010928 8.17057638,3.57010928 C6.66657638,3.57010928 5.22557638,4.42210928 4.54557638,5.87210928 Z" id="Clip-89" fill="#1D1C1A"></path>
                                <path d="M9.44257638,6.51210928 C9.24357638,6.93510928 9.42757638,7.43810928 9.84757638,7.63610928 C10.2705764,7.83410928 10.7725764,7.65310928 10.9715764,7.23010928 C11.1705764,6.80610928 10.9885764,6.30510928 10.5655764,6.10610928 C10.4505764,6.05210928 10.3285764,6.02610928 10.2085764,6.02610928 C9.89057638,6.02610928 9.58657638,6.20510928 9.44257638,6.51210928 Z" id="Clip-92" fill="#FFFFFF"></path>
                            </g>
                        </g>
                    </g>
                </g>
                <g id="R-arm" transform="translate(16.000000, 85.000000)">
                    <mask id="mask-14" fill="white">
                        <use xlink:href="#path-13"></use>
                    </mask>
                    <use id="Mask" fill="#9DDBF9" xlink:href="#path-13"></use>
                    <polygon id="Fill-122" fill="#FAF077" mask="url(#mask-14)" points="13.5282 -0.1341 16.7522 3.8399 12.6552 5.7279 9.2612 1.3449"></polygon>
                </g>
            </g>
        </g>
    </g>
</svg>