<?xml version="1.0" encoding="UTF-8"?>
<svg width="485px" height="293px" viewBox="0 0 485 293" version="1.1" xmlns="http://www.w3.org/2000/svg" xmlns:xlink="http://www.w3.org/1999/xlink">
    <!-- Generator: Sketch 44.1 (41455) - http://www.bohemiancoding.com/sketch -->
    <title>Progress/Shuttle_organic</title>
    <desc>Created with Sketch.</desc>
    <defs>
        <path d="M378.8941,97.4761 C378.8941,40.4761 293.38843,3.4761 267.736729,1.4761 C242.085028,-0.5239 21.9079282,1.4761 21.9079282,1.4761 C21.9079282,1.4761 0.8125,41.4761 0.8125,97.4761 C0.8125,153.4761 21.9079282,193.4761 21.9079282,193.4761 C21.9079282,193.4761 242.085028,195.4761 267.736729,193.4761 C293.38843,191.4761 378.8941,154.4761 378.8941,97.4761 Z" id="path-1"></path>
        <path d="M44.9298,25.2844 C44.9298,36.2914 36.0068,45.2144 24.9998,45.2144 C13.9928,45.2144 5.0708,36.2914 5.0708,25.2844 C5.0708,14.2774 13.9928,5.3544 24.9998,5.3544 C36.0068,5.3544 44.9298,14.2774 44.9298,25.2844" id="path-3"></path>
        <path d="M20.5,41 C9.178126,41 0,31.821874 0,20.5 C0,9.178126 9.178126,0 20.5,0 C31.821874,0 41,9.178126 41,20.5 C41,31.821874 31.821874,41 20.5,41 Z" id="path-5"></path>
        <path d="M8.04319876,6.48149717 C12.3402839,6.48149717 17.858894,3.39743767 16.1064234,1.1781173 C14.3539529,-1.04120307 12.3402839,2.25146744 8.04319876,2.25146744 C3.74611364,2.25146744 2.18120644,-1.22807315 0.545301611,1.1781173 C-1.09060322,3.58430775 3.74611364,6.48149717 8.04319876,6.48149717 Z" id="path-7"></path>
        <path d="M44.9298,25.2844 C44.9298,36.2914 36.0068,45.2144 24.9998,45.2144 C13.9928,45.2144 5.0708,36.2914 5.0708,25.2844 C5.0708,14.2774 13.9928,5.3544 24.9998,5.3544 C36.0068,5.3544 44.9298,14.2774 44.9298,25.2844" id="path-9"></path>
        <path d="M20.5,41 C9.178126,41 0,31.821874 0,20.5 C0,9.178126 9.178126,0 20.5,0 C31.821874,0 41,9.178126 41,20.5 C41,31.821874 31.821874,41 20.5,41 Z" id="path-11"></path>
        <path d="M2.49634487,3.58348646 C0.149749199,4.91259498 3.17828155,10.1170835 9.56249802,12.7588793 C15.9467145,15.4006752 21.3844771,13.5428421 21.3266638,11.3144214 C21.2359485,7.78802708 15.8367818,10.516556 11.1971295,8.49284722 C6.55747716,6.46913841 4.84294054,2.25437795 2.49634487,3.58348646 Z" id="path-13"></path>
        <path d="M44.9298,25.2844 C44.9298,36.2914 36.0068,45.2144 24.9998,45.2144 C13.9928,45.2144 5.0708,36.2914 5.0708,25.2844 C5.0708,14.2774 13.9928,5.3544 24.9998,5.3544 C36.0068,5.3544 44.9298,14.2774 44.9298,25.2844" id="path-15"></path>
        <path d="M20.5,41 C9.178126,41 0,31.821874 0,20.5 C0,9.178126 9.178126,0 20.5,0 C31.821874,0 41,9.178126 41,20.5 C41,31.821874 31.821874,41 20.5,41 Z" id="path-17"></path>
        <path d="M44.9298,25.2844 C44.9298,36.2914 36.0068,45.2144 24.9998,45.2144 C13.9928,45.2144 5.0708,36.2914 5.0708,25.2844 C5.0708,14.2774 13.9928,5.3544 24.9998,5.3544 C36.0068,5.3544 44.9298,14.2774 44.9298,25.2844" id="path-19"></path>
        <path d="M20.5,41 C9.178126,41 0,31.821874 0,20.5 C0,9.178126 9.178126,0 20.5,0 C31.821874,0 41,9.178126 41,20.5 C41,31.821874 31.821874,41 20.5,41 Z" id="path-21"></path>
        <path d="M1.65107886,1.28490318 C-1.44766423,2.42896831 1.47437266,8.47976654 10.0285569,11.0049472 C18.5827412,13.5301278 22.6606458,11.6083001 22.5980779,9.17171208 C22.4999022,5.31590056 18.5657761,8.71427152 11.1066669,6.37171992 C3.64755768,4.02916832 4.83761158,0.108425862 1.65107886,1.28490318 Z" id="path-23"></path>
        <path d="M5.02655353,3.71269041 C4.91073401,3.95829764 5.01724141,4.2516295 5.26226663,4.366285 C5.50845587,4.48210453 5.80062371,4.37617913 5.91644323,4.1299899 C6.03168075,3.88380066 5.92633736,3.59163282 5.68014813,3.4763953 C5.61263524,3.44438488 5.5416303,3.42925268 5.47178939,3.42925268 C5.28729296,3.42925268 5.10978063,3.53401406 5.02655353,3.71269041 Z" id="path-25"></path>
        <path d="M44.9298,25.2844 C44.9298,36.2914 36.0068,45.2144 24.9998,45.2144 C13.9928,45.2144 5.0708,36.2914 5.0708,25.2844 C5.0708,14.2774 13.9928,5.3544 24.9998,5.3544 C36.0068,5.3544 44.9298,14.2774 44.9298,25.2844" id="path-27"></path>
        <path d="M20.7679492,41 C9.44607519,41 0.267949192,31.821874 0.267949192,20.5 C0.267949192,9.178126 9.44607519,1.13686838e-13 20.7679492,1.13686838e-13 C32.0898232,1.13686838e-13 41.2679492,9.178126 41.2679492,20.5 C41.2679492,31.821874 32.0898232,41 20.7679492,41 Z" id="path-29"></path>
        <path d="M0.36378,17.816784 C-0.79092,9.6642028 6.68943,1.5798212 15.68268,0.279027332 C24.59178,-1.00949061 33.83568,4.19777684 34.99038,12.3503581 C36.14508,20.5024846 31.97178,28.0812798 19.86903,29.8312817 C6.84108,31.7154096 1.51848,25.9693652 0.36378,17.816784" id="path-31"></path>
        <path d="M11.01087,4.46034534 C9.23247,4.74087306 5.02677,3.53328532 3.12552,2.54530033 C1.95777,1.93832381 0.60642,3.44826314 0.40707,4.21391742 C-0.18153,6.47678043 2.78712,9.38162909 11.79162,7.96444123 C20.79612,6.54725336 21.60162,2.94040339 20.47662,1.08219139 C18.69597,-1.85857573 15.40197,3.76789198 11.01087,4.46034534" id="path-33"></path>
    </defs>
    <g id="Symbols" stroke="none" stroke-width="1" fill="none" fill-rule="evenodd">
        <g id="Progress/Shuttle_organic">
            <g id="Fin-Top" transform="translate(23.000000, 15.000000)">
                <polygon id="Fill-1" fill="#5D7078" points="88.6431 67.231 4.2461 6.221 54.0141 6.221 116.7521 67.231"></polygon>
                <path d="M0.3941,11.9966 L0.3941,0.4446 L68.5901,0.4446 C70.7991,0.4446 72.5901,2.2356 72.5901,4.4446 L72.5901,7.9966 C72.5901,10.2056 70.7991,11.9966 68.5901,11.9966 L0.3941,11.9966 Z" id="Fill-2" fill="#00A8C4"></path>
            </g>
            <g id="Fin-Bottom" transform="translate(23.000000, 210.000000)">
                <polygon id="Fill-4" fill="#5D7078" points="88.6431 0.7212 4.2461 61.7322 54.0141 61.7322 116.7521 0.7212"></polygon>
                <path d="M0.3941,55.9556 L0.3941,67.5076 L68.5901,67.5076 C70.7991,67.5076 72.5901,65.7166 72.5901,63.5076 L72.5901,59.9556 C72.5901,57.7466 70.7991,55.9556 68.5901,55.9556 L0.3941,55.9556 Z" id="Fill-6" fill="#00A8C4"></path>
            </g>
            <g id="Blaster" transform="translate(0.000000, 61.000000)">
                <path d="M59.46,103.8922 L59.46,67.0602 C59.46,61.4022 61.856,56.0082 66.056,52.2162 L92.681,28.1722 L92.681,142.7802 L66.056,118.7362 C61.856,114.9442 59.46,109.5502 59.46,103.8922" id="Fill-8" fill="#017F99"></path>
                <path d="M54.002,109.7847 C63.845,105.6537 72.196,101.0417 79.038,96.6937 C79.417,96.4537 85.213,92.6387 85.213,85.4757 C85.213,78.3137 79.417,74.4987 79.038,74.2587 C72.196,69.9107 63.845,65.2987 54.002,61.1687 C41.273,55.8277 29.585,52.7777 0,50.9827 L0,119.9707 C29.585,118.1757 41.273,115.1247 54.002,109.7847" id="Fill-10" fill="#435259"></path>
                <path d="M80.3941,85.4761 C80.3941,25.7691 92.2441,10.5051 95.2351,6.7371 C98.2261,2.9691 102.3581,0.6381 106.9221,0.6381 C111.4871,0.6381 115.6191,2.9691 118.6101,6.7371 C121.6011,10.5051 123.4511,15.7111 123.4511,21.4611 L123.4511,85.4761 L123.4511,149.4911 C123.4511,155.2411 121.6011,160.4471 118.6101,164.2151 C115.6191,167.9841 111.4871,170.3141 106.9221,170.3141 C102.3581,170.3141 98.2261,167.9841 95.2351,164.2151 C92.2441,160.4471 80.3941,145.1831 80.3941,85.4761" id="Fill-12" fill="#00A8C4"></path>
                <path d="M108.8668,170.314 C108.8668,170.314 90.8938,151.726 90.8938,85.476 C90.8938,19.226 108.8668,0.638 108.8668,0.638 L124.9398,0.638 L141.0128,0.638 L157.0848,0.638 L173.1578,0.638 L173.1578,43.057 L173.1578,85.476 L173.1578,127.895 L173.1578,170.314 L157.0848,170.314 L141.0128,170.314 L124.9398,170.314 L108.8668,170.314 Z" id="Fill-14" fill="#B8C5CC"></path>
            </g>
            <path d="M339.6006,185.5728 C339.6006,194.6028 317.9286,209.2728 297.1596,210.7428 C276.3906,212.2118 204.1506,222.1438 183.3816,262.3278 C162.6126,302.5108 132.8126,290.3208 127.8466,289.8698 L127.8466,185.5728 L339.6006,185.5728 Z" id="Wing-Bottom" fill="#FFFFFF"></path>
            <path d="M339.6006,107.3795 C339.6006,98.3505 317.9286,83.6795 297.1596,82.2105 C276.3906,80.7415 204.1506,70.8085 183.3816,30.6245 C162.6126,-9.5585 132.8126,2.6315 127.8466,3.0835 L127.8466,107.3795 L339.6006,107.3795 Z" id="Wing-Top" fill="#FFFFFF"></path>
            <g id="Pod" transform="translate(106.000000, 49.000000)">
                <mask id="mask-2" fill="white">
                    <use xlink:href="#path-1"></use>
                </mask>
                <use id="Mask" fill="#FFFFFF" xlink:href="#path-1"></use>
                <path d="M282.3936,147.4761 C226.3936,174.4761 55.3936,127.4761 27.3936,127.4761 C-0.6064,127.4761 -67.6064,195.4761 41.3936,247.4761 C150.3936,299.4761 378.5176,287.8341 396.9556,223.1561 C415.3936,158.4761 406.5176,136.4761 386.9556,117.4761 C372.8506,103.7761 338.3936,120.4761 282.3936,147.4761 Z" id="Fill-23" fill="#DFEBEF" mask="url(#mask-2)"></path>
            </g>
            <g id="Group-2" transform="translate(133.000000, 79.000000)">
                <g id="Animal_Window/Ape" transform="translate(240.846600, 0.000000)">
                    <g id="Window-2">
                        <path d="M50.0001,25.2844 C50.0001,39.0924 38.8071,50.2844 25.0001,50.2844 C11.1931,50.2844 0.0001,39.0924 0.0001,25.2844 C0.0001,11.4774 11.1931,0.2844 25.0001,0.2844 C38.8071,0.2844 50.0001,11.4774 50.0001,25.2844" id="Fill-159" fill="#00A8C4"></path>
                        <mask id="mask-4" fill="white">
                            <use xlink:href="#path-3"></use>
                        </mask>
                        <use id="Mask" fill="#11274C" xlink:href="#path-3"></use>
                        <g id="Monkey" mask="url(#mask-4)">
                            <g transform="translate(5.000000, 5.000000)" id="Clip">
                                <g>
                                    <mask id="mask-6" fill="white">
                                        <use xlink:href="#path-5"></use>
                                    </mask>
                                    <use id="Mask" fill="#11274C" xlink:href="#path-5"></use>
                                    <g id="Group-3" mask="url(#mask-6)">
                                        <g transform="translate(26.836270, 25.729700) rotate(-8.000000) translate(-26.836270, -25.729700) translate(2.336270, 7.229700)">
                                            <g id="Ear-R" stroke-width="1" fill="none" fill-rule="evenodd" transform="translate(0.481436, 3.492922)">
                                                <path d="M11.734271,5.88805254 C11.734271,9.1269404 9.11186597,11.7530322 5.87599664,11.7530322 C2.638888,11.7530322 0.0164829805,9.1269404 0.0164829805,5.88805254 C0.0164829805,2.64916466 2.638888,0.0230728894 5.87599664,0.0230728894 C9.11186597,0.0230728894 11.734271,2.64916466 11.734271,5.88805254" id="Fill-198" fill="#3C3C3B" fill-rule="nonzero"></path>
                                                <path d="M9.69323186,5.88805254 C9.69323186,7.9981055 7.98420705,9.70996502 5.87488128,9.70996502 C3.76679481,9.70996502 2.05653067,7.9981055 2.05653067,5.88805254 C2.05653067,3.77675909 3.76679481,2.06614004 5.87488128,2.06614004 C7.98420705,2.06614004 9.69323186,3.77675909 9.69323186,5.88805254" id="Fill-199" fill="#D76C79" fill-rule="nonzero"></path>
                                            </g>
                                            <g id="Ear-L" stroke-width="1" fill="none" fill-rule="evenodd" transform="translate(36.011143, 2.397312)">
                                                <path d="M11.8398612,5.88805254 C11.8398612,9.1269404 9.21497754,11.7530322 5.98034758,11.7530322 C2.7432389,11.7530322 0.12083388,9.1269404 0.12083388,5.88805254 C0.12083388,2.64916466 2.7432389,0.0230728894 5.98034758,0.0230728894 C9.21497754,0.0230728894 11.8398612,2.64916466 11.8398612,5.88805254" id="Fill-200" fill="#3C3C3B" fill-rule="nonzero"></path>
                                                <path d="M9.79795453,5.88805254 C9.79795453,7.9981055 8.08769041,9.70996502 5.97960395,9.70996502 C3.87151751,9.70996502 2.16125336,7.9981055 2.16125336,5.88805254 C2.16125336,3.77675909 3.87151751,2.06614004 5.97960395,2.06614004 C8.08769041,2.06614004 9.79795453,3.77675909 9.79795453,5.88805254" id="Fill-201" fill="#D76C79" fill-rule="nonzero"></path>
                                            </g>
                                            <path d="M24.3715165,0.480766384 C14.3144197,0.480766384 6.16092135,8.64187065 6.16092135,18.7095895 C6.16092135,28.7748274 14.3144197,36.9371722 24.3715165,36.9371722 C34.4298526,36.9371722 42.583351,28.7748274 42.583351,18.7095895 C42.583351,8.64187065 34.4298526,0.480766384 24.3715165,0.480766384" id="Head" fill="#3C3C3B" fill-rule="nonzero"></path>
                                            <g id="Face" stroke-width="1" fill="none" fill-rule="evenodd" transform="translate(10.218610, 7.769174)">
                                                <path d="M26.8952669,7.15718547 C26.8952669,3.41590407 23.8638857,0.382935536 20.1273303,0.382935536 C16.9695383,0.382935536 14.3260648,2.55005047 13.5762751,5.47757837 C12.828964,2.55005047 10.1842512,0.382935536 7.02769846,0.382935536 C3.28866444,0.382935536 0.258522536,3.41590407 0.258522536,7.15718547 C0.258522536,10.8997074 3.28866444,13.9326759 7.02769846,13.9326759 L7.02769846,17.4283427 C7.02769846,21.1696241 10.056601,24.2025927 13.795635,24.2025927 C17.5334297,24.2025927 20.5635716,21.1696241 20.5635716,17.4283427 L20.5635716,13.9103473 C24.0968782,13.6845804 26.8952669,10.7520905 26.8952669,7.15718547" id="Shape" fill="#F4C798" fill-rule="nonzero"></path>
                                                <g id="Nose" transform="translate(10.360731, 12.553637)" fill-rule="nonzero" fill="#401612">
                                                    <path d="M2.4517504,1.26938106 C2.4517504,1.81271039 2.01179115,2.25183958 1.4702075,2.25183958 C0.926145212,2.25183958 0.488664603,1.81271039 0.488664603,1.26938106 C0.488664603,0.724811255 0.926145212,0.285682066 1.4702075,0.285682066 C2.01179115,0.285682066 2.4517504,0.724811255 2.4517504,1.26938106" id="Fill-204"></path>
                                                    <path d="M5.94440724,1.26938106 C5.94440724,1.81271039 5.50568728,2.25183958 4.961625,2.25183958 C4.42004135,2.25183958 3.9800821,1.81271039 3.9800821,1.26938106 C3.9800821,0.724811255 4.42004135,0.285682066 4.961625,0.285682066 C5.50568728,0.285682066 5.94440724,0.724811255 5.94440724,1.26938106" id="Fill-205"></path>
                                                </g>
                                                <g id="Eye-R" transform="translate(2.726508, 2.729051)" fill-rule="nonzero">
                                                    <path d="M7.05236092,3.61772983 C7.05236092,5.4399919 5.57632865,6.91740113 3.75576484,6.91740113 C1.93396174,6.91740113 0.457929421,5.4399919 0.457929421,3.61772983 C0.457929421,1.79546775 1.93396174,0.31805854 3.75576484,0.31805854 C5.57632865,0.31805854 7.05236092,1.79546775 7.05236092,3.61772983" id="Fill-207" fill="#FFFFFF"></path>
                                                    <path d="M5.88982312,3.53661684 C5.88982312,4.61707311 5.01486191,5.49285051 3.93541259,5.49285051 C2.85720258,5.49285051 1.98224137,4.61707311 1.98224137,3.53661684 C1.98224137,2.45616056 2.85720258,1.58162363 3.93541259,1.58162363 C5.01486191,1.58162363 5.88982312,2.45616056 5.88982312,3.53661684" id="Fill-208" fill="#1D1C1A"></path>
                                                    <path d="M5.10372129,2.80337034 C5.10372129,3.03161828 4.91906233,3.21644949 4.69102712,3.21644949 C4.46423122,3.21644949 4.27957226,3.03161828 4.27957226,2.80337034 C4.27957226,2.5751224 4.46423122,2.39029119 4.69102712,2.39029119 C4.91906233,2.39029119 5.10372129,2.5751224 5.10372129,2.80337034" id="Fill-209" fill="#FFFFFF"></path>
                                                </g>
                                                <g id="Eye-L" transform="translate(16.904350, 2.729051)" fill-rule="nonzero">
                                                    <path d="M6.91008682,3.42917718 C6.91008682,5.25143926 5.43405448,6.72884845 3.6134907,6.72884845 C1.79168759,6.72884845 0.315655273,5.25143926 0.315655273,3.42917718 C0.315655273,1.60691511 1.79168759,0.129505895 3.6134907,0.129505895 C5.43405448,0.129505895 6.91008682,1.60691511 6.91008682,3.42917718" id="Fill-210" fill="#FFFFFF"></path>
                                                    <path d="M5.74754897,3.34806419 C5.74754897,4.42852047 4.87258776,5.30429788 3.79437776,5.30429788 C2.71492844,5.30429788 1.83996722,4.42852047 1.83996722,3.34806419 C1.83996722,2.26760792 2.71492844,1.39307098 3.79437776,1.39307098 C4.87258776,1.39307098 5.74754897,2.26760792 5.74754897,3.34806419" id="Fill-211" fill="#1D1C1A"></path>
                                                    <path d="M4.96144714,2.61469364 C4.96144714,2.84294158 4.77678818,3.02777279 4.54875297,3.02777279 C4.32195707,3.02777279 4.13729811,2.84294158 4.13729811,2.61469364 C4.13729811,2.3864457 4.32195707,2.2016145 4.54875297,2.2016145 C4.77678818,2.2016145 4.96144714,2.3864457 4.96144714,2.61469364" id="Fill-212" fill="#FFFFFF"></path>
                                                </g>
                                            </g>
                                            <g id="Mouth" stroke-width="1" fill="none" fill-rule="evenodd" transform="translate(15.566657, 23.643857)">
                                                <path d="M8.3258625,9.27877489 C12.6229477,9.27877489 16.1064234,6.57083152 16.1064234,2.26973788 C16.1064234,-2.03135574 12.6229477,1.10156504 8.3258625,1.10156504 C4.02877739,1.10156504 0.545301611,-2.03135574 0.545301611,2.26973788 C0.545301611,6.57083152 4.02877739,9.27877489 8.3258625,9.27877489 Z" id="path-1" stroke="#F4C798" stroke-width="6"></path>
                                                <g id="Oval-14" transform="translate(0.000000, 1.091621)">
                                                    <mask id="mask-8" fill="white">
                                                        <use xlink:href="#path-7"></use>
                                                    </mask>
                                                    <use id="Mask" fill="#000000" xlink:href="#path-7"></use>
                                                    <path d="M8.13539918,3.40218231 C11.7652373,3.49233443 14.8338914,1.3531229 15.227274,0.301492987 C15.6206565,-0.75013693 14.5663719,0.380224751 14.5663719,0.269268781 C14.5663719,-0.785780662 11.7969914,-0.515060412 8.33363114,-0.515060412 C4.87027086,-0.515060412 1.7670499,-1.00132634 1.7670499,0.0537231047 C1.7670499,1.10877255 3.65207557,3.29083267 8.13539918,3.40218231 Z" fill="#FFFFFF" fill-rule="nonzero" mask="url(#mask-8)"></path>
                                                </g>
                                            </g>
                                        </g>
                                    </g>
                                </g>
                            </g>
                        </g>
                    </g>
                </g>
                <g id="Animal_Window/Bear" transform="translate(60.846600, 0.000000)">
                    <g id="Window-2">
                        <path d="M50.0001,25.2844 C50.0001,39.0924 38.8071,50.2844 25.0001,50.2844 C11.1931,50.2844 0.0001,39.0924 0.0001,25.2844 C0.0001,11.4774 11.1931,0.2844 25.0001,0.2844 C38.8071,0.2844 50.0001,11.4774 50.0001,25.2844" id="Fill-159" fill="#00A8C4"></path>
                        <mask id="mask-10" fill="white">
                            <use xlink:href="#path-9"></use>
                        </mask>
                        <use id="Mask" fill="#11274C" xlink:href="#path-9"></use>
                        <g id="Bear" mask="url(#mask-10)">
                            <g transform="translate(5.000000, 5.000000)" id="Clip">
                                <g>
                                    <mask id="mask-12" fill="white">
                                        <use xlink:href="#path-11"></use>
                                    </mask>
                                    <use id="Mask" fill="#11274C" xlink:href="#path-11"></use>
                                    <ellipse id="Oval-2" fill="#9F6A5C" mask="url(#mask-12)" cx="33" cy="39.5" rx="15" ry="16.5"></ellipse>
                                    <g id="Head" mask="url(#mask-12)">
                                        <g transform="translate(23.837762, 18.420237) rotate(-22.000000) translate(-23.837762, -18.420237) translate(1.962762, 0.920237)">
                                            <g id="Ear-R" stroke-width="1" fill="none" fill-rule="evenodd">
                                                <path d="M11.8360761,5.70459249 C11.9462806,3.32491632 11.1772717,1.17669802 8.68737831,0.432898535 C6.10665716,-0.338627676 3.25466359,0.278593293 1.41994161,2.26647879 C-0.246446155,4.07112683 -0.275511057,6.80040077 0.609757442,8.97152378 C1.1559354,10.310845 2.9361607,12.9364452 4.81690212,12.2770314 C5.50840459,12.034724 6.44211457,10.6266886 7.01130225,10.0854147 C7.81179812,9.32473812 8.6643686,8.63639207 9.5108839,7.92152481 C10.3404447,7.21991819 11.0561679,6.54362721 11.8360761,5.70459249" id="Fill-17" fill="#945749" fill-rule="nonzero"></path>
                                                <path d="M10.7251913,8.28631206 C11.810281,4.78671739 7.71939596,1.75365497 4.89525625,4.28643086 C2.6851126,6.26708331 3.81864381,9.3122008 6.10266075,10.6804543 C7.12356547,11.2916477 7.3245977,11.0047365 8.3479245,10.2645535 C9.12419959,9.70158045 10.1184615,9.27362452 10.7251913,8.28631206" id="Fill-19" fill="#F8BD65" fill-rule="nonzero"></path>
                                            </g>
                                            <g id="Ear-L" stroke-width="1" fill="none" fill-rule="evenodd" transform="translate(30.979081, 0.531684)">
                                                <path d="M0.466358475,5.1917144 C0.576562897,2.81203824 1.53812677,0.743383588 4.08614991,0.228630943 C6.728634,-0.302998837 9.51159845,0.570995697 11.1561875,2.71921399 C12.6481858,4.66731768 12.426566,7.38815306 11.3438983,9.46886283 C10.6766166,10.7527307 8.66387208,13.2059429 6.85094876,12.3765522 C6.18487811,12.0727638 5.38438224,10.5851648 4.86726917,9.99446508 C4.1406466,9.16386888 3.35468319,8.39957575 2.57840808,7.61117239 C1.81666541,6.83723515 1.16512718,6.09825768 0.466358475,5.1917144" id="Fill-21" fill="#945749" fill-rule="nonzero"></path>
                                                <path d="M1.33491465,7.86396778 C0.576805105,4.27998741 4.93048533,1.63389361 7.50878441,4.41259347 C9.52637306,6.58733297 8.11793634,9.51551608 5.71765979,10.6691889 C4.64468045,11.185147 4.47150208,10.8813585 3.52083755,10.0507624 C2.79905913,9.4190753 1.8483946,8.90191161 1.33491465,7.86396778" id="Fill-24" fill="#F8BD65" fill-rule="nonzero"></path>
                                            </g>
                                            <path d="M19.3750275,2.31976232 C19.3750275,2.31976232 11.2477541,1.72906257 5.40207552,9.02962935 C-0.707609281,16.6605058 1.2106743,25.8404622 7.63643991,29.8632481 C14.0622055,33.8872394 25.8674002,35.9619217 33.1263596,31.4677815 C40.3865301,26.9724358 43.8379873,21.4270912 41.3020745,14.2904737 C38.7661618,7.15506177 32.4203247,3.79410069 27.4974568,3.02016346 C22.5733778,2.24622623 19.3750275,2.31976232 19.3750275,2.31976232" id="path-1" fill="#9F6A5C" fill-rule="nonzero"></path>
                                            <path d="M20.6972308,17.0138889 C24.7834755,17.0138889 33.4284118,21.3396397 33.015291,25.3877825 C32.6021702,29.4359253 27.9100917,32.4660858 20.666061,32.1668837 C13.4220302,31.8676816 8.64915632,28.7124409 8.31253575,24.8562283 C7.97591518,21.0000157 16.6791472,17.0138889 20.6972308,17.0138889 Z" id="Fill-29" fill="#F8BD65" fill-rule="nonzero"></path>
                                            <g id="Mouth" stroke-width="1" fill="none" fill-rule="evenodd" transform="translate(20.903252, 25.156487) rotate(4.000000) translate(-20.903252, -25.156487) translate(9.479641, 16.163432)">
                                                <path d="M2.49634487,3.58348646 C0.149749199,4.91259498 3.17828155,10.1170835 9.56249802,12.7588793 C15.9467145,15.4006752 21.3844771,13.5428421 21.3266638,11.3144214 C21.2359485,7.78802708 15.8367818,10.516556 11.1971295,8.49284722 C6.55747716,6.46913841 4.84294054,2.25437795 2.49634487,3.58348646 Z" id="Mask" stroke="#F8BD65" stroke-width="10" transform="translate(11.516360, 8.692672) rotate(-21.000000) translate(-11.516360, -8.692672) "></path>
                                                <mask id="mask-14" fill="white">
                                                    <use xlink:href="#path-13"></use>
                                                </mask>
                                                <use id="Mask" fill="#000000" transform="translate(11.516360, 8.692672) rotate(-21.000000) translate(-11.516360, -8.692672) " xlink:href="#path-13"></use>
                                                <path d="M11.1654396,9.86937949 C18.6565018,9.86937949 20.3603513,7.51209032 20.3603513,6.61281482 C20.3603513,5.71353931 14.0700689,5.18806777 10.6954121,5.18806777 C7.32075534,5.18806777 2.47004678,5.16108638 2.47004678,6.06036188 C2.47004678,6.95963738 3.67437733,9.86937949 11.1654396,9.86937949 Z" id="Oval-15" fill="#FFFFFF" mask="url(#mask-14)"></path>
                                            </g>
                                            <path d="M23.6128114,19.0048002 C22.7711403,17.8318393 17.4994935,17.2893599 17.7053699,19.529197 C17.902769,21.6846483 20.2800359,23.7677691 22.1220241,21.9896423 C22.762663,21.3700103 24.2558724,19.9004939 23.6128114,19.0048002 L23.6128114,19.0048002 Z" id="Nose" fill="#2D2317" fill-rule="nonzero"></path>
                                            <g id="Eye-R" stroke-width="1" fill="none" fill-rule="evenodd" transform="translate(9.080075, 8.993056)">
                                                <path d="M6.54763829,3.38686595 C6.46649874,5.15052664 4.9648121,6.51395812 3.19306407,6.43318899 C1.42131604,6.35241981 0.051632497,4.85638227 0.132772017,3.09392709 C0.215122575,1.33026639 1.71680922,-0.0331650892 3.48734621,0.0476040608 C5.25909424,0.128373211 6.62877779,1.62320524 6.54763829,3.38686595" id="Fill-34" fill="#FFFFFF" fill-rule="nonzero"></path>
                                                <path d="M5.41418692,3.2420692 C5.36574541,4.28724611 4.47563277,5.09493763 3.4268742,5.04671724 C2.37690458,4.99849685 1.56550938,4.11365271 1.61273985,3.0684758 C1.66118135,2.02329889 2.551294,1.21560738 3.60126361,1.26382777 C4.65002218,1.31084265 5.46262843,2.19689228 5.41418692,3.2420692" id="Fill-36" fill="#1D1C1A" fill-rule="nonzero"></path>
                                                <path d="M4.68223579,2.49766695 C4.67254748,2.71827523 4.48483666,2.8882521 4.26321677,2.87860802 C4.04159689,2.86775843 3.87084059,2.68090443 3.88052888,2.46150166 C3.89021718,2.24089339 4.07792801,2.06971101 4.2995479,2.0805606 C4.52116778,2.09020468 4.69192409,2.27705868 4.68223579,2.49766695" id="Fill-38" fill="#FFFFFF" fill-rule="nonzero"></path>
                                            </g>
                                            <g id="Eye-L" stroke-width="1" fill="none" fill-rule="evenodd" transform="translate(26.706104, 9.570313)">
                                                <path d="M6.79834158,3.4439482 C6.71720208,5.20760888 5.21551541,6.57104036 3.44376738,6.49027123 C1.67323038,6.40950205 0.302335805,4.91346453 0.383475325,3.15100934 C0.465825883,1.38734864 1.96751253,0.0239171674 3.73804952,0.104686318 C5.50979755,0.185455467 6.87948108,1.6802875 6.79834158,3.4439482" id="Fill-40" fill="#FFFFFF" fill-rule="nonzero"></path>
                                                <path d="M5.66489023,3.29915145 C5.61644872,4.34432837 4.72633608,5.15201987 3.6775775,5.10379948 C2.62760789,5.05557909 1.81621269,4.17073497 1.86344316,3.12555806 C1.91188466,2.08038114 2.80199731,1.27268964 3.85196692,1.32091003 C4.90072549,1.36792491 5.71333173,2.25397454 5.66489023,3.29915145" id="Fill-42" fill="#1D1C1A" fill-rule="nonzero"></path>
                                                <path d="M4.93293909,2.55474921 C4.92325079,2.77535749 4.73553996,2.94533436 4.51392008,2.93569028 C4.2923002,2.92484069 4.12154389,2.73798669 4.13123219,2.51858392 C4.14092049,2.29797564 4.32863133,2.12679326 4.55025121,2.13764285 C4.77187109,2.14728693 4.9426274,2.33414093 4.93293909,2.55474921" id="Fill-44" fill="#FFFFFF" fill-rule="nonzero"></path>
                                            </g>
                                        </g>
                                    </g>
                                </g>
                            </g>
                        </g>
                    </g>
                </g>
                <g id="Animal_Window/Pig" transform="translate(120.846600, 0.000000)">
                    <g id="Window-2">
                        <path d="M50.0001,25.2844 C50.0001,39.0924 38.8071,50.2844 25.0001,50.2844 C11.1931,50.2844 0.0001,39.0924 0.0001,25.2844 C0.0001,11.4774 11.1931,0.2844 25.0001,0.2844 C38.8071,0.2844 50.0001,11.4774 50.0001,25.2844" id="Fill-159" fill="#00A8C4"></path>
                        <mask id="mask-16" fill="white">
                            <use xlink:href="#path-15"></use>
                        </mask>
                        <use id="Mask" fill="#11274C" xlink:href="#path-15"></use>
                        <g id="Pig" mask="url(#mask-16)">
                            <g transform="translate(24.991378, 25.991378) rotate(-135.000000) translate(-24.991378, -25.991378) translate(4.491378, 5.491378)" id="Clip">
                                <g transform="translate(20.500000, 20.500000) scale(-1, 1) translate(-20.500000, -20.500000) ">
                                    <mask id="mask-18" fill="white">
                                        <use xlink:href="#path-17"></use>
                                    </mask>
                                    <use id="Mask" fill="#11274C" xlink:href="#path-17"></use>
                                    <g id="L-ear" mask="url(#mask-18)">
                                        <g transform="translate(26.000000, 6.000000)">
                                            <path d="M0.9441,8.8295 C0.9441,8.8295 2.0011,3.2035 7.8191,0.5095 C7.8191,0.5095 10.9441,5.7225 9.1901,11.6835" id="Fill-6" fill="#F7A2A4"></path>
                                            <path d="M1.5705,10.0394 C1.5705,10.0394 2.3885,5.6784 6.8995,3.5904 C6.8995,3.5904 9.3225,7.6324 7.9635,12.2534" id="Fill-8" fill="#F28083"></path>
                                        </g>
                                    </g>
                                    <g id="R-ear" mask="url(#mask-18)">
                                        <g transform="translate(5.000000, 6.000000)">
                                            <path d="M9.032,8.5443 C9.032,8.5443 7.975,2.9183 2.157,0.2243 C2.157,0.2243 -0.968,5.4383 0.786,11.3993" id="Fill-10" fill="#F7A2A4"></path>
                                            <path d="M8.4055,9.7553 C8.4055,9.7553 7.5875,5.3943 3.0765,3.3063 C3.0765,3.3063 0.6535,7.3473 2.0125,11.9693" id="Fill-12" fill="#F28083"></path>
                                        </g>
                                    </g>
                                    <path d="M2.6657,25.3304 C2.6657,16.4534 10.6067,9.2594 20.4027,9.2594 C30.1987,9.2594 38.1387,16.4534 38.1387,25.3304 C38.1387,34.2064 33.7447,41.4024 20.4027,41.4024 C6.1577,41.4024 2.6657,34.2064 2.6657,25.3304" id="Fill-14" fill="#F7A2A4" mask="url(#mask-18)"></path>
                                    <path d="M13,32.75 C11.0158,34.3401 14.8366394,38 21.9183197,38 C29,38 31.71,34.618 31.25,32.75 C30.521,29.793 26.5,34.8893094 21.4402,34.2289 C16.3804,33.5684906 14.9842,31.1599 13,32.75 Z" id="Mouth" fill="#000000" mask="url(#mask-18)"></path>
                                    <g id="Nose" mask="url(#mask-18)">
                                        <g transform="translate(16.000000, 19.000000)">
                                            <path d="M0.3503,7.1068 C0.3503,3.6858 3.1243,0.9118 6.5453,0.9118 C9.9673,0.9118 12.7403,3.6858 12.7403,7.1068 C12.7403,10.5288 9.9673,13.3018 6.5453,13.3018 C3.1243,13.3018 0.3503,10.5288 0.3503,7.1068" id="Fill-19" fill="#F28083"></path>
                                            <path d="M3.0227,7.1068 C3.0227,6.6698 3.3767,6.3168 3.8137,6.3168 C4.2487,6.3168 4.6037,6.6698 4.6037,7.1068 C4.6037,7.5438 4.2487,7.8968 3.8137,7.8968 C3.3767,7.8968 3.0227,7.5438 3.0227,7.1068" id="Fill-21" fill="#DB6971"></path>
                                            <path d="M8.4875,7.1068 C8.4875,6.6698 8.8415,6.3168 9.2785,6.3168 C9.7135,6.3168 10.0685,6.6698 10.0685,7.1068 C10.0685,7.5438 9.7135,7.8968 9.2785,7.8968 C8.8415,7.8968 8.4875,7.5438 8.4875,7.1068" id="Fill-23" fill="#DB6971"></path>
                                        </g>
                                    </g>
                                    <g id="R-eye" mask="url(#mask-18)">
                                        <g transform="translate(9.000000, 16.000000)">
                                            <path d="M4.053,7.2587 C2.318,7.2587 0.909,5.8497 0.909,4.1137 C0.909,2.3787 2.318,0.9697 4.053,0.9697 C5.791,0.9697 7.198,2.3787 7.198,4.1137 C7.198,5.8497 5.791,7.2587 4.053,7.2587 Z" id="Fill-25" fill="#FFFFFF"></path>
                                            <path d="M6.6506,3.3803 C6.6506,4.4093 5.8166,5.2433 4.7876,5.2433 C3.7586,5.2433 2.9236,4.4093 2.9236,3.3803 C2.9236,2.3523 3.7586,1.5183 4.7876,1.5183 C5.8166,1.5183 6.6506,2.3523 6.6506,3.3803" id="Fill-27" fill="#1D1C1A"></path>
                                            <path d="M5.9011,2.682 C5.9011,2.899 5.7251,3.076 5.5071,3.076 C5.2911,3.076 5.1151,2.899 5.1151,2.682 C5.1151,2.464 5.2911,2.288 5.5071,2.288 C5.7251,2.288 5.9011,2.464 5.9011,2.682" id="Fill-29" fill="#FFFFFF"></path>
                                        </g>
                                    </g>
                                    <g id="L-eye" mask="url(#mask-18)">
                                        <g transform="translate(27.000000, 16.000000)">
                                            <path d="M6.7141,3.934 C6.7141,5.67 5.3071,7.079 3.5691,7.079 C1.8341,7.079 0.4251,5.67 0.4251,3.934 C0.4251,2.199 1.8341,0.79 3.5691,0.79 C5.3071,0.79 6.7141,2.199 6.7141,3.934" id="Fill-31" fill="#FFFFFF"></path>
                                            <path d="M6.1667,3.2006 C6.1667,4.2296 5.3327,5.0636 4.3037,5.0636 C3.2747,5.0636 2.4407,4.2296 2.4407,3.2006 C2.4407,2.1726 3.2747,1.3386 4.3037,1.3386 C5.3327,1.3386 6.1667,2.1726 6.1667,3.2006" id="Fill-33" fill="#1D1C1A"></path>
                                            <path d="M5.4167,2.5023 C5.4167,2.7193 5.2407,2.8963 5.0237,2.8963 C4.8077,2.8963 4.6307,2.7193 4.6307,2.5023 C4.6307,2.2843 4.8077,2.1083 5.0237,2.1083 C5.2407,2.1083 5.4167,2.2843 5.4167,2.5023" id="Fill-35" fill="#FFFFFF"></path>
                                        </g>
                                    </g>
                                </g>
                            </g>
                        </g>
                    </g>
                </g>
                <g id="Animal_Window/Rabbit" transform="translate(180.846600, 0.000000)">
                    <g id="Window-2">
                        <path d="M50.0001,25.2844 C50.0001,39.0924 38.8071,50.2844 25.0001,50.2844 C11.1931,50.2844 0.0001,39.0924 0.0001,25.2844 C0.0001,11.4774 11.1931,0.2844 25.0001,0.2844 C38.8071,0.2844 50.0001,11.4774 50.0001,25.2844" id="Fill-159" fill="#00A8C4"></path>
                        <mask id="mask-20" fill="white">
                            <use xlink:href="#path-19"></use>
                        </mask>
                        <use id="Mask" fill="#11274C" xlink:href="#path-19"></use>
                        <g id="Rabbit" mask="url(#mask-20)">
                            <g transform="translate(5.000000, 5.000000)" id="Clip">
                                <g>
                                    <mask id="mask-22" fill="white">
                                        <use xlink:href="#path-21"></use>
                                    </mask>
                                    <use id="Mask" fill="#11274C" xlink:href="#path-21"></use>
                                    <g id="R-ear" mask="url(#mask-22)">
                                        <g transform="translate(13.225806, 29.302862) rotate(-32.000000) translate(-13.225806, -29.302862) translate(6.725806, 9.802862)">
                                            <path d="M0.485976389,38.0057925 L7.16626021,36.9395545 C7.16626021,36.9395545 8.55143842,33.7489885 11.0930658,22.0325925 C12.6796187,14.7249044 15.1591644,-0.209028079 7.50070095,0.0169410205 C-0.157762535,0.24291012 0.485976389,38.0057925 0.485976389,38.0057925 Z" id="Clip-50" fill="#B48E6F"></path>
                                            <path d="M7.52768696,3.82273711 C1.64649965,5.82367941 2.21046506,32.0960868 2.21046506,32.0960868 L6.91250488,31.3441329 C6.91250488,31.3441329 7.88620368,29.0981654 9.67762323,20.851117 C11.3194668,13.2826895 13.0922621,3.5788759 8.82614603,3.57945791 C8.443185,3.57945791 8.01191733,3.65802894 7.52768696,3.82273711 Z" id="Clip-53" fill="#ECA5AB"></path>
                                        </g>
                                    </g>
                                    <g id="L-ear" mask="url(#mask-22)">
                                        <g transform="translate(29.942458, 27.778919) rotate(-32.000000) translate(-29.942458, -27.778919) translate(15.442458, 11.278919)">
                                            <path d="M9.09212353,13.8049998 C1.70528242,23.2480739 0.135025775,26.3507567 0.135025775,26.3507567 L3.58342111,32.1708332 C3.58342111,32.1708332 34.1197685,6.91089074 27.4152192,1.83703958 C20.7106699,-3.23681158 13.9501414,7.59439613 9.09212353,13.8049998 Z" id="Clip-56" fill="#B48E6F"></path>
                                            <path d="M10.9056594,14.1384902 C5.70542101,20.7861816 4.6019345,22.9710383 4.6019345,22.9710383 L7.0283244,27.0683721 C7.0283244,27.0683721 27.5970568,10.7127931 25.3772796,4.91017684 C24.8546368,3.54245886 24.0625243,2.96336125 23.0905716,2.96336125 C19.9366721,2.96277924 14.8796076,9.05814538 10.9056594,14.1384902 Z" id="Clip-59" fill="#ECA5AB"></path>
                                        </g>
                                    </g>
                                    <path d="M24.6758497,17.5836224 C23.7673357,17.9107107 23.0677625,18.996737 22.415332,20.0577369 C15.42251,18.1277996 7.84942646,21.4493172 4.66293457,28.2378545 C3.08743986,31.5954566 2.57818317,35.4739556 3.45992476,38.7989653 C5.0604458,43.418651 7.7159978,47.601831 12.5537943,50.2208655 C17.3915908,52.8398999 22.6091405,52.7819901 24.6758497,52.8762754 C30.0652405,52.5765414 35.5436785,49.1109769 37.9980048,43.8822201 C41.4004215,36.6333148 38.5666263,28.0638342 31.6861318,24.2126896 C32.536445,23.2395728 32.5143287,21.9964044 31.0622196,22.0330709 C32.9089299,20.0909114 30.180478,18.2657354 28.1021287,20.3144023 C29.5088412,18.6824528 27.5294332,17.3665335 25.7880663,17.3665335 C25.3905551,17.3665335 25.005848,17.4352105 24.6758497,17.5836224 Z" id="Head" fill="#C9A589" mask="url(#mask-22)" transform="translate(21.234002, 35.121404) rotate(-32.000000) translate(-21.234002, -35.121404) "></path>
                                    <g id="Nose" mask="url(#mask-22)">
                                        <g transform="translate(23.216361, 37.927548) rotate(-32.000000) translate(-23.216361, -37.927548) translate(19.216361, 32.427548)">
                                            <path d="M2.91003826,5.09256695 L0.291003826,10.7671416" id="Line" stroke="#979797" stroke-width="1" fill="none" stroke-linecap="square"></path>
                                            <path d="M2.77152044,5.40161301 C3.95124995,5.95510229 7.20409071,2.65337288 7.20409071,2.65337288 L2.05157697,0.235131091 C2.05157697,0.235131091 1.5900449,4.84754173 2.77152044,5.40161301 Z" id="Clip-83" stroke="none" fill="#FEA5BA" fill-rule="evenodd"></path>
                                        </g>
                                    </g>
                                    <g id="Mouth" mask="url(#mask-22)">
                                        <g transform="translate(23.761859, 43.473196) rotate(-32.000000) translate(-23.761859, -43.473196) translate(11.761859, 36.473196)">
                                            <mask id="mask-24" fill="white">
                                                <use xlink:href="#path-23"></use>
                                            </mask>
                                            <use id="Mask" stroke="none" fill="#000000" fill-rule="evenodd" transform="translate(11.523513, 6.631522) rotate(5.000000) translate(-11.523513, -6.631522) " xlink:href="#path-23"></use>
                                            <path d="M12.7041384,8.32442858 C18.5760543,7.83516584 21.7096868,6.3875409 22.1050357,3.98155376 C17.4648149,1.03563961 14.0732579,-0.437317463 11.9303649,-0.437317463 C9.78747193,-0.437317463 6.96664952,1.21682418 3.46789769,4.52510747 C3.75347552,7.54725094 6.83222242,8.81369131 12.7041384,8.32442858 Z" id="Oval" stroke="none" fill="#FFFFFF" fill-rule="evenodd" mask="url(#mask-24)" transform="translate(12.786467, 3.994684) rotate(27.000000) translate(-12.786467, -3.994684) "></path>
                                        </g>
                                    </g>
                                    <g id="L-Eye" mask="url(#mask-22)">
                                        <g transform="translate(29.473165, 31.466103) rotate(-32.000000) translate(-29.473165, -31.466103) translate(25.473165, 26.966103)">
                                            <path d="M0.423119563,2.66384902 C-0.499944573,4.63045287 0.345712545,6.96954163 2.3123164,7.89260576 C4.27717423,8.81450588 6.617427,7.97001278 7.53990912,6.00399093 C8.46239125,4.03796909 7.61615213,1.69829833 5.6518763,0.776398207 C5.11119119,0.522642871 4.54256972,0.402749295 3.98267836,0.402749295 C2.50612495,0.402749295 1.09184635,1.23851228 0.423119563,2.66384902 Z" id="Clip-95" stroke="none" fill="#FFFFFF" fill-rule="evenodd"></path>
                                            <path d="M2.17588006,3.33962351 C1.62937487,4.5030568 2.13048346,5.89114505 3.29624479,6.43765023 C4.46026009,6.98415542 5.84718432,6.48304683 6.39427151,5.31903153 C6.94019469,4.15501623 6.4385041,2.76809199 5.27448879,2.2210048 C4.95438458,2.07084683 4.61798416,1.99984189 4.2862398,1.99984189 C3.41090029,1.99984189 2.57222727,2.4951304 2.17588006,3.33962351 Z" id="Clip-98" stroke="none" fill="#1D1C1A" fill-rule="evenodd"></path>
                                            <mask id="mask-26" fill="white">
                                                <use xlink:href="#path-25"></use>
                                            </mask>
                                            <use id="Clip-101" stroke="none" fill="#FFFFFF" fill-rule="evenodd" xlink:href="#path-25"></use>
                                        </g>
                                    </g>
                                    <g id="R-eye" mask="url(#mask-22)">
                                        <g transform="translate(12.869781, 33.605558) rotate(-32.000000) translate(-12.869781, -33.605558) translate(8.369781, 29.105558)">
                                            <path d="M0.89221773,2.74242005 C-0.0308464055,4.70785989 0.815974727,7.04753065 2.78141457,7.97001278 C4.7462724,8.89249491 7.08652516,8.0480018 8.00900729,6.08256196 C8.93148942,4.11595811 8.08641431,1.77686936 6.12155648,0.854387232 C5.58087137,0.600631896 5.01224989,0.48073832 4.45235853,0.48073832 C2.97580512,0.48073832 1.56094452,1.31650131 0.89221773,2.74242005 Z" id="Clip-86" fill="#FFFFFF"></path>
                                            <path d="M2.64556023,3.41761253 C2.09963705,4.58162783 2.60016363,5.96913408 3.76534295,6.51622127 C4.92935826,7.06156244 6.3168645,6.56103586 6.86336968,5.39702055 C7.40987487,4.23300525 6.90876628,2.84549901 5.74416897,2.29957583 C5.42406476,2.14883585 5.08708233,2.07783092 4.75533797,2.07783092 C3.87999846,2.07783092 3.04132543,2.57370144 2.64556023,3.41761253 Z" id="Clip-89" fill="#1D1C1A"></path>
                                            <path d="M5.4956517,3.79009743 C5.37983218,4.03628666 5.48692159,4.32903651 5.7313648,4.44427403 C5.97755404,4.55951154 6.26972188,4.45416816 6.3855414,4.20797892 C6.50136092,3.96120768 6.39543553,3.66962184 6.14924629,3.55380232 C6.08231541,3.52237391 6.01131048,3.50724171 5.94146956,3.50724171 C5.75639113,3.50724171 5.5794608,3.61142108 5.4956517,3.79009743 Z" id="Clip-92" fill="#FFFFFF"></path>
                                        </g>
                                    </g>
                                </g>
                            </g>
                        </g>
                    </g>
                </g>
                <g id="Animal_Window/Tiger" transform="translate(0.846600, 0.000000)">
                    <g id="Window-2">
                        <path d="M50.0001,25.2844 C50.0001,39.0924 38.8071,50.2844 25.0001,50.2844 C11.1931,50.2844 0.0001,39.0924 0.0001,25.2844 C0.0001,11.4774 11.1931,0.2844 25.0001,0.2844 C38.8071,0.2844 50.0001,11.4774 50.0001,25.2844" id="Fill-159" fill="#00A8C4"></path>
                        <mask id="mask-28" fill="white">
                            <use xlink:href="#path-27"></use>
                        </mask>
                        <use id="Mask" fill="#11274C" xlink:href="#path-27"></use>
                        <g id="Tiger" mask="url(#mask-28)">
                            <g transform="translate(25.253521, 25.436533) rotate(120.000000) translate(-25.253521, -25.436533) translate(4.253521, 4.936533)" id="Clip">
                                <g transform="translate(0.000000, 0.000000)">
                                    <mask id="mask-30" fill="white">
                                        <use xlink:href="#path-29"></use>
                                    </mask>
                                    <use id="Mask" fill="#11274C" xlink:href="#path-29"></use>
                                    <g id="Group-5" mask="url(#mask-30)">
                                        <g transform="translate(20.997403, 33.414066) rotate(10.000000) translate(-20.997403, -33.414066) translate(1.997403, 4.914066)">
                                            <path d="M12.7135561,53.6103135 C20.4455426,53.6103135 37.7549635,52.4923448 37.7549635,45.5887854 C37.7549635,38.6852261 27.0756577,26.1150226 19.3436712,26.1150226 C11.6116847,26.1150226 5.93663006,46.8342233 5.93663006,53.7377826 C5.93663006,60.641342 4.98156963,53.6103135 12.7135561,53.6103135 Z" id="Oval-3" fill="#F37921"></path>
                                            <g id="R-ear" stroke-width="1" fill="none" transform="translate(22.050000, 0.000000)">
                                                <path d="M5.995845,10.8170035 C8.827695,10.4073512 10.794645,7.75620509 10.389645,4.89545884 C9.983745,2.03471259 7.359795,0.0473759948 4.528395,0.456573646 C1.696545,0.866225962 -0.269955,3.51737208 0.135495,6.37811833 C0.540495,9.23886458 3.164445,11.2262012 5.995845,10.8170035" id="Fill-59" fill="#E28031"></path>
                                                <path d="M5.683365,8.60892753 C7.307865,8.37386621 8.436465,6.85301494 8.204265,5.21122303 C7.971615,3.56988578 6.465915,2.42958832 4.841415,2.66464964 C3.216915,2.89925629 2.087865,4.42056223 2.320515,6.06189948 C2.553165,7.70369139 4.058865,8.84398885 5.683365,8.60892753" id="Fill-61" fill="#754D24"></path>
                                            </g>
                                            <g id="L-ear" stroke-width="1" fill="none" transform="translate(0.000000, 3.182648)">
                                                <path d="M5.9409,10.8307344 C8.77275,10.4215367 10.73925,7.77039061 10.33425,4.90918969 C9.9288,2.04844344 7.30485,0.0611068493 4.47345,0.470304501 C1.6416,0.879956817 -0.32535,3.53110294 0.08055,6.39184918 C0.48555,9.2530501 3.1095,11.239932 5.9409,10.8307344" id="Fill-64" fill="#E28031"></path>
                                                <path d="M5.62842,8.62293118 C7.25292,8.38786986 8.38152,6.86656393 8.14932,5.22522668 C7.91622,3.58388943 6.41052,2.44359198 4.78602,2.67819863 C3.16152,2.91325995 2.03292,4.43456588 2.26512,6.07590313 C2.49777,7.71769504 4.00347,8.8579925 5.62842,8.62293118" id="Fill-67" fill="#754D24"></path>
                                            </g>
                                            <g id="Head" stroke-width="1" fill="none" transform="translate(0.450000, 2.727984)">
                                                <mask id="mask-32" fill="white">
                                                    <use xlink:href="#path-31"></use>
                                                </mask>
                                                <use id="Mask" fill="#E28031" xlink:href="#path-31"></use>
                                                <path d="M0.52506,20.7560962 L8.44956,19.1770479 L3.50451,26.651725 C3.42081,26.6635463 1.52271,24.7716892 0.52506,20.7560962" id="Fill-74" fill="#333333" mask="url(#mask-32)"></path>
                                                <path d="M-0.16092,14.0959952 L5.26698,16.0842412 L0.15228,19.3369078 C0.15228,19.3369078 -0.61677,15.7218739 -0.16092,14.0959952" id="Fill-76" fill="#333333" mask="url(#mask-32)"></path>
                                                <path d="M35.89488,15.7419246 L27.85023,16.4721151 L34.47963,22.0994921 C34.46748,22.0144699 36.05238,19.8789129 35.89488,15.7419246" id="Fill-79" fill="#333333" mask="url(#mask-32)"></path>
                                                <path d="M34.704405,9.15461533 L30.046455,12.6014235 L35.858205,14.2741326 C35.858205,14.2741326 35.593605,10.5858978 34.704405,9.15461533" id="Fill-82" fill="#333333" mask="url(#mask-32)"></path>
                                                <g id="Nose" mask="url(#mask-32)">
                                                    <g transform="translate(13.500000, 9.093281)">
                                                        <polygon id="Fill-86" fill="#F1AA31" points="1.06119 1.05391129 5.94144 0.348272668 9.95544 10.2954129 0.19494 11.7066902"></polygon>
                                                        <path d="M9.955305,10.2952765 C10.266705,12.4949412 8.347455,14.6304983 5.644755,15.0215094 C2.942055,15.4120658 0.507105,13.9066731 0.195255,11.7065538" id="Fill-88" fill="#333333"></path>
                                                    </g>
                                                </g>
                                                <g id="Mouth" mask="url(#mask-32)">
                                                    <g transform="translate(8.550000, 20.914547)">
                                                        <mask id="mask-34" fill="white">
                                                            <use xlink:href="#path-33"></use>
                                                        </mask>
                                                        <use id="Mask" stroke="none" fill="#000000" fill-rule="evenodd" xlink:href="#path-33"></use>
                                                        <path d="M3.125295,2.54511846 C2.292345,3.56811259 4.239495,5.59455029 4.797495,5.52271337 C5.355495,5.45042179 6.492195,3.85091363 6.205995,3.03069967 C5.919345,2.21139504 3.561345,2.00997886 3.125295,2.54511846" id="Fill-95" stroke="none" fill="#FFFFFF" fill-rule="evenodd" mask="url(#mask-34)"></path>
                                                        <path d="M18.156375,0.371460535 C19.239975,1.11756425 17.934075,3.61412459 17.378325,3.70323875 C16.822575,3.79189824 15.287175,2.57885453 15.334425,1.71090085 C15.382125,0.842947162 17.589825,-0.0186412264 18.156375,0.371460535" id="Fill-97" stroke="none" fill="#FFFFFF" fill-rule="evenodd" mask="url(#mask-34)"></path>
                                                    </g>
                                                </g>
                                                <g id="R-eye" mask="url(#mask-32)">
                                                    <g transform="translate(6.750000, 9.093281)">
                                                        <path d="M3.64122,6.50987997 C5.31252,6.2679987 6.47307,4.70349967 6.23412,3.01487736 C5.99472,1.32670972 4.44627,0.154131115 2.77497,0.39555773 C1.10367,0.636984344 -0.05688,2.20193803 0.18207,3.89010568 C0.42147,5.57872798 1.96992,6.75130659 3.64122,6.50987997" id="Fill-101" fill="#FFFFFF"></path>
                                                        <path d="M3.48786,5.21781566 C4.46256,5.0768698 5.13981,4.16435903 4.99986,3.17910202 C4.86081,2.19429967 3.95721,1.51003027 2.98251,1.65097613 C2.00781,1.79192198 1.33056,2.70488741 1.47006,3.68968976 C1.60956,4.67449211 2.51271,5.35876151 3.48786,5.21781566" id="Fill-104" fill="#1D1C1A"></path>
                                                        <path d="M3.943575,2.98536967 C4.128975,2.95854449 4.258125,2.78486282 4.231575,2.59708656 C4.205025,2.40931031 4.032675,2.27927639 3.847275,2.30610157 C3.661425,2.33292674 3.532725,2.50660841 3.559275,2.69438467 C3.585375,2.88170626 3.757725,3.01219485 3.943575,2.98536967" id="Fill-107" fill="#FFFFFF"></path>
                                                    </g>
                                                </g>
                                                <g id="L-eye" mask="url(#mask-32)">
                                                    <g transform="translate(21.600000, 6.819961)">
                                                        <path d="M3.55995,6.47414338 C5.2308,6.23271676 6.3918,4.66776308 6.15285,2.97959543 C5.913,1.29097312 4.365,0.118394521 2.6937,0.359821135 C1.0224,0.601702414 -0.13815,2.16620144 0.1008,3.85482374 C0.3402,5.54299139 1.88865,6.71602466 3.55995,6.47414338" id="Fill-110" fill="#FFFFFF"></path>
                                                        <path d="M3.40614,5.18207906 C4.38129,5.0411332 5.05854,4.12862244 4.91859,3.14382009 C4.77954,2.15856308 3.87594,1.47474834 2.90124,1.61569419 C1.92654,1.75664005 1.24929,2.66915082 1.38879,3.65395316 C1.52829,4.63921018 2.43144,5.32302492 3.40614,5.18207906" id="Fill-113" fill="#1D1C1A"></path>
                                                        <path d="M3.861855,2.94981494 C4.047705,2.92298976 4.176405,2.74930809 4.150305,2.56153183 C4.123755,2.37375558 3.951405,2.24372166 3.765555,2.27054684 C3.580155,2.29737202 3.451005,2.47105369 3.477555,2.65882994 C3.504105,2.84615153 3.676455,2.97664012 3.861855,2.94981494" id="Fill-116" fill="#FFFFFF"></path>
                                                    </g>
                                                </g>
                                            </g>
                                        </g>
                                    </g>
                                </g>
                            </g>
                        </g>
                    </g>
                </g>
            </g>
        </g>
    </g>
</svg>