<?xml version="1.0" encoding="UTF-8"?>
<svg width="301px" height="182px" viewBox="0 0 301 182" version="1.1" xmlns="http://www.w3.org/2000/svg" xmlns:xlink="http://www.w3.org/1999/xlink">
    <!-- Generator: Sketch 44.1 (41455) - http://www.bohemiancoding.com/sketch -->
    <title>Progress/Shuttle_organic:c2all</title>
    <desc>Created with Sketch.</desc>
    <defs>
        <path d="M33.403299,36.9318454 C39.4917526,34.3799307 44.6573196,31.5308795 48.8894845,28.8449137 C49.1239175,28.6966543 52.7090722,26.3399478 52.7090722,21.9150229 C52.7090722,17.4907157 49.1239175,15.1340092 48.8894845,14.9857498 C44.6573196,12.299784 39.4917526,9.45073276 33.403299,6.89943584 C25.5296907,3.60004676 18.3,1.71591706 0,0.60706041 L0,43.2242208 C18.3,42.1153642 25.5296907,40.2306167 33.403299,36.9318454" id="path-1"></path>
        <path d="M0.243773196,52.802642 C0.243773196,15.9187956 7.5736701,6.48949863 9.4237732,4.16182628 C11.2738763,1.83415392 13.8297526,0.394184642 16.6528454,0.394184642 C19.4765567,0.394184642 22.032433,1.83415392 23.8825361,4.16182628 C25.7326392,6.48949863 26.8769691,9.70549181 26.8769691,13.2575396 L26.8769691,52.802642 L26.8769691,92.3477444 C26.8769691,95.8997922 25.7326392,99.1157853 23.8825361,101.443458 C22.032433,103.771748 19.4765567,105.211099 16.6528454,105.211099 C13.8297526,105.211099 11.2738763,103.771748 9.4237732,101.443458 C7.5736701,99.1157853 0.243773196,89.6864884 0.243773196,52.802642" id="path-3"></path>
        <path d="M11.6701856,105.211038 C11.6701856,105.211038 0.552865979,93.7283481 0.552865979,52.8025802 C0.552865979,11.8768123 11.6701856,0.394122867 11.6701856,0.394122867 L21.6122474,0.394122867 L31.5543093,0.394122867 L41.4957526,0.394122867 L51.4378144,0.394122867 L51.4378144,26.5983515 L51.4378144,52.8025802 L51.4378144,79.0068089 L51.4378144,105.211038 L41.4957526,105.211038 L31.5543093,105.211038 L21.6122474,105.211038 L11.6701856,105.211038 Z" id="path-5"></path>
        <path d="M234.367485,60.2156113 C234.367485,25.0040072 181.477379,2.14735188 165.610348,0.911856997 C149.743316,-0.323637884 13.5512958,0.911856997 13.5512958,0.911856997 C13.5512958,0.911856997 0.50257732,25.6217546 0.50257732,60.2156113 C0.50257732,94.8094679 13.5512958,119.519366 13.5512958,119.519366 C13.5512958,119.519366 149.743316,120.75486 165.610348,119.519366 C181.477379,118.283871 234.367485,95.4272154 234.367485,60.2156113 Z" id="path-7"></path>
        <path d="M27.856476,15.8647216 C27.856476,22.7710745 22.324216,28.3698196 15.499876,28.3698196 C8.675536,28.3698196 3.143896,22.7710745 3.143896,15.8647216 C3.143896,8.95836863 8.675536,3.35962353 15.499876,3.35962353 C22.324216,3.35962353 27.856476,8.95836863 27.856476,15.8647216" id="path-9"></path>
        <path d="M0.2255436,11.1791586 C-0.4903704,6.06381352 4.1474466,0.991260361 9.7232616,0.175075973 C15.2469036,-0.633405871 20.9781216,2.6338992 21.6940356,7.74924427 C22.4099496,12.8643041 19.8225036,17.6196265 12.3187986,18.717667 C4.2414696,19.8998648 0.9414576,16.2945037 0.2255436,11.1791586" id="path-11"></path>
        <path d="M6.8267394,2.79864805 C5.7241314,2.97466545 3.1165974,2.21696334 1.9378224,1.59705119 C1.2138174,1.21620317 0.3759804,2.16361609 0.2523834,2.64402661 C-0.1125486,4.06386223 1.7280144,5.88651237 7.3108044,4.99729646 C12.8935944,4.10808054 13.3930044,1.84495899 12.6955044,0.679022048 C11.5915014,-1.16616517 9.5492214,2.36416751 6.8267394,2.79864805" id="path-13"></path>
        <path d="M27.856476,15.8647216 C27.856476,22.7710745 22.324216,28.3698196 15.499876,28.3698196 C8.675536,28.3698196 3.143896,22.7710745 3.143896,15.8647216 C3.143896,8.95836863 8.675536,3.35962353 15.499876,3.35962353 C22.324216,3.35962353 27.856476,8.95836863 27.856476,15.8647216" id="path-15"></path>
        <path d="M12.71,25.7254902 C5.69043812,25.7254902 0,19.966666 0,12.8627451 C0,5.75882416 5.69043812,0 12.71,0 C19.7295619,0 25.42,5.75882416 25.42,12.8627451 C25.42,19.966666 19.7295619,25.7254902 12.71,25.7254902 Z" id="path-17"></path>
        <path d="M1.0236689,0.806213761 C-0.897551825,1.52405855 0.914111048,5.32063783 6.21770529,6.90506491 C11.5212995,8.48949198 14.0496004,7.28363928 14.0108083,5.75479974 C13.9499394,3.33546702 11.5107812,5.46777821 6.88613348,3.99794191 C2.26148576,2.52810561 2.99931918,0.0680319137 1.0236689,0.806213761 Z" id="path-19"></path>
        <path d="M3.11646319,2.32953124 C3.04465509,2.48363773 3.11068967,2.6676891 3.26260531,2.73962981 C3.41524264,2.81230088 3.5963867,2.74583789 3.6681948,2.59136621 C3.73964206,2.43689453 3.67432916,2.25357353 3.52169184,2.18126764 C3.47983385,2.16118267 3.43581079,2.15168796 3.39250942,2.15168796 C3.27812164,2.15168796 3.16806399,2.21742059 3.11646319,2.32953124 Z" id="path-21"></path>
        <path d="M27.856476,15.8647216 C27.856476,22.7710745 22.324216,28.3698196 15.499876,28.3698196 C8.675536,28.3698196 3.143896,22.7710745 3.143896,15.8647216 C3.143896,8.95836863 8.675536,3.35962353 15.499876,3.35962353 C22.324216,3.35962353 27.856476,8.95836863 27.856476,15.8647216" id="path-23"></path>
        <path d="M12.71,25.7254902 C5.69043812,25.7254902 0,19.966666 0,12.8627451 C0,5.75882416 5.69043812,0 12.71,0 C19.7295619,0 25.42,5.75882416 25.42,12.8627451 C25.42,19.966666 19.7295619,25.7254902 12.71,25.7254902 Z" id="path-25"></path>
        <path d="M27.856476,15.8647216 C27.856476,22.7710745 22.324216,28.3698196 15.499876,28.3698196 C8.675536,28.3698196 3.143896,22.7710745 3.143896,15.8647216 C3.143896,8.95836863 8.675536,3.35962353 15.499876,3.35962353 C22.324216,3.35962353 27.856476,8.95836863 27.856476,15.8647216" id="path-27"></path>
        <path d="M12.71,25.7254902 C5.69043812,25.7254902 0,19.966666 0,12.8627451 C0,5.75882416 5.69043812,0 12.71,0 C19.7295619,0 25.42,5.75882416 25.42,12.8627451 C25.42,19.966666 19.7295619,25.7254902 12.71,25.7254902 Z" id="path-29"></path>
        <path d="M27.856476,15.8647216 C27.856476,22.7710745 22.324216,28.3698196 15.499876,28.3698196 C8.675536,28.3698196 3.143896,22.7710745 3.143896,15.8647216 C3.143896,8.95836863 8.675536,3.35962353 15.499876,3.35962353 C22.324216,3.35962353 27.856476,8.95836863 27.856476,15.8647216" id="path-31"></path>
        <path d="M12.71,25.7254902 C5.69043812,25.7254902 0,19.966666 0,12.8627451 C0,5.75882416 5.69043812,0 12.71,0 C19.7295619,0 25.42,5.75882416 25.42,12.8627451 C25.42,19.966666 19.7295619,25.7254902 12.71,25.7254902 Z" id="path-33"></path>
        <path d="M1.54773382,2.24846209 C0.0928445035,3.08241254 1.97053456,6.34797393 5.92874878,8.00557134 C9.88696299,9.66316875 13.2583758,8.49746954 13.2225315,7.0992448 C13.1662881,4.88660523 9.81880471,6.59862339 6.94222027,5.32884531 C4.06563584,4.05906724 3.00262314,1.41451165 1.54773382,2.24846209 Z" id="path-35"></path>
    </defs>
    <g id="Specs" stroke="none" stroke-width="1" fill="none" fill-rule="evenodd">
        <g id="2.0_Zearned-It" transform="translate(-328.000000, -200.000000)">
            <g id="Progress/Shuttle_organic" transform="translate(480.000000, 278.289084) rotate(-10.000000) translate(-480.000000, -278.289084) translate(330.000000, 187.670527)">
                <g id="Fin-Top" stroke-width="1" transform="translate(14.226804, 9.266212)">
                    <polygon id="Fill-1" fill="#5D7078" points="54.8307835 41.5317782 2.62645361 3.84300683 33.4107835 3.84300683 72.2177938 41.5317782"></polygon>
                    <path d="M0.243773196,7.41086894 L0.243773196,0.274650512 L42.426866,0.274650512 C43.7932577,0.274650512 44.9010928,1.38103618 44.9010928,2.74564027 L44.9010928,4.93987918 C44.9010928,6.30448328 43.7932577,7.41086894 42.426866,7.41086894 L0.243773196,7.41086894 Z" id="Fill-2" fill="#00A8C4"></path>
                </g>
                <g id="Fin-Bottom" stroke-width="1" transform="translate(14.226804, 129.726962)">
                    <polygon id="Fill-4" fill="#435259" points="54.8307835 0.445519454 2.62645361 38.1349085 33.4107835 38.1349085 72.2177938 0.445519454"></polygon>
                    <path d="M0.243773196,34.5664287 L0.243773196,41.7026471 L42.426866,41.7026471 C43.7932577,41.7026471 44.9010928,40.5962614 44.9010928,39.2316573 L44.9010928,37.0374184 C44.9010928,35.6728143 43.7932577,34.5664287 42.426866,34.5664287 L0.243773196,34.5664287 Z" id="Fill-6" fill="#007F99"></path>
                </g>
                <g id="Blaster" stroke-width="1" transform="translate(0.000000, 37.682594)">
                    <path d="M36.7793814,64.1791406 L36.7793814,41.4262669 C36.7793814,37.9310519 38.2614433,34.5989222 40.8593814,32.2564239 L57.3284536,17.4033044 L57.3284536,88.2021031 L40.8593814,73.3489836 C38.2614433,71.0064853 36.7793814,67.6743556 36.7793814,64.1791406" id="Fill-8" fill="#017F99"></path>
                    <g id="Fill-23" transform="translate(0.000000, 30.887372)">
                        <mask id="mask-2" fill="white">
                            <use xlink:href="#path-1"></use>
                        </mask>
                        <use id="Mask" fill="#435259" xlink:href="#path-1"></use>
                        <path d="M14.5989046,31.8249203 C-5.45249075,33.5418239 -12.6135659,31.8249203 -18.6414579,31.8249203 C-24.6693499,31.8249203 -39.0932344,49.1242122 -15.6275119,62.3530825 C7.83821066,75.5819528 56.9491693,72.6202123 60.9185362,56.1660416 C64.8879031,39.7113622 55.7412245,31.2930033 51.5298808,26.4593777 C48.4933302,22.9740792 34.6503,30.1080168 14.5989046,31.8249203 Z" fill="#303B40" mask="url(#mask-2)"></path>
                    </g>
                    <g id="Fill-23" transform="translate(49.484536, 0.000000)">
                        <mask id="mask-4" fill="white">
                            <use xlink:href="#path-3"></use>
                        </mask>
                        <use id="Mask" fill="#00A8C4" xlink:href="#path-3"></use>
                        <path d="M29.7363326,79.3373229 C19.4702725,87.1927694 -11.8778752,73.5184736 -17.0109053,73.5184736 C-22.1439353,73.5184736 -34.4265429,93.3025611 -14.4443902,108.431569 C5.53776239,123.560577 47.3580247,120.173425 50.7381249,101.355848 C54.1182252,82.53769 52.4910547,76.1369558 48.9048999,70.609049 C46.319136,66.6231373 40.0023926,71.4818764 29.7363326,79.3373229 Z" fill="#007F99" mask="url(#mask-4)"></path>
                    </g>
                    <g id="Fill-23" transform="translate(55.670103, 0.000000)">
                        <mask id="mask-6" fill="white">
                            <use xlink:href="#path-5"></use>
                        </mask>
                        <use id="Mask" fill="#B8C5CC" xlink:href="#path-5"></use>
                        <path d="M23.5507655,79.3373229 C13.2847055,87.1927694 -18.0634422,73.5184736 -23.1964723,73.5184736 C-28.3295023,73.5184736 -40.6121099,93.3025611 -20.6299573,108.431569 C-0.647804621,123.560577 41.1724576,120.173425 44.5525579,101.355848 C47.9326582,82.53769 46.3054877,76.1369558 42.7193329,70.609049 C40.133569,66.6231373 33.8168256,71.4818764 23.5507655,79.3373229 Z" fill="#A1ADB3" mask="url(#mask-6)"></path>
                    </g>
                </g>
                <path d="M210.062227,114.637122 C210.062227,120.215382 196.656866,129.277737 183.810062,130.185825 C170.963258,131.093296 126.278722,137.228764 113.431918,162.052327 C100.585113,186.875272 82.1521237,179.344931 79.0803711,179.066327 L79.0803711,114.637122 L210.062227,114.637122 Z" id="Wing-Bottom" fill="#DFEAEF"></path>
                <path d="M210.062227,66.3334113 C210.062227,60.7557696 196.656866,51.6927969 183.810062,50.7853259 C170.963258,49.8778549 126.278722,43.7417696 113.431918,18.9182065 C100.585113,-5.90473891 82.1521237,1.62560239 79.0803711,1.90482423 L79.0803711,66.3334113 L210.062227,66.3334113 Z" id="Wing-Top" fill="#FFFFFF"></path>
                <g id="Pod" stroke-width="1" transform="translate(65.567010, 30.269625)">
                    <mask id="mask-8" fill="white">
                        <use xlink:href="#path-7"></use>
                    </mask>
                    <use id="Mask" fill="#FFFFFF" xlink:href="#path-7"></use>
                    <path d="M174.676454,91.1029833 C140.037278,107.782164 34.2640825,78.7480345 16.9444948,78.7480345 C-0.375092784,78.7480345 -41.8183918,120.75486 25.6042887,152.877727 C93.0269691,185.000594 234.134598,177.808778 245.539546,137.85411 C256.944495,97.8982051 251.454186,84.3077614 239.353979,72.5705601 C230.629237,64.1074201 209.315629,74.4238024 174.676454,91.1029833 Z" id="Fill-23" fill="#DFEBEF" mask="url(#mask-8)"></path>
                </g>
                <g id="Animals" stroke-width="1" transform="translate(82.268041, 48.802048)">
                    <g id="Animal_Window/Tiger" transform="translate(148.977278, 0.000000)">
                        <g id="Window-2">
                            <path d="M31.000062,15.8647216 C31.000062,24.5285647 24.060402,31.5509961 15.500062,31.5509961 C6.939722,31.5509961 6.20000001e-05,24.5285647 6.20000001e-05,15.8647216 C6.20000001e-05,7.20150588 6.939722,0.178447059 15.500062,0.178447059 C24.060402,0.178447059 31.000062,7.20150588 31.000062,15.8647216" id="Fill-159" fill="#00A8C4"></path>
                            <mask id="mask-10" fill="white">
                                <use xlink:href="#path-9"></use>
                            </mask>
                            <use id="Mask" fill="#11274C" xlink:href="#path-9"></use>
                            <path d="M15.7291186,28.6968292 C8.70955675,28.6968292 3.01911863,22.9380051 3.01911863,15.8340841 C3.01911863,8.73016319 8.70955675,2.97133903 15.7291186,2.97133903 C22.7486805,2.97133903 28.4391186,8.73016319 28.4391186,15.8340841 C28.4391186,22.9380051 22.7486805,28.6968292 15.7291186,28.6968292 Z" id="Mask" fill="#11274C" mask="url(#mask-10)" transform="translate(15.729119, 15.834084) rotate(120.000000) translate(-15.729119, -15.834084) "></path>
                            <g id="Group-5" mask="url(#mask-10)">
                                <g transform="translate(8.723964, 11.907295) rotate(130.000000) translate(-8.723964, -11.907295) translate(-3.056036, -5.975058)">
                                    <path d="M7.8824048,33.6378438 C12.6762364,33.6378438 23.4080774,32.9363732 23.4080774,28.6047281 C23.4080774,24.273083 16.7869078,16.3858965 11.9930761,16.3858965 C7.19924451,16.3858965 3.68071064,29.3861793 3.68071064,33.7178244 C3.68071064,38.0494695 3.08857317,33.6378438 7.8824048,33.6378438 Z" id="Oval-3" fill="#F37921"></path>
                                    <g id="R-ear" stroke-width="1" fill="none" transform="translate(13.671000, 0.000000)">
                                        <path d="M3.7174239,6.78713947 C5.4731709,6.53010272 6.6926799,4.86663849 6.4415799,3.07166045 C6.1899219,1.27668241 4.5630729,0.0297261144 2.8076049,0.286477582 C1.0518579,0.543514329 -0.1673721,2.20697856 0.0840069,4.0019566 C0.3351069,5.79693464 1.9619559,7.04389093 3.7174239,6.78713947" id="Fill-59" fill="#E28031"></path>
                                        <path d="M3.5236863,5.40168002 C4.5308763,5.25419056 5.2306083,4.29993094 5.0866443,3.269787 C4.9424013,2.23992833 4.0088673,1.52444758 3.0016773,1.67193703 C1.9944873,1.8191412 1.2944763,2.77368611 1.4387193,3.80354477 C1.5829623,4.83368871 2.5164963,5.54916947 3.5236863,5.40168002" id="Fill-61" fill="#754D24"></path>
                                    </g>
                                    <g id="L-ear" stroke-width="1" fill="none" transform="translate(0.000000, 1.996956)">
                                        <path d="M3.683358,6.7957549 C5.439105,6.53900344 6.658335,4.8755392 6.407235,3.08027589 C6.155856,1.28529785 4.529007,0.0383415525 2.773539,0.29509302 C1.017792,0.552129767 -0.201717,2.215594 0.049941,4.01057204 C0.301041,5.80583536 1.92789,7.05250637 3.683358,6.7957549" id="Fill-64" fill="#E28031"></path>
                                        <path d="M3.4896204,5.41046662 C4.4968104,5.26297717 5.1965424,4.30843227 5.0525784,3.2785736 C4.9080564,2.24871494 3.9745224,1.53323418 2.9673324,1.68043836 C1.9601424,1.82792781 1.2604104,2.78247271 1.4043744,3.81233138 C1.5486174,4.84247532 2.4821514,5.55795608 3.4896204,5.41046662" id="Fill-67" fill="#754D24"></path>
                                    </g>
                                    <g id="Head" stroke-width="1" fill="none" transform="translate(0.279000, 1.711676)">
                                        <mask id="mask-12" fill="white">
                                            <use xlink:href="#path-11"></use>
                                        </mask>
                                        <use id="Mask" fill="#E28031" xlink:href="#path-11"></use>
                                        <path d="M0.3255372,13.0234329 L5.2387272,12.0326575 L2.1727962,16.722651 C2.1209022,16.7300683 0.9440802,15.5430207 0.3255372,13.0234329" id="Fill-74" fill="#333333" mask="url(#mask-12)"></path>
                                        <path d="M-0.0997704,8.84454603 L3.2655276,10.0920729 L0.0944136,12.1329618 C0.0944136,12.1329618 -0.3823974,9.8647052 -0.0997704,8.84454603" id="Fill-76" fill="#333333" mask="url(#mask-12)"></path>
                                        <path d="M22.2548256,9.87728602 L17.2671426,10.3354447 L21.3773706,13.866348 C21.3698376,13.8130007 22.3524756,12.4730434 22.2548256,9.87728602" id="Fill-79" fill="#333333" mask="url(#mask-12)"></path>
                                        <path d="M21.5167311,5.74407236 L18.6288021,7.90677556 L22.2320871,8.9563185 C22.2320871,8.9563185 22.0680351,6.64213194 21.5167311,5.74407236" id="Fill-82" fill="#333333" mask="url(#mask-12)"></path>
                                        <g id="Nose" mask="url(#mask-12)">
                                            <g transform="translate(8.370000, 5.705588)">
                                                <polygon id="Fill-86" fill="#F1AA31" points="0.6579378 0.661277669 3.6836928 0.218524027 6.1723728 6.45986693 0.1208628 7.34537421"></polygon>
                                                <path d="M6.1722891,6.45978134 C6.3653571,7.83996312 5.1754221,9.1799205 3.4997481,9.4252608 C1.8240741,9.67031581 0.3144051,8.72575569 0.1210581,7.34528863" id="Fill-88" fill="#333333"></path>
                                            </g>
                                        </g>
                                        <g id="Mouth" mask="url(#mask-12)">
                                            <g transform="translate(5.301000, 13.122853)">
                                                <mask id="mask-14" fill="white">
                                                    <use xlink:href="#path-13"></use>
                                                </mask>
                                                <use id="Mask" stroke="none" fill="#000000" fill-rule="evenodd" xlink:href="#path-13"></use>
                                                <path d="M1.9376829,1.59693707 C1.4212539,2.23881574 2.6284869,3.51030607 2.9744469,3.46523192 C3.3204069,3.41987249 4.0251609,2.41625953 3.8477169,1.90161548 C3.6699939,1.38754199 2.2080339,1.26116321 1.9376829,1.59693707" id="Fill-95" stroke="none" fill="#FFFFFF" fill-rule="evenodd" mask="url(#mask-14)"></path>
                                                <path d="M11.2569525,0.233073277 C11.9287845,0.701216786 11.1191265,2.26768602 10.7745615,2.32360078 C10.4299965,2.37923027 9.4780485,1.61810481 9.5073435,1.07350641 C9.5369175,0.528908023 10.9056915,-0.0116964558 11.2569525,0.233073277" id="Fill-97" stroke="none" fill="#FFFFFF" fill-rule="evenodd" mask="url(#mask-14)"></path>
                                            </g>
                                        </g>
                                        <g id="R-eye" mask="url(#mask-12)">
                                            <g transform="translate(4.185000, 5.705588)">
                                                <path d="M2.2575564,4.08463057 C3.2937624,3.93286193 4.0133034,2.95121548 3.8651544,1.89168776 C3.7167264,0.832445314 2.7566874,0.0967097195 1.7204814,0.248193085 C0.6842754,0.399676451 -0.0352656,1.38160818 0.1128834,2.44085062 C0.2613114,3.50037834 1.2213504,4.23611394 2.2575564,4.08463057" id="Fill-101" fill="#FFFFFF"></path>
                                                <path d="M2.1624732,3.27392355 C2.7667872,3.18548693 3.1866822,2.61293116 3.0999132,1.99473068 C3.0137022,1.37681548 2.4534702,0.947469972 1.8491562,1.03590659 C1.2448422,1.12434321 0.8249472,1.69718426 0.9114372,2.31509946 C0.9979272,2.93301466 1.5578802,3.36236017 2.1624732,3.27392355" id="Fill-104" fill="#1D1C1A"></path>
                                                <path d="M2.4450165,1.87317312 C2.5599645,1.85634164 2.6400375,1.74736491 2.6235765,1.62954451 C2.6071155,1.51172411 2.5002585,1.4301342 2.3853105,1.44696569 C2.2700835,1.46379717 2.1902895,1.57277391 2.2067505,1.6905943 C2.2229325,1.80812942 2.3297895,1.89000461 2.4450165,1.87317312" id="Fill-107" fill="#FFFFFF"></path>
                                            </g>
                                        </g>
                                        <g id="L-eye" mask="url(#mask-12)">
                                            <g transform="translate(13.392000, 4.279191)">
                                                <path d="M2.207169,4.06220761 C3.243096,3.91072424 3.962916,2.92879252 3.814767,1.86955008 C3.66606,0.810022353 2.7063,0.074286758 1.670094,0.225770124 C0.633888,0.377538769 -0.085653,1.35918521 0.062496,2.41871294 C0.210924,3.47795538 1.170963,4.21397626 2.207169,4.06220761" id="Fill-110" fill="#FFFFFF"></path>
                                                <path d="M2.1118068,3.25150059 C2.7163998,3.16306397 3.1362948,2.5905082 3.0495258,1.972593 C2.9633148,1.35439252 2.4030828,0.92533229 1.7987688,1.01376891 C1.1944548,1.10220552 0.7745598,1.6747613 0.8610498,2.29267649 C0.9475398,2.91087697 1.5074928,3.3399372 2.1118068,3.25150059" id="Fill-113" fill="#1D1C1A"></path>
                                                <path d="M2.3943501,1.85086427 C2.5095771,1.83403279 2.5893711,1.72505606 2.5731891,1.60723566 C2.5567281,1.48941526 2.4498711,1.40782535 2.3346441,1.42465684 C2.2196961,1.44148832 2.1396231,1.55046506 2.1560841,1.66828545 C2.1725451,1.78582057 2.2794021,1.86769576 2.3943501,1.85086427" id="Fill-116" fill="#FFFFFF"></path>
                                            </g>
                                        </g>
                                    </g>
                                </g>
                            </g>
                        </g>
                    </g>
                    <g id="Animal_Window/Rabbit" transform="translate(37.637072, 0.000000)">
                        <g id="Window-2">
                            <path d="M31.000062,15.8647216 C31.000062,24.5285647 24.060402,31.5509961 15.500062,31.5509961 C6.939722,31.5509961 6.20000001e-05,24.5285647 6.20000001e-05,15.8647216 C6.20000001e-05,7.20150588 6.939722,0.178447059 15.500062,0.178447059 C24.060402,0.178447059 31.000062,7.20150588 31.000062,15.8647216" id="Fill-159" fill="#00A8C4"></path>
                            <mask id="mask-16" fill="white">
                                <use xlink:href="#path-15"></use>
                            </mask>
                            <use id="Mask" fill="#11274C" xlink:href="#path-15"></use>
                            <g id="Rabbit" mask="url(#mask-16)">
                                <g transform="translate(3.100000, 3.137255)" id="Clip">
                                    <g>
                                        <mask id="mask-18" fill="white">
                                            <use xlink:href="#path-17"></use>
                                        </mask>
                                        <use id="Mask" fill="#11274C" xlink:href="#path-17"></use>
                                        <g id="R-ear" mask="url(#mask-18)">
                                            <g transform="translate(8.200000, 18.386109) rotate(-32.000000) translate(-8.200000, -18.386109) translate(4.170000, 6.150815)">
                                                <path d="M0.301305361,23.8467718 L4.44308133,23.1777597 C4.44308133,23.1777597 5.30189182,21.1758359 6.87770082,13.8243718 C7.86136359,9.23915572 9.39868195,-0.131154873 4.65043459,0.0106296599 C-0.0978127716,0.152414193 0.301305361,23.8467718 0.301305361,23.8467718 Z" id="Clip-50" fill="#B48E6F"></path>
                                                <path d="M4.66716592,2.39858015 C1.02082978,3.65407336 1.37048834,20.1387211 1.37048834,20.1387211 L4.28575302,19.6669069 C4.28575302,19.6669069 4.88944628,18.2576724 6.0001264,13.0830538 C7.01806942,8.33423653 8.11720251,2.24556919 5.47221054,2.24593438 C5.2347747,2.24593438 4.96738874,2.29523385 4.66716592,2.39858015 Z" id="Clip-53" fill="#ECA5AB"></path>
                                            </g>
                                        </g>
                                        <g id="L-ear" mask="url(#mask-18)">
                                            <g transform="translate(18.564324, 17.429910) rotate(-32.000000) translate(-18.564324, -17.429910) translate(9.574324, 7.076969)">
                                                <path d="M5.63711659,8.66196065 C1.0572751,14.5870268 0.0837159806,16.5338081 0.0837159806,16.5338081 L2.22172109,20.1856208 C2.22172109,20.1856208 21.1542565,4.33624517 16.9974359,1.15265228 C12.8406154,-2.0309406 8.64908767,4.7651113 5.63711659,8.66196065 Z" id="Clip-56" fill="#B48E6F"></path>
                                                <path d="M6.76150881,8.87120952 C3.53736102,13.04231 2.85319939,14.4132005 2.85319939,14.4132005 L4.35756113,16.9840766 C4.35756113,16.9840766 17.1101752,6.72175255 15.7339134,3.08089528 C15.4098748,2.22271929 14.9187651,1.85936392 14.3161544,1.85936392 C12.3607367,1.85899874 9.22535672,5.6835422 6.76150881,8.87120952 Z" id="Clip-59" fill="#ECA5AB"></path>
                                            </g>
                                        </g>
                                        <path d="M15.2990268,11.0328611 C14.7357482,11.238093 14.3020128,11.9195212 13.8975058,12.5852467 C9.56195621,11.3743056 4.86664441,13.4583951 2.89101943,17.7178695 C1.91421271,19.8246002 1.59847356,22.2581682 2.14515335,24.3444488 C3.13747639,27.2430752 4.78391864,29.8678156 7.78335247,31.5111313 C10.7827863,33.154447 14.0176671,33.1181115 15.2990268,33.1772708 C18.6404491,32.9892025 22.0370807,30.8147306 23.558763,27.533942 C25.6682614,22.9856093 23.9113083,17.6086803 19.6454017,15.1922758 C20.1725959,14.5816927 20.1588838,13.8016655 19.2585762,13.8246719 C20.4035365,12.606062 18.7118964,11.4608536 17.4233198,12.7462916 C18.2954815,11.7223234 17.0682486,10.8966485 15.9886011,10.8966485 C15.7421441,10.8966485 15.5036258,10.9397399 15.2990268,11.0328611 Z" id="Head" fill="#C9A589" mask="url(#mask-18)" transform="translate(13.165081, 22.036960) rotate(-32.000000) translate(-13.165081, -22.036960) "></path>
                                        <g id="Nose" mask="url(#mask-18)">
                                            <g transform="translate(14.394144, 23.797677) rotate(-32.000000) translate(-14.394144, -23.797677) translate(11.914144, 20.346697)">
                                                <path d="M1.80422372,3.19533613 L0.180422372,6.75585352" id="Line" stroke="#979797" stroke-width="1" fill="none" stroke-linecap="square"></path>
                                                <path d="M1.71834267,3.38924738 C2.44977497,3.73653477 4.46653624,1.66486142 4.46653624,1.66486142 L1.27197772,0.147533234 C1.27197772,0.147533234 0.98582784,3.04159481 1.71834267,3.38924738 Z" id="Clip-83" stroke="none" fill="#FEA5BA" fill-rule="evenodd"></path>
                                            </g>
                                        </g>
                                        <g id="Mouth" mask="url(#mask-18)">
                                            <g transform="translate(14.732352, 27.277300) rotate(-32.000000) translate(-14.732352, -27.277300) translate(7.292352, 22.885143)">
                                                <mask id="mask-20" fill="white">
                                                    <use xlink:href="#path-19"></use>
                                                </mask>
                                                <use id="Mask" stroke="none" fill="#000000" fill-rule="evenodd" transform="translate(7.144578, 4.160955) rotate(5.000000) translate(-7.144578, -4.160955) " xlink:href="#path-19"></use>
                                                <path d="M7.87656579,5.22317087 C11.5171537,4.91618249 13.4600058,4.0078688 13.7051222,2.49822981 C10.8281852,0.64981309 8.72541992,-0.274395271 7.39682626,-0.274395271 C6.0682326,-0.274395271 4.3193227,0.763497526 2.15009657,2.83928312 C2.32715482,4.73553 4.2359779,5.53015925 7.87656579,5.22317087 Z" id="Oval" stroke="none" fill="#FFFFFF" fill-rule="evenodd" mask="url(#mask-20)" transform="translate(7.927609, 2.506469) rotate(27.000000) translate(-7.927609, -2.506469) "></path>
                                            </g>
                                        </g>
                                        <g id="L-Eye" mask="url(#mask-18)">
                                            <g transform="translate(18.273362, 19.743437) rotate(-32.000000) translate(-18.273362, -19.743437) translate(15.793362, 16.919908)">
                                                <path d="M0.262334129,1.67143468 C-0.309965635,2.9053822 0.214341778,4.37304573 1.43363617,4.95222322 C2.65184802,5.53067036 4.10280474,5.00079233 4.67474366,3.76721 C5.24668258,2.53362766 4.72201432,1.06559895 3.50416331,0.487151816 C3.16893854,0.327932782 2.81639323,0.25270544 2.46926058,0.25270544 C1.55379747,0.25270544 0.676944739,0.777105746 0.262334129,1.67143468 Z" id="Clip-95" stroke="none" fill="#FFFFFF" fill-rule="evenodd"></path>
                                                <path d="M1.34904564,2.09545004 C1.01021242,2.8254474 1.32089975,3.69640474 2.04367177,4.03930995 C2.76536125,4.38221516 3.62525428,4.06779409 3.96444834,3.33743155 C4.30292071,2.607069 3.99187254,1.73684203 3.27018305,1.39357164 C3.07171844,1.29935487 2.86315018,1.25480276 2.65746868,1.25480276 C2.11475818,1.25480276 1.59478091,1.56557202 1.34904564,2.09545004 Z" id="Clip-98" stroke="none" fill="#1D1C1A" fill-rule="evenodd"></path>
                                                <mask id="mask-22" fill="white">
                                                    <use xlink:href="#path-21"></use>
                                                </mask>
                                                <use id="Clip-101" stroke="none" fill="#FFFFFF" fill-rule="evenodd" xlink:href="#path-21"></use>
                                            </g>
                                        </g>
                                        <g id="R-eye" mask="url(#mask-18)">
                                            <g transform="translate(7.979264, 21.085841) rotate(-32.000000) translate(-7.979264, -21.085841) translate(5.189264, 18.262311)">
                                                <path d="M0.553174992,1.72073415 C-0.0191247714,2.9539513 0.505904331,4.42198002 1.72447703,5.00079233 C2.94268889,5.57960465 4.3936456,5.04972662 4.96558452,3.81650947 C5.53752344,2.58256195 5.01357687,1.11489842 3.79536502,0.536086106 C3.46014025,0.376867072 3.10759493,0.30163973 2.76046229,0.30163973 C1.84499918,0.30163973 0.967785603,0.826040036 0.553174992,1.72073415 Z" id="Clip-86" fill="#FFFFFF"></path>
                                                <path d="M1.64024734,2.14438433 C1.30177497,2.87474688 1.61210145,3.74533903 2.33451263,4.08860942 C3.05620212,4.43078427 3.91645599,4.11672838 4.2552892,3.38636584 C4.59412242,2.65600329 4.28343509,1.78541114 3.56138476,1.44287111 C3.36292015,1.34828916 3.15399104,1.30373705 2.94830954,1.30373705 C2.40559905,1.30373705 1.88562177,1.61487149 1.64024734,2.14438433 Z" id="Clip-89" fill="#1D1C1A"></path>
                                                <path d="M3.40730405,2.37810035 C3.33549595,2.53257203 3.40189138,2.7162582 3.55344618,2.7885641 C3.7060835,2.86086999 3.88722756,2.79477218 3.95903567,2.6403005 C4.03084377,2.48546364 3.96517003,2.30250782 3.8125327,2.22983675 C3.77103556,2.21011696 3.7270125,2.20062225 3.68371113,2.20062225 C3.5689625,2.20062225 3.4592657,2.2659897 3.40730405,2.37810035 Z" id="Clip-92" fill="#FFFFFF"></path>
                                            </g>
                                        </g>
                                    </g>
                                </g>
                            </g>
                        </g>
                    </g>
                    <g id="Animal_Window/Pig" transform="translate(74.750474, 0.000000)">
                        <g id="Window-2">
                            <path d="M31.000062,15.8647216 C31.000062,24.5285647 24.060402,31.5509961 15.500062,31.5509961 C6.939722,31.5509961 6.20000001e-05,24.5285647 6.20000001e-05,15.8647216 C6.20000001e-05,7.20150588 6.939722,0.178447059 15.500062,0.178447059 C24.060402,0.178447059 31.000062,7.20150588 31.000062,15.8647216" id="Fill-159" fill="#00A8C4"></path>
                            <mask id="mask-24" fill="white">
                                <use xlink:href="#path-23"></use>
                            </mask>
                            <use id="Mask" fill="#11274C" xlink:href="#path-23"></use>
                            <g id="Pig" mask="url(#mask-24)">
                                <g transform="translate(15.494654, 16.308316) rotate(-135.000000) translate(-15.494654, -16.308316) translate(2.784654, 3.445571)" id="Clip">
                                    <g transform="translate(12.710000, 12.862745) scale(-1, 1) translate(-12.710000, -12.862745) ">
                                        <mask id="mask-26" fill="white">
                                            <use xlink:href="#path-25"></use>
                                        </mask>
                                        <use id="Mask" fill="#11274C" xlink:href="#path-25"></use>
                                        <g id="L-ear" mask="url(#mask-26)">
                                            <g transform="translate(16.120000, 3.764706)">
                                                <path d="M0.585342,5.54007843 C0.585342,5.54007843 1.240682,2.01003922 4.847842,0.319686275 C4.847842,0.319686275 6.785342,3.59058824 5.697862,7.33082353" id="Fill-6" fill="#F7A2A4"></path>
                                                <path d="M0.97371,6.29923137 C0.97371,6.29923137 1.48087,3.56291765 4.27769,2.2528 C4.27769,2.2528 5.77995,4.78895686 4.93737,7.68840784" id="Fill-8" fill="#F28083"></path>
                                            </g>
                                        </g>
                                        <g id="R-ear" mask="url(#mask-26)">
                                            <g transform="translate(3.100000, 3.764706)">
                                                <path d="M5.59984,5.36112941 C5.59984,5.36112941 4.9445,1.8310902 1.33734,0.140737255 C1.33734,0.140737255 -0.60016,3.41226667 0.48732,7.15250196" id="Fill-10" fill="#F7A2A4"></path>
                                                <path d="M5.21141,6.12097255 C5.21141,6.12097255 4.70425,3.38465882 1.90743,2.07454118 C1.90743,2.07454118 0.40517,4.61007059 1.24775,7.51014902" id="Fill-12" fill="#F28083"></path>
                                            </g>
                                        </g>
                                        <path d="M1.652734,15.8935843 C1.652734,10.323702 6.576154,5.80981961 12.649674,5.80981961 C18.723194,5.80981961 23.645994,10.323702 23.645994,15.8935843 C23.645994,21.4628392 20.921714,25.9779765 12.649674,25.9779765 C3.817774,25.9779765 1.652734,21.4628392 1.652734,15.8935843" id="Fill-14" fill="#F7A2A4" mask="url(#mask-26)"></path>
                                        <path d="M8.06,20.5490196 C6.829796,21.5467294 9.19871643,23.8431373 13.5893582,23.8431373 C17.98,23.8431373 19.6602,21.721098 19.375,20.5490196 C18.92302,18.6936471 16.43,21.8913314 13.292924,21.4769569 C10.155848,21.0625824 9.290204,19.5513098 8.06,20.5490196 Z" id="Mouth" fill="#000000" mask="url(#mask-26)"></path>
                                        <g id="Nose" mask="url(#mask-26)">
                                            <g transform="translate(9.920000, 11.921569)">
                                                <path d="M0.217186,4.45916863 C0.217186,2.31265882 1.937066,0.572109804 4.058086,0.572109804 C6.179726,0.572109804 7.898986,2.31265882 7.898986,4.45916863 C7.898986,6.60630588 6.179726,8.34622745 4.058086,8.34622745 C1.937066,8.34622745 0.217186,6.60630588 0.217186,4.45916863" id="Fill-19" fill="#F28083"></path>
                                                <path d="M1.874074,4.45916863 C1.874074,4.18497255 2.093554,3.96348235 2.364494,3.96348235 C2.634194,3.96348235 2.854294,4.18497255 2.854294,4.45916863 C2.854294,4.73336471 2.634194,4.9548549 2.364494,4.9548549 C2.093554,4.9548549 1.874074,4.73336471 1.874074,4.45916863" id="Fill-21" fill="#DB6971"></path>
                                                <path d="M5.26225,4.45916863 C5.26225,4.18497255 5.48173,3.96348235 5.75267,3.96348235 C6.02237,3.96348235 6.24247,4.18497255 6.24247,4.45916863 C6.24247,4.73336471 6.02237,4.9548549 5.75267,4.9548549 C5.48173,4.9548549 5.26225,4.73336471 5.26225,4.45916863" id="Fill-23" fill="#DB6971"></path>
                                            </g>
                                        </g>
                                        <g id="R-eye" mask="url(#mask-26)">
                                            <g transform="translate(5.580000, 10.039216)">
                                                <path d="M2.51286,4.55447843 C1.43716,4.55447843 0.56358,3.6704 0.56358,2.5811451 C0.56358,1.49251765 1.43716,0.608439216 2.51286,0.608439216 C3.59042,0.608439216 4.46276,1.49251765 4.46276,2.5811451 C4.46276,3.6704 3.59042,4.55447843 2.51286,4.55447843 Z" id="Fill-25" fill="#FFFFFF"></path>
                                                <path d="M4.123372,2.12097255 C4.123372,2.76661961 3.606292,3.28991373 2.968312,3.28991373 C2.330332,3.28991373 1.812632,2.76661961 1.812632,2.12097255 C1.812632,1.47595294 2.330332,0.952658824 2.968312,0.952658824 C3.606292,0.952658824 4.123372,1.47595294 4.123372,2.12097255" id="Fill-27" fill="#1D1C1A"></path>
                                                <path d="M3.658682,1.68282353 C3.658682,1.81898039 3.549562,1.93003922 3.414402,1.93003922 C3.280482,1.93003922 3.171362,1.81898039 3.171362,1.68282353 C3.171362,1.54603922 3.280482,1.43560784 3.414402,1.43560784 C3.549562,1.43560784 3.658682,1.54603922 3.658682,1.68282353" id="Fill-29" fill="#FFFFFF"></path>
                                            </g>
                                        </g>
                                        <g id="L-eye" mask="url(#mask-26)">
                                            <g transform="translate(16.740000, 10.039216)">
                                                <path d="M4.162742,2.46839216 C4.162742,3.55764706 3.290402,4.44172549 2.212842,4.44172549 C1.137142,4.44172549 0.263562,3.55764706 0.263562,2.46839216 C0.263562,1.37976471 1.137142,0.495686275 2.212842,0.495686275 C3.290402,0.495686275 4.162742,1.37976471 4.162742,2.46839216" id="Fill-31" fill="#FFFFFF"></path>
                                                <path d="M3.823354,2.00821961 C3.823354,2.65386667 3.306274,3.17716078 2.668294,3.17716078 C2.030314,3.17716078 1.513234,2.65386667 1.513234,2.00821961 C1.513234,1.3632 2.030314,0.839905882 2.668294,0.839905882 C3.306274,0.839905882 3.823354,1.3632 3.823354,2.00821961" id="Fill-33" fill="#1D1C1A"></path>
                                                <path d="M3.358354,1.57007059 C3.358354,1.70622745 3.249234,1.81728627 3.114694,1.81728627 C2.980774,1.81728627 2.871034,1.70622745 2.871034,1.57007059 C2.871034,1.43328627 2.980774,1.3228549 3.114694,1.3228549 C3.249234,1.3228549 3.358354,1.43328627 3.358354,1.57007059" id="Fill-35" fill="#FFFFFF"></path>
                                            </g>
                                        </g>
                                    </g>
                                </g>
                            </g>
                        </g>
                    </g>
                    <g id="Animal_Window/Lion" transform="translate(111.863876, 0.000000)">
                        <g id="Window-2">
                            <path d="M31.000062,15.8647216 C31.000062,24.5285647 24.060402,31.5509961 15.500062,31.5509961 C6.939722,31.5509961 6.20000001e-05,24.5285647 6.20000001e-05,15.8647216 C6.20000001e-05,7.20150588 6.939722,0.178447059 15.500062,0.178447059 C24.060402,0.178447059 31.000062,7.20150588 31.000062,15.8647216" id="Fill-159" fill="#00A8C4"></path>
                            <mask id="mask-28" fill="white">
                                <use xlink:href="#path-27"></use>
                            </mask>
                            <use id="Mask" fill="#11274C" xlink:href="#path-27"></use>
                            <g id="Lion" mask="url(#mask-28)">
                                <g transform="translate(3.100000, 3.137255)" id="Clip">
                                    <g>
                                        <mask id="mask-30" fill="white">
                                            <use xlink:href="#path-29"></use>
                                        </mask>
                                        <use id="Mask" fill="#11274C" xlink:href="#path-29"></use>
                                        <g id="Group-4" mask="url(#mask-30)">
                                            <g transform="translate(16.738789, 8.470588) rotate(-99.000000) translate(-16.738789, -8.470588) translate(2.788789, -6.901961)">
                                                <path d="M25.272212,12.5866021 C25.1728459,12.1565386 25.136414,11.7996422 25.1629164,11.5159129 C25.2067159,11.0470027 25.659174,10.7932815 26.5202905,10.7547495 C24.7616563,7.77482005 23.2603028,5.82794572 22.0162299,4.91412649 C19.9723178,3.06595333 16.877038,1.73007816 12.9351541,1.87559179 C6.52040044,2.11171274 3.76154131,5.95994011 2.88359729,9.62645874 C2.71291172,10.3392853 1.19700846,13.230776 1.502245,12.7279138 C1.99951483,11.9086862 2.29548341,13.3996445 2.39015075,17.2007886 C3.02272447,16.0678182 3.82317616,17.3404026 4.7915058,21.0185418 C6.24400027,26.5357506 7.54162055,30.2420568 9.01145028,28.4073848 C9.52819894,27.7615743 14.2233028,27.5812503 14.8361041,27.5955016 C14.8361041,27.5955016 18.6869406,28.8575409 20.3533433,27.2478901 C21.7224046,25.9252661 23.3204758,24.8334344 25.1475571,23.9723949 L25.1472283,16.6508546 C25.5762454,15.4375442 25.6179067,14.0827933 25.272212,12.5866021 Z" id="Fill-52" stroke="none" fill="#FFE680" fill-rule="nonzero" transform="translate(13.991031, 15.373135) rotate(-6.000000) translate(-13.991031, -15.373135) "></path>
                                                <g id="L-ear" stroke="none" stroke-width="1" fill="none" fill-rule="evenodd" transform="translate(20.762484, 5.104149) rotate(-6.000000) translate(-20.762484, -5.104149) translate(16.732484, 1.025718)">
                                                    <path d="M7.75605761,3.85168588 C7.76350356,5.9608835 6.07252922,7.67629424 3.97947377,7.68379495 C1.88641833,7.69129565 0.183530446,5.98788606 0.176084499,3.8794385 C0.168638552,1.77099094 1.8588683,0.0555802077 3.95266834,0.0480795048 C6.04497919,0.0405788022 7.74861167,1.74323834 7.75605761,3.85168588" id="Fill-54" fill="#D9A333" fill-rule="nonzero"></path>
                                                    <path d="M6.150935,3.89518995 C6.150935,5.11105388 5.1725377,6.09664624 3.96629444,6.09664624 C2.75856197,6.09664624 1.78090927,5.11105388 1.78090927,3.89518995 C1.78090927,2.68007611 2.75856197,1.6937337 3.96629444,1.6937337 C5.1725377,1.6937337 6.150935,2.68007611 6.150935,3.89518995" id="Fill-56" fill="#754D24" fill-rule="nonzero"></path>
                                                </g>
                                                <g id="R-ear" stroke="none" stroke-width="1" fill="none" fill-rule="evenodd" transform="translate(4.433510, 6.822542) rotate(-6.000000) translate(-4.433510, -6.822542) translate(0.403510, 2.744110)">
                                                    <path d="M7.76247324,3.91124146 C7.76991919,6.02043909 6.07894484,7.73584983 3.9858894,7.74335053 C1.89283395,7.75085123 0.189946085,6.04744161 0.182500139,3.93899405 C0.175054192,1.83054651 1.86528395,0.115135788 3.959084,0.107635085 C6.05139485,0.100134382 7.75502729,1.80279391 7.76247324,3.91124146" id="Fill-58" fill="#D9A333" fill-rule="nonzero"></path>
                                                    <path d="M6.15727619,3.89518995 C6.15727619,5.11105388 5.17813429,6.09664624 3.97263562,6.09664624 C2.76490316,6.09664624 1.78725044,5.11105388 1.78725044,3.89518995 C1.78725044,2.68007611 2.76490316,1.6937337 3.97263562,1.6937337 C5.17813429,1.6937337 6.15727619,2.68007611 6.15727619,3.89518995" id="Fill-60" fill="#754D24" fill-rule="nonzero"></path>
                                                </g>
                                                <path d="M2.88103148,12.1366123 C2.88103148,6.85611757 7.56974372,2.57621657 13.3544992,2.57621657 C19.1385102,2.57621657 23.827967,6.85611757 23.827967,12.1366123 C23.827967,17.416357 21.2330548,21.6970081 13.3544992,21.6970081 C4.94281393,21.6970081 2.88103148,17.416357 2.88103148,12.1366123" id="Fill-62" stroke="none" fill="#D9A333" fill-rule="nonzero" transform="translate(13.354499, 12.136612) rotate(-6.000000) translate(-13.354499, -12.136612) "></path>
                                                <g id="Nose" stroke="none" stroke-width="1" fill="none" fill-rule="evenodd" transform="translate(14.254585, 15.280382) rotate(-6.000000) translate(-14.254585, -15.280382) translate(10.534585, 8.378421)">
                                                    <polygon id="Fill-64" fill="#F3BC4B" fill-rule="nonzero" points="1.74141533 0.28718202 5.2841965 0.28718202 7.14270463 7.74738101 0.0407612469 7.74738101"></polygon>
                                                    <path d="M7.14292799,7.74745601 C7.14292799,9.35860697 5.55321851,10.6644793 3.59195632,10.6644793 C1.63069412,10.6644793 0.0402400447,9.35860697 0.0402400447,7.74745601" id="Fill-66" fill="#333333" fill-rule="nonzero"></path>
                                                </g>
                                                <g id="R-eye" stroke="none" stroke-width="1" fill="none" fill-rule="evenodd" transform="translate(8.887319, 10.448273) rotate(-6.000000) translate(-8.887319, -10.448273) translate(6.717319, 8.252195)">
                                                    <path d="M3.92297571,2.04694641 C3.92297571,3.13379823 3.04807707,4.01513082 1.96915946,4.01513082 C0.890241895,4.01513082 0.016087815,3.13379823 0.016087815,2.04694641 C0.016087815,0.96009456 0.890241895,0.0787619693 1.96915946,0.0787619693 C3.04807707,0.0787619693 3.92297571,0.96009456 3.92297571,2.04694641" id="Fill-76" fill="#FFFFFF" fill-rule="nonzero"></path>
                                                    <path d="M3.21855517,2.01621409 C3.21855517,2.66052443 2.70031731,3.18257335 2.06071054,3.18257335 C1.42184837,3.18257335 0.903610514,2.66052443 0.903610514,2.01621409 C0.903610514,1.37190372 1.42184837,0.8498548 2.06071054,0.8498548 C2.70031731,0.8498548 3.21855517,1.37190372 3.21855517,2.01621409" id="Fill-78" fill="#1D1C1A" fill-rule="nonzero"></path>
                                                    <path d="M2.75273678,1.5789231 C2.75273678,1.71468584 2.64328137,1.82494617 2.50850976,1.82494617 C2.37373812,1.82494617 2.26428271,1.71468584 2.26428271,1.5789231 C2.26428271,1.44316039 2.37373812,1.33290006 2.50850976,1.33290006 C2.64328137,1.33290006 2.75273678,1.44316039 2.75273678,1.5789231" id="Fill-80" fill="#FFFFFF" fill-rule="nonzero"></path>
                                                </g>
                                                <g id="L-eye" stroke="none" stroke-width="1" fill="none" fill-rule="evenodd" transform="translate(18.323757, 9.122624) rotate(-6.000000) translate(-18.323757, -9.122624) translate(16.153757, 6.926546)">
                                                    <path d="M3.99983766,2.26530408 C3.99983766,3.35215593 3.12493899,4.23348852 2.04602142,4.23348852 C0.967103813,4.23348852 0.092949733,3.35215593 0.092949733,2.26530408 C0.092949733,1.17845227 0.967103813,0.297119678 2.04602142,0.297119678 C3.12493899,0.297119678 3.99983766,1.17845227 3.99983766,2.26530408" id="Fill-82" fill="#FFFFFF" fill-rule="nonzero"></path>
                                                    <path d="M3.29541709,2.23457177 C3.29541709,2.87888214 2.77717926,3.40093106 2.13757249,3.40093106 C1.49871032,3.40093106 0.980472465,2.87888214 0.980472465,2.23457177 C0.980472465,1.5902614 1.49871032,1.06821251 2.13757249,1.06821251 C2.77717926,1.06821251 3.29541709,1.5902614 3.29541709,2.23457177" id="Fill-84" fill="#1D1C1A" fill-rule="nonzero"></path>
                                                    <path d="M2.82967317,1.79728081 C2.82967317,1.93304354 2.72021776,2.04330384 2.58544612,2.04330384 C2.45067451,2.04330384 2.3412191,1.93304354 2.3412191,1.79728081 C2.3412191,1.6615181 2.45067451,1.55125777 2.58544612,1.55125777 C2.72021776,1.55125777 2.82967317,1.6615181 2.82967317,1.79728081" id="Fill-86" fill="#FFFFFF" fill-rule="nonzero"></path>
                                                </g>
                                                <path d="M14.4539014,18.745098 C14.2729671,20.2352941 13.4721842,20.9803922 12.0515527,20.9803922 C10.6309212,20.9803922 9.75253743,20.3660131 9.41640137,19.1372549" id="Path-2" stroke="#303B40" stroke-width="1" fill="none" stroke-linecap="round"></path>
                                                <path d="M19.6382295,18.0173562 C19.4572952,19.5075522 18.6565123,20.2526503 17.2358808,20.2526503 C15.8152493,20.2526503 14.9720629,19.6033129 14.7063216,18.3046382" id="Path-2" stroke="#303B40" stroke-width="1" fill="none" stroke-linecap="round" transform="translate(17.172276, 19.135003) scale(-1, 1) rotate(12.000000) translate(-17.172276, -19.135003) "></path>
                                            </g>
                                        </g>
                                    </g>
                                </g>
                            </g>
                        </g>
                    </g>
                    <g id="Animal_Window/Bear" transform="translate(0.523670, 0.000000)">
                        <g id="Window-2">
                            <path d="M31.000062,15.8647216 C31.000062,24.5285647 24.060402,31.5509961 15.500062,31.5509961 C6.939722,31.5509961 6.20000001e-05,24.5285647 6.20000001e-05,15.8647216 C6.20000001e-05,7.20150588 6.939722,0.178447059 15.500062,0.178447059 C24.060402,0.178447059 31.000062,7.20150588 31.000062,15.8647216" id="Fill-159" fill="#00A8C4"></path>
                            <mask id="mask-32" fill="white">
                                <use xlink:href="#path-31"></use>
                            </mask>
                            <use id="Mask" fill="#11274C" xlink:href="#path-31"></use>
                            <g id="Bear" mask="url(#mask-32)">
                                <g transform="translate(3.100000, 3.137255)" id="Clip">
                                    <g>
                                        <mask id="mask-34" fill="white">
                                            <use xlink:href="#path-33"></use>
                                        </mask>
                                        <use id="Mask" fill="#11274C" xlink:href="#path-33"></use>
                                        <ellipse id="Oval-2" fill="#9F6A5C" mask="url(#mask-34)" cx="20.46" cy="24.7843137" rx="9.3" ry="10.3529412"></ellipse>
                                        <g id="Head" mask="url(#mask-34)">
                                            <g transform="translate(14.779413, 11.557796) rotate(-22.000000) translate(-14.779413, -11.557796) translate(1.216913, 0.577403)">
                                                <g id="Ear-R" stroke-width="1" fill="none" fill-rule="evenodd">
                                                    <path d="M7.3383672,3.57935215 C7.40669396,2.086222 6.92990844,0.738320327 5.38617455,0.27162261 C3.78612744,-0.212472267 2.01789143,0.174803635 0.880363795,1.42210434 C-0.152796616,2.55443252 -0.170816856,4.26691813 0.378049614,5.62919139 C0.716679951,6.46954983 1.82041963,8.11698521 2.98647931,7.70323539 C3.41521084,7.55119934 3.99411103,6.66772618 4.34700739,6.32810337 C4.84331484,5.85081608 5.37190853,5.41891267 5.89674802,4.97036851 C6.41107569,4.53014474 6.85482409,4.10580531 7.3383672,3.57935215" id="Fill-17" fill="#945749" fill-rule="nonzero"></path>
                                                    <path d="M6.64961863,5.19925462 C7.32237423,3.00343052 4.7860255,1.10033253 3.03505888,2.68952524 C1.66476981,3.93228756 2.36755916,5.84294952 3.78364967,6.70146155 C4.41661059,7.08495544 4.54125057,6.90493268 5.17571319,6.44050415 C5.65700375,6.08726616 6.27344613,5.8187448 6.64961863,5.19925462" id="Fill-19" fill="#F8BD65" fill-rule="nonzero"></path>
                                                </g>
                                                <g id="Ear-L" stroke-width="1" fill="none" fill-rule="evenodd" transform="translate(19.207030, 0.333606)">
                                                    <path d="M0.289142255,3.25754629 C0.357468996,1.76441615 0.953638596,0.466436761 2.53341294,0.143454709 C4.17175308,-0.190116917 5.89719104,0.35827181 6.91683624,1.70617348 C7.84187522,2.92851305 7.70447091,4.63570388 7.03321697,5.94124726 C6.6195023,6.7468114 5.37160069,8.28608182 4.24758823,7.76567983 C3.83462443,7.57506746 3.33831699,6.64167204 3.01770688,6.27103691 C2.56720089,5.74987851 2.07990358,5.27032204 1.59861301,4.77563758 C1.12633256,4.2900299 0.722378852,3.82635776 0.289142255,3.25754629" id="Fill-21" fill="#945749" fill-rule="nonzero"></path>
                                                    <path d="M0.827647084,4.9342543 C0.357619165,2.68548229 3.05690091,1.02518814 4.65544634,2.7686861 C5.9063513,4.13322853 5.03312053,5.97051989 3.54494907,6.69439301 C2.87970188,7.01813145 2.77233129,6.82751908 2.18291928,6.30636072 C1.73541666,5.91000803 1.14600465,5.58551317 0.827647084,4.9342543" id="Fill-24" fill="#F8BD65" fill-rule="nonzero"></path>
                                                </g>
                                                <path d="M12.012517,1.45553714 C12.012517,1.45553714 6.97360752,1.084902 3.34928682,5.66564979 C-0.438717754,10.4536507 0.750618068,16.2136233 4.73459275,18.7377243 C8.7185674,21.2625816 16.0377881,22.564343 20.538343,19.7444904 C25.0396487,16.9238813 27.1795522,13.4444494 25.6072862,8.96657172 C24.0350203,4.48945052 20.1006013,2.3806122 17.0484232,1.89500453 C13.9954943,1.40939685 12.012517,1.45553714 12.012517,1.45553714" id="path-1" fill="#9F6A5C" fill-rule="nonzero"></path>
                                                <path d="M12.8322831,10.6753813 C15.3657548,10.6753813 20.7256153,13.3895779 20.4694804,15.929589 C20.2133455,18.4696002 17.3042569,20.3708773 12.8129578,20.1831427 C8.32165871,19.9954081 5.36247692,18.0156492 5.15377217,15.5960648 C4.94506741,13.1764804 10.3410713,10.6753813 12.8322831,10.6753813 Z" id="Fill-29" fill="#F8BD65" fill-rule="nonzero"></path>
                                                <g id="Mouth" stroke-width="1" fill="none" fill-rule="evenodd" transform="translate(12.960017, 15.784463) rotate(4.000000) translate(-12.960017, -15.784463) translate(5.877378, 10.141761)">
                                                    <path d="M1.54773382,2.24846209 C0.0928445035,3.08241254 1.97053456,6.34797393 5.92874878,8.00557134 C9.88696299,9.66316875 13.2583758,8.49746954 13.2225315,7.0992448 C13.1662881,4.88660523 9.81880471,6.59862339 6.94222027,5.32884531 C4.06563584,4.05906724 3.00262314,1.41451165 1.54773382,2.24846209 Z" id="Mask" stroke="#F8BD65" stroke-width="10" transform="translate(7.140143, 5.454225) rotate(-21.000000) translate(-7.140143, -5.454225) "></path>
                                                    <mask id="mask-36" fill="white">
                                                        <use xlink:href="#path-35"></use>
                                                    </mask>
                                                    <use id="Mask" fill="#000000" transform="translate(7.140143, 5.454225) rotate(-21.000000) translate(-7.140143, -5.454225) " xlink:href="#path-35"></use>
                                                    <path d="M6.92257253,6.19255183 C11.5670311,6.19255183 12.6234178,4.71346844 12.6234178,4.14921714 C12.6234178,3.58496584 8.72344274,3.25525821 6.63115552,3.25525821 C4.53886831,3.25525821 1.531429,3.23832871 1.531429,3.80258 C1.531429,4.3668313 2.27811394,6.19255183 6.92257253,6.19255183 Z" id="Oval-15" fill="#FFFFFF" mask="url(#mask-36)"></path>
                                                </g>
                                                <path d="M14.6399431,11.9245805 C14.118107,11.188605 10.849686,10.8482258 10.9773293,12.2536138 C11.0997168,13.6060538 12.5736222,14.91311 13.7156549,13.7974226 C14.1128511,13.4086339 15.0386409,12.4865844 14.6399431,11.9245805 L14.6399431,11.9245805 Z" id="Nose" fill="#2D2317" fill-rule="nonzero"></path>
                                                <g id="Eye-R" stroke-width="1" fill="none" fill-rule="evenodd" transform="translate(5.629647, 5.642702)">
                                                    <path d="M4.05953574,2.12509236 C4.00922922,3.23170299 3.0781835,4.08718941 1.97969972,4.03651074 C0.881215945,3.98583204 0.0320121481,3.04714182 0.0823186507,1.94128758 C0.133375997,0.834676948 1.06442172,-0.0208094677 2.16215465,0.0298692146 C3.26063843,0.0805478973 4.10984223,1.01848172 4.05953574,2.12509236" id="Fill-34" fill="#FFFFFF" fill-rule="nonzero"></path>
                                                    <path d="M3.35679589,2.0342395 C3.32676216,2.69003678 2.77489232,3.19682361 2.124662,3.16656768 C1.47368084,3.13631175 0.970615816,2.58111543 0.999898705,1.92531815 C1.02993244,1.26952087 1.58180228,0.762734044 2.23278344,0.792989976 C2.88301375,0.822489507 3.38682962,1.37844222 3.35679589,2.0342395" id="Fill-36" fill="#1D1C1A" fill-rule="nonzero"></path>
                                                </g>
                                                <g id="Eye-L" stroke-width="1" fill="none" fill-rule="evenodd" transform="translate(16.557785, 6.004902)">
                                                    <path d="M4.21497178,2.16090867 C4.16466529,3.2675193 3.23361955,4.12300572 2.13513577,4.07232705 C1.03740284,4.02164834 0.187448199,3.08295814 0.237754702,1.9771039 C0.288812048,0.870493267 1.21985777,0.0150068502 2.3175907,0.0656855328 C3.41607448,0.116364215 4.26527827,1.05429804 4.21497178,2.16090867" id="Fill-40" fill="#FFFFFF" fill-rule="nonzero"></path>
                                                    <path d="M3.51223194,2.07005581 C3.48219821,2.72585309 2.93032837,3.23263992 2.28009805,3.20238399 C1.62911689,3.17212806 1.12605187,2.61693175 1.15533476,1.96113447 C1.18536849,1.30533719 1.73723833,0.798550363 2.38821949,0.828806292 C3.0384498,0.858305823 3.54226567,1.41425854 3.51223194,2.07005581" id="Fill-42" fill="#1D1C1A" fill-rule="nonzero"></path>
                                                </g>
                                            </g>
                                        </g>
                                    </g>
                                </g>
                            </g>
                        </g>
                    </g>
                </g>
            </g>
        </g>
    </g>
</svg>