<?xml version="1.0" encoding="UTF-8"?>
<svg width="485px" height="290px" viewBox="0 0 485 290" version="1.1" xmlns="http://www.w3.org/2000/svg" xmlns:xlink="http://www.w3.org/1999/xlink">
    <!-- Generator: Sketch 45.1 (43504) - http://www.bohemiancoding.com/sketch -->
    <title>Progress/Shuttle_organic</title>
    <desc>Created with Sketch.</desc>
    <defs>
        <path d="M54.002,59.7847 C63.845,55.6537 72.196,51.0417 79.038,46.6937 C79.417,46.4537 85.213,42.6387 85.213,35.4757 C85.213,28.3137 79.417,24.4987 79.038,24.2587 C72.196,19.9107 63.845,15.2987 54.002,11.1687 C41.273,5.8277 29.585,2.7777 0,0.9827 L0,69.9707 C29.585,68.1757 41.273,65.1247 54.002,59.7847" id="path-1"></path>
        <path d="M0.3941,85.4761 C0.3941,25.7691 12.2441,10.5051 15.2351,6.7371 C18.2261,2.9691 22.3581,0.6381 26.9221,0.6381 C31.4871,0.6381 35.6191,2.9691 38.6101,6.7371 C41.6011,10.5051 43.4511,15.7111 43.4511,21.4611 L43.4511,85.4761 L43.4511,149.4911 C43.4511,155.2411 41.6011,160.4471 38.6101,164.2151 C35.6191,167.9841 31.4871,170.3141 26.9221,170.3141 C22.3581,170.3141 18.2261,167.9841 15.2351,164.2151 C12.2441,160.4471 0.3941,145.1831 0.3941,85.4761" id="path-3"></path>
        <path d="M18.8668,170.314 C18.8668,170.314 0.8938,151.726 0.8938,85.476 C0.8938,19.226 18.8668,0.638 18.8668,0.638 L34.9398,0.638 L51.0128,0.638 L67.0848,0.638 L83.1578,0.638 L83.1578,43.057 L83.1578,85.476 L83.1578,127.895 L83.1578,170.314 L67.0848,170.314 L51.0128,170.314 L34.9398,170.314 L18.8668,170.314 Z" id="path-5"></path>
        <path d="M378.8941,97.1411306 C378.8941,40.3370069 293.38843,3.46415464 267.736729,1.47102749 C242.085028,-0.522099656 21.9079282,1.47102749 21.9079282,1.47102749 C21.9079282,1.47102749 0.8125,41.3335704 0.8125,97.1411306 C0.8125,152.948691 21.9079282,192.811234 21.9079282,192.811234 C21.9079282,192.811234 242.085028,194.804361 267.736729,192.811234 C293.38843,190.818107 378.8941,153.945254 378.8941,97.1411306 Z" id="path-7"></path>
        <path d="M50,26 C50,39.8070748 38.8067939,51 24.9993728,51 C11.1919516,51 0,39.8070748 0,26 C0,12.1929252 11.1919516,1 24.9993728,1 C38.8067939,1 50,12.1929252 50,26" id="path-9"></path>
        <path d="M50,26 C50,39.8070748 38.8067939,51 24.9993728,51 C11.1919516,51 0,39.8070748 0,26 C0,12.1929252 11.1919516,1 24.9993728,1 C38.8067939,1 50,12.1929252 50,26" id="path-11"></path>
        <path d="M50,26 C50,39.8070748 38.8067939,51 24.9993728,51 C11.1919516,51 0,39.8070748 0,26 C0,12.1929252 11.1919516,1 24.9993728,1 C38.8067939,1 50,12.1929252 50,26" id="path-13"></path>
        <path d="M5.37496691,3.97592711 C5.25111941,4.23894835 5.36500932,4.55307799 5.62701836,4.67586278 C5.8902721,4.79989413 6.20269143,4.68645843 6.32653893,4.42281391 C6.44976408,4.1591694 6.33711887,3.84628631 6.07386513,3.72287824 C6.00167262,3.68859822 5.92574601,3.67239312 5.8510641,3.67239312 C5.65377938,3.67239312 5.46396286,3.78458227 5.37496691,3.97592711 Z" id="path-15"></path>
    </defs>
    <g id="Symbols" stroke="none" stroke-width="1" fill="none" fill-rule="evenodd">
        <g id="Progress/Shuttle_organic">
            <g id="Fin-Top" transform="translate(23.000000, 13.000000)">
                <polygon id="Fill-1" fill="#5D7078" points="88.6431 67.231 4.2461 6.221 54.0141 6.221 116.7521 67.231"></polygon>
                <path d="M0.3941,11.9966 L0.3941,0.4446 L68.5901,0.4446 C70.7991,0.4446 72.5901,2.2356 72.5901,4.4446 L72.5901,7.9966 C72.5901,10.2056 70.7991,11.9966 68.5901,11.9966 L0.3941,11.9966 Z" id="Fill-2" fill="#00A8C4"></path>
            </g>
            <g id="Fin-Bottom" transform="translate(23.000000, 208.000000)">
                <polygon id="Fill-4" fill="#435259" points="88.6431 0.7212 4.2461 61.7322 54.0141 61.7322 116.7521 0.7212"></polygon>
                <path d="M0.3941,55.9556 L0.3941,67.5076 L68.5901,67.5076 C70.7991,67.5076 72.5901,65.7166 72.5901,63.5076 L72.5901,59.9556 C72.5901,57.7466 70.7991,55.9556 68.5901,55.9556 L0.3941,55.9556 Z" id="Fill-6" fill="#007F99"></path>
            </g>
            <g id="Blaster" transform="translate(0.000000, 59.000000)">
                <path d="M59.46,103.8922 L59.46,67.0602 C59.46,61.4022 61.856,56.0082 66.056,52.2162 L92.681,28.1722 L92.681,142.7802 L66.056,118.7362 C61.856,114.9442 59.46,109.5502 59.46,103.8922" id="Fill-8" fill="#017F99"></path>
                <g id="Fill-23" transform="translate(0.000000, 50.000000)">
                    <mask id="mask-2" fill="white">
                        <use xlink:href="#path-1"></use>
                    </mask>
                    <use id="Mask" fill="#435259" xlink:href="#path-1"></use>
                    <path d="M23.6015625,51.5176887 C-8.81486005,54.2969856 -20.3919315,51.5176887 -30.1370236,51.5176887 C-39.8821157,51.5176887 -63.200729,79.5215148 -25.2644775,100.936205 C12.6717739,122.350896 92.0678237,117.556476 98.4849668,90.9207193 C104.90211,64.2841388 90.1149796,50.6566297 83.3066406,42.8320313 C78.3975505,37.1900839 56.017985,48.7383918 23.6015625,51.5176887 Z" fill="#303B40" mask="url(#mask-2)"></path>
                </g>
                <g id="Fill-23" transform="translate(80.000000, 0.000000)">
                    <mask id="mask-4" fill="white">
                        <use xlink:href="#path-3"></use>
                    </mask>
                    <use id="Mask" fill="#00A8C4" xlink:href="#path-3"></use>
                    <path d="M48.0737376,128.430031 C31.4769405,141.146306 -19.202565,119.010568 -27.5009635,119.010568 C-35.7993621,119.010568 -55.6562443,151.036743 -23.3517642,175.527347 C8.95271586,200.017951 76.5621399,194.534881 82.0266353,164.07328 C87.4911308,133.610736 84.8605384,123.249326 79.0629215,114.300836 C74.8826033,107.848504 64.6705347,115.713756 48.0737376,128.430031 Z" fill="#007F99" mask="url(#mask-4)"></path>
                </g>
                <g id="Fill-23" transform="translate(90.000000, 0.000000)">
                    <mask id="mask-6" fill="white">
                        <use xlink:href="#path-5"></use>
                    </mask>
                    <use id="Mask" fill="#B8C5CC" xlink:href="#path-5"></use>
                    <path d="M38.0737376,128.430031 C21.4769405,141.146306 -29.202565,119.010568 -37.5009635,119.010568 C-45.7993621,119.010568 -65.6562443,151.036743 -33.3517642,175.527347 C-1.04728414,200.017951 66.5621399,194.534881 72.0266353,164.07328 C77.4911308,133.610736 74.8605384,123.249326 69.0629215,114.300836 C64.8826033,107.848504 54.6705347,115.713756 38.0737376,128.430031 Z" fill="#A1ADB3" mask="url(#mask-6)"></path>
                </g>
            </g>
            <path d="M339.6006,183.438529 C339.6006,192.437498 317.9286,207.057086 297.1596,208.522034 C276.3906,209.985986 204.1506,219.883856 183.3816,259.929766 C162.6126,299.97468 132.8126,287.82657 127.8466,287.37712 L127.8466,183.438529 L339.6006,183.438529 Z" id="Wing-Bottom" fill="#DFEAEF"></path>
            <path d="M339.6006,105.513935 C339.6006,96.5159622 317.9286,81.895378 297.1596,80.4314261 C276.3906,78.9674742 204.1506,69.0686082 183.3816,29.0226976 C162.6126,-11.0222165 132.8126,1.12589347 127.8466,1.57634021 L127.8466,105.513935 L339.6006,105.513935 Z" id="Wing-Top" fill="#FFFFFF"></path>
            <g id="Pod" transform="translate(106.000000, 47.335052)">
                <mask id="mask-8" fill="white">
                    <use xlink:href="#path-7"></use>
                </mask>
                <use id="Mask" fill="#FFFFFF" xlink:href="#path-7"></use>
                <path d="M282.3936,146.969309 C226.3936,173.876526 55.3936,127.038038 27.3936,127.038038 C-0.6064,127.038038 -67.6064,194.804361 41.3936,246.625667 C150.3936,298.446973 378.5176,286.844979 396.9556,222.389241 C415.3936,157.931509 406.5176,136.00711 386.9556,117.072402 C372.8506,103.419481 338.3936,120.062093 282.3936,146.969309 Z" id="Fill-23" fill="#DFEAEF" mask="url(#mask-8)"></path>
            </g>
            <g id="Animals" transform="translate(133.000000, 77.000000)">
                <g id="Animal_Window/Ape" transform="translate(240.846600, 0.000000)">
                    <g id="Ape-closed">
                        <mask id="mask-10" fill="white">
                            <use xlink:href="#path-9"></use>
                        </mask>
                        <use id="Mask" fill="#11274C" xlink:href="#path-9"></use>
                        <g id="Monkey" mask="url(#mask-10)">
                            <g transform="translate(-3.000000, 8.000000)" id="Clip">
                                <g>
                                    <g id="Group-3" transform="translate(30.098130, 23.879050) rotate(-8.000000) translate(-30.098130, -23.879050) translate(3.698130, 3.479050)">
                                        <g id="Ear-R" transform="translate(0.513531, 3.805318)" fill-rule="nonzero">
                                            <path d="M12.5165557,6.41466158 C12.5165557,9.94322546 9.7193237,12.8041867 6.26772975,12.8041867 C2.81481386,12.8041867 0.0175818459,9.94322546 0.0175818459,6.41466158 C0.0175818459,2.88609768 2.81481386,0.0251364567 6.26772975,0.0251364567 C9.7193237,0.0251364567 12.5165557,2.88609768 12.5165557,6.41466158" id="Fill-198" fill="#3C3C3B"></path>
                                            <path d="M10.3394473,6.41466158 C10.3394473,8.71343109 8.51648752,10.578394 6.26654003,10.578394 C4.01791446,10.578394 2.19363271,8.71343109 2.19363271,6.41466158 C2.19363271,4.11454064 4.01791446,2.25092915 6.26654003,2.25092915 C8.51648752,2.25092915 10.3394473,4.11454064 10.3394473,6.41466158" id="Fill-199" fill="#D76C79"></path>
                                        </g>
                                        <g id="Ear-L" transform="translate(38.411885, 2.611720)" fill-rule="nonzero">
                                            <path d="M12.6291853,6.41466158 C12.6291853,9.94322546 9.82930938,12.8041867 6.37903741,12.8041867 C2.92612149,12.8041867 0.128889472,9.94322546 0.128889472,6.41466158 C0.128889472,2.88609768 2.92612149,0.0251364567 6.37903741,0.0251364567 C9.82930938,0.0251364567 12.6291853,2.88609768 12.6291853,6.41466158" id="Fill-200" fill="#3C3C3B"></path>
                                            <path d="M10.4511515,6.41466158 C10.4511515,8.71343109 8.62686977,10.578394 6.37824421,10.578394 C4.12961867,10.578394 2.30533692,8.71343109 2.30533692,6.41466158 C2.30533692,4.11454064 4.12961867,2.25092915 6.37824421,2.25092915 C8.62686977,2.25092915 10.4511515,4.11454064 10.4511515,6.41466158" id="Fill-201" fill="#D76C79"></path>
                                        </g>
                                        <path d="M25.9962842,0.523764629 C15.2687144,0.523764629 6.57164944,9.41477259 6.57164944,20.3829168 C6.57164944,31.3483582 15.2687144,40.2407175 25.9962842,40.2407175 C36.7251761,40.2407175 45.422241,31.3483582 45.422241,20.3829168 C45.422241,9.41477259 36.7251761,0.523764629 25.9962842,0.523764629" id="Head" fill="#3C3C3B" fill-rule="nonzero"></path>
                                        <g id="Face" transform="translate(10.899851, 8.464025)" fill-rule="nonzero">
                                            <path d="M28.6882847,7.7973018 C28.6882847,3.72141186 25.4548114,0.417184095 21.4691523,0.417184095 C18.1008408,0.417184095 15.2811358,2.77811903 14.4813601,5.96747588 C13.6842282,2.77811903 10.8632012,0.417184095 7.49621169,0.417184095 C3.50790874,0.417184095 0.275757372,3.72141186 0.275757372,7.7973018 C0.275757372,11.8745432 3.50790874,15.178771 7.49621169,15.178771 L7.49621169,18.9870793 C7.49621169,23.0629692 10.7270411,26.367197 14.715344,26.367197 C18.702325,26.367197 21.9344764,23.0629692 21.9344764,18.9870793 L21.9344764,15.1544454 C25.7033367,14.9084865 28.6882847,11.713724 28.6882847,7.7973018" id="Shape" fill="#F4C798"></path>
                                            <g id="Nose" transform="translate(11.051446, 13.676395)" fill="#401612">
                                                <path d="M2.61520043,1.38291054 C2.61520043,1.97483355 2.14591056,2.45323708 1.56822133,2.45323708 C0.987888227,2.45323708 0.521242243,1.97483355 0.521242243,1.38291054 C0.521242243,0.789636111 0.987888227,0.311232579 1.56822133,0.311232579 C2.14591056,0.311232579 2.61520043,0.789636111 2.61520043,1.38291054" id="Fill-204"></path>
                                                <path d="M6.34070105,1.38291054 C6.34070105,1.97483355 5.8727331,2.45323708 5.2924,2.45323708 C4.71471078,2.45323708 4.24542091,1.97483355 4.24542091,1.38291054 C4.24542091,0.789636111 4.71471078,0.311232579 5.2924,0.311232579 C5.8727331,0.311232579 6.34070105,0.789636111 6.34070105,1.38291054" id="Fill-205"></path>
                                            </g>
                                            <g id="Eye-R" transform="translate(2.908275, 2.973129)">
                                                <path d="M7.52251831,3.94128829 C7.52251831,5.92652779 5.94808389,7.5360719 4.00614917,7.5360719 C2.06289252,7.5360719 0.488458049,5.92652779 0.488458049,3.94128829 C0.488458049,1.95604878 2.06289252,0.346504704 4.00614917,0.346504704 C5.94808389,0.346504704 7.52251831,1.95604878 7.52251831,3.94128829" id="Fill-207" fill="#FFFFFF"></path>
                                                <path d="M6.28247799,3.85292081 C6.28247799,5.03000972 5.34918604,5.98411392 4.19777343,5.98411392 C3.04768276,5.98411392 2.11439079,5.03000972 2.11439079,3.85292081 C2.11439079,2.6758319 3.04768276,1.72307911 4.19777343,1.72307911 C5.34918604,1.72307911 6.28247799,2.6758319 6.28247799,3.85292081" id="Fill-208" fill="#1D1C1A"></path>
                                                <path d="M5.44396937,3.05409503 C5.44396937,3.30275675 5.24699982,3.50411869 5.00376226,3.50411869 C4.76184663,3.50411869 4.56487708,3.30275675 4.56487708,3.05409503 C4.56487708,2.80543331 4.76184663,2.60407137 5.00376226,2.60407137 C5.24699982,2.60407137 5.44396937,2.80543331 5.44396937,3.05409503" id="Fill-209" fill="#FFFFFF"></path>
                                            </g>
                                            <g id="Eye-L" transform="translate(18.031307, 2.973129)">
                                                <path d="M7.37075928,3.73587208 C7.37075928,5.72111159 5.79632478,7.33065566 3.85439008,7.33065566 C1.91113343,7.33065566 0.336698958,5.72111159 0.336698958,3.73587208 C0.336698958,1.75063258 1.91113343,0.141088498 3.85439008,0.141088498 C5.79632478,0.141088498 7.37075928,1.75063258 7.37075928,3.73587208" id="Fill-210" fill="#FFFFFF"></path>
                                                <path d="M6.1307189,3.6475046 C6.1307189,4.82459352 5.19742695,5.77869773 4.04733628,5.77869773 C2.89592367,5.77869773 1.9626317,4.82459352 1.9626317,3.6475046 C1.9626317,2.4704157 2.89592367,1.5176629 4.04733628,1.5176629 C5.19742695,1.5176629 6.1307189,2.4704157 6.1307189,3.6475046" id="Fill-211" fill="#1D1C1A"></path>
                                                <path d="M5.29221028,2.84854368 C5.29221028,3.09720541 5.09524073,3.29856734 4.85200317,3.29856734 C4.61008754,3.29856734 4.41311799,3.09720541 4.41311799,2.84854368 C4.41311799,2.59988196 4.61008754,2.39852002 4.85200317,2.39852002 C5.09524073,2.39852002 5.29221028,2.59988196 5.29221028,2.84854368" id="Fill-212" fill="#FFFFFF"></path>
                                            </g>
                                        </g>
                                        <path d="M21.5039902,27.8544725 C22.8957206,29.208132 24.3878214,29.813191 25.9802926,29.6696495 C27.5727638,29.5261079 28.8758007,28.7305826 29.8894033,27.2830735" id="Path-2" stroke="#303B40" stroke-width="1.2" stroke-linecap="round"></path>
                                    </g>
                                </g>
                            </g>
                        </g>
                    </g>
                </g>
                <g id="Animal_Window/Empty" transform="translate(60.846600, 0.000000)" fill="#11274C">
                    <g id="Window-5" transform="translate(0.000000, 1.000000)">
                        <path d="M50,25 C50,38.8070748 38.8067939,50 24.9993728,50 C11.1919516,50 0,38.8070748 0,25 C0,11.1929252 11.1919516,0 24.9993728,0 C38.8067939,0 50,11.1929252 50,25" id="Fill-165"></path>
                    </g>
                </g>
                <g id="Animal_Window/Pig" transform="translate(120.846600, 0.000000)">
                    <g id="Pig-closed">
                        <mask id="mask-12" fill="white">
                            <use xlink:href="#path-11"></use>
                        </mask>
                        <use id="Mask" fill="#11274C" xlink:href="#path-11"></use>
                        <g id="Pig" mask="url(#mask-12)">
                            <g transform="translate(27.500000, 33.000000) rotate(362.000000) translate(-27.500000, -33.000000) translate(7.000000, 12.000000)" id="Clip">
                                <g transform="translate(20.265950, 21.000000) scale(-1, 1) translate(-20.265950, -21.000000) translate(0.368891, -0.000000)">
                                    <g id="L-ear" transform="translate(26.121090, 0.774886)">
                                        <path d="M1.03249403,9.60908354 C1.03249403,9.60908354 2.18845864,3.4863468 8.55118533,0.554485312 C8.55118533,0.554485312 11.9687723,6.22775701 10.0505491,12.7150719" id="Fill-6" fill="#F6A2A4"></path>
                                        <path d="M1.7175425,10.9258093 C1.7175425,10.9258093 2.61213006,6.17976329 7.54548518,3.90740739 C7.54548518,3.90740739 10.1953454,8.30628792 8.70910519,13.3352901" id="Fill-8" fill="#F28083"></path>
                                    </g>
                                    <g id="R-ear" transform="translate(3.154906, 0.774886)">
                                        <path d="M9.87764652,9.29870236 C9.87764652,9.29870236 8.72168191,3.17596562 2.35895522,0.244104132 C2.35895522,0.244104132 -1.05863174,5.91846413 0.859591471,12.405779" id="Fill-10" fill="#F6A2A4"></path>
                                        <path d="M9.19248869,10.6166252 C9.19248869,10.6166252 8.29790113,5.87057923 3.36454601,3.59822333 C3.36454601,3.59822333 0.714685784,7.99601557 2.200926,13.0261061" id="Fill-12" fill="#F28083"></path>
                                    </g>
                                    <path d="M19.9997273,4.32206804 C30.7129055,4.32206804 39.3963104,12.1512483 39.3963104,21.8120257 C39.3963104,31.4717149 34.6855554,40.8340538 20.0943729,40.8340538 C4.51564455,40.8340538 0.602050557,31.4717149 0.602050557,21.8120257 C0.602050557,12.1512483 9.28654912,4.32206804 19.9997273,4.32206804 Z" id="Fill-14" fill="#F6A2A4"></path>
                                    <g id="Nose" transform="translate(15.184812, 14.922695)">
                                        <path d="M0.383097827,7.73428109 C0.383097827,4.01123055 3.41682142,0.992305608 7.15812221,0.992305608 C10.9005166,0.992305608 13.9331466,4.01123055 13.9331466,7.73428109 C13.9331466,11.4584199 10.9005166,14.4762566 7.15812221,14.4762566 C3.41682142,14.4762566 0.383097827,11.4584199 0.383097827,7.73428109" id="Fill-19" fill="#F28083"></path>
                                        <path d="M3.30570883,7.73428109 C3.30570883,7.25869702 3.69285308,6.87452958 4.17076844,6.87452958 C4.64649654,6.87452958 5.03473442,7.25869702 5.03473442,7.73428109 C5.03473442,8.20986515 4.64649654,8.5940326 4.17076844,8.5940326 C3.69285308,8.5940326 3.30570883,8.20986515 3.30570883,7.73428109" id="Fill-21" fill="#DB6971"></path>
                                        <path d="M9.28216617,7.73428109 C9.28216617,7.25869702 9.66931042,6.87452958 10.1472258,6.87452958 C10.6229539,6.87452958 11.0111918,7.25869702 11.0111918,7.73428109 C11.0111918,8.20986515 10.6229539,8.5940326 10.1472258,8.5940326 C9.66931042,8.5940326 9.28216617,8.20986515 9.28216617,7.73428109" id="Fill-23" fill="#DB6971"></path>
                                    </g>
                                    <g id="R-eye" transform="translate(7.529417, 11.657816)">
                                        <path d="M4.43247358,7.8995928 C2.5350293,7.8995928 0.994107694,6.36618789 0.994107694,4.47691114 C0.994107694,2.58872269 2.5350293,1.05531778 4.43247358,1.05531778 C6.33319874,1.05531778 7.87193309,2.58872269 7.87193309,4.47691114 C7.87193309,6.36618789 6.33319874,7.8995928 4.43247358,7.8995928 Z" id="Fill-25" fill="#FFFFFF"></path>
                                        <path d="M7.27328122,3.67875702 C7.27328122,4.79861057 6.36119561,5.70624698 5.23585258,5.70624698 C4.11050955,5.70624698 3.19733031,4.79861057 3.19733031,3.67875702 C3.19733031,2.55999176 4.11050955,1.65235535 5.23585258,1.65235535 C6.36119561,1.65235535 7.27328122,2.55999176 7.27328122,3.67875702" id="Fill-27" fill="#1D1C1A"></path>
                                        <path d="M6.45360716,2.91880198 C6.45360716,3.15496157 6.26112867,3.34758944 6.0227178,3.34758944 C5.78649419,3.34758944 5.59401569,3.15496157 5.59401569,2.91880198 C5.59401569,2.68155409 5.78649419,2.49001451 6.0227178,2.49001451 C6.26112867,2.49001451 6.45360716,2.68155409 6.45360716,2.91880198" id="Fill-29" fill="#FFFFFF"></path>
                                    </g>
                                    <g id="L-eye" transform="translate(27.214718, 11.657816)">
                                        <path d="M7.34272658,4.28134488 C7.34272658,6.17062163 5.80399223,7.70402654 3.90326707,7.70402654 C2.0058228,7.70402654 0.464901189,6.17062163 0.464901189,4.28134488 C0.464901189,2.39315643 2.0058228,0.859751514 3.90326707,0.859751514 C5.80399223,0.859751514 7.34272658,2.39315643 7.34272658,4.28134488" id="Fill-31" fill="#FFFFFF"></path>
                                        <path d="M6.74407471,3.48319075 C6.74407471,4.60304431 5.83198911,5.51068072 4.70664607,5.51068072 C3.58130304,5.51068072 2.66921743,4.60304431 2.66921743,3.48319075 C2.66921743,2.36442549 3.58130304,1.45678908 4.70664607,1.45678908 C5.83198911,1.45678908 6.74407471,2.36442549 6.74407471,3.48319075" id="Fill-33" fill="#1D1C1A"></path>
                                        <path d="M5.92385384,2.72323571 C5.92385384,2.95939531 5.73137535,3.15202318 5.49405811,3.15202318 C5.2578345,3.15202318 5.06426237,2.95939531 5.06426237,2.72323571 C5.06426237,2.48598783 5.2578345,2.29444825 5.49405811,2.29444825 C5.73137535,2.29444825 5.92385384,2.48598783 5.92385384,2.72323571" id="Fill-35" fill="#FFFFFF"></path>
                                    </g>
                                    <path d="M13.7574341,29.5304773 C15.0135615,32.3304773 17.5886228,33.7304773 21.4826179,33.7304773 C25.376613,33.7304773 27.9516743,32.3304773 29.2078017,29.5304773" id="Path-4" stroke="#435259" stroke-width="1.2" stroke-linecap="round"></path>
                                </g>
                            </g>
                        </g>
                    </g>
                </g>
                <g id="Animal_Window/Rabbit" transform="translate(180.846600, 0.000000)">
                    <g id="Rabbit-closed">
                        <mask id="mask-14" fill="white">
                            <use xlink:href="#path-13"></use>
                        </mask>
                        <use id="Mask" fill="#11274C" xlink:href="#path-13"></use>
                        <g id="Rabbit" mask="url(#mask-14)">
                            <g transform="translate(-1.000000, 5.000000)" id="Clip">
                                <g>
                                    <g id="R-ear" transform="translate(18.266219, 25.396526) rotate(-32.000000) translate(-18.266219, -25.396526) translate(11.041729, 4.927138)">
                                        <path d="M0.519661632,40.7004743 L7.66298643,39.558638 C7.66298643,39.558638 9.14417767,36.141855 11.8619769,23.5947446 C13.558501,15.7689277 16.2099154,-0.223848561 8.02060879,0.0181421705 C-0.168697777,0.260132902 0.519661632,40.7004743 0.519661632,40.7004743 Z" id="Clip-50" fill="#B48E6F"></path>
                                        <path d="M8.04946532,4.09377633 C1.76062606,6.23658919 2.36368249,34.3717594 2.36368249,34.3717594 L7.39164216,33.5664906 C7.39164216,33.5664906 8.43283247,31.1612798 10.3484235,22.3295002 C12.1040707,14.224457 13.9997466,3.8326249 9.43792652,3.83324818 C9.02842071,3.83324818 8.56725991,3.91739004 8.04946532,4.09377633 Z" id="Clip-53" fill="#ECA5AB"></path>
                                    </g>
                                    <g id="L-ear" transform="translate(36.141846, 24.002825) rotate(-32.000000) translate(-36.141846, -24.002825) translate(20.488785, 6.543642)">
                                        <path d="M9.72234013,14.7838001 C1.82348333,24.8964059 0.144385028,28.2190747 0.144385028,28.2190747 L3.83180439,34.4518055 C3.83180439,34.4518055 36.4847654,7.40088583 29.3154932,1.96728912 C22.146221,-3.46630758 14.9170894,8.13285303 9.72234013,14.7838001 Z" id="Clip-56" fill="#B48E6F"></path>
                                        <path d="M11.6615804,15.1409356 C6.10088979,22.2599607 4.92091559,24.5997279 4.92091559,24.5997279 L7.51548966,28.9875704 C7.51548966,28.9875704 29.5099348,11.4723502 27.1362948,5.25831757 C26.5774251,3.79362583 25.7304078,3.17346911 24.6910845,3.17346911 C21.3185739,3.17284584 15.9109812,9.70038484 11.6615804,15.1409356 Z" id="Clip-59" fill="#ECA5AB"></path>
                                    </g>
                                    <path d="M30.4964234,13.341962 C29.5249362,13.6922415 28.7768724,14.8552691 28.0792188,15.9914959 C20.6016925,13.9247224 12.5036839,17.4817419 9.09632173,24.7515991 C7.41162228,28.3472615 6.86706668,32.5007534 7.80992581,36.0615125 C9.52138627,41.0087426 12.3610067,45.4885179 17.534133,48.2932467 C22.7072593,51.0979756 28.2864611,51.0359599 30.4964234,51.1369302 C36.2593775,50.8159445 42.1175511,47.104665 44.7419979,41.5051796 C48.3802517,33.7423133 45.3500331,24.5652405 37.9926202,20.4410425 C38.9018725,19.3989299 38.8782232,18.0676186 37.3254618,18.1068848 C39.300176,16.0270225 36.3826027,14.0724381 34.1601935,16.2663594 C35.6644116,14.5187016 33.5478018,13.1094812 31.6857328,13.1094812 C31.2606683,13.1094812 30.8492954,13.1830274 30.4964234,13.341962 Z" id="Head" fill="#C9A589" transform="translate(26.816005, 32.123206) rotate(-32.000000) translate(-26.816005, -32.123206) "></path>
                                    <path d="M23.5888469,40.4395833 C23.5888469,40.4395833 25.6364898,42.5701389 29.2812943,41.7916667 C31.7111639,41.2726852 33.2674259,40.0162037 33.9500802,38.0222222" id="Path-5" stroke="#435259" stroke-width="1.2" stroke-linecap="round"></path>
                                    <g id="Nose" transform="translate(28.995323, 35.245331) rotate(-32.000000) translate(-28.995323, -35.245331) translate(24.781037, 29.224923)">
                                        <path d="M3.06050878,5.45363948 L0.046719385,11.1946807" id="Line" stroke="#435259" stroke-width="1.2" stroke-linecap="round"></path>
                                        <path d="M2.91238966,5.78459749 C4.17389161,6.37733019 7.65220162,2.84150199 7.65220162,2.84150199 L2.14254362,0.251802326 C2.14254362,0.251802326 1.64902066,5.19124151 2.91238966,5.78459749 Z" id="Clip-83" fill="#FEA5BA"></path>
                                    </g>
                                    <g id="Mouth" transform="translate(28.192664, 37.845898) rotate(-32.000000) translate(-28.192664, -37.845898) translate(16.753888, 28.213244)"></g>
                                    <g id="L-Eye" transform="translate(36.082037, 27.920402) rotate(-32.000000) translate(-36.082037, -27.920402) translate(31.265711, 23.104075)">
                                        <path d="M0.452447912,2.8527209 C-0.534598014,4.95876065 0.36967546,7.46369517 2.47259361,8.45220628 C4.57364471,9.43947085 7.07611108,8.5351016 8.06253466,6.42968513 C9.04895823,4.32426865 8.14406241,1.81871086 6.04363366,0.831446293 C5.4654712,0.559699229 4.85743597,0.431304974 4.25873598,0.431304974 C2.67983591,0.431304974 1.16752721,1.32632512 0.452447912,2.8527209 Z" id="Clip-95" fill="#FFFFFF"></path>
                                        <path d="M2.32670024,3.57640906 C1.74231429,4.82233196 2.278157,6.30883826 3.52472256,6.89409169 C4.76942108,7.47934511 6.25247937,6.94270699 6.83748767,5.69616082 C7.42125128,4.44961465 6.88478622,2.9643549 5.6400877,2.3784782 C5.2977956,2.21767374 4.93807773,2.14163443 4.58333865,2.14163443 C3.64732537,2.14163443 2.75052009,2.67203982 2.32670024,3.57640906 Z" id="Clip-98" fill="#1D1C1A"></path>
                                        <mask id="mask-16" fill="white">
                                            <use xlink:href="#path-15"></use>
                                        </mask>
                                        <use id="Clip-101" fill="#FFFFFF" xlink:href="#path-15"></use>
                                    </g>
                                    <g id="R-eye" transform="translate(17.874382, 30.495295) rotate(-32.000000) translate(-17.874382, -30.495295) translate(13.058056, 25.678968)">
                                        <path d="M0.954061415,2.93686277 C-0.0329845108,5.04165597 0.872533662,7.54721377 2.97420711,8.5351016 C5.07525821,9.52298944 7.57772458,8.6186202 8.56414816,6.51382699 C9.55057174,4.40778724 8.64692061,1.90285272 6.54586951,0.914964886 C5.96770705,0.643217822 5.35967182,0.514823567 4.76097184,0.514823567 C3.18207176,0.514823567 1.66914071,1.40984371 0.954061415,2.93686277 Z" id="Clip-86" fill="#FFFFFF"></path>
                                        <path d="M2.82893609,3.65992766 C2.24517249,4.90647382 2.78039285,6.39235685 4.02633607,6.97823355 C5.27103459,7.56224043 6.75471522,7.02622558 7.33910118,5.77967941 C7.92348713,4.53313325 7.38764442,3.04725022 6.14232355,2.46262006 C5.80003146,2.30119234 5.43969124,2.22515302 5.08495216,2.22515302 C4.14893887,2.22515302 3.25213359,2.75618169 2.82893609,3.65992766 Z" id="Clip-89" fill="#1D1C1A"></path>
                                        <path d="M5.87658042,4.05882243 C5.75273291,4.32246694 5.86724518,4.63597331 6.12863187,4.75938138 C6.3918856,4.88278945 6.70430493,4.76997702 6.82815243,4.5063325 C6.95199994,4.24206472 6.83873237,3.9298049 6.57547863,3.80577356 C6.50390847,3.77211681 6.42798186,3.75591171 6.35329995,3.75591171 C6.15539288,3.75591171 5.96619871,3.86747759 5.87658042,4.05882243 Z" id="Clip-92" fill="#FFFFFF"></path>
                                    </g>
                                </g>
                            </g>
                        </g>
                    </g>
                </g>
                <g id="Animal_Window/Empty" transform="translate(0.846600, 0.000000)" fill="#11274C">
                    <g id="Window-5" transform="translate(0.000000, 1.000000)">
                        <path d="M50,25 C50,38.8070748 38.8067939,50 24.9993728,50 C11.1919516,50 0,38.8070748 0,25 C0,11.1929252 11.1919516,0 24.9993728,0 C38.8067939,0 50,11.1929252 50,25" id="Fill-165"></path>
                    </g>
                </g>
            </g>
        </g>
    </g>
</svg>