<?xml version="1.0" encoding="utf-8"?>
<!-- Generator: Adobe Illustrator 21.0.0, SVG Export Plug-In . SVG Version: 6.00 Build 0)  -->
<svg version="1.1" id="Layer_1" xmlns="http://www.w3.org/2000/svg" xmlns:xlink="http://www.w3.org/1999/xlink" x="0px" y="0px"
	 viewBox="0 0 4800 2950" style="enable-background:new 0 0 4800 2950;" xml:space="preserve">
<style type="text/css">
	.st0{fill:#FFFFFF;}
</style>
<title>Stars</title>
<circle class="st0" cx="78.3" cy="207.4" r="1.5"/>
<circle class="st0" cx="1040.3" cy="329.4" r="1.5"/>
<circle class="st0" cx="487.3" cy="135.4" r="1.5"/>
<circle class="st0" cx="1599.3" cy="433.4" r="1.5"/>
<circle class="st0" cx="1422.8" cy="116.9" r="1.5"/>
<circle class="st0" cx="703.3" cy="282.4" r="1.5"/>
<circle class="st0" cx="899.8" cy="703.9" r="1.5"/>
<circle class="st0" cx="330.3" cy="395.4" r="1.5"/>
<circle class="st0" cx="1227.8" cy="581.9" r="1.5"/>
<circle class="st0" cx="159.8" cy="621.9" r="1.5"/>
<circle class="st0" cx="1998.3" cy="207.4" r="1.5"/>
<circle class="st0" cx="2407.3" cy="135.4" r="1.5"/>
<circle class="st0" cx="2419.3" cy="653.4" r="1.5"/>
<circle class="st0" cx="2623.3" cy="282.4" r="1.5"/>
<circle class="st0" cx="2160.3" cy="345.4" r="1.5"/>
<circle class="st0" cx="2079.8" cy="621.9" r="1.5"/>
<circle class="st0" cx="78.3" cy="797.4" r="1.5"/>
<circle class="st0" cx="1040.3" cy="919.4" r="1.5"/>
<circle class="st0" cx="487.3" cy="725.4" r="1.5"/>
<circle class="st0" cx="1599.3" cy="1023.4" r="1.5"/>
<circle class="st0" cx="1422.8" cy="706.9" r="1.5"/>
<circle class="st0" cx="703.3" cy="872.4" r="1.5"/>
<circle class="st0" cx="899.8" cy="1293.9" r="1.5"/>
<circle class="st0" cx="330.3" cy="985.4" r="1.5"/>
<circle class="st0" cx="1227.8" cy="1171.9" r="1.5"/>
<circle class="st0" cx="159.8" cy="1211.9" r="1.5"/>
<circle class="st0" cx="1998.3" cy="797.4" r="1.5"/>
<circle class="st0" cx="2407.3" cy="725.4" r="1.5"/>
<circle class="st0" cx="2419.3" cy="1243.4" r="1.5"/>
<circle class="st0" cx="2623.3" cy="872.4" r="1.5"/>
<circle class="st0" cx="2160.3" cy="935.4" r="1.5"/>
<circle class="st0" cx="2079.8" cy="1211.9" r="1.5"/>
<circle class="st0" cx="78.3" cy="1387.4" r="1.5"/>
<circle class="st0" cx="1040.3" cy="1509.4" r="1.5"/>
<circle class="st0" cx="487.3" cy="1315.4" r="1.5"/>
<circle class="st0" cx="1599.3" cy="1613.4" r="1.5"/>
<circle class="st0" cx="1422.8" cy="1296.9" r="1.5"/>
<circle class="st0" cx="703.3" cy="1462.4" r="1.5"/>
<circle class="st0" cx="899.8" cy="1883.9" r="1.5"/>
<circle class="st0" cx="330.3" cy="1575.4" r="1.5"/>
<circle class="st0" cx="1227.8" cy="1761.9" r="1.5"/>
<circle class="st0" cx="2976.8" cy="361.9" r="1.5"/>
<circle class="st0" cx="3535.8" cy="465.9" r="1.5"/>
<circle class="st0" cx="3359.3" cy="149.4" r="1.5"/>
<circle class="st0" cx="3164.3" cy="614.4" r="1.5"/>
<circle class="st0" cx="2976.8" cy="951.9" r="1.5"/>
<circle class="st0" cx="3535.8" cy="1055.9" r="1.5"/>
<circle class="st0" cx="3359.3" cy="739.4" r="1.5"/>
<circle class="st0" cx="3164.3" cy="1204.4" r="1.5"/>
<circle class="st0" cx="2976.8" cy="1541.9" r="1.5"/>
<circle class="st0" cx="3359.3" cy="1329.4" r="1.5"/>
<circle class="st0" cx="3164.3" cy="1794.4" r="1.5"/>
<circle class="st0" cx="159.8" cy="1801.9" r="1.5"/>
<circle class="st0" cx="1998.3" cy="1387.4" r="1.5"/>
<circle class="st0" cx="2407.3" cy="1315.4" r="1.5"/>
<circle class="st0" cx="2419.3" cy="1833.4" r="1.5"/>
<circle class="st0" cx="2623.3" cy="1462.4" r="1.5"/>
<circle class="st0" cx="2160.3" cy="1525.4" r="1.5"/>
<circle class="st0" cx="2079.8" cy="1801.9" r="1.5"/>
<circle class="st0" cx="78.3" cy="1797.4" r="1.5"/>
<circle class="st0" cx="1040.3" cy="1919.4" r="1.5"/>
<circle class="st0" cx="1599.3" cy="2023.4" r="1.5"/>
<circle class="st0" cx="703.3" cy="1872.4" r="1.5"/>
<circle class="st0" cx="899.8" cy="2293.9" r="1.5"/>
<circle class="st0" cx="330.3" cy="1985.4" r="1.5"/>
<circle class="st0" cx="1227.8" cy="2171.9" r="1.5"/>
<circle class="st0" cx="2976.8" cy="1951.9" r="1.5"/>
<circle class="st0" cx="3535.8" cy="2055.9" r="1.5"/>
<circle class="st0" cx="3164.3" cy="2204.4" r="1.5"/>
<circle class="st0" cx="159.8" cy="2211.9" r="1.5"/>
<circle class="st0" cx="1998.3" cy="1797.4" r="1.5"/>
<circle class="st0" cx="2419.3" cy="2243.4" r="1.5"/>
<circle class="st0" cx="2623.3" cy="1872.4" r="1.5"/>
<circle class="st0" cx="2160.3" cy="1935.4" r="1.5"/>
<circle class="st0" cx="2079.8" cy="2211.9" r="1.5"/>
<circle class="st0" cx="3434.3" cy="326.8" r="1.5"/>
<circle class="st0" cx="3993.3" cy="430.8" r="1.5"/>
<circle class="st0" cx="3816.8" cy="114.3" r="1.5"/>
<circle class="st0" cx="3621.8" cy="579.3" r="1.5"/>
<circle class="st0" cx="4392.3" cy="204.8" r="1.5"/>
<circle class="st0" cx="4554.3" cy="342.8" r="1.5"/>
<circle class="st0" cx="4473.8" cy="619.3" r="1.5"/>
<circle class="st0" cx="3434.3" cy="916.8" r="1.5"/>
<circle class="st0" cx="3993.3" cy="1020.8" r="1.5"/>
<circle class="st0" cx="3816.8" cy="704.3" r="1.5"/>
<circle class="st0" cx="3621.8" cy="1169.3" r="1.5"/>
<circle class="st0" cx="4392.3" cy="794.8" r="1.5"/>
<circle class="st0" cx="4554.3" cy="932.8" r="1.5"/>
<circle class="st0" cx="4473.8" cy="1209.3" r="1.5"/>
<circle class="st0" cx="3993.3" cy="1610.8" r="1.5"/>
<circle class="st0" cx="3816.8" cy="1294.3" r="1.5"/>
<circle class="st0" cx="3621.8" cy="1759.3" r="1.5"/>
<circle class="st0" cx="4392.3" cy="1384.8" r="1.5"/>
<circle class="st0" cx="1040.8" cy="2523.5" r="1.5"/>
<circle class="st0" cx="2560.3" cy="2473" r="1.5"/>
<circle class="st0" cx="219.3" cy="2617" r="1.5"/>
<circle class="st0" cx="1181.3" cy="2739" r="1.5"/>
<circle class="st0" cx="628.3" cy="2545" r="1.5"/>
<circle class="st0" cx="1740.3" cy="2843" r="1.5"/>
<circle class="st0" cx="1563.8" cy="2526.5" r="1.5"/>
<circle class="st0" cx="844.3" cy="2692" r="1.5"/>
<circle class="st0" cx="471.3" cy="2805" r="1.5"/>
<circle class="st0" cx="2139.3" cy="2617" r="1.5"/>
<circle class="st0" cx="2764.3" cy="2692" r="1.5"/>
<circle class="st0" cx="2301.3" cy="2755" r="1.5"/>
<circle class="st0" cx="3117.8" cy="2771.5" r="1.5"/>
<circle class="st0" cx="3676.8" cy="2875.5" r="1.5"/>
<circle class="st0" cx="3500.3" cy="2559" r="1.5"/>
<circle class="st0" cx="3575.4" cy="2736.5" r="1.5"/>
<circle class="st0" cx="4134.4" cy="2840.5" r="1.5"/>
<circle class="st0" cx="3957.9" cy="2524" r="1.5"/>
<circle class="st0" cx="4533.4" cy="2614.5" r="1.5"/>
<circle class="st0" cx="4695.4" cy="2752.5" r="1.5"/>
<circle class="st0" cx="4554.3" cy="1522.8" r="1.5"/>
<circle class="st0" cx="4473.8" cy="1799.3" r="1.5"/>
<circle class="st0" cx="3434.3" cy="1916.8" r="1.5"/>
<circle class="st0" cx="3993.3" cy="2020.8" r="1.5"/>
<circle class="st0" cx="3621.8" cy="2169.3" r="1.5"/>
<circle class="st0" cx="4392.3" cy="1794.8" r="1.5"/>
<circle class="st0" cx="4554.3" cy="1932.8" r="1.5"/>
<circle class="st0" cx="4473.8" cy="2209.3" r="1.5"/>
</svg>
