<?xml version="1.0" encoding="UTF-8"?>
<svg width="160px" height="150px" viewBox="0 0 160 150" version="1.1" xmlns="http://www.w3.org/2000/svg" xmlns:xlink="http://www.w3.org/1999/xlink">
    <!-- Generator: Sketch 45.1 (43504) - http://www.bohemiancoding.com/sketch -->
    <title>Animal_Search/Tiger</title>
    <desc>Created with Sketch.</desc>
    <defs>
        <path d="M24.2454,24.276 C22.9584,25.061 18.2564,25.813 18.0454,25.854 C16.0994,26.248 13.0094,25.134 11.8064,24.421 C8.2374,22.301 6.3284,18.185 6.2094,14.177 C6.5774,10.886 8.1684,7.656 11.4724,5.88 C14.8454,4.066 12.0734,-1.214 8.6844,0.608 C3.6974,3.289 1.0594,8.048 0.3214,12.995 C0.0134,19.301 2.7954,25.933 8.6014,29.444 C10.6434,30.682 14.4934,33.332 25.1774,30.189 L24.2454,24.276 Z" id="path-1"></path>
        <path d="M24.2688,2.1779 C21.5528,8.2259 7.6618,22.4099 3.9118,23.9979 C-1.7902,26.4109 0.0378,33.3099 7.4568,35.6729 C14.7008,37.9809 24.5148,27.7839 28.0378,14.2639 C32.3238,-2.1881 25.5648,-0.7101 24.2688,2.1779" id="path-3"></path>
        <path d="M7.5203,3.4826 C12.1443,9.0526 25.8403,19.3336 29.2193,25.4766 C30.1683,27.2026 32.4993,29.2946 31.0643,31.1296 C30.2713,32.1426 27.0873,29.2606 25.5633,30.0136 C22.3543,31.5996 19.5733,31.7576 17.9593,30.7436 C14.1933,28.3786 -0.8347,6.6116 0.2203,2.5526 C1.2763,-1.5064 6.0823,1.7496 7.5203,3.4826" id="path-5"></path>
        <path d="M12.7375,11.008 C-0.7205,22.458 -9.6035,40.647 18.4655,56.019 C47.0875,71.695 46.4045,53.43 51.1655,42.675 C58.3165,26.52 73.2935,15.304 58.4035,5.796 C42.3615,-4.448 21.3995,3.638 12.7375,11.008" id="path-7"></path>
        <path d="M60.4744,5.7087 C74.9124,13.0597 97.3274,33.4147 85.3954,56.8527 C73.4644,80.2897 40.6714,81.5027 25.7544,73.9087 C10.8384,66.3147 -7.0716,40.0577 4.1994,17.9177 C15.4704,-4.2223 46.4944,-1.4093 60.4744,5.7087" id="path-9"></path>
        <path d="M3.3718,19.8185 C10.1108,3.0055 33.3958,-4.0875 52.1358,3.4235 C70.6998,10.8645 82.7678,31.0515 76.0278,47.8645 C69.2888,64.6775 52.9258,74.4795 27.7058,64.3705 C0.5598,53.4895 -3.3672,36.6315 3.3718,19.8185" id="path-11"></path>
        <path d="M1.25,1.25 C-1,4 3.1629,15.5812 14,19.5 C24.8371,23.4188 35.3051,19.5 37.5,16.5 C39.7624049,13.407734 26.962,16.308 17.75,12.75 C8.538,9.192 3.32645021,-1.28788359 1.25,1.25 Z" id="path-13"></path>
        <path d="M16.6086,2.0295 C18.4416,-2.4695 0.4996,1.3725 0.4996,18.4625 C0.4996,28.8985 11.8646,36.5085 15.3836,34.8235 C18.9026,33.1385 22.4826,27.0965 19.2906,25.1145 C16.0986,23.1325 7.7376,18.0955 9.7996,12.8625 C11.8616,7.6285 15.4246,4.9355 16.6086,2.0295" id="path-15"></path>
    </defs>
    <g id="Symbols" stroke="none" stroke-width="1" fill="none" fill-rule="evenodd">
        <g id="Animal_Search/Tiger">
            <g id="Tiger-Searching" transform="translate(2.000000, 2.000000)">
                <g id="Tail" transform="translate(4.000000, 66.000000)">
                    <mask id="mask-2" fill="white">
                        <use xlink:href="#path-1"></use>
                    </mask>
                    <use id="Mask" fill="#D2662A" xlink:href="#path-1"></use>
                    <path d="M7.0247,11.3185 C6.6697,12.1935 6.4517,12.3785 6.3717,13.3885 L0.3087,13.5955 C0.3077,12.2215 0.6697,10.7665 0.9117,9.7965 L7.0247,11.3185 Z" id="Fill-3" fill="#000000" mask="url(#mask-2)"></path>
                    <path d="M7.6213,19.6452 L1.6903,21.8412 C1.2453,20.8712 0.6373,19.1742 0.3933,18.0832 L6.5843,16.9762 C6.5843,16.9762 7.1753,18.6752 7.6213,19.6452" id="Fill-6" fill="#000000" mask="url(#mask-2)"></path>
                    <path d="M10.2288,6.9635 C9.2588,7.4095 9.1788,7.7325 8.4518,8.5825 L3.2518,5.2265 C3.7768,4.4975 4.9888,3.0825 5.8368,2.4345 L10.2288,6.9635 Z" id="Fill-8" fill="#000000" mask="url(#mask-2)"></path>
                </g>
                <path d="M29.4875,82.7047 C26.3655,92.0247 17.7375,60.3097 32.2375,53.0597 C46.7375,45.8097 49.7375,46.5597 51.7375,47.5597 C53.7375,48.5597 65.5635,53.6007 66.6505,60.9557 C67.7375,68.3097 31.7715,75.8847 29.4875,82.7047" id="Backpack" fill="#CFDEE6"></path>
                <path d="M31.5427,97.3009 C26.9277,102.0609 9.0347,110.6619 4.9677,110.8759 C-1.2153,111.2019 -1.8483,118.3099 4.3207,123.0599 C10.3447,127.6989 23.0467,121.4569 30.9657,109.9479 C40.6037,95.9419 33.7457,95.0279 31.5427,97.3009" id="R-leg" fill="#9DDBF8"></path>
                <g id="L-leg" transform="translate(39.000000, 110.105000)">
                    <mask id="mask-4" fill="white">
                        <use xlink:href="#path-3"></use>
                    </mask>
                    <use id="Mask" fill="#9DDBF8" xlink:href="#path-3"></use>
                    <path d="M4.387,-5.1996 C9.317,-11.4996 24.37,-2.4746 30.778,-6.7866 C37.186,-11.0986 48.772,1.9234 41.009,9.1154 C33.245,16.3084 21.96,33.3814 8.549,18.3634 C-4.863,3.3454 2.124,-2.3076 4.387,-5.1996" id="Fill-20" fill="#65C6FD" mask="url(#mask-4)"></path>
                </g>
                <g id="L-arm" transform="translate(76.000000, 82.105000)">
                    <mask id="mask-6" fill="white">
                        <use xlink:href="#path-5"></use>
                    </mask>
                    <use id="Mask" fill="#9DDBF8" xlink:href="#path-5"></use>
                    <path d="M33.6794,8.8419 C33.6794,16.8419 16.2634,19.0119 13.8744,26.3569 C11.4854,33.7009 -5.6646,30.5869 -3.9826,20.1379 C-2.3016,9.6899 -3.9376,-10.7101 15.8804,-7.1491 C35.6974,-3.5881 33.6794,5.1699 33.6794,8.8419" id="Fill-25" fill="#65C6FD" mask="url(#mask-6)"></path>
                </g>
                <g id="Body" transform="translate(23.000000, 60.000000)">
                    <mask id="mask-8" fill="white">
                        <use xlink:href="#path-7"></use>
                    </mask>
                    <use id="Mask" fill="#FFFFFF" xlink:href="#path-7"></use>
                    <path d="M56.5066,11.3297 C50.1026,20.6647 46.7376,23.3097 43.4876,34.0597 C40.1996,44.9347 37.2106,54.8097 30.7236,59.0597 C24.2376,63.3097 19.5076,62.1497 20.8626,64.6027 C28.6646,78.7277 41.3126,73.6647 48.8626,68.2897 C56.4116,62.9147 56.4876,45.1847 66.4876,33.3097 C76.4876,21.4347 76.5246,10.6357 70.1496,10.1357 C63.7746,9.6357 64.4426,3.9647 61.1636,4.8127" id="Fill-30" fill="#E4E4E4" mask="url(#mask-8)"></path>
                </g>
                <g id="Panel" transform="translate(54.000000, 60.000000)">
                    <path d="M5.4875,2.99085625 C3.8885,9.43685625 1.9875,16.0948563 0.7375,18.0948563 C-0.5125,20.0948562 20.0805,30.0908563 22.9875,30.5948562 C25.8945,31.1008562 27.9685,23.9198563 29.6035,19.6328562 C31.2375,15.3448563 15.8615,0.09485625 10.6745,0.59485625 C5.4875,1.09485625 5.8475,1.53785625 5.4875,2.99085625" id="Fill-33" fill="#DFEAEF"></path>
                    <path d="M8.134,5.12805625 C6.806,10.4820562 5.227,16.0120562 4.189,17.6730562 C3.151,19.3340562 20.254,27.6350562 22.668,28.0550562 C25.083,28.4740562 26.806,22.5100562 28.163,18.9490562 C29.52,15.3890562 16.75,2.72305625 12.442,3.13905625 C8.134,3.55405625 8.433,3.92205625 8.134,5.12805625" id="Fill-35" fill="#B8C5CC"></path>
                    <g id="Buttons" transform="translate(7.000000, 13.035156)">
                        <path d="M16.9006,12.2536 C16.6126,12.8066 16.0056,13.0596 15.5436,12.8186 C15.0806,12.5786 14.9386,11.9356 15.2266,11.3826 C15.5136,10.8306 16.1216,10.5776 16.5836,10.8176 C17.0466,11.0586 17.1876,11.7016 16.9006,12.2536" id="Fill-43" fill="#F15B5C"></path>
                        <path d="M17.1853,12.4191 C16.8983,12.9711 16.2903,13.2241 15.8283,12.9831 C15.3653,12.7431 15.2233,12.1001 15.5113,11.5481 C15.7983,10.9961 16.4063,10.7431 16.8683,10.9831 C17.3313,11.2241 17.4733,11.8661 17.1853,12.4191" id="Fill-47" fill="#F69799"></path>
                        <path d="M14.1292,11.1711 C13.8412,11.7231 13.2332,11.9761 12.7722,11.7361 C12.3092,11.4951 12.1672,10.8531 12.4542,10.3001 C12.7422,9.7481 13.3502,9.4951 13.8122,9.7351 C14.2742,9.9761 14.4162,10.6181 14.1292,11.1711" id="Fill-49" fill="#F15B5C"></path>
                        <path d="M14.4138,11.3361 C14.1258,11.8881 13.5188,12.1411 13.0568,11.9011 C12.5938,11.6601 12.4518,11.0181 12.7398,10.4651 C13.0268,9.9131 13.6348,9.6601 14.0968,9.9001 C14.5598,10.1411 14.7008,10.7831 14.4138,11.3361" id="Fill-53" fill="#F69799"></path>
                        <path d="M5.5715,4.8927 C4.7965,6.3827 3.1565,7.0647 1.9095,6.4167 C0.6615,5.7677 0.2795,4.0337 1.0535,2.5427 C1.8295,1.0527 3.4685,0.3707 4.7165,1.0197 C5.9635,1.6677 6.3465,3.4027 5.5715,4.8927" id="Fill-37" fill="#F15B5C"></path>
                        <path d="M6.3396,5.338 C5.5646,6.828 3.9246,7.51 2.6776,6.862 C1.4296,6.213 1.0476,4.479 1.8226,2.988 C2.5976,1.498 4.2366,0.816 5.4846,1.465 C6.7326,2.113 7.1146,3.848 6.3396,5.338" id="Fill-41" fill="#F69799"></path>
                    </g>
                </g>
                <path d="M120.8376,6.7074 C102.8336,-2.4586 71.9496,-4.4326 62.0296,15.0534 C49.6726,39.3254 46.5496,63.3084 85.3616,83.0674 C124.1736,102.8254 141.8916,75.1694 150.7846,57.6994 C159.6786,40.2294 144.2546,18.6284 120.8376,6.7074" id="helmet" fill="#F3FAFD"></path>
                <g id="Head" transform="translate(59.000000, 5.000000)">
                    <mask id="mask-10" fill="white">
                        <use xlink:href="#path-9"></use>
                    </mask>
                    <use id="Mask" fill="#C7E6F7" xlink:href="#path-9"></use>
                    <g id="L-ear" mask="url(#mask-10)">
                        <g transform="translate(62.000000, 20.000000)">
                            <path d="M7.4807,22.5338 C13.3807,24.8988 20.0817,22.0328 22.4457,16.1328 C24.8117,10.2328 21.9457,3.5328 16.0447,1.1678 C10.1447,-1.1972 3.4447,1.6678 1.0797,7.5688 C-1.2853,13.4688 1.5807,20.1688 7.4807,22.5338" id="Fill-63" fill="#E28031"></path>
                            <path d="M9.3059,17.9801 C12.6909,19.3371 16.5359,17.6931 17.8929,14.3081 C19.2499,10.9221 17.6049,7.0781 14.2199,5.7211 C10.8349,4.3641 6.9899,6.0081 5.6329,9.3941 C4.2759,12.7791 5.9209,16.6231 9.3059,17.9801" id="Fill-65" fill="#754D24"></path>
                        </g>
                    </g>
                    <g id="R-ear" mask="url(#mask-10)">
                        <g transform="translate(16.000000, 1.000000)">
                            <path d="M7.4202,23.071 C13.3202,25.436 20.0212,22.571 22.3862,16.67 C24.7512,10.77 21.8852,4.07 15.9842,1.705 C10.0852,-0.66 3.3842,2.206 1.0192,8.106 C-1.3458,14.006 1.5202,20.706 7.4202,23.071" id="Fill-68" fill="#E28031"></path>
                            <path d="M9.2454,18.5177 C12.6314,19.8747 16.4754,18.2297 17.8324,14.8447 C19.1894,11.4597 17.5454,7.6157 14.1594,6.2587 C10.7744,4.9007 6.9304,6.5457 5.5734,9.9307 C4.2164,13.3157 5.8604,17.1607 9.2454,18.5177" id="Fill-70" fill="#754D24"></path>
                        </g>
                    </g>
                    <g id="Face" mask="url(#mask-10)">
                        <g transform="translate(3.000000, 11.000000)">
                            <mask id="mask-12" fill="white">
                                <use xlink:href="#path-11"></use>
                            </mask>
                            <use id="Mask" stroke="none" fill="#E28031" fill-rule="evenodd" xlink:href="#path-11"></use>
                            <g id="Stripes" stroke="none" stroke-width="1" fill="none" fill-rule="evenodd" mask="url(#mask-12)">
                                <g transform="translate(-1.000000, 12.105000)" fill="#333333">
                                    <path d="M1.4509,13.4923 L18.4399,19.2853 L0.7049,28.0323 C0.5299,27.9623 -1.0431,22.2493 1.4509,13.4923" id="Fill-77"></path>
                                    <path d="M7.4524,0.0426 L15.7134,9.8586 L2.2944,10.3746 C2.2944,10.3746 4.7874,2.6336 7.4524,0.0426" id="Fill-80"></path>
                                    <path d="M75.0413,43.2257 L58.7543,35.6807 L65.3283,53.7647 C65.3983,53.5897 70.7953,51.2807 75.0413,43.2257" id="Fill-83"></path>
                                    <path d="M79.9915,29.3546 L67.2365,30.7466 L76.5845,40.3886 C76.5845,40.3886 80.1285,33.0686 79.9915,29.3546" id="Fill-86"></path>
                                </g>
                            </g>
                            <g id="Nose" stroke="none" stroke-width="1" fill="none" fill-rule="evenodd" mask="url(#mask-12)">
                                <g transform="translate(25.000000, 20.105000)">
                                    <polygon id="Fill-90" fill="#F1AA31" points="14.1296 0.8722 24.2976 4.9482 21.0886 28.3552 0.7516 20.2042"></polygon>
                                    <path d="M21.0891,28.3556 C19.2701,32.8926 13.2291,34.8286 7.5971,32.5706 C1.9651,30.3136 -1.0669,24.7406 0.7521,20.2036" id="Fill-92" fill="#333333"></path>
                                </g>
                            </g>
                            <g id="Mouth" stroke="none" stroke-width="1" fill="none" fill-rule="evenodd" mask="url(#mask-12)">
                                <g transform="translate(15.000000, 42.000000)">
                                    <mask id="mask-14" fill="white">
                                        <use xlink:href="#path-13"></use>
                                    </mask>
                                    <use id="Mask" stroke="none" fill="#000000" fill-rule="evenodd" xlink:href="#path-13"></use>
                                    <path d="M3.9407,1.132 C1.2127,2.156 2.7327,8.178 3.8857,8.661 C5.0387,9.143 8.9857,7.359 9.3357,5.479 C9.6857,3.599 5.3677,0.596 3.9407,1.132" id="L-tooth" stroke="none" fill="#FFFFFF" fill-rule="evenodd" mask="url(#mask-14)"></path>
                                    <path d="M35.261,13.6862 C36.526,16.3112 31.268,19.6172 30.1,19.1692 C28.933,18.7212 27.311,14.7042 28.357,13.1032 C29.403,11.5022 34.599,12.3132 35.261,13.6862" id="R-tooth" stroke="none" fill="#FFFFFF" fill-rule="evenodd" mask="url(#mask-14)"></path>
                                </g>
                            </g>
                            <g id="R-eye" stroke="none" stroke-width="1" fill="none" fill-rule="evenodd" mask="url(#mask-12)">
                                <g transform="translate(20.000000, 13.105000)">
                                    <path d="M5.1052,13.6339 C8.5872,15.0299 12.5422,13.3389 13.9372,9.8559 C15.3332,6.3739 13.6422,2.4199 10.1602,1.0239 C6.6782,-0.3711 2.7232,1.3199 1.3282,4.8019 C-0.0678,8.2839 1.6232,12.2379 5.1052,13.6339" id="Fill-103" fill="#FFFFFF"></path>
                                    <path d="M6.3425,13.2355 C8.3735,14.0495 10.6805,13.0635 11.4945,11.0315 C12.3085,9.0005 11.3215,6.6935 9.2905,5.8805 C7.2595,5.0655 4.9525,6.0525 4.1385,8.0835 C3.3245,10.1145 4.3115,12.4215 6.3425,13.2355" id="Fill-106" fill="#1D1C1A"></path>
                                    <path d="M9.6736,9.4889 C10.0606,9.6439 10.5006,9.4559 10.6546,9.0689 C10.8106,8.6819 10.6226,8.2429 10.2356,8.0879 C9.8486,7.9329 9.4086,8.1209 9.2546,8.5079 C9.0986,8.8939 9.2866,9.3339 9.6736,9.4889" id="Fill-109" fill="#FFFFFF"></path>
                                </g>
                            </g>
                            <g id="L-eye" stroke="none" stroke-width="1" fill="none" fill-rule="evenodd" mask="url(#mask-12)">
                                <g transform="translate(51.000000, 25.105000)">
                                    <path d="M5.0696,13.6388 C8.5516,15.0348 12.5056,13.3438 13.9016,9.8618 C15.2976,6.3788 13.6066,2.4248 10.1236,1.0298 C6.6416,-0.3662 2.6876,1.3248 1.2916,4.8068 C-0.1034,8.2888 1.5876,12.2428 5.0696,13.6388" id="Fill-112" fill="#FFFFFF"></path>
                                    <path d="M6.3064,13.2404 C8.3374,14.0544 10.6444,13.0684 11.4584,11.0364 C12.2724,9.0054 11.2864,6.6984 9.2554,5.8854 C7.2234,5.0704 4.9174,6.0574 4.1024,8.0884 C3.2884,10.1194 4.2754,12.4264 6.3064,13.2404" id="Fill-115" fill="#1D1C1A"></path>
                                    <path d="M9.6379,9.4938 C10.0249,9.6488 10.4639,9.4608 10.6189,9.0748 C10.7739,8.6868 10.5859,8.2478 10.1999,8.0928 C9.8129,7.9378 9.3729,8.1258 9.2179,8.5128 C9.0629,8.8998 9.2509,9.3388 9.6379,9.4938" id="Fill-118" fill="#FFFFFF"></path>
                                </g>
                            </g>
                        </g>
                    </g>
                </g>
                <g id="R-arm" transform="translate(40.000000, 66.000000)">
                    <mask id="mask-16" fill="white">
                        <use xlink:href="#path-15"></use>
                    </mask>
                    <use id="Mask" fill="#9DDBF8" xlink:href="#path-15"></use>
                    <polygon id="Fill-124" fill="#FAF077" mask="url(#mask-16)" points="6.675 2.0602 11.175 4.4982 8.112 7.8102 3.3 5.0602"></polygon>
                </g>
            </g>
        </g>
    </g>
</svg>