<?xml version="1.0" encoding="UTF-8"?>
<svg width="291px" height="200px" viewBox="0 0 291 200" version="1.1" xmlns="http://www.w3.org/2000/svg" xmlns:xlink="http://www.w3.org/1999/xlink">
    <!-- Generator: Sketch 45.2 (43514) - http://www.bohemiancoding.com/sketch -->
    <title>Tiger</title>
    <desc>Created with Sketch.</desc>
    <defs>
        <path d="M53.4534314,0.3212 C73.2818627,-0.717688889 109.541667,7.13875556 111.231618,39.2379778 C112.922794,71.3384222 78.8578431,92.6552 58.375,93.7283111 C37.8897059,94.8014222 2.79656863,77.9469778 1.19852941,47.6236444 C-0.398284314,17.3003111 34.2536765,1.32708889 53.4534314,0.3212" id="path-1"></path>
        <path d="M0.990686275,47.8948556 C-2.15392157,25.9791889 18.217402,4.24685556 42.7088235,0.750077778 C66.9710784,-2.7137 92.145098,11.2844111 95.2897059,33.2000778 C98.4343137,55.1145222 87.0691176,75.4877444 54.1095588,80.1920778 C18.6303922,85.2569667 4.13529412,69.8105222 0.990686275,47.8948556" id="path-3"></path>
        <path d="M1.65561246,6.59330091 C-2.31328542,11.3484108 13.2631358,20.1351971 27.1658367,17.6604787 C41.0685375,15.1857602 55.5236347,3.3772737 49.4723047,0.582274407 C45.2327959,-1.37587762 38.1706188,6.818936 26.2137242,8.68243575 C14.2568295,10.5459355 5.20693829,2.33848128 1.65561246,6.59330091 Z" id="path-5"></path>
    </defs>
    <g id="Layout" stroke="none" stroke-width="1" fill="none" fill-rule="evenodd">
        <g id="0.0.1_Title-Screen" transform="translate(-74.000000, -326.000000)">
            <g id="Tiger" transform="translate(74.000000, 322.000000)">
                <path d="M73.4056,176.2436 C75.9206,180.5756 62.6596,198.1296 43.7706,202.0466 C32.3316,204.4186 19.1876,203.6076 10.2876,199.1516 C4.9476,196.4776 2.6476,216.6076 0.1376,187.0926 C-0.7994,176.0736 2.3426,157.2976 32.2676,176.0936 C47.4686,185.6406 70.3596,170.9976 73.4056,176.2436" id="Leg-R" fill="#99DCFF"></path>
                <path d="M79.7376,140.8022 C79.5506,144.8772 62.7316,151.0522 48.0696,145.4072 C39.1916,141.9892 30.5476,135.6402 26.4176,128.6652 C23.9396,124.4802 13.4896,137.2512 24.7826,115.9332 C28.9986,107.9742 39.4266,96.5012 51.6336,122.5652 C57.8336,135.8032 79.9646,135.8662 79.7376,140.8022" id="Leg-L" fill="#65C6FD"></path>
                <path d="M71.9788,127.1996 C52.0208,119.0596 33.3018,141.1416 39.4288,164.8656 C41.9348,174.5706 65.7818,205.2076 109.0808,166.3456 C152.3788,127.4826 141.9658,98.4936 132.5768,92.3596 C123.1868,86.2256 90.1538,134.6106 71.9788,127.1996" id="Body" fill="#FFFFFF"></path>
                <path d="M164.307087,94.0034031 C166.097805,92.1488995 169.83307,89.853389 172.4475,85.848 C176.3345,79.895 177.0215,69.785 181.2365,73.62 C184.076088,76.2040684 185.361286,81.8844681 184.753294,87.3276692 C188.512647,86.0593594 191.069757,85.0877856 191.5793,84.5459 C202.7473,72.6699 202.5663,115.4309 191.6793,119.6869 C178.9923,124.6469 135.2433,113.7649 136.0423,107.8959 C136.575783,103.978393 150.516375,98.6368152 164.307087,94.0034031 Z" id="Arm-L" fill="#65C6FD"></path>
                <path d="M94.1693,99.9926 C94.8573,100.4066 106.3993,107.9926 99.1353,114.5426 C85.4053,126.9246 73.0553,153.6276 54.2103,148.2796 C39.3393,144.0586 44.8313,132.1596 47.2473,122.8466 C52.1853,103.8196 78.9613,90.8216 94.1693,99.9926" id="Backpack" fill="#CFDEE6"></path>
                <g id="Panel" transform="translate(108.000000, 101.000000)">
                    <path d="M32.1912,25.6615 C25.4222,35.0255 -1.1818,52.0275 0.6162,46.4625 C3.3942,37.8565 2.6692,35.9975 0.9672,27.0735 C-1.0618,16.4255 27.9602,-4.0905 34.5192,3.4415 C37.9542,7.3875 35.9162,20.5075 32.1912,25.6615" id="Fill-13" fill="#DFEAEF"></path>
                    <path d="M33.0267,23.0346 C28.0247,31.2396 6.4477,44.6426 7.5757,39.9116 C9.3197,32.5956 8.5967,31.1006 6.6057,23.8126 C4.2297,15.1166 26.9577,-3.7824 32.8857,2.0366 C35.9907,5.0836 35.7797,18.5186 33.0267,23.0346" id="Fill-15" fill="#B8C5CC"></path>
                    <path d="M13.4212,35.7807 C11.6082,35.6137 10.3472,33.2097 10.6042,30.4107 C10.8612,27.6107 12.5402,25.4767 14.3532,25.6427 C16.1662,25.8097 17.4272,28.2147 17.1702,31.0137 C16.9122,33.8127 15.2342,35.9477 13.4212,35.7807" id="Fill-17" fill="#F75E00"></path>
                    <path d="M14.0179,35.8354 C12.2049,35.6684 10.9439,33.2644 11.2009,30.4654 C11.4579,27.6654 13.1369,25.5314 14.9499,25.6984 C16.7629,25.8644 18.0239,28.2694 17.7669,31.0684 C17.5089,33.8674 15.8309,36.0024 14.0179,35.8354" id="Fill-19" fill="#F69799"></path>
                    <path d="M26.4198,26.5707 C25.4718,26.4837 24.8128,25.2257 24.9468,23.7617 C25.0818,22.2987 25.9588,21.1817 26.9068,21.2697 C27.8548,21.3567 28.5148,22.6137 28.3798,24.0777 C28.2458,25.5417 27.3678,26.6577 26.4198,26.5707" id="Fill-21" fill="#F75E00"></path>
                    <path d="M26.7318,26.599 C25.7838,26.512 25.1248,25.255 25.2588,23.791 C25.3938,22.328 26.2708,21.211 27.2188,21.298 C28.1678,21.385 28.8268,22.643 28.6918,24.107 C28.5578,25.571 27.6798,26.686 26.7318,26.599" id="Fill-23" fill="#F69799"></path>
                    <path d="M31.5516,22.1059 C30.6036,22.0189 29.9436,20.7609 30.0786,19.2969 C30.2126,17.8339 31.0906,16.7169 32.0386,16.8049 C32.9866,16.8919 33.6466,18.1489 33.5116,19.6129 C33.3776,21.0769 32.4996,22.1929 31.5516,22.1059" id="Fill-25" fill="#F75E00"></path>
                    <path d="M31.8636,22.1342 C30.9156,22.0472 30.2566,20.7902 30.3906,19.3262 C30.5256,17.8632 31.4026,16.7462 32.3506,16.8332 C33.2986,16.9202 33.9586,18.1782 33.8236,19.6422 C33.6896,21.1062 32.8116,22.2212 31.8636,22.1342" id="Fill-27" fill="#F69799"></path>
                </g>
                <path d="M14.6361,162.3235 C5.4441,155.3285 0.8871,126.7225 20.9991,132.0705 C49.3051,139.5995 93.2281,127.7085 100.1141,138.6235 C107.9311,151.0155 38.0401,180.1325 14.6361,162.3235 Z" id="Arm-R" fill="#99DCFF"></path>
                <g id="Flag" transform="translate(184.000000, 6.000000)">
                    <path d="M40.765,0.9418 C1,36 -2.41806575e-13,97 1.169,132.0328" id="Stroke-31" stroke="#CCCCCC" stroke-width="5" stroke-linecap="round" stroke-linejoin="round"></path>
                    <path d="M40,2 C56,5 60.0208,22.2664 82.2008,23.8854 C92.7498,24.6544 103,22 105.5888,21.2274 C103,24 92,33 76.0018,37.8884 C89,38 101.0858,36.4604 107.0108,34.9944 C73,58 33,63 12.0988,45.4754 C18,23 30,11 40,2 Z" id="Fill-33" fill="#FFFFFF"></path>
                    <g id="Zearn-logo" transform="translate(44.500000, 30.000000) rotate(13.000000) translate(-44.500000, -30.000000) translate(35.000000, 18.000000)">
                        <path d="M13.9346534,19.353756 L8.06460468,17.9267733 L12.6446471,14.8552059 L6.20675291,13.2903798 L2.64536464,15.7247464 C1.2140472,16.6922511 0.753702222,17.2063464 0.545636695,18.0646167 C0.237873102,19.3294817 0.780577352,20.5414634 2.54133188,20.9688647 L12.9290033,23.4933931 C14.486894,23.8722457 15.478673,23.3321423 15.8029084,21.999656 C16.1262769,20.6680366 15.4934109,19.7326087 13.9346534,19.353756" id="Fill-130" fill="#F6D11E"></path>
                        <path d="M18.5055929,9.07575243 C18.47525,8.74891617 18.3642817,8.42468072 18.1657526,8.13425592 L13.3490356,1.05222554 C12.7231051,0.134136403 11.4729781,-0.104272014 10.554022,0.519924568 L10.5176106,0.545065819 C9.59952142,1.17012934 9.361113,2.42112332 9.98617652,3.33921246 L11.8605001,6.09521376 L6.81404417,4.86849409 C5.120044,4.45669773 4.14647072,5.02107547 3.84997735,6.23999269 C3.55348397,7.45977684 4.15947482,8.40820887 5.85260805,8.82000522 L10.9112012,10.0493257 L6.67446688,13.0055901 L12.9242352,14.5244684 L16.879214,11.9626616 C17.8831302,11.2734446 18.259382,10.8104988 18.4405724,10.0657976 C18.5237987,9.72248945 18.5463391,9.38871766 18.5055929,9.07575243" id="Fill-132" fill="#59C9E4"></path>
                    </g>
                </g>
                <path d="M175.6458,96.226 C173.2298,109.883 184.8108,121.077 196.0328,123.288 C206.2638,125.305 201.3148,111.488 201.6858,99.224 C201.9978,88.879 206.6258,77.668 197.6038,76.866 C192.5828,76.418 178.3358,81.015 175.6458,96.226" id="Fingers" fill="#99DCFF" transform="translate(189.235561, 100.161040) rotate(12.000000) translate(-189.235561, -100.161040) "></path>
                <g id="Animal/Head/TigerSearch" transform="translate(105.586320, 76.506017) rotate(-24.000000) translate(-105.586320, -76.506017) translate(43.252987, 21.506017)">
                    <path d="M66.775674,3.1675404 C98.800999,6.51987368 125.931891,24.417557 123.4231,48.2469662 C120.9145,72.0751681 112.783509,111.391756 59.7014233,105.83439 C6.6193378,100.277023 -0.333163445,71.5438934 3.15044332,38.4353305 C5.94947781,11.8563526 42.1525946,0.589732331 66.775674,3.1675404 Z" id="Helmet" fill="#FFFFFF"></path>
                    <g id="Head" stroke-width="1" transform="translate(61.920007, 54.849294) rotate(9.000000) translate(-61.920007, -54.849294) translate(6.160203, 7.793738)">
                        <mask id="mask-2" fill="white">
                            <use xlink:href="#path-1"></use>
                        </mask>
                        <use id="Mask" fill="#C7E7F8" xlink:href="#path-1"></use>
                        <path d="M92.1497549,71.5849444 C92.4745098,81.3236111 87.2992647,86.4092778 71.7183824,99.9062778 C56.1387255,113.403278 23.2416667,106.897389 28.4083333,99.0446111 C33.5762255,91.1918333 37.2526961,78.5357222 52.8973039,73.9218333 C68.5406863,69.3055 91.9990196,67.0492778 92.1497549,71.5849444" id="Fill-56" fill="#E28031" mask="url(#mask-2)"></path>
                        <g id="R-ear" mask="url(#mask-2)">
                            <g transform="translate(68.627451, 3.666667)">
                                <path d="M16.3285539,29.0781333 C24.0405637,27.9769111 29.3971814,20.8501333 28.2942402,13.1599111 C27.188848,5.46968889 20.0430147,0.127355556 12.3322304,1.22735556 C4.62022059,2.32857778 -0.735171569,9.45535556 0.368995098,17.1455778 C1.47193627,24.8358 8.61776961,30.1781333 16.3285539,29.0781333" id="Fill-59" fill="#E28031"></path>
                                <path d="M15.4775735,23.1424111 C19.9015931,22.5105222 22.9751225,18.4221889 22.3427696,14.0087444 C21.7091912,9.59652222 17.608701,6.53118889 13.1846814,7.16307778 C8.76066176,7.79374444 5.68590686,11.8833 6.31948529,16.2955222 C6.95306373,20.7089667 11.0535539,23.7743 15.4775735,23.1424111" id="Fill-61" fill="#754D24"></path>
                            </g>
                        </g>
                        <g id="L-ear" mask="url(#mask-2)">
                            <g transform="translate(8.578431, 12.222222)">
                                <path d="M16.1789216,29.1150444 C23.8909314,28.0150444 29.2463235,20.8882667 28.1433824,13.1968222 C27.0392157,5.5066 19.8933824,0.164266667 12.182598,1.26426667 C4.47058824,2.36548889 -0.886029412,9.49226667 0.219362745,17.1824889 C1.32230392,24.8739333 8.46813725,30.2150444 16.1789216,29.1150444" id="Fill-64" fill="#E28031"></path>
                                <path d="M15.3279412,23.1800556 C19.7519608,22.5481667 22.8254902,18.4586111 22.1931373,14.0463889 C21.5583333,9.63416667 17.4578431,6.56883333 13.0338235,7.1995 C8.60980392,7.83138889 5.53627451,11.9209444 6.16862745,16.3331667 C6.80220588,20.7466111 10.9026961,23.8119444 15.3279412,23.1800556" id="Fill-67" fill="#754D24"></path>
                            </g>
                        </g>
                        <g mask="url(#mask-2)">
                            <g transform="translate(9.803922, 11.000000)">
                                <mask id="mask-4" fill="white">
                                    <use xlink:href="#path-3"></use>
                                </mask>
                                <use id="Mask" stroke="none" fill="#E28031" fill-rule="evenodd" xlink:href="#path-3"></use>
                                <path d="M1.42990196,55.7962778 L23.0107843,51.5515 L9.54387255,71.6448333 C9.31593137,71.6766111 4.14681373,66.5909444 1.42990196,55.7962778" id="Fill-74" stroke="none" fill="#333333" fill-rule="evenodd" mask="url(#mask-4)"></path>
                                <path d="M-0.438235294,37.8926778 L14.3436275,43.2374556 L0.414705882,51.9812333 C0.414705882,51.9812333 -1.67965686,42.2633444 -0.438235294,37.8926778" id="Fill-76" stroke="none" fill="#333333" fill-rule="evenodd" mask="url(#mask-4)"></path>
                                <path d="M97.7529412,42.3172444 L75.8448529,44.2801333 L93.8987745,59.4075778 C93.8656863,59.1790222 98.1818627,53.4382444 97.7529412,42.3172444" id="Fill-79" stroke="none" fill="#333333" fill-rule="evenodd" mask="url(#mask-4)"></path>
                                <path d="M94.5109069,24.6093222 L81.8258578,33.8749889 L97.6530637,38.3715444 C97.6530637,38.3715444 96.9324755,28.4568778 94.5109069,24.6093222" id="Fill-82" stroke="none" fill="#333333" fill-rule="evenodd" mask="url(#mask-4)"></path>
                                <g id="Nose" stroke="none" stroke-width="1" fill="none" fill-rule="evenodd" mask="url(#mask-4)">
                                    <g transform="translate(36.764706, 24.444444)">
                                        <polygon id="Fill-86" fill="#F1AA31" points="2.88995098 2.83311111 16.1803922 0.936222222 27.1117647 27.676 0.530882353 31.4697778"></polygon>
                                        <path d="M27.1113971,27.6756333 C27.9594363,33.5887444 22.7327206,39.3295222 15.3724265,40.3806333 C8.01213235,41.4305222 1.3810049,37.3837444 0.531740196,31.4694111" id="Fill-88" fill="#333333"></path>
                                    </g>
                                </g>
                                <g id="Mouth" stroke="none" stroke-width="1" fill="none" fill-rule="evenodd" mask="url(#mask-4)">
                                    <g transform="translate(26.960784, 57.444444)">
                                        <mask id="mask-6" fill="white">
                                            <use xlink:href="#path-5"></use>
                                        </mask>
                                        <use id="Mask" stroke="none" fill="#000000" fill-rule="evenodd" xlink:href="#path-5"></use>
                                        <path d="M4.83468137,5.61953333 C2.56629902,8.36953333 7.8689951,13.8169778 9.38860294,13.6238667 C10.9082108,13.4295333 14.003799,9.12975556 13.2243873,6.92486667 C12.44375,4.72242222 6.02218137,4.18097778 4.83468137,5.61953333" id="Fill-95" stroke="none" fill="#FFFFFF" fill-rule="evenodd" mask="url(#mask-6)"></path>
                                        <path d="M45.7689951,-0.223666667 C48.7199755,1.782 45.1636029,8.49322222 43.6501225,8.73277778 C42.1366422,8.97111111 37.9552696,5.71022222 38.0839461,3.377 C38.213848,1.04377778 44.2261029,-1.27233333 45.7689951,-0.223666667" id="Fill-97" stroke="none" fill="#FFFFFF" fill-rule="evenodd" mask="url(#mask-6)"></path>
                                    </g>
                                </g>
                                <g id="R-eye" stroke="none" stroke-width="1" fill="none" fill-rule="evenodd" mask="url(#mask-4)">
                                    <g transform="translate(18.382353, 24.444444)">
                                        <path d="M9.91617647,17.4997778 C14.4676471,16.8495556 17.6281863,12.6438889 16.977451,8.10455556 C16.3254902,3.56644444 12.1085784,0.414333333 7.55710784,1.06333333 C3.00563725,1.71233333 -0.154901961,5.91922222 0.495833333,10.4573333 C1.14779412,14.9966667 5.36470588,18.1487778 9.91617647,17.4997778" id="Fill-101" fill="#FFFFFF"></path>
                                        <g id="Pupil" stroke-width="1" fill="none" transform="translate(5.270291, 5.889818)">
                                            <path d="M5.82205882,10.3598 C8.47647059,9.98091111 10.3208333,7.52791111 9.93970588,4.87935556 C9.56102941,2.23202222 7.1002451,0.392577778 4.44583333,0.771466667 C1.79142157,1.15035556 -0.0529411765,3.60457778 0.326960784,6.25191111 C0.706862745,8.89924444 3.16642157,10.7386889 5.82205882,10.3598" id="Fill-104" fill="#1D1C1A"></path>
                                            <path d="M7.06311275,4.35856667 C7.56801471,4.28645556 7.91973039,3.81956667 7.84742647,3.31478889 C7.77512255,2.81001111 7.3057598,2.46045556 6.80085784,2.53256667 C6.29473039,2.60467778 5.9442402,3.07156667 6.01654412,3.57634444 C6.08762255,4.0799 6.55698529,4.43067778 7.06311275,4.35856667" id="Fill-107" fill="#FFFFFF"></path>
                                        </g>
                                    </g>
                                </g>
                                <g id="L-eye" stroke="none" stroke-width="1" fill="none" fill-rule="evenodd" mask="url(#mask-4)">
                                    <g transform="translate(58.823529, 18.333333)">
                                        <path d="M9.69485294,17.4037111 C14.245098,16.7547111 17.4068627,12.5478222 16.7561275,8.00971111 C16.1029412,3.47037778 11.8872549,0.318266667 7.33578431,0.967266667 C2.78431373,1.61748889 -0.37622549,5.82315556 0.274509804,10.3624889 C0.926470588,14.9006 5.14338235,18.0539333 9.69485294,17.4037111" id="Fill-110" fill="#FFFFFF"></path>
                                        <g id="Pupil" stroke-width="1" fill="none" transform="translate(5.270291, 5.889818)">
                                            <path d="M5.5995098,10.2637333 C8.25514706,9.88484444 10.0995098,7.43184444 9.71838235,4.78451111 C9.33970588,2.13595556 6.87892157,0.297733333 4.2245098,0.676622222 C1.57009804,1.05551111 -0.274264706,3.50851111 0.105637255,6.15584444 C0.485539216,8.8044 2.94509804,10.6426222 5.5995098,10.2637333" id="Fill-113" fill="#1D1C1A"></path>
                                            <path d="M6.84056373,4.26298889 C7.34669118,4.19087778 7.69718137,3.72398889 7.62610294,3.21921111 C7.55379902,2.71443333 7.08443627,2.36487778 6.57830882,2.43698889 C6.07340686,2.5091 5.72169118,2.97598889 5.7939951,3.48076667 C5.86629902,3.98432222 6.33566176,4.3351 6.84056373,4.26298889" id="Fill-116" fill="#FFFFFF"></path>
                                        </g>
                                    </g>
                                </g>
                            </g>
                        </g>
                    </g>
                </g>
            </g>
        </g>
    </g>
</svg>