<?xml version="1.0" encoding="UTF-8"?>
<svg width="139px" height="105px" viewBox="0 0 139 105" version="1.1" xmlns="http://www.w3.org/2000/svg" xmlns:xlink="http://www.w3.org/1999/xlink">
    <!-- Generator: Sketch 45.1 (43504) - http://www.bohemiancoding.com/sketch -->
    <title>Group</title>
    <desc>Created with Sketch.</desc>
    <defs>
        <path d="M18.8063509,3.347512 C18.7121145,4.31608343 17.2746873,7.03389486 17.2133691,7.15851771 C16.6615055,8.31563771 14.8877964,9.47792343 14.0532236,9.82144343 C11.5740327,10.8397349 8.71079636,10.2263063 6.59822364,8.730832 C5.04332364,7.26312343 3.99510545,5.18844343 4.36172364,2.79413486 C4.73544182,0.349460571 0.936296364,-0.271070857 0.560641818,2.18522629 C0.00813272727,5.79864343 1.43846,9.00848914 3.70271455,11.3098149 C6.83510545,13.9172091 11.3352145,15.0568949 15.3996418,13.4251749 C16.8299691,12.8524263 19.6912691,11.8954777 22.2175782,5.16326057 L18.8063509,3.347512 Z" id="path-1"></path>
        <path d="M18.8063509,3.347512 C18.7121145,4.31608343 17.2746873,7.03389486 17.2133691,7.15851771 C16.6615055,8.31563771 14.8877964,9.47792343 14.0532236,9.82144343 C11.5740327,10.8397349 8.71079636,10.2263063 6.59822364,8.730832 C5.04332364,7.26312343 3.99510545,5.18844343 4.36172364,2.79413486 C4.73544182,0.349460571 0.936296364,-0.271070857 0.560641818,2.18522629 C0.00813272727,5.79864343 1.43846,9.00848914 3.70271455,11.3098149 C6.83510545,13.9172091 11.3352145,15.0568949 15.3996418,13.4251749 C16.8299691,12.8524263 19.6912691,11.8954777 22.2175782,5.16326057 L18.8063509,3.347512 Z" id="path-3"></path>
        <path d="M18.8063509,3.347512 C18.7121145,4.31608343 17.2746873,7.03389486 17.2133691,7.15851771 C16.6615055,8.31563771 14.8877964,9.47792343 14.0532236,9.82144343 C11.5740327,10.8397349 8.71079636,10.2263063 6.59822364,8.730832 C5.04332364,7.26312343 3.99510545,5.18844343 4.36172364,2.79413486 C4.73544182,0.349460571 0.936296364,-0.271070857 0.560641818,2.18522629 C0.00813272727,5.79864343 1.43846,9.00848914 3.70271455,11.3098149 C6.83510545,13.9172091 11.3352145,15.0568949 15.3996418,13.4251749 C16.8299691,12.8524263 19.6912691,11.8954777 22.2175782,5.16326057 L18.8063509,3.347512 Z" id="path-5"></path>
        <path d="M1.00084182,2.772116 C2.32596,6.84269886 1.83670545,19.6530246 0.732332727,22.0395846 C-0.946494545,25.6672074 2.91913273,28.1732246 7.49024182,26.0849846 C11.9542055,24.0458189 12.22336,14.9108989 8.04404182,6.91760171 C2.95850545,-2.81072971 0.368941818,0.828516 1.00084182,2.772116" id="path-7"></path>
        <path d="M4.52941273,0.367411429 C9.16829455,0.929828571 19.5058945,-0.322211429 23.8143036,1.06090857 C25.0251764,1.44962857 26.5439309,2.16701714 26.5413491,2.89473714 C26.5374764,3.72577143 25.8313491,3.19628571 25.4505309,4.22555429 C25.2594764,4.74212571 25.9940036,5.06046286 25.9597945,5.56734857 C25.8946036,6.52558857 24.9180309,6.67152 24.7495673,7.51740571 C24.6927673,7.79893714 25.0897218,8.80302286 24.6211218,8.95218286 C23.8569036,9.19432571 21.5377855,9.27181143 20.22364,9.17301714 C17.5107945,8.96897143 1.99858545,5.54216571 0.694121818,3.16916571 C-0.611632727,0.796811429 3.08682182,0.192422857 4.52941273,0.367411429" id="path-9"></path>
        <path d="M3.2234,15.9814931 C-1.76209091,26.2431846 -3.22210909,42.1516474 17.3472364,40.270036 C33.8392455,38.7610017 32.3224273,30.8393789 32.3476,23.2444874 C32.3850364,11.8366531 28.6710909,2.01404743 17.4046818,0.255121714 C5.26626364,-1.64069543 6.43195455,9.37648171 3.2234,15.9814931" id="path-11"></path>
        <path d="M28.1534364,0.169693714 C38.5968909,-0.379163429 57.6946,3.771488 58.5846818,20.7298823 C59.4754091,37.6889223 41.5337091,48.9508251 30.7455818,49.5177623 C19.9561636,50.0846994 1.47292727,41.1802994 0.631254545,25.160128 C-0.209772727,9.13995657 18.0411,0.701116571 28.1534364,0.169693714" id="path-13"></path>
        <path d="M28.1534364,0.169693714 C38.5968909,-0.379163429 57.6946,3.771488 58.5846818,20.7298823 C59.4754091,37.6889223 41.5337091,48.9508251 30.7455818,49.5177623 C19.9561636,50.0846994 1.47292727,41.1802994 0.631254545,25.160128 C-0.209772727,9.13995657 18.0411,0.701116571 28.1534364,0.169693714" id="path-15"></path>
        <path d="M28.1534364,0.169693714 C38.5968909,-0.379163429 57.6946,3.771488 58.5846818,20.7298823 C59.4754091,37.6889223 41.5337091,48.9508251 30.7455818,49.5177623 C19.9561636,50.0846994 1.47292727,41.1802994 0.631254545,25.160128 C-0.209772727,9.13995657 18.0411,0.701116571 28.1534364,0.169693714" id="path-17"></path>
        <path d="M5.68542146,31.114841 C4.02918509,19.5365381 14.758576,8.05509243 27.6579851,6.20770386 C40.4366942,4.37774957 53.6956215,11.7731153 55.3518578,23.3514181 C57.0080942,34.9290753 51.0221487,45.6924867 33.6626487,48.177841 C14.9760942,50.853681 7.34165782,42.6931439 5.68542146,31.114841" id="path-19"></path>
        <path d="M0.521785455,25.303412 C-1.13445091,13.7251091 9.59494,2.24366343 22.4943491,0.396274857 C35.2730582,-1.43367943 48.5319855,5.96168629 50.1882218,17.5399891 C51.8444582,29.1176463 45.8585127,39.8810577 28.4990127,42.366412 C9.81245818,45.042252 2.17802182,36.8817149 0.521785455,25.303412" id="path-21"></path>
        <path d="M2.78244807,6.28205874 C-0.283461017,7.41205874 4.50122898,15.5359193 11.4960844,18.0663444 C18.4909399,20.5967696 28.2023362,19.0022329 26.1801753,16.1292016 C24.7634671,14.116381 19.3783753,16.0052244 13.4324481,13.707773 C7.4865208,11.4103216 5.52578955,5.27094727 2.78244807,6.28205874 Z" id="path-23"></path>
        <path d="M0.521785455,25.303412 C-1.13445091,13.7251091 9.59494,2.24366343 22.4943491,0.396274857 C35.2730582,-1.43367943 48.5319855,5.96168629 50.1882218,17.5399891 C51.8444582,29.1176463 45.8585127,39.8810577 28.4990127,42.366412 C9.81245818,45.042252 2.17802182,36.8817149 0.521785455,25.303412" id="path-25"></path>
        <path d="M0.521785455,25.303412 C-1.13445091,13.7251091 9.59494,2.24366343 22.4943491,0.396274857 C35.2730582,-1.43367943 48.5319855,5.96168629 50.1882218,17.5399891 C51.8444582,29.1176463 45.8585127,39.8810577 28.4990127,42.366412 C9.81245818,45.042252 2.17802182,36.8817149 0.521785455,25.303412" id="path-27"></path>
        <path d="M14.6625327,2.349948 C16.8674055,0.119005143 5.45447818,-1.92209771 0.996969091,8.171708 C-1.65843091,14.183308 5.02589636,20.9613709 5.83077818,21.6103137 C6.89384182,22.4665309 11.9729236,18.7549651 10.5593782,16.7842451 C9.14518727,14.8128794 5.40413273,9.74208514 7.92656909,7.12887943 C10.4490055,4.51631943 13.23866,3.79053657 14.6625327,2.349948" id="path-29"></path>
    </defs>
    <g id="Page-1" stroke="none" stroke-width="1" fill="none" fill-rule="evenodd">
        <g id="Group" transform="translate(-0.220263, 0.645714)">
            <path d="M43.2548136,73.7738903 C38.8999318,78.3888103 21.0098682,80.1677531 15.2020682,71.1910331 C9.51690455,62.4028617 19.1367591,47.205976 20.5315864,46.8366274 C21.9270591,46.4666331 37.1146045,45.7253531 40.7801409,48.8234903 C44.4463227,51.9216274 46.45175,70.3851817 43.2548136,73.7738903" id="Backpack" fill="#A1AEB4" fill-rule="nonzero"></path>
            <g id="Tail" transform="translate(3.872727, 68.445714)">
                <g id="Mask" fill-rule="nonzero" fill="#D2662A">
                    <path d="M18.8063509,3.347512 C18.7121145,4.31608343 17.2746873,7.03389486 17.2133691,7.15851771 C16.6615055,8.31563771 14.8877964,9.47792343 14.0532236,9.82144343 C11.5740327,10.8397349 8.71079636,10.2263063 6.59822364,8.730832 C5.04332364,7.26312343 3.99510545,5.18844343 4.36172364,2.79413486 C4.73544182,0.349460571 0.936296364,-0.271070857 0.560641818,2.18522629 C0.00813272727,5.79864343 1.43846,9.00848914 3.70271455,11.3098149 C6.83510545,13.9172091 11.3352145,15.0568949 15.3996418,13.4251749 C16.8299691,12.8524263 19.6912691,11.8954777 22.2175782,5.16326057 L18.8063509,3.347512 Z" id="path-1"></path>
                </g>
                <g id="Fill-6-Clipped">
                    <g>
                        <mask id="mask-2" fill="white">
                            <use xlink:href="#path-1"></use>
                        </mask>
                        <g id="path-1"></g>
                        <path d="M5.44021364,7.20003714 C5.75325909,7.72371143 5.76423182,7.90709429 6.25413182,8.34101429 L4.00730455,11.5495686 C3.29859545,11.0168543 2.68799545,10.2645971 2.28135909,9.76287714 L5.44021364,7.20003714 Z" id="Fill-6" fill="#000000" fill-rule="nonzero" mask="url(#mask-2)"></path>
                    </g>
                </g>
                <g id="Fill-9-Clipped">
                    <g>
                        <mask id="mask-4" fill="white">
                            <use xlink:href="#path-3"></use>
                        </mask>
                        <g id="path-3"></g>
                        <path d="M9.96536636,10.1259623 L8.79580273,14.0383451 C8.12323909,13.891768 7.01176636,13.5463109 6.35404818,13.2479909 L8.18649364,9.62424229 C8.18649364,9.62424229 9.29280273,9.97873943 9.96536636,10.1259623" id="Fill-9" fill="#000000" fill-rule="nonzero" mask="url(#mask-4)"></path>
                    </g>
                </g>
                <g id="Fill-12-Clipped">
                    <g>
                        <mask id="mask-6" fill="white">
                            <use xlink:href="#path-5"></use>
                        </mask>
                        <g id="path-5"></g>
                        <path d="M4.43801636,3.85607657 C4.29085273,4.52955657 4.42639818,4.69679657 4.58324364,5.40191657 L0.833798182,6.78051657 C0.661461818,6.22713943 0.401989091,5.05258514 0.397470909,4.363608 L4.43801636,3.85607657 Z" id="Fill-12" fill="#000000" fill-rule="nonzero" mask="url(#mask-6)"></path>
                    </g>
                </g>
            </g>
            <path d="M30.38729,76.8438743 C29.0273173,80.9028343 29.4029718,93.7170343 30.4853991,96.11328 C32.1319536,99.7557543 28.2450264,102.227549 23.69199,100.098629 C19.2460991,98.0194286 19.0576264,88.8832171 23.3079445,80.9267257 C28.4799718,71.24424 31.0372627,74.9067314 30.38729,76.8438743" id="R-leg" fill="#9DDBF8" fill-rule="nonzero"></path>
            <g id="L-Leg" transform="translate(36.145455, 74.257143)">
                <g id="Mask" fill-rule="nonzero" fill="#9DDBF8">
                    <path d="M1.00084182,2.772116 C2.32596,6.84269886 1.83670545,19.6530246 0.732332727,22.0395846 C-0.946494545,25.6672074 2.91913273,28.1732246 7.49024182,26.0849846 C11.9542055,24.0458189 12.22336,14.9108989 8.04404182,6.91760171 C2.95850545,-2.81072971 0.368941818,0.828516 1.00084182,2.772116" id="path-3"></path>
                </g>
                <g id="Fill-21-Clipped">
                    <g>
                        <mask id="mask-8" fill="white">
                            <use xlink:href="#path-7"></use>
                        </mask>
                        <g id="path-7"></g>
                        <path d="M-11.7027364,7.87003029 C-12.0783909,2.717876 -0.968181818,0.503076 0.224618182,-4.33913543 C1.41806364,-9.18134686 12.6044364,-7.98031829 12.0125545,-1.17255257 C11.4200273,5.63585886 13.4299727,18.6967217 0.505390909,17.3329731 C-12.4185455,15.9692246 -11.5304,10.2352817 -11.7027364,7.87003029" id="Fill-21" fill="#65C6FD" fill-rule="nonzero" mask="url(#mask-8)"></path>
                    </g>
                </g>
            </g>
            <g id="L-arm" transform="translate(46.472727, 56.177143)">
                <g id="Mask" fill-rule="nonzero" fill="#9DDBF8">
                    <path d="M4.52941273,0.367411429 C9.16829455,0.929828571 19.5058945,-0.322211429 23.8143036,1.06090857 C25.0251764,1.44962857 26.5439309,2.16701714 26.5413491,2.89473714 C26.5374764,3.72577143 25.8313491,3.19628571 25.4505309,4.22555429 C25.2594764,4.74212571 25.9940036,5.06046286 25.9597945,5.56734857 C25.8946036,6.52558857 24.9180309,6.67152 24.7495673,7.51740571 C24.6927673,7.79893714 25.0897218,8.80302286 24.6211218,8.95218286 C23.8569036,9.19432571 21.5377855,9.27181143 20.22364,9.17301714 C17.5107945,8.96897143 1.99858545,5.54216571 0.694121818,3.16916571 C-0.611632727,0.796811429 3.08682182,0.192422857 4.52941273,0.367411429" id="path-5"></path>
                </g>
                <g id="Fill-26-Clipped">
                    <g>
                        <mask id="mask-10" fill="white">
                            <use xlink:href="#path-9"></use>
                        </mask>
                        <g id="path-9"></g>
                        <path d="M19.1750345,-8.72276057 C22.7230982,-4.96922343 15.5165982,3.77503943 17.6536982,8.28083371 C19.7901527,12.786628 10.3658709,18.933828 6.52089818,13.2851194 C2.67592545,7.63705657 -7.13821091,-1.20922914 3.73576182,-8.32952057 C14.6097345,-15.449812 17.5471982,-10.4455263 19.1750345,-8.72276057" id="Fill-26" fill="#65C6FD" fill-rule="nonzero" mask="url(#mask-10)"></path>
                    </g>
                </g>
            </g>
            <g id="Body" transform="translate(18.072727, 44.554286)">
                <g id="Mask" fill-rule="nonzero" fill="#FFFFFF">
                    <path d="M3.2234,15.9814931 C-1.76209091,26.2431846 -3.22210909,42.1516474 17.3472364,40.270036 C33.8392455,38.7610017 32.3224273,30.8393789 32.3476,23.2444874 C32.3850364,11.8366531 28.6710909,2.01404743 17.4046818,0.255121714 C5.26626364,-1.64069543 6.43195455,9.37648171 3.2234,15.9814931" id="path-7"></path>
                </g>
                <g id="Fill-31-Clipped">
                    <g>
                        <mask id="mask-12" fill="white">
                            <use xlink:href="#path-11"></use>
                        </mask>
                        <g id="path-11"></g>
                        <path d="M23.5860709,3.09652286 C22.22158,10.2781571 20.9184073,12.7150829 21.7852527,19.9147971 C22.66178,27.1978086 23.4563345,33.8125057 20.7241255,38.0083571 C17.9925618,42.2042086 14.8956709,42.7453171 16.3330982,43.8443229 C24.60718,50.1723229 30.76998,43.8979171 33.8391164,38.7606143 C36.9076073,33.6239571 32.3545709,23.1207686 35.1855345,13.5047914 C38.0164982,3.88881429 35.2384618,-2.50698571 31.3405618,-1.14904857 C27.4433073,0.209534286 26.3673345,-3.31735714 24.6491345,-1.96523143" id="Fill-31" fill="#E4E4E4" fill-rule="nonzero" mask="url(#mask-12)"></path>
                    </g>
                </g>
            </g>
            <g id="Lapel" transform="translate(27.109091, 47.137143)">
                <path d="M0.545731818,3.33808457 C0.229459091,8.43664457 0.505068182,11.6497189 1.65526818,13.5022731 C2.45821364,14.7956389 16.19865,15.5769531 18.0472318,15.1217246 C19.8964591,14.6658503 19.2606864,9.88110743 19.1154591,6.92244457 C18.9695864,3.96378171 5.92688636,-1.06504114 2.99006818,0.576364571 C0.0538954545,2.21777029 0.605759091,2.37403314 0.545731818,3.33808457" id="Fill-34" fill="#DFEAEF" fill-rule="nonzero"></path>
                <path d="M2.22365545,4.24705657 C1.67437364,7.900508 2.42181,11.5500851 3.14471909,12.6884794 C3.82309182,13.7564909 15.2244009,14.4118909 16.7599373,14.0335023 C18.2948282,13.6551137 17.7674918,9.681388 17.6467918,7.22379943 C17.5254464,4.76685657 6.69278273,0.590376571 4.25425545,1.95347943 C1.81508273,3.31658229 2.34306455,3.45347371 2.22365545,4.24705657" id="Fill-36" fill="#B8C5CC" fill-rule="nonzero"></path>
                <path d="M7.17868091,10.9242589 C7.10768091,12.006476 6.22986273,12.8297617 5.21908091,12.7626074 C4.20765364,12.6954531 3.44730818,11.7636874 3.51830818,10.6814703 C3.58995364,9.59925314 4.46777182,8.77596743 5.47855364,8.84312171 C6.48933545,8.910276 7.25032636,9.84204171 7.17868091,10.9242589" id="Fill-38" fill="#F69799" fill-rule="nonzero"></path>
                <path d="M7.17868091,10.9242589 C7.10768091,12.006476 6.22986273,12.8297617 5.21908091,12.7626074 C4.20765364,12.6954531 3.44730818,11.7636874 3.51830818,10.6814703 C3.58995364,9.59925314 4.46777182,8.77596743 5.47855364,8.84312171 C6.48933545,8.910276 7.25032636,9.84204171 7.17868091,10.9242589 Z" id="Stroke-40" stroke="#F15B5C" stroke-width="0.25"></path>
                <path d="M16.3909309,12.3616834 C16.3644673,12.762672 16.0391582,13.0680949 15.6641491,13.042912 C15.2897855,13.0183749 15.0070764,12.6729177 15.03354,12.2712834 C15.0600036,11.8702949 15.3859582,11.5655177 15.7603218,11.5900549 C16.1353309,11.6152377 16.4173945,11.9600491 16.3909309,12.3616834" id="Fill-42" fill="#F69799" fill-rule="nonzero"></path>
                <path d="M16.3909309,12.3616834 C16.3644673,12.762672 16.0391582,13.0680949 15.6641491,13.042912 C15.2897855,13.0183749 15.0070764,12.6729177 15.03354,12.2712834 C15.0600036,11.8702949 15.3859582,11.5655177 15.7603218,11.5900549 C16.1353309,11.6152377 16.4173945,11.9600491 16.3909309,12.3616834 Z" id="Stroke-44" stroke="#F15B5C" stroke-width="0.25"></path>
                <path d="M14.2503455,12.4256737 C14.2238818,12.8266623 13.8985727,13.1320851 13.5235636,13.1069023 C13.1492,13.0823651 12.8664909,12.736908 12.8929545,12.3359194 C12.9200636,11.9342851 13.2453727,11.629508 13.6197364,11.6540451 C13.9947455,11.679228 14.2768091,12.0240394 14.2503455,12.4256737" id="Fill-46" fill="#F69799" fill-rule="nonzero"></path>
                <path d="M14.2503455,12.4256737 C14.2238818,12.8266623 13.8985727,13.1320851 13.5235636,13.1069023 C13.1492,13.0823651 12.8664909,12.736908 12.8929545,12.3359194 C12.9200636,11.9342851 13.2453727,11.629508 13.6197364,11.6540451 C13.9947455,11.679228 14.2768091,12.0240394 14.2503455,12.4256737 Z" id="Stroke-48" stroke="#F15B5C" stroke-width="0.25"></path>
            </g>
            <path d="M30.8518236,0.0747091429 C17.8297782,0.759166286 -0.0725490909,9.62224057 0.667141818,23.7220577 C1.59014182,41.2854863 7.58060545,55.7055777 35.65336,54.2301206 C63.7261145,52.7546634 64.7078509,31.5687777 64.0443236,18.9282749 C63.3807964,6.28712629 47.7885509,-0.815730857 30.8518236,0.0747091429" id="Helmet" fill="#F3FAFD" fill-rule="nonzero"></path>
            <g id="STRIPES" transform="translate(3.227273, 2.582857)">
                <g id="Mask" fill-rule="nonzero" fill="#C7E6F7">
                    <path d="M28.1534364,0.169693714 C38.5968909,-0.379163429 57.6946,3.771488 58.5846818,20.7298823 C59.4754091,37.6889223 41.5337091,48.9508251 30.7455818,49.5177623 C19.9561636,50.0846994 1.47292727,41.1802994 0.631254545,25.160128 C-0.209772727,9.13995657 18.0411,0.701116571 28.1534364,0.169693714" id="path-9"></path>
                </g>
                <g id="Fill-56-Clipped">
                    <g>
                        <mask id="mask-14" fill="white">
                            <use xlink:href="#path-13"></use>
                        </mask>
                        <g id="path-13"></g>
                        <path d="M48.5344382,37.8191629 C48.7054836,42.9642143 45.9797291,45.6510314 37.77342,52.7816543 C29.5677564,59.9122771 12.2411745,56.47514 14.9624109,52.3264257 C17.6842927,48.1777114 19.6206564,41.49134 27.8605291,39.0537686 C36.0997564,36.6149057 48.4550473,35.4229171 48.5344382,37.8191629" id="Fill-56" fill="#E28031" fill-rule="nonzero" mask="url(#mask-14)"></path>
                    </g>
                </g>
                <g id="R-ear-Clipped">
                    <g>
                        <mask id="mask-16" fill="white">
                            <use xlink:href="#path-15"></use>
                        </mask>
                        <g id="path-15"></g>
                        <g id="R-ear" mask="url(#mask-16)">
                            <g transform="translate(36.000000, 1.000000)" id="Group">
                                <g>
                                    <g transform="translate(0.145455, 0.937143)" fill-rule="nonzero">
                                        <path d="M8.60010091,15.3623177 C12.6619464,14.7805291 15.4832282,11.0153691 14.9023191,6.95253486 C14.3201191,2.88970057 10.5564736,0.0672834286 6.49527364,0.648426286 C2.43342818,1.23021486 -0.387208182,4.99537486 0.194346364,9.05820914 C0.775255455,13.1210434 4.53890091,15.9434606 8.60010091,15.3623177" id="Fill-59" fill="#E28031"></path>
                                        <path d="M8.15189727,12.2264063 C10.4819882,11.892572 12.1007882,9.73265771 11.7677336,7.40098343 C11.4340336,5.06995486 9.27434273,3.45050343 6.94425182,3.78433771 C4.61416091,4.11752629 2.99471545,6.27808629 3.32841545,8.60911486 C3.66211545,10.9407891 5.82180636,12.5602406 8.15189727,12.2264063" id="Fill-61" fill="#754D24"></path>
                                    </g>
                                </g>
                            </g>
                        </g>
                    </g>
                </g>
                <g id="L-ear-Clipped">
                    <g>
                        <mask id="mask-18" fill="white">
                            <use xlink:href="#path-17"></use>
                        </mask>
                        <g id="path-17"></g>
                        <g id="L-ear" mask="url(#mask-18)">
                            <g transform="translate(4.000000, 6.000000)" id="Group">
                                <g>
                                    <g transform="translate(0.518182, 0.457143)" fill-rule="nonzero">
                                        <path d="M8.52129091,15.3818183 C12.5831364,14.8006754 15.4037727,11.0355154 14.8228636,6.97203543 C14.2413091,2.90920114 10.4776636,0.086784 6.41646364,0.667926857 C2.35461818,1.24971543 -0.466663636,5.01487543 0.115536364,9.07770971 C0.696445455,13.1411897 4.46009091,15.9629611 8.52129091,15.3818183" id="Fill-64" fill="#E28031"></path>
                                        <path d="M8.07308727,12.2462943 C10.4031782,11.91246 12.0219782,9.7519 11.6889236,7.42087143 C11.3545782,5.08984286 9.19488727,3.47039143 6.86479636,3.80358 C4.53470545,4.13741429 2.91590545,6.29797429 3.24896,8.62900286 C3.58266,10.9606771 5.74235091,12.5801286 8.07308727,12.2462943" id="Fill-67" fill="#754D24"></path>
                                    </g>
                                </g>
                            </g>
                        </g>
                    </g>
                </g>
                <mask id="mask-20" fill="white">
                    <use xlink:href="#path-19"></use>
                </mask>
                <use id="path-21" fill="#E28031" xlink:href="#path-19"></use>
                <path d="M5.91675236,35.2892547 L17.2832069,33.046689 L10.1903069,43.6622319 C10.0702524,43.6790204 7.34772509,40.9922033 5.91675236,35.2892547" id="Fill-74" fill="#333333" fill-rule="nonzero" mask="url(#mask-20)"></path>
                <path d="M4.93282146,25.8305736 L12.7182942,28.6542821 L5.38205782,33.2737221 C5.38205782,33.2737221 4.278976,28.1396479 4.93282146,25.8305736" id="Fill-76" fill="#333333" fill-rule="nonzero" mask="url(#mask-20)"></path>
                <path d="M56.6492215,28.1681239 L45.1104305,29.205141 L54.6192669,37.1971467 C54.6018396,37.0763981 56.8751305,34.0434781 56.6492215,28.1681239" id="Fill-79" fill="#333333" fill-rule="nonzero" mask="url(#mask-20)"></path>
                <path d="M54.9416715,18.8128216 L48.2605715,23.7079816 L56.5966169,26.0835644 C56.5966169,26.0835644 56.2170896,20.8455301 54.9416715,18.8128216" id="Fill-82" fill="#333333" fill-rule="nonzero" mask="url(#mask-20)"></path>
            </g>
            <g id="Nose-Clipped" transform="translate(8.390909, 8.394286)">
                <g>
                    <mask id="mask-22" fill="white">
                        <use xlink:href="#path-21"></use>
                    </mask>
                    <g id="path-29"></g>
                    <g id="Nose" mask="url(#mask-22)">
                        <g transform="translate(19.000000, 12.000000)" id="Group">
                            <g>
                                <g transform="translate(0.363636, 0.914286)" fill-rule="nonzero">
                                    <polygon id="Fill-86" fill="#F1AA31" points="1.52211091 1.49676571 8.52206545 0.494617143 14.27952 14.6215543 0.279610909 16.6258514"></polygon>
                                    <path d="M14.2793264,14.6213606 C14.7259809,17.7453263 11.9731173,20.7782463 8.09651727,21.3335606 C4.21991727,21.8882291 0.727362727,19.7502691 0.280062727,16.6256577" id="Fill-88" fill="#333333"></path>
                                </g>
                            </g>
                        </g>
                    </g>
                </g>
            </g>
            <g id="Mouth-Clipped" transform="translate(8.390909, 8.394286)">
                <path d="M0.521785455,25.303412 C-1.13445091,13.7251091 9.59494,2.24366343 22.4943491,0.396274857 C35.2730582,-1.43367943 48.5319855,5.96168629 50.1882218,17.5399891 C51.8444582,29.1176463 45.8585127,39.8810577 28.4990127,42.366412 C9.81245818,45.042252 2.17802182,36.8817149 0.521785455,25.303412" id="path-17"></path>
                <g id="Fill-95-+-Fill-97-Mask" transform="translate(14.000000, 21.000000)">
                    <mask id="mask-24" fill="white">
                        <use xlink:href="#path-23"></use>
                    </mask>
                    <use id="Mask" fill="#000000" fill-rule="nonzero" transform="translate(14.144455, 12.750006) rotate(-30.000000) translate(-14.144455, -12.750006) " xlink:href="#path-23"></use>
                    <path d="M2.74638227,12.3174361 C1.55164591,13.7702933 4.34452773,16.6482419 5.14489136,16.546219 C5.945255,16.4435504 7.57567318,14.1719276 7.16516409,13.007059 C6.75400955,11.8434819 3.37182773,11.5574304 2.74638227,12.3174361" id="Fill-95" fill="#FFFFFF" fill-rule="nonzero" mask="url(#mask-24)"></path>
                    <path d="M24.3061132,9.23040529 C25.8603677,10.2900224 23.9872586,13.8356396 23.1901223,13.9621996 C22.3929859,14.0881139 20.190695,12.3653481 20.2584677,11.1326796 C20.3268859,9.900011 23.4934859,8.67638243 24.3061132,9.23040529" id="Fill-97" fill="#FFFFFF" fill-rule="nonzero" mask="url(#mask-24)"></path>
                </g>
            </g>
            <g id="R-eye-Clipped" transform="translate(8.390909, 8.394286)">
                <g>
                    <mask id="mask-26" fill="white">
                        <use xlink:href="#path-25"></use>
                    </mask>
                    <g id="path-33"></g>
                    <g id="R-eye" mask="url(#mask-26)">
                        <g transform="translate(9.000000, 12.000000)" id="Group">
                            <g>
                                <g transform="translate(0.681818, 0.914286)" fill-rule="nonzero">
                                    <path d="M5.22276,9.24533714 C7.61997818,8.90181714 9.28460545,6.67991429 8.94186909,4.28173143 C8.59848727,1.88419429 6.37747818,0.218897143 3.98026,0.561771429 C1.58304182,0.904645714 -0.0815854545,3.12719429 0.261150909,5.52473143 C0.604532727,7.92291429 2.82554182,9.58821143 5.22276,9.24533714" id="Fill-101" fill="#FFFFFF"></path>
                                    <path d="M5.00278909,7.41034629 C6.40084364,7.21017486 7.37225273,5.91422629 7.17151636,4.51496343 C6.97207091,3.11634629 5.67599818,2.14454629 4.27794364,2.34471771 C2.87988909,2.54488914 1.90848,3.84148343 2.10857091,5.24010057 C2.30866182,6.63871771 3.60408909,7.61051771 5.00278909,7.41034629" id="Fill-104" fill="#1D1C1A"></path>
                                    <path d="M5.65644091,4.23982457 C5.92236818,4.20172743 6.10761364,3.95506457 6.06953182,3.68838457 C6.03145,3.42170457 5.78424091,3.23703029 5.51831364,3.27512743 C5.25174091,3.31322457 5.06714091,3.55988743 5.10522273,3.82656743 C5.14265909,4.09260171 5.38986818,4.27792171 5.65644091,4.23982457" id="Fill-107" fill="#FFFFFF"></path>
                                </g>
                            </g>
                        </g>
                    </g>
                </g>
            </g>
            <g id="L-eye-Clipped" transform="translate(8.390909, 8.394286)">
                <g>
                    <mask id="mask-28" fill="white">
                        <use xlink:href="#path-27"></use>
                    </mask>
                    <g id="path-35"></g>
                    <g id="L-eye" mask="url(#mask-28)">
                        <g transform="translate(30.000000, 9.000000)" id="Group">
                            <g>
                                <g transform="translate(0.981818, 0.685714)" fill-rule="nonzero">
                                    <path d="M5.10619091,9.194584 C7.50276364,8.85170971 9.16803636,6.62916114 8.8253,4.231624 C8.48127273,1.83344114 6.26090909,0.168144 3.86369091,0.511018286 C1.46647273,0.854538286 -0.198154545,3.07644114 0.144581818,5.474624 C0.487963636,7.87216114 2.70897273,9.538104 5.10619091,9.194584" id="Fill-110" fill="#FFFFFF"></path>
                                    <path d="M4.88557455,7.35959314 C6.28427455,7.15942171 7.25568364,5.86347314 7.05494727,4.464856 C6.85550182,3.06559314 5.55942909,2.09443886 4.16137455,2.29461029 C2.76332,2.49478171 1.79191091,3.79073029 1.99200182,5.18934743 C2.19209273,6.58861029 3.48752,7.55976457 4.88557455,7.35959314" id="Fill-113" fill="#1D1C1A"></path>
                                    <path d="M5.53922636,4.18932971 C5.80579909,4.15123257 5.99039909,3.90456971 5.95296273,3.63788971 C5.91488091,3.37120971 5.66767182,3.18653543 5.40109909,3.22463257 C5.13517182,3.26272971 4.94992636,3.50939257 4.98800818,3.77607257 C5.02609,4.04210686 5.27329909,4.22742686 5.53922636,4.18932971" id="Fill-116" fill="#FFFFFF"></path>
                                </g>
                            </g>
                        </g>
                    </g>
                </g>
            </g>
            <g id="R-arm" transform="translate(10.327273, 54.885714)">
                <g id="Mask" fill-rule="nonzero" fill="#9DDBF8">
                    <path d="M14.6625327,2.349948 C16.8674055,0.119005143 5.45447818,-1.92209771 0.996969091,8.171708 C-1.65843091,14.183308 5.02589636,20.9613709 5.83077818,21.6103137 C6.89384182,22.4665309 11.9729236,18.7549651 10.5593782,16.7842451 C9.14518727,14.8128794 5.40413273,9.74208514 7.92656909,7.12887943 C10.4490055,4.51631943 13.23866,3.79053657 14.6625327,2.349948" id="path-15"></path>
                </g>
                <g id="Fill-122-Clipped">
                    <g>
                        <mask id="mask-30" fill="white">
                            <use xlink:href="#path-29"></use>
                        </mask>
                        <g id="path-37"></g>
                        <polygon id="Fill-122" fill="#FAF077" fill-rule="nonzero" mask="url(#mask-30)" points="8.73183818 -0.0865902857 10.8127836 2.47947829 8.16835636 3.69858686 5.97768364 0.868421143"></polygon>
                    </g>
                </g>
            </g>
            <g id="Flag" transform="translate(62.609091, 15.497143)">
                <path d="M0.298651818,86.0389749 C0.944106364,80.3424834 7.72137909,18.353912 14.4986518,0.273912" id="Stroke-125" stroke="#CCCCCC" stroke-width="4" stroke-linecap="round" stroke-linejoin="round"></path>
                <path d="M14.4986518,4.790296 C19.1259155,-2.495944 41.4257245,5.48766743 51.1075427,11.9189817 C60.7893609,18.350296 73.0233064,17.4501703 76.5733064,15.6014903 C76.5733064,15.6014903 65.3075427,25.0463531 60.4666336,26.0865989 C60.4666336,26.0865989 66.2757245,30.2973017 72.4075427,28.375656 C72.4075427,28.375656 66.9211791,36.4587074 56.9166336,37.1735131 C46.9120882,37.8876731 25.9348155,32.4823989 20.1257245,33.3263474 C14.3166336,34.170296 8.46300636,35.5237131 7.39865182,37.460856 C7.39865182,37.460856 10.8072973,10.6017246 14.4986518,4.790296" id="Fill-127" fill="#F3FAFD" fill-rule="nonzero"></path>
                <path d="M38.3212173,25.3891629 L33.9508445,24.3263171 L37.3607809,22.0385514 L32.5676355,20.8730371 L29.9161082,22.6862029 C28.8504627,23.40682 28.5077264,23.7897286 28.3528173,24.4289857 C28.1236809,25.3710829 28.5277355,26.2737914 29.8386536,26.5921286 L37.57249,28.4724486 C38.7323718,28.7546257 39.4707718,28.3523457 39.7121718,27.3598829 C39.9529264,26.3680657 39.4817445,25.67134 38.3212173,25.3891629" id="Fill-130" fill="#F6D11E" fill-rule="nonzero"></path>
                <path d="M41.7243764,17.7338971 C41.7017855,17.4904629 41.6191673,17.2489657 41.4713582,17.0326514 L37.8852127,11.7578114 C37.4191945,11.074 36.4884491,10.8964286 35.8042673,11.3613429 L35.7771582,11.3800686 C35.0936218,11.8456286 34.9161218,12.7773943 35.3814945,13.4612057 L36.7769673,15.5139314 L33.0197764,14.6002457 C31.7585582,14.2935314 31.0337127,14.7138914 30.8129673,15.6217657 C30.5922218,16.5302857 31.0433945,17.2366971 32.3039673,17.5434114 L36.0701945,18.4590343 L32.9158582,20.66092 L37.56894,21.7922114 L40.5135036,19.8841257 C41.26094,19.3707829 41.5410673,19.0259714 41.6759673,18.4713029 C41.7379309,18.2156 41.7547127,17.967 41.7243764,17.7338971" id="Fill-132" fill="#59C9E4" fill-rule="nonzero"></path>
            </g>
        </g>
    </g>
</svg>