<?xml version="1.0" encoding="UTF-8"?>
<svg width="211px" height="178px" viewBox="0 0 211 178" version="1.1" xmlns="http://www.w3.org/2000/svg" xmlns:xlink="http://www.w3.org/1999/xlink">
    <!-- Generator: Sketch 45.2 (43514) - http://www.bohemiancoding.com/sketch -->
    <title>Animal/ActSuccess/Tiger</title>
    <desc>Created with Sketch.</desc>
    <defs>
        <path d="M24.2454,24.276 C22.9584,25.061 18.2564,25.813 18.0454,25.854 C16.0994,26.248 13.0094,25.134 11.8064,24.421 C8.2374,22.301 6.3284,18.185 6.2094,14.177 C6.5774,10.886 8.1684,7.656 11.4724,5.88 C14.8454,4.066 12.0734,-1.214 8.6844,0.608 C3.6974,3.289 1.0594,8.048 0.3214,12.995 C0.0134,19.301 2.7954,25.933 8.6014,29.444 C10.6434,30.682 14.4934,33.332 25.1774,30.189 L24.2454,24.276 Z" id="path-1"></path>
        <path d="M24.6707238,2.6779 C21.9547238,8.7259 8.06372379,22.9099 4.31372379,24.4979 C-1.38827621,26.9109 0.439723789,33.8099 7.85872379,36.1729 C15.1027238,38.4809 24.9167238,28.2839 28.4397238,14.7639 C32.7257238,-1.6881 25.9667238,-0.2101 24.6707238,2.6779" id="path-3"></path>
        <path d="M36.8954,1.643 C38.7714,2.245 40.0204,4.95 39.4304,6.544 C39.1344,7.344 38.6054,10.332 38.3444,11.642 C38.2564,12.078 36.036,15.153 34,15 C29.797,14.684 3.0964,8.583 1.0754,4.908 C-0.9476,1.234 4.7824,0.298 7.0174,0.569 C14.2044,1.44 30.2204,-0.499 36.8954,1.643 Z" id="path-5"></path>
        <path d="M13.4655,55.019 C41.6084691,71.2673508 42.9045,49.8319238 47.6655,39.0769238 C54.8165,22.9219238 62.6327003,10.1244813 53.4035,4.796 C35.2350483,-5.6935605 19.8636016,4.638 11.2016016,12.008 C2.53960162,19.378 -9.08273776,42.0007689 13.4655,55.019 Z" id="path-7"></path>
        <path d="M43.618,0.2628 C59.798,-0.5872 89.386,5.8408 90.765,32.1038 C92.145,58.3678 64.348,75.8088 47.634,76.6868 C30.918,77.5648 2.282,63.7748 0.978,38.9648 C-0.325,14.1548 27.951,1.0858 43.618,0.2628" id="path-9"></path>
        <path d="M0.8084,39.1867 C-1.7576,21.2557 14.8654,3.4747 34.8504,0.6137 C54.6484,-2.2203 75.1904,9.2327 77.7564,27.1637 C80.3224,45.0937 71.0484,61.7627 44.1534,65.6117 C15.2024,69.7557 3.3744,57.1177 0.8084,39.1867" id="path-11"></path>
        <path d="M2.35097976,19.3945189 C-0.887640904,23.2850634 11.8227188,30.4742522 23.1673227,28.4494825 C34.5119266,26.4247129 46.3072859,16.7632239 41.3694007,14.4764063 C37.9099615,12.8742819 32.1472249,19.5791295 22.3903989,21.1038111 C12.6335729,22.6284927 5.24886165,15.9133029 2.35097976,19.3945189 Z" id="path-13"></path>
        <path d="M16.6086,2.0295 C18.4416,-2.4695 0.4996,1.3725 0.4996,18.4625 C0.4996,28.8985 11.8646,36.5085 15.3836,34.8235 C18.9026,33.1385 22.4826,27.0965 19.2906,25.1145 C16.0986,23.1325 7.7376,18.0955 9.7996,12.8625 C11.8616,7.6285 15.4246,4.9355 16.6086,2.0295" id="path-15"></path>
    </defs>
    <g id="Symbols" stroke="none" stroke-width="1" fill="none" fill-rule="evenodd">
        <g id="Animal/ActSuccess/Tiger">
            <ellipse id="Shadow" fill-opacity="0.25" fill="#000000" cx="53" cy="161.5" rx="40" ry="12.5"></ellipse>
            <g id="Tiger" transform="translate(5.000000, 5.000000)">
                <path d="M62.0145,112.2516 C55.2675,119.3986 27.5505,122.1536 18.5525,108.2516 C9.7445,94.6416 24.6485,71.1066 26.8095,70.5346 C28.9715,69.9616 52.5015,68.8136 58.1805,73.6116 C63.8605,78.4096 66.9675,107.0036 62.0145,112.2516" id="Backpack" fill="#CFDEE6"></path>
                <g id="Tail" transform="translate(20.306054, 117.891662) rotate(298.000000) translate(-20.306054, -117.891662) translate(7.306054, 101.891662)">
                    <mask id="mask-2" fill="white">
                        <use xlink:href="#path-1"></use>
                    </mask>
                    <use id="Mask" fill="#D2662A" xlink:href="#path-1"></use>
                    <path d="M7.0247,11.3185 C6.6697,12.1935 6.4517,12.3785 6.3717,13.3885 L0.3087,13.5955 C0.3077,12.2215 0.6697,10.7665 0.9117,9.7965 L7.0247,11.3185 Z" id="Fill-3" fill="#000000" mask="url(#mask-2)"></path>
                    <path d="M7.6213,19.6452 L1.6903,21.8412 C1.2453,20.8712 0.6373,19.1742 0.3933,18.0832 L6.5843,16.9762 C6.5843,16.9762 7.1753,18.6752 7.6213,19.6452" id="Fill-6" fill="#000000" mask="url(#mask-2)"></path>
                    <path d="M10.2288,6.9635 C9.2588,7.4095 9.1788,7.7325 8.4518,8.5825 L3.2518,5.2265 C3.7768,4.4975 4.9888,3.0825 5.8368,2.4345 L10.2288,6.9635 Z" id="Fill-8" fill="#000000" mask="url(#mask-2)"></path>
                </g>
                <path d="M42.954491,128.885218 C38.339491,133.645218 20.446491,142.246218 16.379491,142.460218 C10.196491,142.786218 9.56349101,149.894218 15.732491,154.644218 C21.756491,159.283218 34.458491,153.041218 42.377491,141.532218 C52.015491,127.526218 45.157491,126.612218 42.954491,128.885218" id="R-leg" fill="#99DCFF" transform="translate(29.396536, 142.059654) rotate(-30.000000) translate(-29.396536, -142.059654) "></path>
                <g id="Leg-L" transform="translate(66.053418, 139.520725) rotate(-30.000000) translate(-66.053418, -139.520725) translate(51.053418, 121.020725)">
                    <mask id="mask-4" fill="white">
                        <use xlink:href="#path-3"></use>
                    </mask>
                    <use id="Mask" fill="#99DCFF" xlink:href="#path-3"></use>
                    <path d="M8.387,-4.93165081 C13.317,-11.2316508 28.37,-2.20665081 34.778,-6.51865081 C41.186,-10.8306508 52.772,2.19134919 45.009,9.38334919 C37.245,16.5763492 25.96,33.6493492 12.549,18.6313492 C-0.863,3.61334919 6.124,-2.03965081 8.387,-4.93165081" id="Fill-20" fill="#65C6FD" mask="url(#mask-4)"></path>
                </g>
                <g id="L-arm" transform="translate(67.000000, 85.000000)">
                    <mask id="mask-6" fill="white">
                        <use xlink:href="#path-5"></use>
                    </mask>
                    <use id="Mask" fill="#99DCFF" xlink:href="#path-5"></use>
                    <path d="M21.7078,-13.5087 C27.2048,-7.6957 16.0398,5.8463 19.3508,12.8243 C22.6608,19.8023 8.0598,29.3223 2.1028,20.5743 C-3.8542,11.8273 -19.0592,-1.8727 -2.2122,-12.8997 C14.6348,-23.9267 19.1858,-16.1767 21.7078,-13.5087" id="Fill-26" fill="#65C6FD" mask="url(#mask-6)"></path>
                </g>
                <path d="M99.4537982,80.6010081 C97.9602361,79.1472882 97.5259925,81.998023 96.1486555,84.2546058 C94.9871142,86.1582776 93.010409,86.0613916 92.7411072,86.8752473 C92.4154646,87.860062 97.7384275,89.0757282 99.0888344,87.3020762 C100.88855,84.9382176 101.091933,82.1957408 99.4537982,80.6010081 Z" id="Fill-7" fill="#99DCFF" transform="translate(96.648045, 84.205593) rotate(11.000000) translate(-96.648045, -84.205593) "></path>
                <g id="Body" transform="translate(50.697070, 106.118903) rotate(-30.000000) translate(-50.697070, -106.118903) translate(21.697070, 75.618903)">
                    <mask id="mask-8" fill="white">
                        <use xlink:href="#path-7"></use>
                    </mask>
                    <use id="Mask" fill="#FFFFFF" xlink:href="#path-7"></use>
                    <path d="M51.5066,10.3297 C45.1026,19.6647 41.7376,22.3097 38.4876,33.0597 C35.1996,43.9347 32.2106,53.8097 25.7236,58.0597 C19.2376,62.3097 14.5076,61.1497 15.8626,63.6027 C23.6646,77.7277 36.3126,72.6647 43.8626,67.2897 C51.4116,61.9147 51.4876,44.1847 61.4876,32.3097 C71.4876,20.4347 71.5246,9.6357 65.1496,9.1357 C58.7746,8.6357 59.4426,2.9647 56.1636,3.8127" id="Fill-30" fill="#E4E4E4" mask="url(#mask-8)"></path>
                </g>
                <g id="Panel" transform="translate(53.071797, 86.232051) rotate(-30.000000) translate(-53.071797, -86.232051) translate(38.071797, 70.732051)">
                    <path d="M5.4875,2.99085625 C3.8885,9.43685625 1.9875,16.0948563 0.7375,18.0948563 C-0.5125,20.0948562 20.0805,30.0908563 22.9875,30.5948562 C25.8945,31.1008562 27.9685,23.9198563 29.6035,19.6328562 C31.2375,15.3448563 15.8615,0.09485625 10.6745,0.59485625 C5.4875,1.09485625 5.8475,1.53785625 5.4875,2.99085625" id="Fill-33" fill="#DFEAEF"></path>
                    <path d="M8.134,5.12805625 C6.806,10.4820562 5.227,16.0120562 4.189,17.6730562 C3.151,19.3340562 20.254,27.6350562 22.668,28.0550562 C25.083,28.4740562 26.806,22.5100562 28.163,18.9490562 C29.52,15.3890562 16.75,2.72305625 12.442,3.13905625 C8.134,3.55405625 8.433,3.92205625 8.134,5.12805625" id="Fill-35" fill="#B8C5CC"></path>
                    <g id="Buttons" transform="translate(7.000000, 13.035156)">
                        <path d="M16.9006,12.2536 C16.6126,12.8066 16.0056,13.0596 15.5436,12.8186 C15.0806,12.5786 14.9386,11.9356 15.2266,11.3826 C15.5136,10.8306 16.1216,10.5776 16.5836,10.8176 C17.0466,11.0586 17.1876,11.7016 16.9006,12.2536" id="Fill-43" fill="#F15B5C"></path>
                        <path d="M17.1853,12.4191 C16.8983,12.9711 16.2903,13.2241 15.8283,12.9831 C15.3653,12.7431 15.2233,12.1001 15.5113,11.5481 C15.7983,10.9961 16.4063,10.7431 16.8683,10.9831 C17.3313,11.2241 17.4733,11.8661 17.1853,12.4191" id="Fill-47" fill="#F69799"></path>
                        <path d="M14.1292,11.1711 C13.8412,11.7231 13.2332,11.9761 12.7722,11.7361 C12.3092,11.4951 12.1672,10.8531 12.4542,10.3001 C12.7422,9.7481 13.3502,9.4951 13.8122,9.7351 C14.2742,9.9761 14.4162,10.6181 14.1292,11.1711" id="Fill-49" fill="#F15B5C"></path>
                        <path d="M14.4138,11.3361 C14.1258,11.8881 13.5188,12.1411 13.0568,11.9011 C12.5938,11.6601 12.4518,11.0181 12.7398,10.4651 C13.0268,9.9131 13.6348,9.6601 14.0968,9.9001 C14.5598,10.1411 14.7008,10.7831 14.4138,11.3361" id="Fill-53" fill="#F69799"></path>
                        <path d="M5.5715,4.8927 C4.7965,6.3827 3.1565,7.0647 1.9095,6.4167 C0.6615,5.7677 0.2795,4.0337 1.0535,2.5427 C1.8295,1.0527 3.4685,0.3707 4.7165,1.0197 C5.9635,1.6677 6.3465,3.4027 5.5715,4.8927" id="Fill-37" fill="#F15B5C"></path>
                        <path d="M6.3396,5.338 C5.5646,6.828 3.9246,7.51 2.6776,6.862 C1.4296,6.213 1.0476,4.479 1.8226,2.988 C2.5976,1.498 4.2366,0.816 5.4846,1.465 C6.7326,2.113 7.1146,3.848 6.3396,5.338" id="Fill-41" fill="#F69799"></path>
                    </g>
                </g>
                <g id="Animal/Head/Tiger" transform="translate(8.000000, 0.000000)">
                    <path d="M54.48895,2.59162396 C80.6216152,5.3344421 102.760423,19.9780012 100.713249,39.4747905 C98.6662319,58.9705921 92.0313431,91.1387097 48.7163614,86.5917734 C5.40137964,82.0448371 -0.271861371,58.5359128 2.57076175,31.4470886 C4.85477389,9.70065211 34.3965172,0.482508271 54.48895,2.59162396 Z" id="Helmet" fill="#FFFFFF"></path>
                    <g id="Head" stroke-width="1" transform="translate(50.526726, 44.876695) rotate(9.000000) translate(-50.526726, -44.876695) translate(5.026726, 6.376695)">
                        <mask id="mask-10" fill="white">
                            <use xlink:href="#path-9"></use>
                        </mask>
                        <use id="Mask" fill="#C7E7F8" xlink:href="#path-9"></use>
                        <path d="M75.1942,58.5695 C75.4592,66.5375 71.2362,70.6985 58.5222,81.7415 C45.8092,92.7845 18.9652,87.4615 23.1812,81.0365 C27.3982,74.6115 30.3982,64.2565 43.1642,60.4815 C55.9292,56.7045 75.0712,54.8585 75.1942,58.5695" id="Fill-56" fill="#E28031" mask="url(#mask-10)"></path>
                        <g id="R-ear" mask="url(#mask-10)">
                            <g transform="translate(56.000000, 3.000000)">
                                <path d="M13.3241,23.7912 C19.6171,22.8902 23.9881,17.0592 23.0881,10.7672 C22.1861,4.4752 16.3551,0.1042 10.0631,1.0042 C3.7701,1.9052 -0.5999,7.7362 0.3011,14.0282 C1.2011,20.3202 7.0321,24.6912 13.3241,23.7912" id="Fill-59" fill="#E28031"></path>
                                <path d="M12.6297,18.9347 C16.2397,18.4177 18.7477,15.0727 18.2317,11.4617 C17.7147,7.8517 14.3687,5.3437 10.7587,5.8607 C7.1487,6.3767 4.6397,9.7227 5.1567,13.3327 C5.6737,16.9437 9.0197,19.4517 12.6297,18.9347" id="Fill-61" fill="#754D24"></path>
                            </g>
                        </g>
                        <g id="L-ear" mask="url(#mask-10)">
                            <g transform="translate(7.000000, 10.000000)">
                                <path d="M13.202,23.8214 C19.495,22.9214 23.865,17.0904 22.965,10.7974 C22.064,4.5054 16.233,0.1344 9.941,1.0344 C3.648,1.9354 -0.723,7.7664 0.179,14.0584 C1.079,20.3514 6.91,24.7214 13.202,23.8214" id="Fill-64" fill="#E28031"></path>
                                <path d="M12.5076,18.9655 C16.1176,18.4485 18.6256,15.1025 18.1096,11.4925 C17.5916,7.8825 14.2456,5.3745 10.6356,5.8905 C7.0256,6.4075 4.5176,9.7535 5.0336,13.3635 C5.5506,16.9745 8.8966,19.4825 12.5076,18.9655" id="Fill-67" fill="#754D24"></path>
                            </g>
                        </g>
                        <g mask="url(#mask-10)">
                            <g transform="translate(8.000000, 9.000000)">
                                <mask id="mask-12" fill="white">
                                    <use xlink:href="#path-11"></use>
                                </mask>
                                <use id="Mask" stroke="none" fill="#E28031" fill-rule="evenodd" xlink:href="#path-11"></use>
                                <path d="M1.1668,45.6515 L18.7768,42.1785 L7.7878,58.6185 C7.6018,58.6445 3.3838,54.4835 1.1668,45.6515" id="Fill-74" stroke="none" fill="#333333" fill-rule="evenodd" mask="url(#mask-12)"></path>
                                <path d="M-0.3576,31.0031 L11.7044,35.3761 L0.3384,42.5301 C0.3384,42.5301 -1.3706,34.5791 -0.3576,31.0031" id="Fill-76" stroke="none" fill="#333333" fill-rule="evenodd" mask="url(#mask-12)"></path>
                                <path d="M79.7664,34.6232 L61.8894,36.2292 L76.6214,48.6062 C76.5944,48.4192 80.1164,43.7222 79.7664,34.6232" id="Fill-79" stroke="none" fill="#333333" fill-rule="evenodd" mask="url(#mask-12)"></path>
                                <path d="M77.1209,20.1349 L66.7699,27.7159 L79.6849,31.3949 C79.6849,31.3949 79.0969,23.2829 77.1209,20.1349" id="Fill-82" stroke="none" fill="#333333" fill-rule="evenodd" mask="url(#mask-12)"></path>
                                <g id="Nose" stroke="none" stroke-width="1" fill="none" fill-rule="evenodd" mask="url(#mask-12)">
                                    <g transform="translate(30.000000, 20.000000)">
                                        <polygon id="Fill-86" fill="#F1AA31" points="2.3582 2.318 13.2032 0.766 22.1232 22.644 0.4332 25.748"></polygon>
                                        <path d="M22.1229,22.6437 C22.8149,27.4817 18.5499,32.1787 12.5439,33.0387 C6.5379,33.8977 1.1269,30.5867 0.4339,25.7477" id="Fill-88" fill="#333333"></path>
                                    </g>
                                </g>
                                <g id="Mouth" stroke="none" stroke-width="1" fill="none" fill-rule="evenodd" mask="url(#mask-12)">
                                    <g transform="translate(21.000000, 33.000000)">
                                        <mask id="mask-14" fill="white">
                                            <use xlink:href="#path-13"></use>
                                        </mask>
                                        <use id="Mask" stroke="none" fill="#000000" fill-rule="evenodd" xlink:href="#path-13"></use>
                                        <path d="M4.9451,18.5978 C3.0941,20.8478 7.4211,25.3048 8.6611,25.1468 C9.9011,24.9878 12.4271,21.4698 11.7911,19.6658 C11.1541,17.8638 5.9141,17.4208 4.9451,18.5978" id="Fill-95" stroke="none" fill="#FFFFFF" fill-rule="evenodd" mask="url(#mask-14)"></path>
                                        <path d="M38.3475,13.817 C40.7555,15.458 37.8535,20.949 36.6185,21.145 C35.3835,21.34 31.9715,18.672 32.0765,16.763 C32.1825,14.854 37.0885,12.959 38.3475,13.817" id="Fill-97" stroke="none" fill="#FFFFFF" fill-rule="evenodd" mask="url(#mask-14)"></path>
                                    </g>
                                </g>
                                <g id="R-eye" stroke="none" stroke-width="1" fill="none" fill-rule="evenodd" mask="url(#mask-12)">
                                    <g transform="translate(15.000000, 20.000000)">
                                        <path d="M8.0916,14.318 C11.8056,13.786 14.3846,10.345 13.8536,6.631 C13.3216,2.918 9.8806,0.339 6.1666,0.87 C2.4526,1.401 -0.1264,4.843 0.4046,8.556 C0.9366,12.27 4.3776,14.849 8.0916,14.318" id="Fill-101" fill="#FFFFFF"></path>
                                        <path d="M7.7508,11.4762 C9.9168,11.1662 11.4218,9.1592 11.1108,6.9922 C10.8018,4.8262 8.7938,3.3212 6.6278,3.6312 C4.4618,3.9412 2.9568,5.9492 3.2668,8.1152 C3.5768,10.2812 5.5838,11.7862 7.7508,11.4762" id="Fill-104" fill="#1D1C1A"></path>
                                        <path d="M8.7635,6.5661 C9.1755,6.5071 9.4625,6.1251 9.4035,5.7121 C9.3445,5.2991 8.9615,5.0131 8.5495,5.0721 C8.1365,5.1311 7.8505,5.5131 7.9095,5.9261 C7.9675,6.3381 8.3505,6.6251 8.7635,6.5661" id="Fill-107" fill="#FFFFFF"></path>
                                    </g>
                                </g>
                                <g id="L-eye" stroke="none" stroke-width="1" fill="none" fill-rule="evenodd" mask="url(#mask-12)">
                                    <g transform="translate(48.000000, 15.000000)">
                                        <path d="M7.911,14.2394 C11.624,13.7084 14.204,10.2664 13.673,6.5534 C13.14,2.8394 9.7,0.2604 5.986,0.7914 C2.272,1.3234 -0.307,4.7644 0.224,8.4784 C0.756,12.1914 4.197,14.7714 7.911,14.2394" id="Fill-110" fill="#FFFFFF"></path>
                                        <path d="M7.5692,11.3976 C9.7362,11.0876 11.2412,9.0806 10.9302,6.9146 C10.6212,4.7476 8.6132,3.2436 6.4472,3.5536 C4.2812,3.8636 2.7762,5.8706 3.0862,8.0366 C3.3962,10.2036 5.4032,11.7076 7.5692,11.3976" id="Fill-113" fill="#1D1C1A"></path>
                                        <path d="M8.5819,6.4879 C8.9949,6.4289 9.2809,6.0469 9.2229,5.6339 C9.1639,5.2209 8.7809,4.9349 8.3679,4.9939 C7.9559,5.0529 7.6689,5.4349 7.7279,5.8479 C7.7869,6.2599 8.1699,6.5469 8.5819,6.4879" id="Fill-116" fill="#FFFFFF"></path>
                                    </g>
                                </g>
                            </g>
                        </g>
                    </g>
                </g>
                <g id="Arm-R" transform="translate(24.317905, 99.873713) rotate(20.000000) translate(-24.317905, -99.873713) translate(13.817905, 81.873713)">
                    <mask id="mask-16" fill="white">
                        <use xlink:href="#path-15"></use>
                    </mask>
                    <use id="Mask" fill="#99DCFF" xlink:href="#path-15"></use>
                    <polygon id="Badge" fill="#FAF077" mask="url(#mask-16)" points="6.675 2.0602 11.175 4.4982 8.112 7.8102 3.3 5.0602"></polygon>
                </g>
                <g id="Flag" transform="translate(141.730304, 97.073705) rotate(9.000000) translate(-141.730304, -97.073705) translate(88.230304, 29.073705)">
                    <path d="M0.4627,135.2462 C1.4627,126.4242 11.9627,30.4242 22.4627,2.4242" id="Stroke-125" stroke="#CCCCCC" stroke-width="4" stroke-linecap="round" stroke-linejoin="round"></path>
                    <g id="Group" transform="translate(12.242286, 0.250562)">
                        <path d="M9.93746966,4.69759944 C16.1525603,-5.0849481 46.1044599,5.63389431 59.1085554,14.2686137 C72.1126508,22.9033331 88.5446258,21.6948191 93.3127942,19.2127708 C93.3127942,19.2127708 78.1812287,31.8934977 71.679181,33.2901376 C71.679181,33.2901376 79.4816382,38.9434513 87.7175654,36.3634388 C87.7175654,36.3634388 80.3485779,47.2157899 66.9110126,48.1754922 C53.4734473,49.1343275 25.2979072,41.8771753 17.4954499,43.0102654 C9.69299267,44.1433556 1.83071656,45.9604612 0.401132998,48.5612803 C0.401132998,48.5612803 4.97944154,12.5000567 9.93746966,4.69759944" id="Fill-127" fill="#F3FAFD"></path>
                        <path d="M41.9346534,32.353756 L36.0646047,30.9267733 L40.6446471,27.8552059 L34.2067529,26.2903798 L30.6453646,28.7247464 C29.2140472,29.6922511 28.7537022,30.2063464 28.5456367,31.0646167 C28.2378731,32.3294817 28.7805774,33.5414634 30.5413319,33.9688647 L40.9290033,36.4933931 C42.486894,36.8722457 43.478673,36.3321423 43.8029084,34.999656 C44.1262769,33.6680366 43.4934109,32.7326087 41.9346534,32.353756" id="Fill-130" fill="#F6D11E"></path>
                        <path d="M46.5055929,22.0757524 C46.47525,21.7489162 46.3642817,21.4246807 46.1657526,21.1342559 L41.3490356,14.0522255 C40.7231051,13.1341364 39.4729781,12.895728 38.554022,13.5199246 L38.5176106,13.5450658 C37.5995214,14.1701293 37.361113,15.4211233 37.9861765,16.3392125 L39.8605001,19.0952138 L34.8140442,17.8684941 C33.120044,17.4566977 32.1464707,18.0210755 31.8499773,19.2399927 C31.553484,20.4597768 32.1594748,21.4082089 33.852608,21.8200052 L38.9112012,23.0493257 L34.6744669,26.0055901 L40.9242352,27.5244684 L44.879214,24.9626616 C45.8831302,24.2734446 46.259382,23.8104988 46.4405724,23.0657976 C46.5237987,22.7224894 46.5463391,22.3887177 46.5055929,22.0757524" id="Fill-132" fill="#59C9E4"></path>
                    </g>
                </g>
            </g>
            <path d="M107.629326,104.414429 C111.254624,105.179006 112.636664,100.350645 112.768126,95.7017734 C112.878681,91.7803307 113.72777,88.7030526 110.530874,88.3990413 C108.75171,88.2292195 103.512555,88.9901609 102.559368,94.7561411 C101.703272,99.9330519 103.652872,103.576313 107.629326,104.414429 Z" id="Fill-35" fill="#99DCFF" transform="translate(107.656204, 96.436496) rotate(11.000000) translate(-107.656204, -96.436496) "></path>
        </g>
    </g>
</svg>