<?xml version="1.0" encoding="UTF-8"?>
<svg width="220px" height="175px" viewBox="0 0 220 175" version="1.1" xmlns="http://www.w3.org/2000/svg" xmlns:xlink="http://www.w3.org/1999/xlink">
    <!-- Generator: Sketch 44.1 (41455) - http://www.bohemiancoding.com/sketch -->
    <title>Animal_Success/Tiger</title>
    <desc>Created with Sketch.</desc>
    <defs>
        <path d="M29.0017083,5.24982278 C28.8563843,6.76881013 26.6396944,11.0310886 26.5451343,11.2265316 C25.6940926,13.0412152 22.9588148,14.864 21.6718009,15.4027342 C17.8485833,16.9996962 13.4331204,16.0376709 10.1752731,13.6923544 C7.77742593,11.3905823 6.16094444,8.13691139 6.72631481,4.38197468 C7.30263426,0.548050633 1.44388426,-0.425113924 0.864578704,3.42703797 C0.0125416667,9.09387342 2.21828241,14.1277975 5.71004167,17.7369114 C10.5405741,21.8260253 17.4802963,23.6133671 23.7481435,21.0543797 C25.9538843,20.1561519 30.3663611,18.6553924 34.2622407,8.09741772 L29.0017083,5.24982278 Z" id="path-1"></path>
        <path d="M1.5434213,4.34744304 C3.58691667,10.7312405 2.83242593,30.8213671 1.12934722,34.5641519 C-1.45961111,40.2532658 4.50166204,44.1833924 11.550875,40.9084557 C18.4348565,37.710481 18.8499259,23.3844051 12.4049028,10.8487089 C4.56237963,-4.408 0.568953704,1.29934177 1.5434213,4.34744304" id="path-3"></path>
        <path d="M6.98491204,0.576202532 C14.1386389,1.45822785 30.0804907,-0.505316456 36.724588,1.66379747 C38.5919028,2.27341772 40.9340093,3.39848101 40.9300278,4.53974684 C40.9240556,5.84303797 39.8351204,5.01265823 39.2478519,6.62683544 C38.9532222,7.43696203 40.0859537,7.93620253 40.0331991,8.73113924 C39.9326667,10.2339241 38.4266713,10.4627848 38.1668796,11.7893671 C38.079287,12.2308861 38.6914398,13.8055696 37.9688009,14.0394937 C36.7902824,14.4192405 33.2139167,14.5407595 31.1873426,14.3858228 C27.0038009,14.0658228 3.08206481,8.69164557 1.0704213,4.97012658 C-0.943212963,1.24962025 4.76025926,0.301772152 6.98491204,0.576202532" id="path-5"></path>
        <path d="M4.97087963,25.0633924 C-2.71736111,41.156557 -4.96888889,66.1054177 26.7515741,63.1545316 C52.1842824,60.7879494 49.845162,48.3646582 49.8839815,36.4537722 C49.941713,18.5631392 44.2143519,3.15858228 26.840162,0.400101266 C8.12122685,-2.57306329 9.91886574,14.7049114 4.97087963,25.0633924" id="path-7"></path>
        <path d="M43.4160648,0.266126582 C59.5211574,-0.594632911 88.9721759,5.91473418 90.3447917,32.5101772 C91.7184028,59.1066329 64.0500926,76.7684051 47.4134722,77.657519 C30.7748611,78.5466329 2.27143519,64.5820759 0.973472222,39.4580253 C-0.32349537,14.3339747 27.8215972,1.0995443 43.4160648,0.266126582" id="path-9"></path>
        <path d="M0.804657407,39.6827342 C-1.74946296,21.5247595 14.7965787,3.51868354 34.6890556,0.621468354 C54.3953981,-2.24840506 74.8422963,9.34956962 77.3964167,27.5075443 C79.950537,45.6645063 70.7194722,62.5445063 43.9489861,66.4422278 C15.1320185,70.6386835 3.35877778,57.8407089 0.804657407,39.6827342" id="path-11"></path>
        <path d="M24.3553194,9.93437975 C20.4216157,10.5591899 11.1188843,7.86956962 6.91344444,5.66906329 C4.33045833,4.31716456 1.34136111,7.68020253 0.900412037,9.38551899 C-0.401532407,14.425519 6.16492593,20.8953924 26.082287,17.7389367 C45.9996481,14.582481 47.7813611,6.54906329 45.2929352,2.41032911 C41.3542546,-4.1395443 34.0681435,8.39210127 24.3553194,9.93437975" id="path-13"></path>
        <path d="M22.6114306,3.68536709 C26.0116157,0.186632911 8.41147685,-3.01437975 1.53744907,12.8154937 C-2.55750463,22.2433418 7.75055093,32.8732152 8.99177778,33.8909367 C10.6311528,35.2337215 18.4637222,29.412962 16.2838611,26.3223291 C14.1030046,23.2306835 8.33383796,15.2782785 12.2237454,11.1800506 C16.1136528,7.08283544 20.4156435,5.94460759 22.6114306,3.68536709" id="path-15"></path>
    </defs>
    <g id="Symbols" stroke="none" stroke-width="1" fill="none" fill-rule="evenodd">
        <g id="Animal_Success/Tiger">
            <ellipse id="Shadow" fill-opacity="0.25" fill="#000000" cx="73.1171875" cy="160" rx="52.5" ry="15"></ellipse>
            <g id="Tiger" transform="translate(3.000000, 1.000000)">
                <path d="M66.7042477,115.697823 C59.9884838,122.935291 32.3998032,125.725165 23.4434606,111.64719 C14.6762384,97.8649114 29.5112384,74.032 31.6622338,73.4527595 C33.8142245,72.8725063 57.2352894,71.7099747 62.8879977,76.5687089 C68.5417014,81.427443 71.6343171,110.383392 66.7042477,115.697823" id="Backpack" fill="#A1AEB4"></path>
                <g id="Tail" transform="translate(5.972222, 107.341772)">
                    <mask id="mask-2" fill="white">
                        <use xlink:href="#path-1"></use>
                    </mask>
                    <use id="Mask" fill="#D2662A" xlink:href="#path-1"></use>
                    <path d="M8.38947917,11.2916456 C8.8722338,12.1129114 8.88915509,12.4005063 9.6446412,13.0810127 L6.17975694,18.1129114 C5.08684028,17.2774684 4.14521991,16.0977215 3.51813657,15.3108861 L8.38947917,11.2916456 Z" id="Fill-6" fill="#000000" mask="url(#mask-2)"></path>
                    <path d="M15.3678218,15.8803038 L13.5642106,22.016 C12.5270347,21.7861266 10.8130069,21.2443544 9.79872454,20.7765063 L12.624581,15.0934684 C12.624581,15.0934684 14.3306458,15.6494177 15.3678218,15.8803038" id="Fill-9" fill="#000000" mask="url(#mask-2)"></path>
                    <path d="M6.84396759,6.04739241 C6.61702315,7.10359494 6.82605093,7.36587342 7.06792593,8.4716962 L1.28581944,10.6337215 C1.02005556,9.76587342 0.619916667,7.9238481 0.612949074,6.84334177 L6.84396759,6.04739241 Z" id="Fill-12" fill="#000000" mask="url(#mask-2)"></path>
                </g>
                <path d="M46.8609421,120.512405 C44.7636968,126.877975 45.3430023,146.974177 47.0122384,150.732152 C49.5514282,156.444557 43.5573079,160.321013 36.5359653,156.982278 C29.6798542,153.721519 29.389206,139.393418 35.9437199,126.915443 C43.9196227,111.730633 47.8632801,117.47443 46.8609421,120.512405" id="R-leg" fill="#9DDBF9"></path>
                <g id="L-Leg" transform="translate(55.740741, 116.455696)">
                    <mask id="mask-4" fill="white">
                        <use xlink:href="#path-3"></use>
                    </mask>
                    <use id="Mask" fill="#9DDBF9" xlink:href="#path-3"></use>
                    <path d="M-18.0470602,12.3423797 C-18.6263657,4.26237975 -1.49305556,0.788962025 0.346388889,-6.80496203 C2.1868287,-14.3988861 19.4375926,-12.5153418 18.524838,-1.83888608 C17.611088,8.83858228 20.7106713,29.3216203 0.779375,27.1828861 C-19.1509259,25.0441519 -17.7812963,16.0517468 -18.0470602,12.3423797" id="Fill-21" fill="#3D9CD6" mask="url(#mask-4)"></path>
                </g>
                <g id="L-arm" transform="translate(71.666667, 88.101266)">
                    <mask id="mask-6" fill="white">
                        <use xlink:href="#path-5"></use>
                    </mask>
                    <use id="Mask" fill="#9DDBF9" xlink:href="#path-5"></use>
                    <path d="M29.5702639,-13.6796962 C35.0418148,-7.79311392 23.9285046,5.9203038 27.2241759,12.9866329 C30.5188519,20.052962 15.9854491,29.6934684 10.0560278,20.8347342 C4.12660648,11.9770127 -11.008,-1.89640506 5.76100463,-13.0629873 C22.5300093,-24.2295696 27.0599398,-16.3814684 29.5702639,-13.6796962" id="Fill-26" fill="#3D9CD6" mask="url(#mask-6)"></path>
                </g>
                <g id="Body" transform="translate(27.870370, 69.873418)">
                    <mask id="mask-8" fill="white">
                        <use xlink:href="#path-7"></use>
                    </mask>
                    <use id="Mask" fill="#FFFFFF" xlink:href="#path-7"></use>
                    <path d="M36.372625,4.85620253 C34.268412,16.1189873 32.2587593,19.9407595 33.5955417,31.2318987 C34.9472546,42.6536709 36.1725556,53.0273418 31.9591528,59.6075949 C27.7467454,66.1878481 22.9709583,67.0364557 25.1876481,68.76 C37.9473009,78.6840506 47.4510972,68.8440506 52.1840833,60.7873418 C56.9160741,52.7316456 49.8947315,36.2597468 54.2604259,21.1792405 C58.6261204,6.09873418 54.3420463,-3.93164557 48.3310046,-1.80202532 C42.3209583,0.328607595 40.6616759,-5.20253165 38.012,-3.08202532" id="Fill-31" fill="#E4E4E4" mask="url(#mask-8)"></path>
                </g>
                <g id="Lapel" transform="translate(41.805556, 73.924051)">
                    <path d="M0.841585648,5.23503797 C0.353854167,13.2309873 0.778877315,18.2699747 2.55262731,21.1752911 C3.79086806,23.2036456 24.9803125,24.428962 27.8310532,23.715038 C30.6827894,23.0001013 29.7023495,15.4963038 29.4783912,10.8563038 C29.2534375,6.2163038 9.13998843,-1.67027848 4.61105324,0.903898734 C0.0831134259,3.47807595 0.934155093,3.72313924 0.841585648,5.23503797" id="Fill-34" fill="#DFEBEF"></path>
                    <path d="M3.42915046,6.66055696 C2.58209028,12.3901772 3.73472917,18.1137215 4.84954398,19.899038 C5.89567824,21.5739747 23.4779005,22.6018228 25.8458866,22.0084051 C28.2128773,21.4149873 27.3996597,15.1830886 27.2135255,11.3289114 C27.0263958,7.47574684 10.3210949,0.925873418 6.56058565,3.06359494 C2.79908102,5.20131646 3.61329398,5.416 3.42915046,6.66055696" id="Fill-36" fill="#B8C5CC"></path>
                    <path d="M11.0704097,17.1322532 C10.960919,18.8294684 9.60721528,20.1206076 8.04846528,20.0152911 C6.48871991,19.9099747 5.31617361,18.4487089 5.42566435,16.7514937 C5.53615046,15.0542785 6.88985417,13.7631392 8.44860417,13.8684557 C10.0073542,13.9737722 11.1808958,15.435038 11.0704097,17.1322532" id="Fill-38" fill="#F79799"></path>
                    <path d="M11.0704097,17.1322532 C10.960919,18.8294684 9.60721528,20.1206076 8.04846528,20.0152911 C6.48871991,19.9099747 5.31617361,18.4487089 5.42566435,16.7514937 C5.53615046,15.0542785 6.88985417,13.7631392 8.44860417,13.8684557 C10.0073542,13.9737722 11.1808958,15.435038 11.0704097,17.1322532 Z" id="Stroke-40" stroke="#F15B5C" stroke-width="0.25"></path>
                    <path d="M25.2768333,19.3865316 C25.2360231,20.0153924 24.7343565,20.4943797 24.1560463,20.4548861 C23.5787315,20.4164051 23.1427593,19.8746329 23.1835694,19.2447595 C23.2243796,18.6158987 23.7270417,18.1379241 24.3043565,18.1764051 C24.8826667,18.2158987 25.3176435,18.7566582 25.2768333,19.3865316" id="Fill-42" fill="#F79799"></path>
                    <path d="M25.2768333,19.3865316 C25.2360231,20.0153924 24.7343565,20.4943797 24.1560463,20.4548861 C23.5787315,20.4164051 23.1427593,19.8746329 23.1835694,19.2447595 C23.2243796,18.6158987 23.7270417,18.1379241 24.3043565,18.1764051 C24.8826667,18.2158987 25.3176435,18.7566582 25.2768333,19.3865316 Z" id="Stroke-44" stroke="#F15B5C" stroke-width="0.25"></path>
                    <path d="M21.975787,19.4868861 C21.9349769,20.1157468 21.4333102,20.5947342 20.855,20.5552405 C20.2776852,20.5167595 19.841713,19.9749873 19.8825231,19.3461266 C19.9243287,18.7162532 20.4259954,18.2382785 21.0033102,18.2767595 C21.5816204,18.3162532 22.0165972,18.8570127 21.975787,19.4868861" id="Fill-46" fill="#F79799"></path>
                    <path d="M21.975787,19.4868861 C21.9349769,20.1157468 21.4333102,20.5947342 20.855,20.5552405 C20.2776852,20.5167595 19.841713,19.9749873 19.8825231,19.3461266 C19.9243287,18.7162532 20.4259954,18.2382785 21.0033102,18.2767595 C21.5816204,18.3162532 22.0165972,18.8570127 21.975787,19.4868861 Z" id="Stroke-48" stroke="#F15B5C" stroke-width="0.25"></path>
                </g>
                <path d="M47.5773102,0.117164557 C27.495713,1.19058228 -0.11187963,15.0903291 1.02881481,37.2027342 C2.45219444,64.747038 11.6902269,87.3617215 54.9818704,85.0477975 C98.2735139,82.7338734 99.7874722,49.508557 98.7642315,29.6847595 C97.7409907,9.85994937 73.6958287,-1.27929114 47.5773102,0.117164557" id="Helmet" fill="#F3FAFD"></path>
                <g id="Head" transform="translate(4.976852, 4.050633)">
                    <mask id="mask-10" fill="white">
                        <use xlink:href="#path-9"></use>
                    </mask>
                    <use id="Mask" fill="#C7E6F8" xlink:href="#path-9"></use>
                    <path d="M74.8460787,59.3108861 C75.1098519,67.3797468 70.9064028,71.5934177 58.2512639,82.7762025 C45.5971204,93.9589873 18.8773981,88.5686076 23.0738796,82.0622785 C27.2713565,75.5559494 30.2574676,65.0698734 42.9643657,61.2470886 C55.6702685,57.4222785 74.7236481,55.5529114 74.8460787,59.3108861" id="Fill-56" fill="#E28031" mask="url(#mask-10)"></path>
                    <g id="R-ear" mask="url(#mask-10)">
                        <g transform="translate(55.740741, 3.037975)">
                            <path d="M13.2624144,24.0923544 C19.5262801,23.1799494 23.877044,17.2751392 22.9812106,10.9034937 C22.0833866,4.5318481 16.2793819,0.105518987 10.0165116,1.01691139 C3.75264583,1.92931646 -0.597122685,7.83412658 0.299706019,14.2057722 C1.19553935,20.5774177 6.99954398,25.0037468 13.2624144,24.0923544" id="Fill-59" fill="#E28031"></path>
                            <path d="M12.5712292,19.1743797 C16.1645162,18.6508354 18.6609051,15.2634937 18.147294,11.6067848 C17.6326875,7.95108861 14.3021782,5.41134177 10.7088912,5.93488608 C7.11560417,6.45741772 4.61821991,9.84577215 5.13282639,13.5014684 C5.64743287,17.1581772 8.97794213,19.6979241 12.5712292,19.1743797" id="Fill-61" fill="#754D24"></path>
                        </g>
                    </g>
                    <g id="L-ear" mask="url(#mask-10)">
                        <g transform="translate(6.967593, 10.126582)">
                            <path d="M13.1408796,24.1229367 C19.4047454,23.2115443 23.7545139,17.3067342 22.8586806,10.9340759 C21.9618519,4.56243038 16.1578472,0.136101266 9.89497685,1.04749367 C3.63111111,1.95989873 -0.719652778,7.86470886 0.178171296,14.2363544 C1.07400463,20.6090127 6.87800926,25.0343291 13.1408796,24.1229367" id="Fill-64" fill="#E28031"></path>
                            <path d="M12.4496944,19.2055696 C16.0429815,18.6820253 18.5393704,15.2936709 18.0257593,11.6379747 C17.5101574,7.98227848 14.1796481,5.44253165 10.5863611,5.96506329 C6.99307407,6.48860759 4.49668519,9.87696203 5.0102963,13.5326582 C5.52490278,17.1893671 8.85541204,19.7291139 12.4496944,19.2055696" id="Fill-67" fill="#754D24"></path>
                        </g>
                    </g>
                    <g mask="url(#mask-10)">
                        <g transform="translate(7.962963, 9.113924)">
                            <mask id="mask-12" fill="white">
                                <use xlink:href="#path-11"></use>
                            </mask>
                            <use id="Mask" stroke="none" fill="#E28031" fill-rule="evenodd" xlink:href="#path-11"></use>
                            <path d="M1.16139815,46.2293671 L18.6898704,42.7124051 L7.75174537,59.3605063 C7.56660648,59.3868354 3.36813426,55.1731646 1.16139815,46.2293671" id="Fill-74" stroke="none" fill="#333333" fill-rule="evenodd" mask="url(#mask-12)"></path>
                            <path d="M-0.355944444,31.3955443 L11.650213,35.8238987 L0.336833333,43.0684557 C0.336833333,43.0684557 -1.36425463,35.0168101 -0.355944444,31.3955443" id="Fill-76" stroke="none" fill="#333333" fill-rule="evenodd" mask="url(#mask-12)"></path>
                            <path d="M79.3971111,35.0614684 L61.602875,36.6877975 L76.2666713,49.2214684 C76.2397963,49.0321013 79.7454907,44.2756456 79.3971111,35.0614684" id="Fill-79" stroke="none" fill="#333333" fill-rule="evenodd" mask="url(#mask-12)"></path>
                            <path d="M76.7638588,20.3897722 L66.4607801,28.0667342 L79.3159884,31.7923038 C79.3159884,31.7923038 78.7307106,23.5776203 76.7638588,20.3897722" id="Fill-82" stroke="none" fill="#333333" fill-rule="evenodd" mask="url(#mask-12)"></path>
                            <g id="Nose" stroke="none" stroke-width="1" fill="none" fill-rule="evenodd" mask="url(#mask-12)">
                                <g transform="translate(29.861111, 20.253165)">
                                    <polygon id="Fill-86" fill="#F1AA31" points="2.34728241 2.34734177 13.1420741 0.775696203 22.0207778 22.9306329 0.431194444 26.0739241"></polygon>
                                    <path d="M22.0204792,22.9303291 C22.7092755,27.8295696 18.4640208,32.5860253 12.4858264,33.4569114 C6.50763194,34.3267848 1.12168287,30.9738734 0.431891204,26.0736203" id="Fill-88" fill="#333333"></path>
                                </g>
                            </g>
                            <g id="Mouth" stroke="none" stroke-width="1" fill="none" fill-rule="evenodd" mask="url(#mask-12)">
                                <g transform="translate(18.912037, 46.582278)">
                                    <mask id="mask-14" fill="white">
                                        <use xlink:href="#path-13"></use>
                                    </mask>
                                    <use id="Mask" stroke="none" fill="#000000" fill-rule="evenodd" xlink:href="#path-13"></use>
                                    <path d="M6.91294676,5.66865823 C5.0705162,7.94713924 9.3774838,12.460557 10.6117431,12.300557 C11.8460023,12.1395443 14.3603079,8.57701266 13.7272523,6.75017722 C13.0932014,4.92536709 7.87746065,4.47675949 6.91294676,5.66865823" id="Fill-95" stroke="none" fill="#FFFFFF" fill-rule="evenodd" mask="url(#mask-14)"></path>
                                    <path d="M40.160706,0.827341772 C42.5575579,2.48911392 39.6689931,8.04962025 38.4397106,8.24810127 C37.2104282,8.44556962 33.8142245,5.74379747 33.9187384,3.81063291 C34.0242477,1.87746835 38.9075347,-0.0415189873 40.160706,0.827341772" id="Fill-97" stroke="none" fill="#FFFFFF" fill-rule="evenodd" mask="url(#mask-14)"></path>
                                </g>
                            </g>
                            <g id="R-eye" stroke="none" stroke-width="1" fill="none" fill-rule="evenodd" mask="url(#mask-12)">
                                <g transform="translate(14.930556, 20.253165)">
                                    <path d="M8.05413889,14.4992405 C11.7509444,13.9605063 14.3180046,10.4759494 13.789463,6.71493671 C13.2599259,2.95493671 9.83485648,0.343291139 6.13805093,0.881012658 C2.44124537,1.41873418 -0.125814815,4.9043038 0.402726852,8.6643038 C0.932263889,12.4253165 4.35733333,15.036962 8.05413889,14.4992405" id="Fill-101" fill="#FFFFFF"></path>
                                    <path d="M7.71491667,11.6214684 C9.87088889,11.3075443 11.3689213,9.27513924 11.0593611,7.08070886 C10.7517917,4.88729114 8.75308796,3.36324051 6.59711574,3.67716456 C4.44114352,3.99108861 2.94311111,6.02450633 3.25167593,8.21792405 C3.56024074,10.4113418 5.55794907,11.9353924 7.71491667,11.6214684" id="Fill-104" fill="#1D1C1A"></path>
                                    <path d="M8.72292824,6.64921519 C9.13302083,6.58946835 9.41869213,6.20263291 9.35996528,5.78440506 C9.30123843,5.36617722 8.92001157,5.07655696 8.50991898,5.1363038 C8.09883102,5.19605063 7.81415509,5.58288608 7.87288194,6.00111392 C7.93061343,6.41832911 8.31184028,6.70896203 8.72292824,6.64921519" id="Fill-107" fill="#FFFFFF"></path>
                                </g>
                            </g>
                            <g id="L-eye" stroke="none" stroke-width="1" fill="none" fill-rule="evenodd" mask="url(#mask-12)">
                                <g transform="translate(47.777778, 15.189873)">
                                    <path d="M7.874375,14.4196456 C11.5701852,13.8819241 14.1382407,10.3963544 13.6096991,6.63635443 C13.0791667,2.87534177 9.65509259,0.263696203 5.95828704,0.801417722 C2.26148148,1.3401519 -0.305578704,4.82470886 0.222962963,8.58572152 C0.7525,12.3457215 4.17756944,14.9583797 7.874375,14.4196456" id="Fill-110" fill="#FFFFFF"></path>
                                    <path d="M7.53415741,11.5418734 C9.691125,11.2279494 11.1891574,9.1955443 10.8795972,7.00212658 C10.5720278,4.8076962 8.57332407,3.28465823 6.41735185,3.59858228 C4.26137963,3.91250633 2.76334722,5.94491139 3.07191204,8.13832911 C3.38047685,10.3327595 5.37818519,11.8557975 7.53415741,11.5418734" id="Fill-113" fill="#1D1C1A"></path>
                                    <path d="M8.54216898,6.57002532 C8.95325694,6.51027848 9.23793287,6.12344304 9.18020139,5.70521519 C9.12147454,5.28698734 8.74024769,4.99736709 8.32915972,5.05711392 C7.91906713,5.11686076 7.63339583,5.5036962 7.69212269,5.92192405 C7.75084954,6.33913924 8.13207639,6.62977215 8.54216898,6.57002532" id="Fill-116" fill="#FFFFFF"></path>
                                </g>
                            </g>
                        </g>
                    </g>
                </g>
                <g id="R-arm" transform="translate(15.925926, 86.075949)">
                    <mask id="mask-16" fill="white">
                        <use xlink:href="#path-15"></use>
                    </mask>
                    <use id="Mask" fill="#9DDBF9" xlink:href="#path-15"></use>
                    <polygon id="Fill-122" fill="#FAF077" mask="url(#mask-16)" points="13.4655694 -0.135797468 16.6746435 3.88850633 12.5966111 5.80040506 9.21832407 1.36192405"></polygon>
                </g>
                <g id="Flag" transform="translate(96.550926, 24.303797)">
                    <path d="M0.46055787,134.932861 C1.45592824,125.99919 11.9073171,28.784 22.358706,0.42956962" id="Stroke-125" stroke="#CCCCCC" stroke-width="4" stroke-linecap="round" stroke-linejoin="round"></path>
                    <path d="M22.358706,7.51250633 C29.4945162,-3.91432911 63.8835671,8.60617722 78.8141227,18.6922532 C93.7446782,28.7783291 112.610928,27.3666835 118.085465,24.467443 C118.085465,24.467443 100.712271,39.2795949 93.2469931,40.9109873 C93.2469931,40.9109873 102.205326,47.5145316 111.661345,44.5008608 C111.661345,44.5008608 103.200697,57.1773165 87.772456,58.2983291 C72.3442153,59.4183291 39.9946782,50.9413671 31.0363449,52.2649114 C22.0780116,53.5884557 13.0509977,55.7109873 11.4096319,58.748962 C11.4096319,58.748962 16.6661829,16.6264304 22.358706,7.51250633" id="Fill-127" fill="#F3FAFD"></path>
                    <path d="M59.0960347,39.8172152 L52.3563819,38.1503797 L57.6149236,34.5625316 L50.2233032,32.7346835 L46.1343218,35.5782278 C44.4909653,36.7083544 43.9624236,37.3088608 43.7235347,38.3113924 C43.3701782,39.7888608 43.9932801,41.204557 46.0148773,41.7037975 L57.9414051,44.6526582 C59.7300856,45.0951899 60.8687894,44.4643038 61.2410579,42.9078481 C61.612331,41.3524051 60.8857106,40.2597468 59.0960347,39.8172152" id="Fill-130" fill="#F7D11E"></path>
                    <path d="M64.344125,27.8116456 C64.309287,27.4298734 64.1818796,27.0511392 63.9539398,26.7118987 L58.423662,18.4394937 C57.7050046,17.3670886 56.2696806,17.0886076 55.214588,17.8177215 L55.1727824,17.8470886 C54.1186852,18.5772152 53.8449583,20.038481 54.5626204,21.1108861 L56.7146111,24.3301266 L50.9205602,22.8972152 C48.9756065,22.4162025 47.8578056,23.075443 47.5173889,24.4992405 C47.1769722,25.9240506 47.8727361,27.0318987 49.8166944,27.5129114 L55.6246806,28.9488608 L50.7603056,32.4020253 L57.9359306,34.1762025 L62.4768102,31.1837975 C63.6294491,30.3787342 64.0614398,29.8379747 64.2694722,28.9681013 C64.3650278,28.5670886 64.3909074,28.1772152 64.344125,27.8116456" id="Fill-132" fill="#59C9E4"></path>
                </g>
            </g>
        </g>
    </g>
</svg>