<?xml version="1.0" encoding="UTF-8"?>
<svg width="160px" height="150px" viewBox="0 0 160 150" version="1.1" xmlns="http://www.w3.org/2000/svg" xmlns:xlink="http://www.w3.org/1999/xlink">
    <!-- Generator: Sketch 45.2 (43514) - http://www.bohemiancoding.com/sketch -->
    <title>Animal/Search//Tiger</title>
    <desc>Created with Sketch.</desc>
    <defs>
        <path d="M24.2454,24.276 C22.9584,25.061 18.2564,25.813 18.0454,25.854 C16.0994,26.248 13.0094,25.134 11.8064,24.421 C8.2374,22.301 6.3284,18.185 6.2094,14.177 C6.5774,10.886 8.1684,7.656 11.4724,5.88 C14.8454,4.066 12.0734,-1.214 8.6844,0.608 C3.6974,3.289 1.0594,8.048 0.3214,12.995 C0.0134,19.301 2.7954,25.933 8.6014,29.444 C10.6434,30.682 14.4934,33.332 25.1774,30.189 L24.2454,24.276 Z" id="path-1"></path>
        <path d="M24.2688,2.1779 C21.5528,8.2259 7.6618,22.4099 3.9118,23.9979 C-1.7902,26.4109 0.0378,33.3099 7.4568,35.6729 C14.7008,37.9809 24.5148,27.7839 28.0378,14.2639 C32.3238,-2.1881 25.5648,-0.7101 24.2688,2.1779" id="path-3"></path>
        <path d="M7.5203,3.4826 C12.1443,9.0526 25.8403,19.3336 29.2193,25.4766 C30.1683,27.2026 32.4993,29.2946 31.0643,31.1296 C30.2713,32.1426 27.0873,29.2606 25.5633,30.0136 C22.3543,31.5996 19.5733,31.7576 17.9593,30.7436 C14.1933,28.3786 -0.8347,6.6116 0.2203,2.5526 C1.2763,-1.5064 6.0823,1.7496 7.5203,3.4826" id="path-5"></path>
        <path d="M12.7375,11.008 C-0.7205,22.458 -9.6035,40.647 18.4655,56.019 C47.0875,71.695 46.4045,53.43 51.1655,42.675 C58.3165,26.52 73.2935,15.304 58.4035,5.796 C42.3615,-4.448 21.3995,3.638 12.7375,11.008" id="path-7"></path>
        <path d="M43.618,0.2628 C59.798,-0.5872 89.386,5.8408 90.765,32.1038 C92.145,58.3678 64.348,75.8088 47.634,76.6868 C30.918,77.5648 2.282,63.7748 0.978,38.9648 C-0.325,14.1548 27.951,1.0858 43.618,0.2628" id="path-9"></path>
        <path d="M0.8084,39.1867 C-1.7576,21.2557 14.8654,3.4747 34.8504,0.6137 C54.6484,-2.2203 75.1904,9.2327 77.7564,27.1637 C80.3224,45.0937 71.0484,61.7627 44.1534,65.6117 C15.2024,69.7557 3.3744,57.1177 0.8084,39.1867" id="path-11"></path>
        <path d="M2.35097976,19.3945189 C-0.887640904,23.2850634 11.8227188,30.4742522 23.1673227,28.4494825 C34.5119266,26.4247129 46.3072859,16.7632239 41.3694007,14.4764063 C37.9099615,12.8742819 32.1472249,19.5791295 22.3903989,21.1038111 C12.6335729,22.6284927 5.24886165,15.9133029 2.35097976,19.3945189 Z" id="path-13"></path>
        <path d="M16.6086,2.0295 C18.4416,-2.4695 0.4996,1.3725 0.4996,18.4625 C0.4996,28.8985 11.8646,36.5085 15.3836,34.8235 C18.9026,33.1385 22.4826,27.0965 19.2906,25.1145 C16.0986,23.1325 7.7376,18.0955 9.7996,12.8625 C11.8616,7.6285 15.4246,4.9355 16.6086,2.0295" id="path-15"></path>
    </defs>
    <g id="Symbols" stroke="none" stroke-width="1" fill="none" fill-rule="evenodd">
        <g id="Animal/Search//Tiger">
            <g id="Tail" transform="translate(6.000000, 68.000000)">
                <mask id="mask-2" fill="white">
                    <use xlink:href="#path-1"></use>
                </mask>
                <use id="Mask" fill="#D2662A" xlink:href="#path-1"></use>
                <path d="M7.0247,11.3185 C6.6697,12.1935 6.4517,12.3785 6.3717,13.3885 L0.3087,13.5955 C0.3077,12.2215 0.6697,10.7665 0.9117,9.7965 L7.0247,11.3185 Z" id="Fill-3" fill="#000000" mask="url(#mask-2)"></path>
                <path d="M7.6213,19.6452 L1.6903,21.8412 C1.2453,20.8712 0.6373,19.1742 0.3933,18.0832 L6.5843,16.9762 C6.5843,16.9762 7.1753,18.6752 7.6213,19.6452" id="Fill-6" fill="#000000" mask="url(#mask-2)"></path>
                <path d="M10.2288,6.9635 C9.2588,7.4095 9.1788,7.7325 8.4518,8.5825 L3.2518,5.2265 C3.7768,4.4975 4.9888,3.0825 5.8368,2.4345 L10.2288,6.9635 Z" id="Fill-8" fill="#000000" mask="url(#mask-2)"></path>
            </g>
            <path d="M31.4875,84.7047 C28.3655,94.0247 19.7375,62.3097 34.2375,55.0597 C48.7375,47.8097 51.7375,48.5597 53.7375,49.5597 C55.7375,50.5597 67.5635,55.6007 68.6505,62.9557 C69.7375,70.3097 33.7715,77.8847 31.4875,84.7047" id="Backpack" fill="#CFDEE6"></path>
            <path d="M33.5427,99.3009 C28.9277,104.0609 11.0347,112.6619 6.9677,112.8759 C0.7847,113.2019 0.1517,120.3099 6.3207,125.0599 C12.3447,129.6989 25.0467,123.4569 32.9657,111.9479 C42.6037,97.9419 35.7457,97.0279 33.5427,99.3009" id="R-leg" fill="#9DDBF8"></path>
            <g id="L-leg" transform="translate(41.000000, 112.105000)">
                <mask id="mask-4" fill="white">
                    <use xlink:href="#path-3"></use>
                </mask>
                <use id="Mask" fill="#9DDBF8" xlink:href="#path-3"></use>
                <path d="M4.387,-5.1996 C9.317,-11.4996 24.37,-2.4746 30.778,-6.7866 C37.186,-11.0986 48.772,1.9234 41.009,9.1154 C33.245,16.3084 21.96,33.3814 8.549,18.3634 C-4.863,3.3454 2.124,-2.3076 4.387,-5.1996" id="Fill-20" fill="#65C6FD" mask="url(#mask-4)"></path>
            </g>
            <g id="L-arm" transform="translate(78.000000, 84.105000)">
                <mask id="mask-6" fill="white">
                    <use xlink:href="#path-5"></use>
                </mask>
                <use id="Mask" fill="#9DDBF8" xlink:href="#path-5"></use>
                <path d="M33.6794,8.8419 C33.6794,16.8419 16.2634,19.0119 13.8744,26.3569 C11.4854,33.7009 -5.6646,30.5869 -3.9826,20.1379 C-2.3016,9.6899 -3.9376,-10.7101 15.8804,-7.1491 C35.6974,-3.5881 33.6794,5.1699 33.6794,8.8419" id="Fill-25" fill="#65C6FD" mask="url(#mask-6)"></path>
            </g>
            <g id="Body" transform="translate(25.000000, 62.000000)">
                <mask id="mask-8" fill="white">
                    <use xlink:href="#path-7"></use>
                </mask>
                <use id="Mask" fill="#FFFFFF" xlink:href="#path-7"></use>
                <path d="M56.5066,11.3297 C50.1026,20.6647 46.7376,23.3097 43.4876,34.0597 C40.1996,44.9347 37.2106,54.8097 30.7236,59.0597 C24.2376,63.3097 19.5076,62.1497 20.8626,64.6027 C28.6646,78.7277 41.3126,73.6647 48.8626,68.2897 C56.4116,62.9147 56.4876,45.1847 66.4876,33.3097 C76.4876,21.4347 76.5246,10.6357 70.1496,10.1357 C63.7746,9.6357 64.4426,3.9647 61.1636,4.8127" id="Fill-30" fill="#E4E4E4" mask="url(#mask-8)"></path>
            </g>
            <g id="Panel" transform="translate(56.000000, 62.000000)">
                <path d="M5.4875,2.99085625 C3.8885,9.43685625 1.9875,16.0948563 0.7375,18.0948563 C-0.5125,20.0948562 20.0805,30.0908563 22.9875,30.5948562 C25.8945,31.1008562 27.9685,23.9198563 29.6035,19.6328562 C31.2375,15.3448563 15.8615,0.09485625 10.6745,0.59485625 C5.4875,1.09485625 5.8475,1.53785625 5.4875,2.99085625" id="Fill-33" fill="#DFEAEF"></path>
                <path d="M8.134,5.12805625 C6.806,10.4820562 5.227,16.0120562 4.189,17.6730562 C3.151,19.3340562 20.254,27.6350562 22.668,28.0550562 C25.083,28.4740562 26.806,22.5100562 28.163,18.9490562 C29.52,15.3890562 16.75,2.72305625 12.442,3.13905625 C8.134,3.55405625 8.433,3.92205625 8.134,5.12805625" id="Fill-35" fill="#B8C5CC"></path>
                <g id="Buttons" transform="translate(7.000000, 13.035156)">
                    <path d="M16.9006,12.2536 C16.6126,12.8066 16.0056,13.0596 15.5436,12.8186 C15.0806,12.5786 14.9386,11.9356 15.2266,11.3826 C15.5136,10.8306 16.1216,10.5776 16.5836,10.8176 C17.0466,11.0586 17.1876,11.7016 16.9006,12.2536" id="Fill-43" fill="#F15B5C"></path>
                    <path d="M17.1853,12.4191 C16.8983,12.9711 16.2903,13.2241 15.8283,12.9831 C15.3653,12.7431 15.2233,12.1001 15.5113,11.5481 C15.7983,10.9961 16.4063,10.7431 16.8683,10.9831 C17.3313,11.2241 17.4733,11.8661 17.1853,12.4191" id="Fill-47" fill="#F69799"></path>
                    <path d="M14.1292,11.1711 C13.8412,11.7231 13.2332,11.9761 12.7722,11.7361 C12.3092,11.4951 12.1672,10.8531 12.4542,10.3001 C12.7422,9.7481 13.3502,9.4951 13.8122,9.7351 C14.2742,9.9761 14.4162,10.6181 14.1292,11.1711" id="Fill-49" fill="#F15B5C"></path>
                    <path d="M14.4138,11.3361 C14.1258,11.8881 13.5188,12.1411 13.0568,11.9011 C12.5938,11.6601 12.4518,11.0181 12.7398,10.4651 C13.0268,9.9131 13.6348,9.6601 14.0968,9.9001 C14.5598,10.1411 14.7008,10.7831 14.4138,11.3361" id="Fill-53" fill="#F69799"></path>
                    <path d="M5.5715,4.8927 C4.7965,6.3827 3.1565,7.0647 1.9095,6.4167 C0.6615,5.7677 0.2795,4.0337 1.0535,2.5427 C1.8295,1.0527 3.4685,0.3707 4.7165,1.0197 C5.9635,1.6677 6.3465,3.4027 5.5715,4.8927" id="Fill-37" fill="#F15B5C"></path>
                    <path d="M6.3396,5.338 C5.5646,6.828 3.9246,7.51 2.6776,6.862 C1.4296,6.213 1.0476,4.479 1.8226,2.988 C2.5976,1.498 4.2366,0.816 5.4846,1.465 C6.7326,2.113 7.1146,3.848 6.3396,5.338" id="Fill-41" fill="#F69799"></path>
                </g>
            </g>
            <g id="Animal/Head/TigerSearch" transform="translate(105.000000, 48.000000) rotate(21.000000) translate(-105.000000, -48.000000) translate(54.000000, 3.000000)">
                <path d="M54.48895,2.59162396 C80.6216152,5.3344421 102.760423,19.9780012 100.713249,39.4747905 C98.6662319,58.9705921 92.0313431,91.1387097 48.7163614,86.5917734 C5.40137964,82.0448371 -0.271861371,58.5359128 2.57076175,31.4470886 C4.85477389,9.70065211 34.3965172,0.482508271 54.48895,2.59162396 Z" id="Helmet" fill="#FFFFFF"></path>
                <g id="Head" stroke-width="1" transform="translate(50.526726, 44.876695) rotate(9.000000) translate(-50.526726, -44.876695) translate(5.026726, 6.376695)">
                    <mask id="mask-10" fill="white">
                        <use xlink:href="#path-9"></use>
                    </mask>
                    <use id="Mask" fill="#C7E7F8" xlink:href="#path-9"></use>
                    <path d="M75.1942,58.5695 C75.4592,66.5375 71.2362,70.6985 58.5222,81.7415 C45.8092,92.7845 18.9652,87.4615 23.1812,81.0365 C27.3982,74.6115 30.3982,64.2565 43.1642,60.4815 C55.9292,56.7045 75.0712,54.8585 75.1942,58.5695" id="Fill-56" fill="#E28031" mask="url(#mask-10)"></path>
                    <g id="R-ear" mask="url(#mask-10)">
                        <g transform="translate(56.000000, 3.000000)">
                            <path d="M13.3241,23.7912 C19.6171,22.8902 23.9881,17.0592 23.0881,10.7672 C22.1861,4.4752 16.3551,0.1042 10.0631,1.0042 C3.7701,1.9052 -0.5999,7.7362 0.3011,14.0282 C1.2011,20.3202 7.0321,24.6912 13.3241,23.7912" id="Fill-59" fill="#E28031"></path>
                            <path d="M12.6297,18.9347 C16.2397,18.4177 18.7477,15.0727 18.2317,11.4617 C17.7147,7.8517 14.3687,5.3437 10.7587,5.8607 C7.1487,6.3767 4.6397,9.7227 5.1567,13.3327 C5.6737,16.9437 9.0197,19.4517 12.6297,18.9347" id="Fill-61" fill="#754D24"></path>
                        </g>
                    </g>
                    <g id="L-ear" mask="url(#mask-10)">
                        <g transform="translate(7.000000, 10.000000)">
                            <path d="M13.202,23.8214 C19.495,22.9214 23.865,17.0904 22.965,10.7974 C22.064,4.5054 16.233,0.1344 9.941,1.0344 C3.648,1.9354 -0.723,7.7664 0.179,14.0584 C1.079,20.3514 6.91,24.7214 13.202,23.8214" id="Fill-64" fill="#E28031"></path>
                            <path d="M12.5076,18.9655 C16.1176,18.4485 18.6256,15.1025 18.1096,11.4925 C17.5916,7.8825 14.2456,5.3745 10.6356,5.8905 C7.0256,6.4075 4.5176,9.7535 5.0336,13.3635 C5.5506,16.9745 8.8966,19.4825 12.5076,18.9655" id="Fill-67" fill="#754D24"></path>
                        </g>
                    </g>
                    <g mask="url(#mask-10)">
                        <g transform="translate(8.000000, 9.000000)">
                            <mask id="mask-12" fill="white">
                                <use xlink:href="#path-11"></use>
                            </mask>
                            <use id="Mask" stroke="none" fill="#E28031" fill-rule="evenodd" xlink:href="#path-11"></use>
                            <path d="M1.1668,45.6515 L18.7768,42.1785 L7.7878,58.6185 C7.6018,58.6445 3.3838,54.4835 1.1668,45.6515" id="Fill-74" stroke="none" fill="#333333" fill-rule="evenodd" mask="url(#mask-12)"></path>
                            <path d="M-0.3576,31.0031 L11.7044,35.3761 L0.3384,42.5301 C0.3384,42.5301 -1.3706,34.5791 -0.3576,31.0031" id="Fill-76" stroke="none" fill="#333333" fill-rule="evenodd" mask="url(#mask-12)"></path>
                            <path d="M79.7664,34.6232 L61.8894,36.2292 L76.6214,48.6062 C76.5944,48.4192 80.1164,43.7222 79.7664,34.6232" id="Fill-79" stroke="none" fill="#333333" fill-rule="evenodd" mask="url(#mask-12)"></path>
                            <path d="M77.1209,20.1349 L66.7699,27.7159 L79.6849,31.3949 C79.6849,31.3949 79.0969,23.2829 77.1209,20.1349" id="Fill-82" stroke="none" fill="#333333" fill-rule="evenodd" mask="url(#mask-12)"></path>
                            <g id="Nose" stroke="none" stroke-width="1" fill="none" fill-rule="evenodd" mask="url(#mask-12)">
                                <g transform="translate(30.000000, 20.000000)">
                                    <polygon id="Fill-86" fill="#F1AA31" points="2.3582 2.318 13.2032 0.766 22.1232 22.644 0.4332 25.748"></polygon>
                                    <path d="M22.1229,22.6437 C22.8149,27.4817 18.5499,32.1787 12.5439,33.0387 C6.5379,33.8977 1.1269,30.5867 0.4339,25.7477" id="Fill-88" fill="#333333"></path>
                                </g>
                            </g>
                            <g id="Mouth" stroke="none" stroke-width="1" fill="none" fill-rule="evenodd" mask="url(#mask-12)">
                                <g transform="translate(21.000000, 33.000000)">
                                    <mask id="mask-14" fill="white">
                                        <use xlink:href="#path-13"></use>
                                    </mask>
                                    <use id="Mask" stroke="none" fill="#000000" fill-rule="evenodd" xlink:href="#path-13"></use>
                                    <path d="M4.9451,18.5978 C3.0941,20.8478 7.4211,25.3048 8.6611,25.1468 C9.9011,24.9878 12.4271,21.4698 11.7911,19.6658 C11.1541,17.8638 5.9141,17.4208 4.9451,18.5978" id="Fill-95" stroke="none" fill="#FFFFFF" fill-rule="evenodd" mask="url(#mask-14)"></path>
                                    <path d="M38.3475,13.817 C40.7555,15.458 37.8535,20.949 36.6185,21.145 C35.3835,21.34 31.9715,18.672 32.0765,16.763 C32.1825,14.854 37.0885,12.959 38.3475,13.817" id="Fill-97" stroke="none" fill="#FFFFFF" fill-rule="evenodd" mask="url(#mask-14)"></path>
                                </g>
                            </g>
                            <g id="R-eye" stroke="none" stroke-width="1" fill="none" fill-rule="evenodd" mask="url(#mask-12)">
                                <g transform="translate(15.000000, 20.000000)">
                                    <path d="M8.0916,14.318 C11.8056,13.786 14.3846,10.345 13.8536,6.631 C13.3216,2.918 9.8806,0.339 6.1666,0.87 C2.4526,1.401 -0.1264,4.843 0.4046,8.556 C0.9366,12.27 4.3776,14.849 8.0916,14.318" id="Fill-101" fill="#FFFFFF"></path>
                                    <g id="Pupil" stroke-width="1" fill="none" transform="translate(4.300557, 4.818942)">
                                        <path d="M4.7508,8.4762 C6.9168,8.1662 8.4218,6.1592 8.1108,3.9922 C7.8018,1.8262 5.7938,0.3212 3.6278,0.6312 C1.4618,0.9412 -0.0432,2.9492 0.2668,5.1152 C0.5768,7.2812 2.5838,8.7862 4.7508,8.4762" id="Fill-104" fill="#1D1C1A"></path>
                                        <path d="M5.7635,3.5661 C6.1755,3.5071 6.4625,3.1251 6.4035,2.7121 C6.3445,2.2991 5.9615,2.0131 5.5495,2.0721 C5.1365,2.1311 4.8505,2.5131 4.9095,2.9261 C4.9675,3.3381 5.3505,3.6251 5.7635,3.5661" id="Fill-107" fill="#FFFFFF"></path>
                                    </g>
                                </g>
                            </g>
                            <g id="L-eye" stroke="none" stroke-width="1" fill="none" fill-rule="evenodd" mask="url(#mask-12)">
                                <g transform="translate(48.000000, 15.000000)">
                                    <path d="M7.911,14.2394 C11.624,13.7084 14.204,10.2664 13.673,6.5534 C13.14,2.8394 9.7,0.2604 5.986,0.7914 C2.272,1.3234 -0.307,4.7644 0.224,8.4784 C0.756,12.1914 4.197,14.7714 7.911,14.2394" id="Fill-110" fill="#FFFFFF"></path>
                                    <g id="Pupil" stroke-width="1" fill="none" transform="translate(4.300557, 4.818942)">
                                        <path d="M4.5692,8.3976 C6.7362,8.0876 8.2412,6.0806 7.9302,3.9146 C7.6212,1.7476 5.6132,0.2436 3.4472,0.5536 C1.2812,0.8636 -0.2238,2.8706 0.0862,5.0366 C0.3962,7.2036 2.4032,8.7076 4.5692,8.3976" id="Fill-113" fill="#1D1C1A"></path>
                                        <path d="M5.5819,3.4879 C5.9949,3.4289 6.2809,3.0469 6.2229,2.6339 C6.1639,2.2209 5.7809,1.9349 5.3679,1.9939 C4.9559,2.0529 4.6689,2.4349 4.7279,2.8479 C4.7869,3.2599 5.1699,3.5469 5.5819,3.4879" id="Fill-116" fill="#FFFFFF"></path>
                                    </g>
                                </g>
                            </g>
                        </g>
                    </g>
                </g>
            </g>
            <g id="R-arm" transform="translate(42.000000, 68.000000)">
                <mask id="mask-16" fill="white">
                    <use xlink:href="#path-15"></use>
                </mask>
                <use id="Mask" fill="#9DDBF8" xlink:href="#path-15"></use>
                <polygon id="Fill-124" fill="#FAF077" mask="url(#mask-16)" points="6.675 2.0602 11.175 4.4982 8.112 7.8102 3.3 5.0602"></polygon>
            </g>
        </g>
    </g>
</svg>