<?xml version="1.0" encoding="UTF-8"?>
<svg width="110px" height="110px" viewBox="0 0 110 110" version="1.1" xmlns="http://www.w3.org/2000/svg" xmlns:xlink="http://www.w3.org/1999/xlink">
    <!-- Generator: Sketch 44.1 (41455) - http://www.bohemiancoding.com/sketch -->
    <title>Planets/Waves_Continuation</title>
    <desc>Created with Sketch.</desc>
    <defs>
        <path d="M10.5128062,19.3311269 C27.4510177,-2.47636484 58.8604061,-6.42442991 80.6678978,10.5127692 C102.476402,27.4509807 106.424467,58.8603691 89.4872678,80.6688731 C72.5490563,102.476365 41.1396679,106.42443 19.3311639,89.4872308 C-2.47632783,72.548007 -6.4243929,41.1396309 10.5128062,19.3311269" id="path-1"></path>
    </defs>
    <g id="Symbols" stroke="none" stroke-width="1" fill="none" fill-rule="evenodd">
        <g id="Planets/Waves_Continuation">
            <g id="Waves_DarkPurple" transform="translate(5.000000, 5.000000)">
                <mask id="mask-2" fill="white">
                    <use xlink:href="#path-1"></use>
                </mask>
                <use id="Mask" fill="#420D6C" xlink:href="#path-1"></use>
                <path d="M30.7575248,34.2163366 L30.7575248,34.2163366 C29.3387129,36.0430693 29.6931683,38.6915842 31.5476238,40.1321782 L56.9505941,59.8608911 C58.000099,60.6777228 58.2010891,62.1767327 57.3981188,63.210396 C56.5951485,64.2440594 55.0921782,64.4212871 54.0426733,63.6064356 L46.1109901,57.4460396 C44.1476238,55.920297 41.3387129,56.2519802 39.8367327,58.1846535 L36.8406931,62.0420792 C36.2664356,62.7816832 35.1921782,62.9084158 34.4416832,62.3252475 L31.2426733,59.840099 C29.3872277,58.399505 26.7337624,58.7113861 25.3149505,60.5381188 C23.8971287,62.3648515 24.2505941,65.0123762 26.1060396,66.4549505 L40.3327723,77.5034653 C41.7505941,78.6054455 42.0208911,80.630198 40.9367327,82.0262376 C39.8525743,83.4232673 37.8228713,83.6618812 36.4050495,82.5608911 L29.4377228,77.1490099 C28.1842574,76.1757426 26.3921782,76.3876238 25.4347525,77.620297 C24.4763366,78.8539604 24.7149505,80.6430693 25.9684158,81.6153465 L26.9466337,82.3757426 C27.6981188,82.9579208 27.8406931,84.0311881 27.2664356,84.769802 L23.270396,89.9143564 C22.6971287,90.6539604 22.839703,91.7252475 23.5911881,92.3094059 C23.5911881,92.3094059 73.2070297,118.233168 73.7812871,117.493564 L127.718911,48.0480198 C128.293168,47.3094059 85.8347525,17.5163366 85.8347525,17.5163366 C85.0842574,16.9331683 84.01,17.0589109 83.4367327,17.7985149 L82.9367327,18.4420792 C82.3624752,19.1816832 81.2882178,19.3074257 80.5367327,18.7252475 L78.3456436,17.0222772 C76.490198,15.5816832 73.8367327,15.8945545 72.4179208,17.7212871 C71.000099,19.5470297 71.3535644,22.1955446 73.2090099,23.6361386 L76.1278218,25.9034653 C77.4307921,26.9153465 77.6793069,28.7757426 76.6832673,30.0589109 C75.6862376,31.3420792 73.8228713,31.5618812 72.519901,30.5490099 L66.8812871,26.1707921 C66.1307921,25.5876238 65.0565347,25.7133663 64.4822772,26.4529703 L58.8555446,33.6965347 C58.2822772,34.4361386 57.2080198,34.5628713 56.4575248,33.979703 L44.619901,24.7866337 C42.7654455,23.3460396 40.1119802,23.6579208 38.6931683,25.4846535 C37.2753465,27.310396 37.6288119,29.959901 39.4832673,31.400495 L58.9505941,46.5193069 C59.7010891,47.1024752 59.8436634,48.1747525 59.2694059,48.9143564 C58.6961386,49.6529703 57.6218812,49.779703 56.8713861,49.1965347 L36.6842574,33.5183168 C34.829802,32.0777228 32.1763366,32.389604 30.7575248,34.2163366" id="Fill-4" fill="#2B0A50" mask="url(#mask-2)"></path>
                <path d="M98.5772345,35.2310534 C84.0038323,35.2310534 99.4220694,53.3629003 67.086858,73.8433882 C34.7516466,94.3238761 19.4871694,71.0131912 7.52937605,79.2655387 C-4.4284173,87.5178861 -0.390106419,92.6392753 7.52937605,96.192651 C15.4488585,99.7460266 48.1321419,126.251877 78.8908914,100.469205 C109.649641,74.6865334 113.150637,35.2310534 98.5772345,35.2310534 Z" id="Path-2" fill-opacity="0.25" fill="#2B004D" mask="url(#mask-2)"></path>
            </g>
        </g>
    </g>
</svg>