<?xml version="1.0" encoding="UTF-8"?>
<svg width="110px" height="110px" viewBox="0 0 110 110" version="1.1" xmlns="http://www.w3.org/2000/svg" xmlns:xlink="http://www.w3.org/1999/xlink">
    <!-- Generator: Sketch 44.1 (41455) - http://www.bohemiancoding.com/sketch -->
    <title>Planets/Waves_Blue</title>
    <desc>Created with Sketch.</desc>
    <defs>
        <radialGradient cx="50.8963466%" cy="50%" fx="50.8963466%" fy="50%" r="50%" id="radialGradient-1">
            <stop stop-color="#000000" offset="0%"></stop>
            <stop stop-color="#000000" stop-opacity="0" offset="100%"></stop>
        </radialGradient>
        <path d="M11.012777,19.8311042 C27.951001,-1.97640368 59.3604127,-5.92447167 81.1679205,11.01274 C102.976441,27.950964 106.924509,59.3603757 89.987297,81.1688958 C73.049073,102.976404 41.6396613,106.924472 19.8311412,89.98726 C-1.97636667,73.0480237 -5.92443466,41.6396243 11.012777,19.8311042" id="path-2"></path>
    </defs>
    <g id="Symbols" stroke="none" stroke-width="1" fill="none" fill-rule="evenodd">
        <g id="Planets/Waves_Blue">
            <circle id="Moon-Shadow" fill="url(#radialGradient-1)" cx="55" cy="55" r="55"></circle>
            <g id="Waves_Blue" transform="translate(4.500000, 4.500000)">
                <mask id="mask-3" fill="white">
                    <use xlink:href="#path-2"></use>
                </mask>
                <use id="Mask" fill="#F3FDFF" xlink:href="#path-2"></use>
                <path d="M31.0651,34.5585 L31.0651,34.5585 C29.6321,36.4035 29.9901,39.0785 31.8631,40.5335 L57.5201,60.4595 C58.5801,61.2845 58.7831,62.7985 57.9721,63.8425 C57.1611,64.8865 55.6431,65.0655 54.5831,64.2425 L46.5721,58.0205 C44.5891,56.4795 41.7521,56.8145 40.2351,58.7665 L37.2091,62.6625 C36.6291,63.4095 35.5441,63.5375 34.7861,62.9485 L31.5551,60.4385 C29.6811,58.9835 27.0011,59.2985 25.5681,61.1435 C24.1361,62.9885 24.4931,65.6625 26.3671,67.1195 L40.7361,78.2785 C42.1681,79.3915 42.4411,81.4365 41.3461,82.8465 C40.2511,84.2575 38.2011,84.4985 36.7691,83.3865 L29.7321,77.9205 C28.4661,76.9375 26.6561,77.1515 25.6891,78.3965 C24.7211,79.6425 24.9621,81.4495 26.2281,82.4315 L27.2161,83.1995 C27.9751,83.7875 28.1191,84.8715 27.5391,85.6175 L23.5031,90.8135 C22.9241,91.5605 23.0681,92.6425 23.8271,93.2325 C23.8271,93.2325 73.9391,119.4155 74.5191,118.6685 L128.9961,48.5285 C129.5761,47.7825 86.6931,17.6915 86.6931,17.6915 C85.9351,17.1025 84.8501,17.2295 84.2711,17.9765 L83.7661,18.6265 C83.1861,19.3735 82.1011,19.5005 81.3421,18.9125 L79.1291,17.1925 C77.2551,15.7375 74.5751,16.0535 73.1421,17.8985 C71.7101,19.7425 72.0671,22.4175 73.9411,23.8725 L76.8891,26.1625 C78.2051,27.1845 78.4561,29.0635 77.4501,30.3595 C76.4431,31.6555 74.5611,31.8775 73.2451,30.8545 L67.5501,26.4325 C66.7921,25.8435 65.7071,25.9705 65.1271,26.7175 L59.4441,34.0335 C58.8651,34.7805 57.7801,34.9085 57.0221,34.3195 L45.0661,25.0345 C43.1931,23.5795 40.5131,23.8945 39.0801,25.7395 C37.6481,27.5835 38.0051,30.2595 39.8781,31.7145 L59.5401,46.9845 C60.2981,47.5735 60.4421,48.6565 59.8621,49.4035 C59.2831,50.1495 58.1981,50.2775 57.4401,49.6885 L37.0511,33.8535 C35.1781,32.3985 32.4981,32.7135 31.0651,34.5585" id="Fill-4" fill="#C7E7F8" mask="url(#mask-3)"></path>
                <path d="M99.5772345,35.2310534 C85.0038323,35.2310534 100.422069,53.3629003 68.086858,73.8433882 C35.7516466,94.3238761 20.4871694,71.0131912 8.52937605,79.2655387 C-3.4284173,87.5178861 0.609893581,92.6392753 8.52937605,96.192651 C16.4488585,99.7460266 49.1321419,126.251877 79.8908914,100.469205 C110.649641,74.6865334 114.150637,35.2310534 99.5772345,35.2310534 Z" id="Path-2" fill-opacity="0.5" fill="#99DCFF" mask="url(#mask-3)"></path>
            </g>
        </g>
    </g>
</svg>